<?xml version="1.0" encoding="UTF-8"?>
<svg version="1.1" xmlns="http://www.w3.org/2000/svg" width="512" height="512">
<path d="M0 0 C1.14315747 2.28631494 1.12112732 3.54347406 1.11352539 6.08251953 C1.11344986 6.92324005 1.11337433 7.76396057 1.11329651 8.63015747 C1.10555458 9.99272171 1.10555458 9.99272171 1.09765625 11.3828125 C1.09553383 12.77691849 1.09553383 12.77691849 1.09336853 14.19918823 C1.08776053 17.17449124 1.07520668 20.14971964 1.0625 23.125 C1.05748603 25.13932183 1.05292295 27.15364484 1.04882812 29.16796875 C1.0377885 34.11200802 1.02051849 39.05599135 1 44 C1.94617188 44.14856445 2.89234375 44.29712891 3.8671875 44.45019531 C11.57475941 45.80286457 18.24525653 50.25934835 22.85546875 56.51953125 C30.03085219 67.33438753 31.77983413 78.41995318 29.41796875 91.1328125 C26.1833877 101.5011956 18.63245945 108.57005276 9.45703125 113.94140625 C7 115 7 115 1 116 C1 129.86 1 143.72 1 158 C6.68669922 157.93039063 6.68669922 157.93039063 12.48828125 157.859375 C16.15192322 157.82819804 19.81555053 157.80389953 23.47924805 157.78027344 C26.02944532 157.76013303 28.57959628 157.73281903 31.12963867 157.69824219 C34.79096897 157.64983261 38.45168982 157.62705526 42.11328125 157.609375 C43.82902092 157.57840729 43.82902092 157.57840729 45.579422 157.54681396 C46.64029526 157.54651184 47.70116852 157.54620972 48.79418945 157.54589844 C49.72906693 157.53701599 50.6639444 157.52813354 51.62715149 157.51898193 C54 158 54 158 55.77482605 159.85308838 C57.27998745 162.49063099 57.82877356 164.90320506 58.4375 167.875 C60.0212065 174.52495127 62.00504591 178.82125249 67.6875 182.8125 C72.80918236 185.74324046 77.5782782 186.63633978 83.39453125 185.5546875 C89.17908048 183.88551409 92.85929244 181.4206411 96.1171875 176.21484375 C98.45789215 171.91785674 99.65028917 167.80434404 100.41015625 162.98046875 C101.16857105 160.43400316 101.85968347 159.59524629 104 158 C107.03100586 157.59594727 107.03100586 157.59594727 110.71484375 157.56640625 C111.36699356 157.5611644 112.01914337 157.55592255 112.6910553 157.55052185 C114.06868061 157.54410653 115.44636073 157.54543243 116.82397461 157.55395508 C118.92726701 157.56245863 121.02783583 157.53371639 123.13085938 157.50195312 C124.47135336 157.50034071 125.81185213 157.50091941 127.15234375 157.50390625 C128.36913818 157.50205322 129.58593262 157.5002002 130.83959961 157.49829102 C134.57500493 158.0912812 135.76638394 158.99923156 138 162 C140.65142298 184.96795154 125.48414079 208.14158433 112.375 225.625 C94.90201308 248.96103606 88.75667838 273.56967592 87.71484375 302.25268555 C87.26144386 313.90925176 84.79331108 323.91064594 77 333 C69.3271719 340 69.3271719 340 66 340 C66.495 341.216875 66.99 342.43375 67.5 343.6875 C70.42953696 352.61628013 69.96810035 361.8797917 66.3984375 370.55078125 C63.48368718 375.65566519 59.3720932 378.86552064 54.125 381.375 C49.774903 382.2450194 45.4207625 382.66800598 41 383 C41.165 383.66 41.33 384.32 41.5 385 C42.96429203 393.7857522 41.79418468 402.3954312 37 410 C31.84034691 415.75013111 25.79022066 418.53323593 18.09249878 419.28330994 C14.78730484 419.39469311 11.49452963 419.41589687 8.1875 419.3984375 C6.97860107 419.40130768 5.76970215 419.40417786 4.52416992 419.40713501 C1.97932464 419.40916796 -0.56553655 419.40369221 -3.11035156 419.39111328 C-6.98798834 419.37504976 -10.86458284 419.39098938 -14.7421875 419.41015625 C-17.22396062 419.40817368 -19.70573309 419.40432973 -22.1875 419.3984375 C-23.33774658 419.40451019 -24.48799316 419.41058289 -25.6730957 419.4168396 C-33.47482801 419.34924321 -39.97460264 418.37864389 -46.75 414.375 C-52.95938076 407.82065364 -55.14747172 400.82506722 -55.125 391.9375 C-55.12886719 390.40416016 -55.12886719 390.40416016 -55.1328125 388.83984375 C-55.01793538 386.38350068 -54.70775041 384.34231684 -54 382 C-54.6290625 382.03480469 -55.258125 382.06960938 -55.90625 382.10546875 C-63.95777118 382.36011023 -69.75599629 381.36218332 -75.8125 375.8125 C-82.9535833 367.90513607 -82.64156295 359.06893171 -82.21337891 348.95996094 C-81.90650335 346.14120009 -81.03937389 343.62535078 -80 341 C-80.56847656 340.59910156 -81.13695312 340.19820313 -81.72265625 339.78515625 C-92.06525787 332.17065322 -98.26212419 323.59354418 -100.578125 310.80859375 C-100.99805616 307.01754858 -101.17681988 303.28721139 -101.28979492 299.47753906 C-102.160684 270.96028862 -109.25270942 248.79973355 -125.74829102 225.47631836 C-148.98996778 192.59657121 -157.10921054 158.1109026 -151 118 C-144.16854651 80.13109792 -122.82050871 45.75993841 -91.375 23.375 C-83.65390621 18.08740963 -75.53896668 13.80016609 -67 10 C-65.80117187 9.45730469 -64.60234375 8.91460937 -63.3671875 8.35546875 C-48.78249364 2.13413606 -14.09304307 -10.77703293 0 0 Z " fill="#333434" transform="translate(232,79)"/>
<path d="M0 0 C30.47672503 15.61791236 54.79399249 39.82837506 68.75 71.1875 C69.29269531 72.38632813 69.83539063 73.58515625 70.39453125 74.8203125 C78.86107574 94.6684649 82.8128364 116.60870042 81.75 138.1875 C81.69714844 139.36054688 81.64429688 140.53359375 81.58984375 141.7421875 C80.79950325 155.56596141 80.79950325 155.56596141 77.45629883 159.84228516 C75.26396329 161.57068247 74.0672614 161.53616969 71.30078125 161.48046875 C70.45322266 161.47080078 69.60566406 161.46113281 68.73242188 161.45117188 C67.85134766 161.42603516 66.97027344 161.40089844 66.0625 161.375 C65.16982422 161.36146484 64.27714844 161.34792969 63.35742188 161.33398438 C61.15433834 161.29864079 58.95247418 161.24930493 56.75 161.1875 C56.56630859 162.53714844 56.56630859 162.53714844 56.37890625 163.9140625 C54.77217885 172.27702873 49.30516892 178.97290288 42.75 184.1875 C32.33416256 190.49965412 21.53282971 191.80223142 9.60546875 189.609375 C-0.75492201 186.34859393 -7.81724091 178.8247627 -13.19140625 169.64453125 C-14.40050508 166.8381727 -14.79105986 164.19863286 -15.25 161.1875 C-15.90510559 161.19638245 -16.56021118 161.20526489 -17.23516846 161.2144165 C-24.04812909 161.3028505 -30.86092693 161.3632181 -37.67431641 161.40722656 C-40.21767803 161.42735272 -42.76099333 161.45465637 -45.30419922 161.48925781 C-48.95812404 161.5377297 -52.61143756 161.56045916 -56.265625 161.578125 C-57.40429016 161.59877014 -58.54295532 161.61941528 -59.71612549 161.64068604 C-60.77692322 161.64098816 -61.83772095 161.64129028 -62.93066406 161.64160156 C-63.86332092 161.65048401 -64.79597778 161.65936646 -65.75689697 161.66851807 C-69.12088808 161.01947128 -70.25718245 159.95284109 -72.25 157.1875 C-72.75120544 154.3416748 -72.75120544 154.3416748 -72.75170898 151.01367188 C-72.76108994 149.76557739 -72.77047089 148.51748291 -72.78013611 147.23156738 C-72.76965774 145.87312127 -72.75828871 144.51468178 -72.74609375 143.15625 C-72.74624878 141.75907313 -72.74773838 140.36189582 -72.75050354 138.96472168 C-72.75188682 136.03927555 -72.73934239 133.11432012 -72.71655273 130.18896484 C-72.68816753 126.44283058 -72.69090598 122.69751142 -72.70364285 118.95131683 C-72.71060451 116.06704775 -72.70280533 113.18296642 -72.69038582 110.29872131 C-72.685876 108.91765564 -72.68553043 107.53656979 -72.68945122 106.15550232 C-72.69236784 104.22407708 -72.67368049 102.29265583 -72.65405273 100.36132812 C-72.64864975 99.26308716 -72.64324677 98.16484619 -72.63768005 97.0333252 C-72.20219187 93.83655708 -71.50681016 92.46228633 -69.25 90.1875 C-66.39453125 89.3515625 -66.39453125 89.3515625 -63.0625 88.8125 C-56.9210033 87.52675236 -52.46698541 85.95362601 -48.25 81.1875 C-44.84040557 75.9419701 -43.0840444 70.40989571 -44.25 64.1875 C-46.38607303 57.04725588 -49.57267131 52.88050743 -56.0546875 49.1484375 C-59.73372058 47.53804224 -63.6557931 46.90386456 -67.5703125 46.06640625 C-70.25 45.1875 -70.25 45.1875 -72.25 42.1875 C-72.51069641 39.87953186 -72.51069641 39.87953186 -72.5246582 37.13696289 C-72.53419022 36.10902115 -72.54372223 35.08107941 -72.55354309 34.02198792 C-72.55263168 32.91258347 -72.55172028 31.80317902 -72.55078125 30.66015625 C-72.55506638 29.51969345 -72.5593515 28.37923065 -72.56376648 27.20420837 C-72.56951289 24.79084945 -72.57000777 22.3774732 -72.56567383 19.96411133 C-72.56251546 16.26809177 -72.58596469 12.57287358 -72.61132812 8.87695312 C-72.6136012 6.53385518 -72.61430458 4.19075508 -72.61328125 1.84765625 C-72.622491 0.74027603 -72.63170074 -0.36710419 -72.64118958 -1.50804138 C-72.63496078 -2.53913528 -72.62873199 -3.57022919 -72.62231445 -4.63256836 C-72.62294388 -5.53841171 -72.6235733 -6.44425507 -72.6242218 -7.37754822 C-72.17190469 -10.32064336 -71.29691883 -11.67392053 -69.25 -13.8125 C-49.25898079 -20.47617307 -18.01261935 -8.8950129 0 0 Z " fill="#F5D879" transform="translate(351.25,28.8125)"/>
<path d="M0 0 C1.91232422 0.00241699 1.91232422 0.00241699 3.86328125 0.00488281 C3.87786377 1.1956543 3.89244629 2.38642578 3.9074707 3.61328125 C3.9654736 8.03415858 4.0427064 12.45452762 4.12573242 16.875 C4.15897239 18.78767646 4.18700724 20.70045078 4.2097168 22.61328125 C4.24327994 25.36403075 4.29559614 28.11388414 4.3515625 30.86425781 C4.35795242 31.71856384 4.36434235 32.57286987 4.3709259 33.45306396 C4.45866545 37.00148235 4.5228881 39.38063782 6.24194336 42.53320312 C8.45774884 44.54447785 10.16254423 44.67519153 13.11328125 45.00488281 C20.30468064 46.12291328 24.63521449 48.15039129 29.23828125 54.00488281 C33.29576983 59.55951959 33.54373809 65.28906963 32.86328125 72.00488281 C31.25219974 78.41842386 28.26961329 82.21316145 22.8046875 85.85644531 C19.06673264 88.06762988 16.02452862 89.02155125 11.73828125 89.44238281 C8.04899472 89.67787119 8.04899472 89.67787119 6.14811707 91.22041321 C4.42684357 93.61103791 4.4664273 95.18501879 4.4309082 98.11889648 C4.41111404 99.15974899 4.39131989 100.2006015 4.3709259 101.272995 C4.36453598 102.39494766 4.35814606 103.51690033 4.3515625 104.67285156 C4.3246357 106.3977758 4.3246357 106.3977758 4.29716492 108.157547 C4.24291864 111.83578813 4.20911954 115.51389845 4.17578125 119.19238281 C4.14262091 121.68393753 4.10813247 124.17547496 4.07226562 126.66699219 C3.98468016 132.77964274 3.92473103 138.89168962 3.86328125 145.00488281 C-9.99671875 145.00488281 -23.85671875 145.00488281 -38.13671875 145.00488281 C-40.44671875 140.38488281 -42.75671875 135.76488281 -45.13671875 131.00488281 C-51.11457444 123.83145598 -57.69894416 118.57784524 -67.13671875 117.00488281 C-79.70065821 116.16830089 -89.33603892 117.79882913 -99.13671875 126.00488281 C-104.5692041 131.59809259 -107.6684334 137.66135061 -110.13671875 145.00488281 C-113.10671875 145.00488281 -116.07671875 145.00488281 -119.13671875 145.00488281 C-119.21212585 140.70397135 -119.26589834 136.40343255 -119.30151367 132.10205078 C-119.31639499 130.64560221 -119.33670671 129.18919673 -119.36303711 127.73291016 C-119.538985 117.73492975 -118.68182584 108.7495426 -116.13671875 99.00488281 C-115.94311768 98.20453613 -115.7495166 97.40418945 -115.55004883 96.57958984 C-107.4751303 63.92271934 -85.44711307 35.68176158 -57.02514648 18.09887695 C-39.82251923 7.78987017 -20.3142501 -0.02567524 0 0 Z " fill="#13BE6C" transform="translate(214.13671875,91.9951171875)"/>
<path d="M0 0 C6.60725817 5.66945379 8.62531269 11.28156891 10.078125 19.80078125 C10.57589841 22.87514052 10.57589841 22.87514052 13.81640625 24.55859375 C16.17870971 24.88602804 16.17870971 24.88602804 18.83862305 24.87744141 C19.8594548 24.8973111 20.88028656 24.91718079 21.93205261 24.93765259 C23.0321315 24.9492038 24.13221039 24.960755 25.265625 24.97265625 C26.95725517 25.00170547 26.95725517 25.00170547 28.68305969 25.03134155 C32.28993128 25.09118682 35.89683469 25.13754297 39.50390625 25.18359375 C41.94727965 25.22176893 44.39063953 25.26082039 46.83398438 25.30078125 C52.82805519 25.39854387 58.82197954 25.47807476 64.81640625 25.55859375 C64.81640625 39.41859375 64.81640625 53.27859375 64.81640625 67.55859375 C60.85640625 69.20859375 56.89640625 70.85859375 52.81640625 72.55859375 C45.10520275 78.29256558 38.53202082 85.74454049 36.81640625 95.55859375 C35.99845469 105.96401033 36.60280404 115.63968299 42.8046875 124.3515625 C49.37783664 132.03726538 55.12759329 135.79036148 64.81640625 138.55859375 C64.81640625 152.74859375 64.81640625 166.93859375 64.81640625 181.55859375 C56.98629871 181.69659173 49.16043436 181.8159656 41.33007812 181.88818359 C38.66790897 181.91490244 36.00768885 181.9591823 33.34570312 182.01123047 C29.51277258 182.08427959 25.68115757 182.11810736 21.84765625 182.14453125 C20.07219421 182.19098282 20.07219421 182.19098282 18.26086426 182.2383728 C11.57593389 182.24107638 7.48428451 181.59494895 2.38293457 177.12515259 C1.86598022 176.60818817 1.34902588 176.09122375 0.81640625 175.55859375 C-0.11171875 174.63046875 -1.03984375 173.70234375 -1.99609375 172.74609375 C-6.96399602 165.50715044 -7.61051234 158.083878 -7.74609375 149.49609375 C-8.75010229 117.64164088 -16.80146652 93.65381414 -35.48681641 67.90966797 C-41.99400823 58.89322808 -48.07228606 49.95385142 -52.18359375 39.55859375 C-52.50070313 38.81867188 -52.8178125 38.07875 -53.14453125 37.31640625 C-54.83699376 33.20170382 -55.30175314 29.96780453 -55.18359375 25.55859375 C-54.1471875 25.5328125 -53.11078125 25.50703125 -52.04296875 25.48046875 C-50.67313574 25.42417424 -49.3033457 25.3668272 -47.93359375 25.30859375 C-47.25167969 25.29441406 -46.56976563 25.28023437 -45.8671875 25.265625 C-42.56046618 25.10510455 -40.4881687 24.77376122 -37.76171875 22.84765625 C-35.92523944 20.1838521 -35.54203485 18.38268053 -35.18359375 15.18359375 C-34.03906339 7.81751372 -30.7473016 3.43748186 -25.02734375 -1.1796875 C-17.34711633 -6.43543635 -7.31977173 -5.21995843 0 0 Z " fill="#FA5C3C" transform="translate(153.18359375,226.44140625)"/>
<path d="M0 0 C13.86 0 27.72 0 42 0 C44.31 4.62 46.62 9.24 49 14 C55.57315859 22.21644824 63.47703719 27.1184028 74 28.3515625 C84.46267267 28.82942495 93.72320266 26.02820088 101.9375 19.4375 C107.4603243 14.1079237 110.59779113 7.2066266 113 0 C115.31 0 117.62 0 120 0 C117.57629028 16.35099693 109.22162404 29.7224346 99.625 42.8125 C80.75801707 68.59459194 72.77214907 93.86945292 71.8359375 125.8984375 C71.55121839 135.07690848 70.87138285 142.90427715 64.21875 149.86328125 C59.84758739 153.74361416 56.51760071 156.25401169 50.51879883 156.22705078 C49.39786331 156.22689972 48.2769278 156.22674866 47.12202454 156.22659302 C45.30785286 156.21110916 45.30785286 156.21110916 43.45703125 156.1953125 C41.59893074 156.19106766 41.59893074 156.19106766 39.70329285 156.18673706 C36.41361913 156.17743186 33.12414137 156.15946791 29.83453369 156.1373291 C26.47630206 156.1168527 23.11804172 156.10773152 19.75976562 156.09765625 C13.17310027 156.07558271 6.58656617 156.04209522 0 156 C-0.00879936 155.05492584 -0.00879936 155.05492584 -0.01777649 154.09075928 C-0.08167861 147.53693444 -0.1660902 140.9836021 -0.26245117 134.43017578 C-0.29571877 131.98395274 -0.32374491 129.5376526 -0.34643555 127.09130859 C-0.37994708 123.57616295 -0.43226276 120.06172505 -0.48828125 116.546875 C-0.49467117 115.4519574 -0.5010611 114.35703979 -0.50764465 113.22894287 C-0.53733589 111.69780853 -0.53733589 111.69780853 -0.56762695 110.13574219 C-0.57873001 109.23861511 -0.58983307 108.34148804 -0.60127258 107.41717529 C-1.07986435 104.51584432 -1.99395156 103.12439988 -4 101 C-6.41875468 100.3061106 -6.41875468 100.3061106 -9.125 100.125 C-15.76417736 99.12252819 -20.96028873 96.49440493 -25.41015625 91.37890625 C-29.93711005 84.87242427 -29.89786139 77.64876257 -29 70 C-26.10747774 63.6422749 -20.3614905 58.74851855 -14 56 C-11.92830754 55.56526661 -9.84272249 55.19345777 -7.75 54.875 C-6.13351563 54.62363281 -6.13351563 54.62363281 -4.484375 54.3671875 C-3.66453125 54.24601562 -2.8446875 54.12484375 -2 54 C-1.11283291 50.93194186 -0.85105042 48.1451382 -0.79467773 44.95605469 C-0.77473251 43.95531921 -0.75478729 42.95458374 -0.73423767 41.92352295 C-0.71752518 40.85047913 -0.70081268 39.7774353 -0.68359375 38.671875 C-0.66281265 37.56773254 -0.64203156 36.46359009 -0.62062073 35.32598877 C-0.55526354 31.80072217 -0.49630436 28.27538141 -0.4375 24.75 C-0.39430164 22.35936735 -0.35068693 19.96874218 -0.30664062 17.578125 C-0.19881323 11.71882489 -0.0996364 5.85946806 0 0 Z " fill="#54B4E4" transform="translate(233,252)"/>
<path d="M0 0 C30.47672503 15.61791236 54.79399249 39.82837506 68.75 71.1875 C69.29269531 72.38632813 69.83539063 73.58515625 70.39453125 74.8203125 C78.86107574 94.6684649 82.8128364 116.60870042 81.75 138.1875 C81.69714844 139.36054688 81.64429688 140.53359375 81.58984375 141.7421875 C80.79950325 155.56596141 80.79950325 155.56596141 77.45629883 159.84228516 C75.26396329 161.57068247 74.0672614 161.53616969 71.30078125 161.48046875 C70.45322266 161.47080078 69.60566406 161.46113281 68.73242188 161.45117188 C67.85134766 161.42603516 66.97027344 161.40089844 66.0625 161.375 C65.16982422 161.36146484 64.27714844 161.34792969 63.35742188 161.33398438 C61.15433834 161.29864079 58.95247418 161.24930493 56.75 161.1875 C56.56630859 162.53714844 56.56630859 162.53714844 56.37890625 163.9140625 C54.77217885 172.27702873 49.30516892 178.97290288 42.75 184.1875 C32.33416256 190.49965412 21.53282971 191.80223142 9.60546875 189.609375 C-0.75492201 186.34859393 -7.81724091 178.8247627 -13.19140625 169.64453125 C-14.40050508 166.8381727 -14.79105986 164.19863286 -15.25 161.1875 C-15.90510559 161.19638245 -16.56021118 161.20526489 -17.23516846 161.2144165 C-24.04812909 161.3028505 -30.86092693 161.3632181 -37.67431641 161.40722656 C-40.21767803 161.42735272 -42.76099333 161.45465637 -45.30419922 161.48925781 C-48.95812404 161.5377297 -52.61143756 161.56045916 -56.265625 161.578125 C-57.40429016 161.59877014 -58.54295532 161.61941528 -59.71612549 161.64068604 C-60.77692322 161.64098816 -61.83772095 161.64129028 -62.93066406 161.64160156 C-63.86332092 161.65048401 -64.79597778 161.65936646 -65.75689697 161.66851807 C-69.12088808 161.01947128 -70.25718245 159.95284109 -72.25 157.1875 C-72.75120544 154.3416748 -72.75120544 154.3416748 -72.75170898 151.01367188 C-72.76108994 149.76557739 -72.77047089 148.51748291 -72.78013611 147.23156738 C-72.76965774 145.87312127 -72.75828871 144.51468178 -72.74609375 143.15625 C-72.74624878 141.75907313 -72.74773838 140.36189582 -72.75050354 138.96472168 C-72.75188682 136.03927555 -72.73934239 133.11432012 -72.71655273 130.18896484 C-72.68816753 126.44283058 -72.69090598 122.69751142 -72.70364285 118.95131683 C-72.71060451 116.06704775 -72.70280533 113.18296642 -72.69038582 110.29872131 C-72.685876 108.91765564 -72.68553043 107.53656979 -72.68945122 106.15550232 C-72.69236784 104.22407708 -72.67368049 102.29265583 -72.65405273 100.36132812 C-72.64864975 99.26308716 -72.64324677 98.16484619 -72.63768005 97.0333252 C-72.20219187 93.83655708 -71.50681016 92.46228633 -69.25 90.1875 C-66.39453125 89.3515625 -66.39453125 89.3515625 -63.0625 88.8125 C-56.9210033 87.52675236 -52.46698541 85.95362601 -48.25 81.1875 C-44.84040557 75.9419701 -43.0840444 70.40989571 -44.25 64.1875 C-46.38607303 57.04725588 -49.57267131 52.88050743 -56.0546875 49.1484375 C-59.73372058 47.53804224 -63.6557931 46.90386456 -67.5703125 46.06640625 C-70.25 45.1875 -70.25 45.1875 -72.25 42.1875 C-72.51069641 39.87953186 -72.51069641 39.87953186 -72.5246582 37.13696289 C-72.53419022 36.10902115 -72.54372223 35.08107941 -72.55354309 34.02198792 C-72.55263168 32.91258347 -72.55172028 31.80317902 -72.55078125 30.66015625 C-72.55506638 29.51969345 -72.5593515 28.37923065 -72.56376648 27.20420837 C-72.56951289 24.79084945 -72.57000777 22.3774732 -72.56567383 19.96411133 C-72.56251546 16.26809177 -72.58596469 12.57287358 -72.61132812 8.87695312 C-72.6136012 6.53385518 -72.61430458 4.19075508 -72.61328125 1.84765625 C-72.622491 0.74027603 -72.63170074 -0.36710419 -72.64118958 -1.50804138 C-72.63496078 -2.53913528 -72.62873199 -3.57022919 -72.62231445 -4.63256836 C-72.62294388 -5.53841171 -72.6235733 -6.44425507 -72.6242218 -7.37754822 C-72.17190469 -10.32064336 -71.29691883 -11.67392053 -69.25 -13.8125 C-49.25898079 -20.47617307 -18.01261935 -8.8950129 0 0 Z M-57.25 1.1875 C-57.25 11.4175 -57.25 21.6475 -57.25 32.1875 C-53.5065625 33.92 -53.5065625 33.92 -49.6875 35.6875 C-39.59356492 40.63435738 -34.19098368 46.24456609 -30.1328125 56.9140625 C-27.43393399 66.92140849 -28.81426183 76.90798839 -33.25 86.1875 C-38.88704267 95.89158671 -46.67122532 100.16499295 -57.25 103.1875 C-57.25 117.3775 -57.25 131.5675 -57.25 146.1875 C-53.61484375 146.22488281 -49.9796875 146.26226562 -46.234375 146.30078125 C-42.71624713 146.34698359 -39.19822621 146.39822208 -35.68017578 146.44995117 C-33.23395274 146.48321877 -30.7876526 146.51124491 -28.34130859 146.53393555 C-24.82616295 146.56744708 -21.31172505 146.61976276 -17.796875 146.67578125 C-16.7019574 146.68217117 -15.60703979 146.6885611 -14.47894287 146.69514465 C-12.94780853 146.72483589 -12.94780853 146.72483589 -11.38574219 146.75512695 C-10.04005157 146.77178154 -10.04005157 146.77178154 -8.66717529 146.78877258 C-5.76584432 147.26736435 -4.37439988 148.18145156 -2.25 150.1875 C-1.6328125 152.5703125 -1.6328125 152.5703125 -1.375 155.3125 C-0.37252819 161.95167736 2.25559507 167.14778873 7.37109375 171.59765625 C13.44302765 175.82226861 19.60235643 175.83151357 26.75 175.1875 C33.96656559 173.12393958 37.63412859 168.58800763 41.5 162.375 C42.86693122 158.8893254 43.18983213 155.95154993 43.34375 152.23828125 C43.86367868 149.61364125 44.67569606 148.84890795 46.75 147.1875 C48.8347168 146.75512695 48.8347168 146.75512695 51.19921875 146.67578125 C52.04677734 146.64033203 52.89433594 146.60488281 53.76757812 146.56835938 C54.64865234 146.54580078 55.52972656 146.52324219 56.4375 146.5 C57.33017578 146.46583984 58.22285156 146.43167969 59.14257812 146.39648438 C61.34492671 146.31404352 63.54687938 146.24488449 65.75 146.1875 C65.8254071 141.88658854 65.87917959 137.58604974 65.91479492 133.28466797 C65.92967624 131.8282194 65.94998796 130.37181392 65.97631836 128.91552734 C66.15226625 118.91754694 65.29510709 109.93215979 62.75 100.1875 C62.45959839 98.98697998 62.45959839 98.98697998 62.16333008 97.76220703 C56.71379031 75.72298596 44.81553088 56.91670914 29.75 40.1875 C29.15703125 39.52234375 28.5640625 38.8571875 27.953125 38.171875 C6.07325849 14.99221444 -25.8691713 2.30824388 -57.25 1.1875 Z " fill="#343333" transform="translate(351.25,28.8125)"/>
<path d="M0 0 C1.07695129 -0.0071553 2.15390259 -0.01431061 3.26348877 -0.02168274 C6.82119232 -0.03858342 10.3776384 -0.01915888 13.93530273 0.00219727 C16.40722254 0.00136876 18.87914229 -0.00108991 21.35105896 -0.00511169 C26.5302693 -0.00797058 31.70904739 0.00674234 36.88818359 0.03417969 C43.53207517 0.06827964 50.17519461 0.06223875 56.81912327 0.04351711 C61.92260696 0.03295748 67.02591044 0.04187537 72.12937737 0.05690193 C74.57943118 0.06209057 77.02950376 0.06159372 79.47955513 0.05535698 C82.90084555 0.04991686 86.32102375 0.07024246 89.7421875 0.09765625 C91.26573097 0.08786743 91.26573097 0.08786743 92.8200531 0.07788086 C99.68078678 0.17152492 99.68078678 0.17152492 102.90415955 2.53944397 C105.069241 5.76900751 105.46520129 7.63799081 105.49389648 11.50610352 C105.50807617 12.36977539 105.52225586 13.23344727 105.53686523 14.12329102 C105.28638475 16.84885836 104.85238401 18.37796081 103.30639648 20.63110352 C100.34975204 22.4442699 98.11901526 22.88299082 94.67626953 22.89179993 C93.75099457 22.89888474 92.8257196 22.90596954 91.87240601 22.91326904 C90.86449005 22.91079163 89.8565741 22.90831421 88.81811523 22.90576172 C87.21753769 22.91342812 87.21753769 22.91342812 85.58462524 22.92124939 C82.05432542 22.93515981 78.52422047 22.93418768 74.99389648 22.93188477 C72.54296801 22.93577052 70.09204021 22.94010493 67.64111328 22.94487 C62.50315162 22.95233506 57.36525868 22.95203855 52.22729492 22.94677734 C45.63619775 22.94097837 39.0453812 22.95792294 32.45433044 22.98112202 C27.39292755 22.99583687 22.33159261 22.99673418 17.27017212 22.99361229 C14.83964481 22.9941265 12.4091138 22.99938285 9.97860718 23.00942421 C6.5837771 23.02172926 3.18949865 23.01503255 -0.20532227 23.00341797 C-1.21323822 23.01106171 -2.22115417 23.01870544 -3.25961304 23.02658081 C-4.64752548 23.01605934 -4.64752548 23.01605934 -6.06347656 23.00532532 C-7.26691963 23.00557693 -7.26691963 23.00557693 -8.49467468 23.00583363 C-11.28090096 22.53101931 -12.6452161 21.55356221 -14.69360352 19.63110352 C-15.68748124 16.64947034 -15.95729974 14.38117106 -16.06860352 11.25610352 C-16.11758789 10.32024414 -16.16657227 9.38438477 -16.21704102 8.42016602 C-14.56981304 -0.35685468 -7.26001256 -0.08374066 0 0 Z " fill="#B2B2B2" transform="translate(180.693603515625,423.368896484375)"/>
<path d="M0 0 C1.14821732 -0.01283524 2.29643463 -0.02567047 3.47944641 -0.03889465 C4.73041611 -0.04628159 5.9813858 -0.05366852 7.27026367 -0.0612793 C8.54673264 -0.06935104 9.8232016 -0.07742279 11.13835144 -0.08573914 C13.84617767 -0.09960093 16.55388126 -0.11061104 19.26171875 -0.11816406 C22.72884803 -0.12922106 26.19533413 -0.16360613 29.66223621 -0.20333576 C32.96905327 -0.23578445 36.27579966 -0.24027984 39.58276367 -0.2487793 C40.82766068 -0.26628738 42.07255768 -0.28379547 43.35517883 -0.30183411 C44.51285263 -0.29890854 45.67052643 -0.29598297 46.86328125 -0.29296875 C48.39097893 -0.30176811 48.39097893 -0.30176811 49.94953918 -0.31074524 C53.35139807 0.30925749 54.53007122 1.4764262 56.62573242 4.17700195 C57.08666992 7.05200195 57.08666992 7.05200195 57.00073242 10.17700195 C56.9878418 11.20825195 56.97495117 12.23950195 56.96166992 13.30200195 C56.62722486 16.16422947 56.27178646 17.82849173 54.62573242 20.17700195 C51.4717603 22.14929384 48.97933417 22.44147596 45.29394531 22.48339844 C44.22926529 22.49938583 43.16458527 22.51537323 42.06764221 22.53184509 C40.92278854 22.53720779 39.77793488 22.5425705 38.59838867 22.5480957 C37.4173204 22.55712418 36.23625214 22.56615265 35.01939392 22.57545471 C32.52206967 22.58995947 30.02470739 22.5988445 27.52734375 22.60253906 C23.70597476 22.61444667 19.88621431 22.66364352 16.06518555 22.71411133 C13.63876114 22.72357418 11.21232681 22.73080987 8.78588867 22.7355957 C7.64305923 22.75512802 6.5002298 22.77466034 5.32276917 22.79478455 C-2.59413818 22.74972427 -2.59413818 22.74972427 -6.57177734 19.82958984 C-9.53028907 15.47577298 -9.96738564 11.33411325 -9.37426758 6.17700195 C-6.75795478 0.83062363 -5.81250894 0.05631411 0 0 Z " fill="#C8C8C8" transform="translate(201.374267578125,460.822998046875)"/>
</svg>
