<?xml version="1.0" encoding="UTF-8"?>
<svg version="1.1" xmlns="http://www.w3.org/2000/svg" width="1024" height="1024">
<path d="M0 0 C1.61101934 1.49263773 3.21538594 2.992493 4.8125 4.5 C5.57304688 5.19609375 6.33359375 5.8921875 7.1171875 6.609375 C23.45159395 22.09597489 36.13652716 46.34978116 36.90118599 69.14365959 C36.93548641 72.38324906 36.93612735 75.62132591 36.92602539 78.86108398 C36.92617142 80.09105606 36.92631744 81.32102814 36.9264679 82.58827209 C36.92589264 85.94314692 36.92089437 89.29795941 36.91389394 92.65282321 C36.90762175 96.16552466 36.90705355 99.67822704 36.90586853 103.19093323 C36.90276658 109.83474351 36.89456856 116.47853725 36.88451904 123.12234026 C36.87332255 130.68946636 36.86783855 138.25659326 36.86282361 145.82372558 C36.85238496 161.38249329 36.8348076 176.94124451 36.8125 192.5 C37.39650605 192.49815641 37.9805121 192.49631283 38.58221531 192.49441338 C52.85775538 192.45005301 67.13328925 192.41705587 81.40888309 192.39637566 C88.31273451 192.38610651 95.21653964 192.37213069 102.12036133 192.34912109 C108.79232348 192.32689505 115.4642278 192.31540565 122.13622856 192.31024551 C124.67210073 192.30657168 127.20797051 192.29939805 129.7438221 192.28853989 C153.25331465 192.19194796 174.51223712 193.43665946 195.8125 204.5 C196.83214844 205.02464844 197.85179687 205.54929687 198.90234375 206.08984375 C216.73110725 215.84174142 230.52870722 232.25628318 240.8125 249.5 C241.4828125 250.61890625 242.153125 251.7378125 242.84375 252.890625 C262.08362519 286.31325404 269.19263658 327.57543968 275.125 365.3125 C275.27227539 366.24537842 275.41955078 367.17825684 275.57128906 368.1394043 C278.25913052 386.30121828 279.18993647 404.34321329 279.125 422.6875 C279.12226578 424.29816849 279.12226578 424.29816849 279.11947632 425.94137573 C279.07372522 441.97318807 278.65123672 457.68062034 275.8125 473.5 C275.55509033 474.96953125 275.55509033 474.96953125 275.29248047 476.46875 C265.89583639 528.59955109 246.52552739 597.50180422 200.78125 629.62890625 C180.64010832 642.5104374 161.09464081 646.15786298 137.5859375 645.890625 C135.61626772 645.88314065 133.64659037 645.87745814 131.6769104 645.87347412 C126.55756117 645.85839013 121.43868476 645.81926267 116.31951904 645.7746582 C111.06984854 645.73332785 105.8200997 645.71538346 100.5703125 645.6953125 C90.31750354 645.65274704 80.06504148 645.5847119 69.8125 645.5 C69.8125 650.45 69.8125 655.4 69.8125 660.5 C70.87210938 660.59410156 71.93171875 660.68820312 73.0234375 660.78515625 C78.98996291 661.53913898 84.67459402 663.26326742 90.4375 664.9375 C91.65808105 665.29094482 92.87866211 665.64438965 94.13623047 666.00854492 C139.79039017 679.40116853 186.62072345 696.2732465 221.8125 729.5 C222.87791016 730.48613281 222.87791016 730.48613281 223.96484375 731.4921875 C236.72159317 743.68577908 245.27341875 759.6754157 246.1875 777.5 C245.33246038 793.57474487 238.58486763 807.74353353 227.8125 819.5 C227.33989746 820.02029785 226.86729492 820.5405957 226.38037109 821.07666016 C162.00344822 891.10954111 39.87607821 906.32958052 -122.47980118 921.40175629 C-130.45585567 921.69115229 -138.43763459 921.68569229 -146.41796875 921.703125 C-148.40896119 921.7101031 -150.39995342 921.71714407 -152.39094543 921.72424316 C-158.71896643 921.74352389 -165.04695283 921.7484187 -171.375 921.75 C-172.98955078 921.75088371 -172.98955078 921.75088371 -174.63671875 921.75178528 C-205.74130201 921.76381144 -236.69893894 921.59814722 -267.69561768 918.72784424 C-270.24140198 918.49507149 -272.78808255 918.27673251 -275.33544922 918.06201172 C-359.50923296 910.91792962 -448.76174211 896.34512136 -524.1875 856.5 C-524.90744141 856.12407715 -525.62738281 855.7481543 -526.36914062 855.36083984 C-541.42239882 847.45561418 -554.87365272 838.27666602 -567.1875 826.5 C-568.43273437 825.36691406 -568.43273437 825.36691406 -569.703125 824.2109375 C-582.97115453 811.71619804 -591.14926752 796.29481278 -592.4375 777.9375 C-592.07935561 761.03959653 -584.41430828 746.69312198 -573.1875 734.5 C-572.52838623 733.77731934 -572.52838623 733.77731934 -571.85595703 733.04003906 C-528.19699491 685.66706004 -454.92281315 667.90873631 -394.1875 654.5 C-391.2175 653.84 -388.2475 653.18 -385.1875 652.5 C-384.8575 638.64 -384.5275 624.78 -384.1875 610.5 C-389.4612561 610.52356567 -389.4612561 610.52356567 -394.84155273 610.54760742 C-406.51224223 610.59751723 -418.18294714 610.63068755 -429.85371304 610.65543652 C-436.92344587 610.67083068 -443.99307678 610.69177541 -451.06274414 610.72631836 C-457.89681513 610.75969392 -464.73078062 610.7768986 -471.56492805 610.78463173 C-474.16056029 610.79013642 -476.75618736 610.80088467 -479.35177422 610.81719017 C-513.75542141 611.02454234 -542.40105001 604.16983492 -567.9375 580.125 C-576.84021886 570.68543377 -583.98856104 559.85279122 -590.1875 548.5 C-590.51959473 547.89333496 -590.85168945 547.28666992 -591.19384766 546.66162109 C-609.6148533 512.19208143 -616.51283884 470.7630596 -622.1875 432.5 C-622.36684082 431.31293457 -622.54618164 430.12586914 -622.73095703 428.90283203 C-627.33563468 397.07248333 -627.83229171 362.21835344 -622.1875 330.5 C-621.88948486 328.79118652 -621.88948486 328.79118652 -621.58544922 327.04785156 C-618.42737663 309.4430754 -613.91271857 292.43547325 -608.1875 275.5 C-607.83284668 274.44828613 -607.47819336 273.39657227 -607.11279297 272.31298828 C-597.46250734 244.00461554 -586.32641466 215.79402981 -567.1875 192.5 C-565.99447266 191.04787109 -565.99447266 191.04787109 -564.77734375 189.56640625 C-548.69146736 170.92721614 -525.57799554 159.82168793 -501.1875 157.5 C-498.28254446 157.37453209 -495.38385848 157.37282991 -492.4765625 157.38647461 C-491.23122993 157.38625557 -491.23122993 157.38625557 -489.96073914 157.3860321 C-487.24463188 157.38672305 -484.52859512 157.39447678 -481.8125 157.40234375 C-479.91821327 157.40421084 -478.02392606 157.40563337 -476.12963867 157.40663147 C-471.16488288 157.41043374 -466.20015674 157.42024429 -461.2354126 157.43133545 C-456.16085206 157.44159899 -451.08628669 157.44613965 -446.01171875 157.45117188 C-436.07029953 157.46186877 -426.12890224 157.47891745 -416.1875 157.5 C-416.19749275 155.82442017 -416.19749275 155.82442017 -416.20768738 154.11499023 C-416.26882801 143.52438156 -416.31362955 132.93380928 -416.34293652 122.34306335 C-416.35851062 116.89985731 -416.37959587 111.45679515 -416.41381836 106.01367188 C-416.446709 100.74869395 -416.46441488 95.48385335 -416.47213173 90.21878052 C-416.47762243 88.22240033 -416.48834227 86.22602661 -416.50469017 84.22970581 C-416.74365182 53.80485368 -408.1596268 30.9974137 -386.7890625 9.03515625 C-374.30865123 -2.74243322 -359.36498432 -11.67830743 -344.1875 -19.5 C-343.19194092 -20.01723633 -343.19194092 -20.01723633 -342.17626953 -20.54492188 C-253.35816365 -66.09722212 -141.35143938 -66.44918442 0 0 Z " fill="#FFECA0" transform="translate(685.1875,78.5)"/>
<path d="M0 0 C1.61101934 1.49263773 3.21538594 2.992493 4.8125 4.5 C5.57304688 5.19609375 6.33359375 5.8921875 7.1171875 6.609375 C23.34321662 21.99322268 35.90141779 45.98728493 36.9058938 68.60273063 C36.94665411 71.00698158 36.95539875 73.40935251 36.95294189 75.81394958 C36.95739858 77.19031172 36.95739858 77.19031172 36.9619453 78.59447914 C36.97059293 81.65861719 36.97213722 84.72271597 36.97363281 87.78686523 C36.97826389 89.98851097 36.98328894 92.19015591 36.98867798 94.39179993 C37.0017788 100.36747545 37.00824278 106.34313975 37.01268864 112.31882739 C37.01562399 116.05730575 37.01972974 119.79578107 37.02419281 123.53425789 C37.03629854 133.90488625 37.04668083 144.27551246 37.0500679 154.64614773 C37.05028747 155.30905703 37.05050703 155.97196633 37.05073325 156.6549638 C37.05095153 157.31937799 37.05116981 157.98379219 37.0513947 158.66834015 C37.05183815 160.01448914 37.05228472 161.36063812 37.05273438 162.70678711 C37.0529558 163.37451057 37.05317723 164.04223403 37.05340537 164.73019154 C37.05734688 175.53100099 37.07478263 186.3317427 37.0980939 197.13252603 C37.12188783 208.24762741 37.1340162 219.3627007 37.13543582 230.47782856 C37.13648049 236.7079246 37.14231572 242.9379251 37.16025543 249.16799736 C37.1768236 255.03591685 37.17884938 260.90366989 37.17011642 266.77160454 C37.16935063 268.91443327 37.17362768 271.05727128 37.18357468 273.20007706 C37.25132158 288.71578932 36.67642705 303.67118407 30.1875 318.0625 C29.84122559 318.85350098 29.49495117 319.64450195 29.13818359 320.45947266 C21.49457377 337.46009208 10.54833354 351.96968157 -2.1875 365.5 C-3.00927734 366.40105469 -3.00927734 366.40105469 -3.84765625 367.3203125 C-20.49247527 384.90574783 -47.62671911 400.436884 -72.16718054 401.59328711 C-74.36531846 401.62976125 -76.56151192 401.63628595 -78.75994873 401.63130188 C-79.59781929 401.63341759 -80.43568985 401.63553331 -81.29895043 401.63771313 C-84.09351934 401.64368207 -86.8880427 401.64271518 -89.68261719 401.6418457 C-91.69220557 401.64487945 -93.70179326 401.6484015 -95.71138 401.65237427 C-100.03506293 401.66025011 -104.35873764 401.66540337 -108.68242645 401.66866493 C-115.53523762 401.67459427 -122.38799736 401.69115512 -129.24078369 401.71000671 C-131.59144208 401.71634399 -133.94210049 401.72266962 -136.29275894 401.72898388 C-137.46996899 401.73214969 -138.64717904 401.7353155 -139.86006212 401.73857725 C-155.80627568 401.78055835 -171.75246535 401.81359459 -187.69873047 401.82592773 C-198.46411383 401.83433926 -209.22936967 401.85694579 -219.99468923 401.8952834 C-225.68218741 401.91494399 -231.36949542 401.92748215 -237.05702972 401.92244911 C-242.41863326 401.91776239 -247.77987766 401.93182525 -253.14140892 401.95946121 C-255.09429177 401.9663065 -257.0472123 401.9665727 -259.00009346 401.95926094 C-289.81433041 401.85566777 -316.60084347 411.6021826 -340.1875 431.5 C-340.71939941 431.94150391 -341.25129883 432.38300781 -341.79931641 432.83789062 C-359.78730748 447.93678677 -373.19928607 467.71922303 -379.1875 490.5 C-379.55687683 491.78784142 -379.55687683 491.78784142 -379.93371582 493.10169983 C-382.94549948 504.98747232 -382.66618995 516.8672435 -382.69921875 529.0546875 C-382.71609162 531.41123372 -382.73424531 533.76777109 -382.75361633 536.1242981 C-382.80083918 542.28246288 -382.83082719 548.44059174 -382.85705566 554.59887695 C-382.88700191 560.90062552 -382.93348349 567.20225063 -382.97851562 573.50390625 C-383.06423299 585.83587255 -383.13171776 598.16786447 -383.1875 610.5 C-398.53991757 610.57043272 -413.89232287 610.62315454 -429.24486446 610.65543652 C-436.37513097 610.67083153 -443.50529644 610.69177792 -450.63549805 610.72631836 C-456.85834646 610.75644869 -463.08112162 610.77562834 -469.30404097 610.78226548 C-472.5916571 610.78613828 -475.8790179 610.79671586 -479.16657829 610.81719017 C-513.64608686 611.02320918 -542.3372569 604.2299018 -567.9375 580.125 C-576.84021886 570.68543377 -583.98856104 559.85279122 -590.1875 548.5 C-590.51959473 547.89333496 -590.85168945 547.28666992 -591.19384766 546.66162109 C-609.6148533 512.19208143 -616.51283884 470.7630596 -622.1875 432.5 C-622.36684082 431.31293457 -622.54618164 430.12586914 -622.73095703 428.90283203 C-627.33563468 397.07248333 -627.83229171 362.21835344 -622.1875 330.5 C-621.88948486 328.79118652 -621.88948486 328.79118652 -621.58544922 327.04785156 C-618.42737663 309.4430754 -613.91271857 292.43547325 -608.1875 275.5 C-607.83284668 274.44828613 -607.47819336 273.39657227 -607.11279297 272.31298828 C-597.46250734 244.00461554 -586.32641466 215.79402981 -567.1875 192.5 C-565.99447266 191.04787109 -565.99447266 191.04787109 -564.77734375 189.56640625 C-548.69146736 170.92721614 -525.57799554 159.82168793 -501.1875 157.5 C-498.28254446 157.37453209 -495.38385848 157.37282991 -492.4765625 157.38647461 C-491.23122993 157.38625557 -491.23122993 157.38625557 -489.96073914 157.3860321 C-487.24463188 157.38672305 -484.52859512 157.39447678 -481.8125 157.40234375 C-479.91821327 157.40421084 -478.02392606 157.40563337 -476.12963867 157.40663147 C-471.16488288 157.41043374 -466.20015674 157.42024429 -461.2354126 157.43133545 C-456.16085206 157.44159899 -451.08628669 157.44613965 -446.01171875 157.45117188 C-436.07029953 157.46186877 -426.12890224 157.47891745 -416.1875 157.5 C-416.19749275 155.82442017 -416.19749275 155.82442017 -416.20768738 154.11499023 C-416.26882801 143.52438156 -416.31362955 132.93380928 -416.34293652 122.34306335 C-416.35851062 116.89985731 -416.37959587 111.45679515 -416.41381836 106.01367188 C-416.446709 100.74869395 -416.46441488 95.48385335 -416.47213173 90.21878052 C-416.47762243 88.22240033 -416.48834227 86.22602661 -416.50469017 84.22970581 C-416.74365182 53.80485368 -408.1596268 30.9974137 -386.7890625 9.03515625 C-374.30865123 -2.74243322 -359.36498432 -11.67830743 -344.1875 -19.5 C-343.19194092 -20.01723633 -343.19194092 -20.01723633 -342.17626953 -20.54492188 C-253.35816365 -66.09722212 -141.35143938 -66.44918442 0 0 Z " fill="#5687B0" transform="translate(685.1875,78.5)"/>
<path d="M0 0 C0.00546844 1.43675079 0.00546844 1.43675079 0.01104736 2.90252686 C0.04832031 12.02050094 0.10643616 21.13814732 0.18390274 30.25587082 C0.22306837 34.94110063 0.25540572 39.62615117 0.27099609 44.31152344 C0.28636985 48.85055276 0.32116956 53.38908812 0.36830902 57.92789459 C0.38291293 59.64179387 0.39102862 61.35576375 0.39188385 63.06972504 C0.42212131 93.34135585 9.50110326 119.57004777 30 142 C30.68320312 142.77730469 31.36640625 143.55460938 32.0703125 144.35546875 C43.34591759 156.49332599 58.36397382 165.48440816 73 173 C74.13953125 173.59039063 75.2790625 174.18078125 76.453125 174.7890625 C152.95865795 212.3556807 245.25428147 212.871797 347.15454102 184.01538086 C373.04167924 175.00112774 397.07686773 162.82208881 418 145 C419.08286172 144.14523553 420.16610831 143.29095803 421.25 142.4375 C439.5753701 126.19455832 450.0256208 102.99029991 453 79 C453.31292241 73.43243569 453.37160087 67.87205095 453.4140625 62.296875 C453.43281763 60.7221785 453.4523941 59.14749159 453.4727478 57.57281494 C453.52361695 53.46964223 453.56348158 49.3664371 453.60089111 45.26312256 C453.64121777 41.05945109 453.69217784 36.85590919 453.7421875 32.65234375 C453.83840978 24.43498504 453.92298254 16.21756106 454 8 C458.75783302 8.53216391 463.23488678 9.18862903 467.8515625 10.49609375 C468.93453613 10.80200439 470.01750977 11.10791504 471.13330078 11.4230957 C472.28556152 11.75784912 473.43782227 12.09260254 474.625 12.4375 C475.84558105 12.79094482 477.06616211 13.14438965 478.32373047 13.50854492 C523.97789017 26.90116853 570.80822345 43.7732465 606 77 C606.71027344 77.65742187 607.42054688 78.31484375 608.15234375 78.9921875 C620.90909317 91.18577908 629.46091875 107.1754157 630.375 125 C629.51996038 141.07474487 622.77236763 155.24353353 612 167 C611.52739746 167.52029785 611.05479492 168.0405957 610.56787109 168.57666016 C546.19094822 238.60954111 424.06357821 253.82958052 261.70769882 268.90175629 C253.73164433 269.19115229 245.74986541 269.18569229 237.76953125 269.203125 C235.77853881 269.2101031 233.78754658 269.21714407 231.79655457 269.22424316 C225.46853357 269.24352389 219.14054717 269.2484187 212.8125 269.25 C211.19794922 269.25088371 211.19794922 269.25088371 209.55078125 269.25178528 C178.44619799 269.26381144 147.48856106 269.09814722 116.49188232 266.22784424 C113.94609802 265.99507149 111.39941745 265.77673251 108.85205078 265.56201172 C24.67826704 258.41792962 -64.57424211 243.84512136 -140 204 C-141.07991211 203.43611572 -141.07991211 203.43611572 -142.18164062 202.86083984 C-157.23489882 194.95561418 -170.68615272 185.77666602 -183 174 C-183.83015625 173.24460937 -184.6603125 172.48921875 -185.515625 171.7109375 C-198.78365453 159.21619804 -206.96176752 143.79481278 -208.25 125.4375 C-207.89185561 108.53959653 -200.22680828 94.19312198 -189 82 C-188.56059082 81.51821289 -188.12118164 81.03642578 -187.66845703 80.54003906 C-144.00357301 33.16063438 -70.73760503 15.42223635 -10 2 C-8.61796387 1.68869141 -8.61796387 1.68869141 -7.20800781 1.37109375 C-1.1171875 0 -1.1171875 0 0 0 Z " fill="#000000" transform="translate(301,731)"/>
<path d="M0 0 C1.61101934 1.49263773 3.21538594 2.992493 4.8125 4.5 C5.57304688 5.19609375 6.33359375 5.8921875 7.1171875 6.609375 C23.34321662 21.99322268 35.90141779 45.98728493 36.9058938 68.60273063 C36.94665411 71.00698158 36.95539875 73.40935251 36.95294189 75.81394958 C36.95739858 77.19031172 36.95739858 77.19031172 36.9619453 78.59447914 C36.97059293 81.65861719 36.97213722 84.72271597 36.97363281 87.78686523 C36.97826389 89.98851097 36.98328894 92.19015591 36.98867798 94.39179993 C37.0017788 100.36747545 37.00824278 106.34313975 37.01268864 112.31882739 C37.01562399 116.05730575 37.01972974 119.79578107 37.02419281 123.53425789 C37.03629854 133.90488625 37.04668083 144.27551246 37.0500679 154.64614773 C37.05028747 155.30905703 37.05050703 155.97196633 37.05073325 156.6549638 C37.05095153 157.31937799 37.05116981 157.98379219 37.0513947 158.66834015 C37.05183815 160.01448914 37.05228472 161.36063812 37.05273438 162.70678711 C37.0529558 163.37451057 37.05317723 164.04223403 37.05340537 164.73019154 C37.05734688 175.53100099 37.07478263 186.3317427 37.0980939 197.13252603 C37.12188783 208.24762741 37.1340162 219.3627007 37.13543582 230.47782856 C37.13648049 236.7079246 37.14231572 242.9379251 37.16025543 249.16799736 C37.1768236 255.03591685 37.17884938 260.90366989 37.17011642 266.77160454 C37.16935063 268.91443327 37.17362768 271.05727128 37.18357468 273.20007706 C37.25132158 288.71578932 36.67642705 303.67118407 30.1875 318.0625 C29.84122559 318.85350098 29.49495117 319.64450195 29.13818359 320.45947266 C21.49457377 337.46009208 10.54833354 351.96968157 -2.1875 365.5 C-3.00927734 366.40105469 -3.00927734 366.40105469 -3.84765625 367.3203125 C-20.49247527 384.90574783 -47.62671911 400.436884 -72.16718054 401.59328711 C-74.36531846 401.62976125 -76.56151192 401.63628595 -78.75994873 401.63130188 C-79.59781929 401.63341759 -80.43568985 401.63553331 -81.29895043 401.63771313 C-84.09351934 401.64368207 -86.8880427 401.64271518 -89.68261719 401.6418457 C-91.69220557 401.64487945 -93.70179326 401.6484015 -95.71138 401.65237427 C-100.03506293 401.66025011 -104.35873764 401.66540337 -108.68242645 401.66866493 C-115.53523762 401.67459427 -122.38799736 401.69115512 -129.24078369 401.71000671 C-131.59144208 401.71634399 -133.94210049 401.72266962 -136.29275894 401.72898388 C-137.46996899 401.73214969 -138.64717904 401.7353155 -139.86006212 401.73857725 C-155.80627568 401.78055835 -171.75246535 401.81359459 -187.69873047 401.82592773 C-198.46411383 401.83433926 -209.22936967 401.85694579 -219.99468923 401.8952834 C-225.68218741 401.91494399 -231.36949542 401.92748215 -237.05702972 401.92244911 C-242.41863326 401.91776239 -247.77987766 401.93182525 -253.14140892 401.95946121 C-255.09429177 401.9663065 -257.0472123 401.9665727 -259.00009346 401.95926094 C-289.81433041 401.85566777 -316.60084347 411.6021826 -340.1875 431.5 C-340.71939941 431.94150391 -341.25129883 432.38300781 -341.79931641 432.83789062 C-359.78730748 447.93678677 -373.19928607 467.71922303 -379.1875 490.5 C-379.55687683 491.78784142 -379.55687683 491.78784142 -379.93371582 493.10169983 C-382.94549948 504.98747232 -382.66618995 516.8672435 -382.69921875 529.0546875 C-382.71609162 531.41123372 -382.73424531 533.76777109 -382.75361633 536.1242981 C-382.80083918 542.28246288 -382.83082719 548.44059174 -382.85705566 554.59887695 C-382.88700191 560.90062552 -382.93348349 567.20225063 -382.97851562 573.50390625 C-383.06423299 585.83587255 -383.13171776 598.16786447 -383.1875 610.5 C-398.53991757 610.57043272 -413.89232287 610.62315454 -429.24486446 610.65543652 C-436.37513097 610.67083153 -443.50529644 610.69177792 -450.63549805 610.72631836 C-456.85834646 610.75644869 -463.08112162 610.77562834 -469.30404097 610.78226548 C-472.5916571 610.78613828 -475.8790179 610.79671586 -479.16657829 610.81719017 C-513.64608686 611.02320918 -542.3372569 604.2299018 -567.9375 580.125 C-576.84021886 570.68543377 -583.98856104 559.85279122 -590.1875 548.5 C-590.51959473 547.89333496 -590.85168945 547.28666992 -591.19384766 546.66162109 C-609.6148533 512.19208143 -616.51283884 470.7630596 -622.1875 432.5 C-622.36684082 431.31293457 -622.54618164 430.12586914 -622.73095703 428.90283203 C-627.33563468 397.07248333 -627.83229171 362.21835344 -622.1875 330.5 C-621.88948486 328.79118652 -621.88948486 328.79118652 -621.58544922 327.04785156 C-618.42737663 309.4430754 -613.91271857 292.43547325 -608.1875 275.5 C-607.83284668 274.44828613 -607.47819336 273.39657227 -607.11279297 272.31298828 C-597.46250734 244.00461554 -586.32641466 215.79402981 -567.1875 192.5 C-565.99447266 191.04787109 -565.99447266 191.04787109 -564.77734375 189.56640625 C-548.69146736 170.92721614 -525.57799554 159.82168793 -501.1875 157.5 C-498.28254446 157.37453209 -495.38385848 157.37282991 -492.4765625 157.38647461 C-491.23122993 157.38625557 -491.23122993 157.38625557 -489.96073914 157.3860321 C-487.24463188 157.38672305 -484.52859512 157.39447678 -481.8125 157.40234375 C-479.91821327 157.40421084 -478.02392606 157.40563337 -476.12963867 157.40663147 C-471.16488288 157.41043374 -466.20015674 157.42024429 -461.2354126 157.43133545 C-456.16085206 157.44159899 -451.08628669 157.44613965 -446.01171875 157.45117188 C-436.07029953 157.46186877 -426.12890224 157.47891745 -416.1875 157.5 C-416.19749275 155.82442017 -416.19749275 155.82442017 -416.20768738 154.11499023 C-416.26882801 143.52438156 -416.31362955 132.93380928 -416.34293652 122.34306335 C-416.35851062 116.89985731 -416.37959587 111.45679515 -416.41381836 106.01367188 C-416.446709 100.74869395 -416.46441488 95.48385335 -416.47213173 90.21878052 C-416.47762243 88.22240033 -416.48834227 86.22602661 -416.50469017 84.22970581 C-416.74365182 53.80485368 -408.1596268 30.9974137 -386.7890625 9.03515625 C-374.30865123 -2.74243322 -359.36498432 -11.67830743 -344.1875 -19.5 C-343.19194092 -20.01723633 -343.19194092 -20.01723633 -342.17626953 -20.54492188 C-253.35816365 -66.09722212 -141.35143938 -66.44918442 0 0 Z M-219.1875 -18.5 C-220.65848627 -18.3215838 -222.13105217 -18.15521902 -223.60546875 -18.0078125 C-234.32241018 -16.9194599 -244.68813414 -14.87612144 -255.1875 -12.5 C-256.88132812 -12.12875 -256.88132812 -12.12875 -258.609375 -11.75 C-261.81152468 -11.03479906 -264.99994598 -10.27771936 -268.1875 -9.5 C-268.87215332 -9.33419434 -269.55680664 -9.16838867 -270.26220703 -8.99755859 C-286.74795462 -4.96499607 -302.88624284 0.09160768 -318.1875 7.5 C-319.67340567 8.17813839 -321.16050147 8.85367193 -322.6484375 9.52734375 C-332.08146145 13.83425403 -340.83922421 18.29166972 -349.1875 24.5 C-350.02152344 25.11230469 -350.85554687 25.72460938 -351.71484375 26.35546875 C-366.31497055 37.54197981 -377.10075464 49.10964587 -381.1875 67.5 C-381.1875 97.2 -381.1875 126.9 -381.1875 157.5 C-310.5675 157.5 -239.9475 157.5 -167.1875 157.5 C-167.1875 169.05 -167.1875 180.6 -167.1875 192.5 C-173.39197937 192.48667633 -173.39197937 192.48667633 -179.72180176 192.4730835 C-217.69356626 192.39340867 -255.66532084 192.3337333 -293.63715073 192.29573868 C-298.61861498 192.29073614 -303.60007902 192.28555882 -308.58154297 192.28027344 C-310.0690596 192.27869957 -310.0690596 192.27869957 -311.58662707 192.27709392 C-327.62253401 192.25971085 -343.65838332 192.22818476 -359.69425613 192.19138882 C-376.16087049 192.15392093 -392.62745477 192.1317518 -409.09411001 192.12364602 C-419.24668382 192.11817036 -429.3990947 192.10090529 -439.55161834 192.06833413 C-446.52310295 192.04711398 -453.49450391 192.04081685 -460.46601844 192.04599449 C-464.48219064 192.04854465 -468.49807907 192.04476539 -472.51420021 192.0231781 C-497.20507731 191.89721872 -517.6412188 192.56213032 -536.54296875 210.6796875 C-553.62762689 228.89995807 -562.97184263 253.33204881 -571.1875 276.5 C-571.78522217 278.1718335 -571.78522217 278.1718335 -572.39501953 279.87744141 C-578.05615544 295.84492461 -582.8570716 311.88123931 -586.1875 328.5 C-586.39777832 329.53511719 -586.60805664 330.57023437 -586.82470703 331.63671875 C-591.12710759 353.7925487 -590.81969553 376.03476382 -590.1875 398.5 C-590.15414551 399.71284668 -590.12079102 400.92569336 -590.08642578 402.17529297 C-588.2619577 452.92369491 -576.62977023 521.9379186 -538.828125 558.80078125 C-534.09264468 562.89268119 -528.90361728 565.9376718 -523.375 568.8125 C-522.45231323 569.30133667 -522.45231323 569.30133667 -521.51098633 569.80004883 C-508.93633553 575.99151366 -495.98671509 575.91343055 -482.32421875 575.79296875 C-480.4370813 575.78736099 -478.54993943 575.78309648 -476.66279602 575.78010559 C-471.73910073 575.76874964 -466.81567856 575.73936406 -461.89208984 575.70599365 C-456.8506235 575.67509132 -451.80911225 575.66155751 -446.76757812 575.64648438 C-436.90743327 575.61448389 -427.04748951 575.56340197 -417.1875 575.5 C-417.17941315 574.5494574 -417.17132629 573.59891479 -417.16299438 572.61956787 C-417.08516633 563.61691218 -416.99733792 554.61440084 -416.89997292 545.61193466 C-416.85024337 540.98480924 -416.80391327 536.35770411 -416.765625 531.73046875 C-416.72847482 527.25644164 -416.68203863 522.78259462 -416.62943649 518.30872345 C-416.61104914 516.61052899 -416.59588488 514.91229616 -416.58415604 513.21404266 C-416.35116395 480.61444491 -404.62389264 451.30772259 -384.12109375 426.0390625 C-382.03639078 423.58531589 -382.03639078 423.58531589 -381.1875 420.5 C-379.87117206 419.80035511 -378.53526319 419.13699027 -377.1875 418.5 C-375.50923728 417.02556263 -375.50923728 417.02556263 -373.9375 415.3125 C-358.95125657 399.946858 -341.24780412 388.60668296 -321.98144531 379.37109375 C-320.45107757 378.6279865 -318.93829004 377.84885373 -317.4296875 377.0625 C-304.19977218 370.4268058 -288.24044963 367.34796752 -273.52325439 367.35523987 C-272.67565575 367.35171302 -271.82805711 367.34818618 -270.95477366 367.34455246 C-268.12772107 367.33391746 -265.30070224 367.33019356 -262.47363281 367.32641602 C-260.44121154 367.32010667 -258.40879164 367.31334045 -256.37637329 367.30615234 C-252.00520363 367.29150812 -247.63403921 367.27977292 -243.26285553 367.27020454 C-236.34503192 367.25471989 -229.42725359 367.2307704 -222.50946045 367.20530701 C-202.83966945 367.13419102 -183.16985269 367.07435804 -163.5 367.02319336 C-152.63218099 366.99484952 -141.76440725 366.95944762 -130.89663577 366.91653961 C-124.02622857 366.88983718 -117.15587255 366.87188908 -110.28542376 366.86050236 C-106.00196005 366.85134564 -101.7185583 366.83396944 -97.43513107 366.81432343 C-95.45631006 366.8068804 -93.47747312 366.80276883 -91.49863815 366.80232811 C-78.08500005 366.79693059 -66.08323982 366.51227379 -53.8125 360.5 C-52.99668457 360.10554688 -52.18086914 359.71109375 -51.34033203 359.3046875 C-25.55601517 346.39476778 -8.19333221 322.33617116 0.8125 295.5 C2.02495935 291.26104244 1.96063519 287.11566586 1.95967102 282.7366333 C1.96518605 281.39474272 1.96518605 281.39474272 1.9708125 280.02574325 C1.98184478 277.02138814 1.98569251 274.01706764 1.98950195 271.01269531 C1.99576724 268.86075226 2.0024141 266.70881029 2.00941467 264.55686951 C2.03046007 257.480629 2.04082156 250.40438829 2.05078125 243.328125 C2.05482945 240.88917784 2.0589464 238.4502308 2.06313133 236.01128387 C2.0821887 224.54552552 2.09641527 213.07977361 2.1047433 201.61400247 C2.11450031 188.40004835 2.14077748 175.18626243 2.18124419 161.97236753 C2.21147524 151.74791617 2.22621904 141.52351282 2.22952431 131.29901767 C2.23186798 125.19850881 2.24073846 119.09817952 2.26598549 112.99771881 C2.28939172 107.24881509 2.29344916 101.50020754 2.28322411 95.75126839 C2.28273158 93.65197574 2.28896745 91.5526679 2.30278015 89.45342064 C2.4060939 72.80735465 1.18152387 57.84853027 -8.1875 43.5 C-8.84685547 42.4790625 -8.84685547 42.4790625 -9.51953125 41.4375 C-23.31641354 21.71630802 -44.66256045 10.48438235 -66.24755859 1.32373047 C-67.82208058 0.65516299 -69.39052595 -0.0277025 -70.95703125 -0.71484375 C-92.82025836 -9.98902356 -117.48990839 -13.67375865 -140.75 -17.875 C-142.00224365 -18.1081189 -142.00224365 -18.1081189 -143.27978516 -18.34594727 C-156.65688919 -20.65730598 -170.32199623 -20.68665581 -183.86083984 -20.68530273 C-186.31755541 -20.68750453 -188.77383095 -20.70580234 -191.23046875 -20.72460938 C-200.77540617 -20.75811529 -209.75786919 -20.06720215 -219.1875 -18.5 Z " fill="#274E70" transform="translate(685.1875,78.5)"/>
<path d="M0 0 C14.86544345 -0.04692712 29.73088111 -0.08208957 44.59638309 -0.10362434 C51.50023451 -0.11389349 58.40403964 -0.12786931 65.30786133 -0.15087891 C71.97982348 -0.17310495 78.6517278 -0.18459435 85.32372856 -0.18975449 C87.85960073 -0.19342832 90.39547051 -0.20060195 92.9313221 -0.21146011 C116.44081465 -0.30805204 137.69973712 0.93665946 159 12 C160.52947266 12.78697266 160.52947266 12.78697266 162.08984375 13.58984375 C179.91860725 23.34174142 193.71620722 39.75628318 204 57 C205.00546875 58.67835938 205.00546875 58.67835938 206.03125 60.390625 C225.27112519 93.81325404 232.38013658 135.07543968 238.3125 172.8125 C238.45977539 173.74537842 238.60705078 174.67825684 238.75878906 175.6394043 C241.44663052 193.80121828 242.37743647 211.84321329 242.3125 230.1875 C242.30976578 231.79816849 242.30976578 231.79816849 242.30697632 233.44137573 C242.26122522 249.47318807 241.83873672 265.18062034 239 281 C238.82839355 281.9796875 238.65678711 282.959375 238.47998047 283.96875 C229.08333639 336.09955109 209.71302739 405.00180422 163.96875 437.12890625 C143.82760832 450.0104374 124.28214081 453.65786298 100.7734375 453.390625 C98.80376772 453.38314065 96.83409037 453.37745814 94.8644104 453.37347412 C89.74506117 453.35839013 84.62618476 453.31926267 79.50701904 453.2746582 C74.25734854 453.23332785 69.0075997 453.21538346 63.7578125 453.1953125 C53.50500354 453.15274704 43.25254148 453.0847119 33 453 C33.00999275 454.55949623 33.00999275 454.55949623 33.02018738 456.15049744 C33.08139582 466.01970075 33.12616138 475.88886481 33.15543652 485.7582159 C33.17099382 490.83034709 33.19204711 495.90232324 33.22631836 500.97436523 C33.25927054 505.88273675 33.27692738 510.79096055 33.28463173 515.69943428 C33.29011167 517.55822635 33.30080933 519.4170117 33.31719017 521.27573967 C33.55505126 549.42335493 27.20479329 574.81457959 7.359375 595.6328125 C6.58078125 596.41398438 5.8021875 597.19515625 5 598 C4.17757813 598.82886719 3.35515625 599.65773438 2.5078125 600.51171875 C-47.20356173 649.83593275 -130.76803027 666.47180945 -198.625 666.375 C-248.14922436 666.1153621 -298.9843096 657.40075012 -344 636 C-344.75071777 635.64325195 -345.50143555 635.28650391 -346.27490234 634.91894531 C-377.51031683 619.80258134 -403.73391573 595.93128772 -416 563 C-417.2320617 559.36003064 -418.16924243 555.74852458 -419 552 C-419.17997025 551.24453888 -419.35994049 550.48907776 -419.54536438 549.71072388 C-421.80959709 538.57310318 -421.26711363 527.17494654 -421.23046875 515.8671875 C-421.22982198 513.43719999 -421.2299743 511.00721216 -421.23086548 508.57722473 C-421.23023167 502.03513781 -421.21627551 495.49313464 -421.198246 488.95107651 C-421.18709386 484.87043363 -421.17933502 480.7897886 -421.17221069 476.70913696 C-421.1458389 462.00335922 -421.10446747 447.29768786 -421.04974067 432.59198892 C-421.01220461 422.46447912 -420.98794743 412.33704651 -420.97363281 402.20947266 C-420.95748615 391.15138303 -420.92265153 380.09354727 -420.86309147 369.03560257 C-420.83249633 363.33315768 -420.80904002 357.63093716 -420.80526733 351.92840576 C-420.80106324 346.59122377 -420.77279208 341.25467984 -420.72675705 335.91769981 C-420.71395351 333.99093011 -420.70916023 332.06408428 -420.71379471 330.1372776 C-420.76857985 301.04385308 -411.83203033 276.25924785 -393 254 C-392.32324219 253.18789063 -391.64648438 252.37578125 -390.94921875 251.5390625 C-373.9585487 231.84603725 -350.48224611 216.68147209 -325 211 C-324.32424832 210.83334304 -323.64849665 210.66668608 -322.95226765 210.4949789 C-313.36795636 208.40790278 -303.72601734 208.71467536 -293.97143555 208.72875977 C-291.95314322 208.72436667 -289.93485271 208.71906239 -287.91656494 208.71292114 C-283.58747438 208.7014652 -279.25843248 208.69596497 -274.92932701 208.69503975 C-268.07334875 208.69309009 -261.21747033 208.67498774 -254.36152649 208.65428162 C-237.3335342 208.6052157 -220.30551492 208.57423832 -203.27746582 208.55297852 C-190.03815827 208.53642467 -176.79893689 208.51352858 -163.55968696 208.46995777 C-156.75530137 208.44827168 -149.95107986 208.44011509 -143.14666212 208.44235051 C-138.90018648 208.4406748 -134.65381655 208.42657159 -130.40737915 208.40913773 C-128.45077603 208.40357471 -126.49415065 208.40301898 -124.53754616 208.40807533 C-90.06576466 208.4877636 -62.44902758 194.87095599 -38 171 C-25.12589015 157.97935557 -15.10021236 142.47080635 -7.75 125.75 C-7.4204834 125.02466064 -7.0909668 124.29932129 -6.75146484 123.55200195 C-0.38495454 108.51173195 -0.53464551 92.59026296 -0.48828125 76.5625 C-0.47139904 74.34333323 -0.45324416 72.12417582 -0.43388367 69.9050293 C-0.38676189 64.11843797 -0.35670933 58.33188457 -0.33044434 52.54516602 C-0.3004461 46.61857615 -0.25398289 40.69211659 -0.20898438 34.765625 C-0.12338255 23.17715204 -0.05584742 11.58865194 0 0 Z M34 35 C33.99786247 36.15700661 33.99786247 36.15700661 33.99568176 37.33738708 C33.97759138 44.7321442 33.9352324 52.12623043 33.86790943 59.52068996 C33.83412084 63.31912524 33.80860677 67.11717905 33.80444336 70.91577148 C33.72882406 121.88462612 18.09962858 163.1922799 -18.07543945 199.38891602 C-22.52891571 203.7230139 -27.25665141 207.42226033 -32.34375 211 C-35.08186511 212.95838299 -35.08186511 212.95838299 -37.47265625 215.51953125 C-40.12969125 218.12728584 -42.71307815 219.84082339 -45.9375 221.6875 C-46.93652344 222.26886719 -47.93554688 222.85023438 -48.96484375 223.44921875 C-51.9288076 224.96362499 -54.81876615 226.03757009 -58 227 C-58 227.99 -58 228.98 -58 230 C-58.83273437 230.09667969 -59.66546875 230.19335938 -60.5234375 230.29296875 C-64.51267603 231.10426333 -67.94480549 232.64217427 -71.625 234.3125 C-80.56036606 238.21080669 -89.62110741 240.06049726 -99.20678711 241.63037109 C-101.09206825 241.93876903 -101.09206825 241.93876903 -103 243 C-105.7360303 243.10363299 -108.44704922 243.14606734 -111.18359375 243.14476013 C-112.46801786 243.1500504 -112.46801786 243.1500504 -113.77838993 243.15544754 C-116.66476532 243.16617252 -119.55110775 243.16982217 -122.4375 243.17358398 C-124.50036256 243.17988658 -126.56322374 243.18665205 -128.62608337 243.19384766 C-133.07810177 243.20854153 -137.53011483 243.22025679 -141.98214722 243.22979546 C-149.02531406 243.24522608 -156.06843567 243.26917706 -163.11157227 243.29469299 C-183.14320008 243.36594737 -203.17485423 243.42560666 -223.20654297 243.47680664 C-234.26255983 243.50514088 -245.31853211 243.54054281 -256.37450218 243.58346039 C-263.37146408 243.61019431 -270.36837551 243.62812375 -277.36537838 243.63949764 C-281.728553 243.64864733 -286.09166663 243.6660211 -290.45480537 243.68567657 C-292.47274373 243.69312752 -294.49069776 243.69723165 -296.50864983 243.69767189 C-299.27273221 243.69876145 -302.03650759 243.7120721 -304.80053711 243.72825623 C-305.59103455 243.72563937 -306.38153198 243.72302252 -307.19598389 243.72032636 C-317.67397875 243.81554216 -326.53171393 246.6882106 -336 251 C-336.83402344 251.35835937 -337.66804688 251.71671875 -338.52734375 252.0859375 C-345.57158577 255.30551003 -351.49578123 259.86633694 -357.45117188 264.74316406 C-358.85747816 265.88434703 -360.29444913 266.98747976 -361.734375 268.0859375 C-372.87218575 277.11379032 -379.35184684 291.36133332 -383 305 C-383.24655146 305.88722244 -383.49310291 306.77444489 -383.74712563 307.68855286 C-386.44712294 318.60711347 -386.42438624 329.19206407 -386.38818359 340.37890625 C-386.39225621 342.50601469 -386.39760193 344.63312102 -386.40411377 346.76022339 C-386.41771111 352.49987418 -386.41252018 358.23936196 -386.40297651 363.97901535 C-386.39534044 370.0075802 -386.40243643 376.03613182 -386.40713501 382.06469727 C-386.41258111 392.1854094 -386.40543107 402.30605569 -386.39111328 412.42675781 C-386.37478903 424.09999017 -386.38007835 435.77306528 -386.3965925 447.44629383 C-386.41024006 457.49853002 -386.41211106 467.55071908 -386.40427649 477.60296154 C-386.39961793 483.59366111 -386.39892487 489.58428696 -386.40888596 495.57498169 C-386.41760105 501.20909042 -386.41145118 506.84299794 -386.39420319 512.47708511 C-386.39026251 514.53528638 -386.39133049 516.59350481 -386.39799118 518.65169907 C-386.46931013 542.94360368 -381.49171367 563.13237248 -364.3125 581.1875 C-341.82368789 602.4764517 -312.32924473 613.05002936 -282.81494141 620.30029297 C-280.12363713 620.96926765 -277.44221424 621.66800328 -274.76171875 622.37890625 C-250.14294567 628.85364833 -225.29479322 631.41288332 -199.875 631.3125 C-198.88666168 631.31034485 -197.89832336 631.3081897 -196.8800354 631.30596924 C-181.71901639 631.25305333 -166.95965647 630.62112649 -152 628 C-150.74977051 627.79068848 -149.49954102 627.58137695 -148.21142578 627.36572266 C-131.52781953 624.56112644 -115.10535976 621.26414519 -99 616 C-97.47366943 615.50693359 -97.47366943 615.50693359 -95.91650391 615.00390625 C-61.51475389 603.79163613 -25.33488499 589.30213804 -7 556 C7.07672302 524.5023601 -2 483.34725363 -2 453 C-72.62 453 -143.24 453 -216 453 C-216 441.45 -216 429.9 -216 418 C-211.82974182 418.00666183 -207.65948364 418.01332367 -203.362854 418.02018738 C-165.10248744 418.07991064 -126.84212641 418.12468393 -88.58172341 418.15319599 C-83.56506161 418.15694802 -78.54839992 418.16083099 -73.53173828 418.16479492 C-72.03367595 418.16597532 -72.03367595 418.16597532 -70.50534973 418.16717956 C-54.34389007 418.1802261 -38.18246251 418.20387581 -22.02102187 418.23145839 C-5.43238389 418.25953351 11.15623732 418.27618072 27.74489808 418.28226548 C37.97729662 418.28637755 48.20960447 418.29935556 58.44197509 418.3237494 C65.46294793 418.33963259 72.48387403 418.34439451 79.50486353 418.34050413 C83.55289496 418.33858661 87.60076814 418.34148313 91.64877129 418.35761642 C95.36143122 418.3723045 99.07382773 418.3728952 102.78650025 418.36269668 C104.7520266 418.36084551 106.71755025 418.37370414 108.68303084 418.38724393 C125.87528713 418.30100841 139.93005737 413.02293435 152.1953125 400.890625 C153.13409397 399.93086872 154.06919965 398.96749857 155 398 C155.78117188 397.19046875 156.56234375 396.3809375 157.3671875 395.546875 C182.36537719 367.25710873 196.42091417 318.64504799 203 282 C203.22671387 280.81204834 203.22671387 280.81204834 203.45800781 279.60009766 C212.13574657 234.06519653 206.61298747 186.89057674 197 142 C196.82500977 141.1538916 196.65001953 140.3077832 196.46972656 139.43603516 C190.05243008 108.46884863 179.93740209 76.67029988 157 54 C156.24847656 53.23816406 155.49695313 52.47632813 154.72265625 51.69140625 C146.65215284 43.97115977 136.76878466 39.60868639 126 37 C125.0480039 36.756421 125.0480039 36.756421 124.07677555 36.50792122 C118.75133945 35.21702648 113.82665734 34.72008961 108.35913086 34.77294922 C107.14283997 34.77251114 107.14283997 34.77251114 105.90197754 34.77206421 C103.25615245 34.77344321 100.61061885 34.78893608 97.96484375 34.8046875 C96.11682794 34.80842273 94.26881013 34.81126729 92.42079163 34.81326294 C87.58259509 34.82085927 82.74452071 34.84047297 77.90637207 34.8626709 C72.95908256 34.88321595 68.0117731 34.89228309 63.06445312 34.90234375 C53.37624873 34.92372299 43.68813457 34.95781008 34 35 Z " fill="#BA9300" transform="translate(722,271)"/>
<path d="M0 0 C0.79137293 16.22314506 -1.50725013 32.00638805 -4 48 C-4.12826172 48.8667334 -4.25652344 49.7334668 -4.38867188 50.62646484 C-8.72110732 78.95251526 -20.69232578 108.47786514 -32.625 134.375 C-32.97328857 135.14271729 -33.32157715 135.91043457 -33.68041992 136.70141602 C-36.87240697 143.40496128 -40.81606031 149.53898095 -47.75 152.75 C-48.50796875 153.11609375 -49.2659375 153.4821875 -50.046875 153.859375 C-51.02140625 154.23578125 -51.9959375 154.6121875 -53 155 C-53.64409376 155.24957594 -54.28818752 155.49915188 -54.95179927 155.75629073 C-62.5832936 158.39234125 -69.91065233 158.39774048 -77.90750122 158.32279968 C-79.40518283 158.31997315 -80.90286743 158.31847886 -82.40055168 158.31819278 C-86.4940548 158.31359235 -90.58726401 158.29021702 -94.68067551 158.26365387 C-99.10314145 158.23828713 -103.52564327 158.23050508 -107.94816589 158.22055054 C-115.60318027 158.20093049 -123.25808568 158.17025351 -130.91302872 158.13199425 C-141.98067987 158.07669442 -153.04833978 158.03818235 -164.11607312 158.003723 C-182.07418115 157.94735658 -200.03221003 157.87747715 -217.99023438 157.79907227 C-235.4312933 157.72295345 -252.87235855 157.65321586 -270.31347656 157.59204102 C-271.38915473 157.58826585 -272.4648329 157.58449068 -273.57310738 157.58060112 C-278.9696504 157.56170089 -284.36619384 157.54292591 -289.76273751 157.52421319 C-334.50858252 157.3688934 -379.25428265 157.18913732 -424 157 C-424 191.65 -424 226.3 -424 262 C-353.05 262 -282.1 262 -209 262 C-209 308 -209 308 -214 318 C-216.8125 320.625 -216.8125 320.625 -219 322 C-219.11214844 320.47632813 -219.11214844 320.47632813 -219.2265625 318.921875 C-220.25924626 307.33632162 -222.92120774 296.70027348 -231.87109375 288.53125 C-241.87101007 281.33864964 -250.90893094 279.24605343 -263 280 C-273.96540567 281.83274486 -282.56634481 288.07643669 -289 297 C-294.71369638 306.55177206 -295.62056557 317.37871162 -293.31640625 328.21484375 C-289.59724327 339.21801059 -282.15143892 347.4628515 -272 353 C-275.43695703 355.29130469 -278.79012491 356.19581927 -282.7265625 357.2421875 C-283.49840881 357.45074371 -284.27025513 357.65929993 -285.06549072 357.87417603 C-287.58314923 358.54964001 -290.10355437 359.21382066 -292.625 359.875 C-293.4822467 360.10098877 -294.33949341 360.32697754 -295.22271729 360.55981445 C-308.39699296 364.01429138 -321.48627208 366.92054717 -335.01635742 368.62231445 C-337.22501395 368.90189809 -339.43055502 369.20634206 -341.6340332 369.52416992 C-351.59417754 370.9300051 -361.3850005 371.36291888 -371.4375 371.3125 C-372.21891357 371.31034485 -373.00032715 371.3081897 -373.80541992 371.30596924 C-405.74953854 371.16563576 -436.64276916 364.778006 -467 355 C-467.75168457 354.75813965 -468.50336914 354.5162793 -469.27783203 354.26708984 C-488.29215923 347.99673653 -510.92552756 338.03522455 -520.8125 319.625 C-523.73038647 310.71776763 -524.32260491 302.14702735 -524.40161133 292.81445312 C-524.4195726 291.5318309 -524.43753387 290.24920868 -524.45603943 288.92771912 C-524.51305993 284.71232982 -524.5491276 280.49688726 -524.58203125 276.28125 C-524.5909504 275.20051932 -524.5909504 275.20051932 -524.60004973 274.0979557 C-524.65590224 267.28991921 -524.7045147 260.48187256 -524.73419666 253.67366791 C-524.77237062 245.0058571 -524.84769737 236.34016191 -524.97403508 227.67317438 C-525.06016981 221.55397826 -525.10378483 215.43534911 -525.11631411 209.31556463 C-525.12488889 205.67027687 -525.15161491 202.0273289 -525.22416115 198.38270569 C-525.30402992 194.31570405 -525.29580036 190.25330474 -525.28051758 186.18554688 C-525.31692352 184.99356186 -525.35332947 183.80157684 -525.39083862 182.57347107 C-525.30648546 177.33581637 -524.98945946 174.20949648 -521.60748863 170.07543945 C-518.83933578 167.52988548 -516.02243606 165.2345563 -513 163 C-511.65040589 161.92918623 -510.30127725 160.85778475 -508.953125 159.78515625 C-507.72337637 158.87134515 -506.48897354 157.9637641 -505.25 157.0625 C-504.57445068 156.56435791 -503.89890137 156.06621582 -503.20288086 155.55297852 C-501.8133237 154.52929009 -500.42198461 153.50801573 -499.02880859 152.48925781 C-497.08890264 151.06525946 -495.1619068 149.62557302 -493.23828125 148.1796875 C-456.53109276 120.70167928 -415.39759315 99.62154631 -372 85 C-371.16065918 84.71431152 -370.32131836 84.42862305 -369.45654297 84.13427734 C-347.15630893 76.60096676 -324.25587018 71.52208684 -301 68 C-299.74977051 67.80631836 -298.49954102 67.61263672 -297.21142578 67.41308594 C-273.74908047 63.93652932 -250.30221665 63.60705164 -226.63439941 63.39877319 C-205.79959572 63.21524612 -185.16095345 62.54223752 -164.42724609 60.35546875 C-161.30352825 60.03148149 -158.18088656 59.75345852 -155.05078125 59.5 C-144.2650254 58.60052368 -133.81017852 56.78735167 -123.23779297 54.48486328 C-121.21508926 54.04660346 -119.18783923 53.62945645 -117.16015625 53.21484375 C-108.67761533 51.4687189 -100.34943879 49.28549759 -92 47 C-90.99710938 46.7421875 -89.99421875 46.484375 -88.9609375 46.21875 C-88.04570313 45.9815625 -87.13046875 45.744375 -86.1875 45.5 C-85.41792969 45.3040625 -84.64835937 45.108125 -83.85546875 44.90625 C-54.7431371 35.66676855 -27.28199348 20.44057363 -3.671875 1.1796875 C-2 0 -2 0 0 0 Z " fill="#FFD22F" transform="translate(895,497)"/>
<path d="M0 0 C0.06971246 12.83109701 0.1229189 25.66214846 0.15543652 38.49339676 C0.1710485 44.45237194 0.19220486 50.41121692 0.22631836 56.37011719 C0.25907146 62.1278485 0.27688657 67.88545507 0.28463173 73.6432724 C0.2901467 75.83275056 0.30091562 78.02222241 0.31719017 80.21164703 C0.41867775 94.43914686 0.07408052 107.17075256 -6.625 120.0625 C-7.14549927 121.07473633 -7.14549927 121.07473633 -7.67651367 122.10742188 C-14.82882207 135.53976698 -25.46954125 145.90714614 -40 151 C-44.08858109 152.15703401 -48.03725798 152.13457702 -52.25828552 152.11784363 C-53.09878781 152.11854821 -53.9392901 152.11925279 -54.80526215 152.11997873 C-57.62727529 152.12128906 -60.44923278 152.11560938 -63.27124023 152.11010742 C-65.29371643 152.10986528 -67.31619275 152.11014253 -69.33866882 152.11090088 C-73.70167352 152.11200831 -78.06466771 152.11057089 -82.42767143 152.10753441 C-89.35439608 152.1038957 -96.28106626 152.11305756 -103.20777893 152.12532043 C-104.37893153 152.12734236 -105.55008413 152.12936429 -106.75672621 152.13144749 C-109.15261783 152.13561673 -111.5485094 152.1398195 -113.94440091 152.14405501 C-130.06639966 152.17211943 -146.18828226 152.19244719 -162.31030273 152.17504883 C-173.18602917 152.16340814 -184.06151137 152.17333608 -194.93719441 152.20710641 C-200.67992457 152.2241054 -206.42221477 152.23078978 -212.1649456 152.210989 C-269.02834137 152.02990451 -318.38594965 164.31425231 -360.52050781 204.58789062 C-361.5016484 205.5243456 -362.48795247 206.45542231 -363.47949219 207.38085938 C-387.6544118 229.97811449 -404.44148208 260.40246853 -413.25 292.125 C-413.49637207 293.00687988 -413.74274414 293.88875977 -413.99658203 294.79736328 C-417.94464088 309.59371651 -418.3952862 324.09276401 -418.625 339.3125 C-418.66326111 341.42123865 -418.7023173 343.52996303 -418.7421875 345.63867188 C-418.83729043 350.75899618 -418.92163799 355.87939325 -419 361 C-424.90408544 361.0997571 -430.80766757 361.17188395 -436.71240234 361.21972656 C-438.71607014 361.2396956 -440.71968078 361.26688063 -442.72314453 361.30175781 C-459.00505341 361.57786001 -472.92164676 360.36520583 -485.89453125 349.3984375 C-509.28610386 325.42603578 -513.53621144 280.36979772 -519 249 C-519.19255371 247.89575684 -519.38510742 246.79151367 -519.58349609 245.65380859 C-521.87671744 232.13863443 -522.71342031 218.6961211 -523 205 C-523.02191406 204.10297363 -523.04382813 203.20594727 -523.06640625 202.28173828 C-523.19380713 196.51366338 -523.15925641 190.76682382 -523 185 C-522.99226562 184.28279785 -522.98453125 183.5655957 -522.9765625 182.82666016 C-522.8697737 177.11746368 -522.69704125 172.07124377 -518.98046875 167.53515625 C-516.64496586 165.59882477 -514.25452292 163.87381971 -511.72607422 162.20019531 C-509.16534562 160.41963777 -506.81230046 158.41286146 -504.42333984 156.41064453 C-444.13714751 105.99674236 -368.4104708 72.29943952 -290.5 62.1875 C-289.74299805 62.08849396 -288.98599609 61.98948792 -288.20605469 61.88748169 C-282.8108025 61.19158744 -277.40893544 60.5789854 -272 60 C-271.16237122 59.90710693 -270.32474243 59.81421387 -269.46173096 59.71850586 C-254.21803727 58.06294731 -239.0405936 57.74025676 -223.72062588 57.66230297 C-147.70389958 57.26961749 -67.75609256 50.14242012 -5.1875 2.375 C-2 0 -2 0 0 0 Z " fill="#3672A4" transform="translate(652,258)"/>
<path d="M0 0 C1.15913658 -0.00642014 1.15913658 -0.00642014 2.34169006 -0.01296997 C4.85806004 -0.02299854 7.37423871 -0.02301321 9.890625 -0.01953125 C10.7499765 -0.01859467 11.609328 -0.01765808 12.49472046 -0.01669312 C34.23381854 0.03476187 54.80671129 1.82167212 76.07226562 6.49902344 C79.08521207 7.15588795 82.10323496 7.77964875 85.125 8.39453125 C101.8975625 11.84869103 118.54734987 15.94852057 134.140625 23.16796875 C134.92614746 23.52407227 135.71166992 23.88017578 136.52099609 24.24707031 C156.79385945 33.45964236 156.79385945 33.45964236 165.140625 40.16796875 C166.33945313 41.06902344 166.33945313 41.06902344 167.5625 41.98828125 C176.88067794 49.13607613 185.13288109 56.67575264 191.078125 66.85546875 C191.43140869 67.44134766 191.78469238 68.02722656 192.14868164 68.63085938 C198.88859291 80.9386638 199.87282747 95.22012491 200.1640625 108.94140625 C200.18286091 109.75377369 200.20165932 110.56614113 200.22102737 111.40312576 C200.31518237 115.69671186 200.38291998 119.98984641 200.43115234 124.28417969 C200.4756168 127.78994972 200.5732031 131.2879886 200.71826172 134.79101562 C202.02184358 166.98599103 202.02184358 166.98599103 192.91116333 176.9750061 C189.86177458 179.78799758 186.73418437 182.31450498 183.31739807 184.66671753 C180.2917294 186.75342507 177.59852925 189.13083638 174.828125 191.54296875 C173.27263303 192.76031029 171.71065282 193.96943283 170.140625 195.16796875 C168.47168351 196.49845357 166.80441486 197.83104734 165.140625 199.16796875 C164.480625 198.83796875 163.820625 198.50796875 163.140625 198.16796875 C163.14506622 196.89756241 163.14950745 195.62715607 163.15408325 194.31825256 C163.19468223 182.32740851 163.22463482 170.33657846 163.24424934 158.34568119 C163.25467244 152.18151541 163.26880481 146.01740526 163.29150391 139.85327148 C163.31328471 133.90104566 163.32520471 127.94887325 163.33037949 121.99661064 C163.33406583 119.72930499 163.3412643 117.46200215 163.35208511 115.19471931 C163.36666951 112.01134114 163.36860002 108.82818177 163.36767578 105.64477539 C163.37486633 104.71400681 163.38205688 103.78323822 163.38946533 102.82426453 C163.35160362 90.71891782 160.54520016 83.88306877 152.20703125 75.140625 C117.4145165 41.92659863 52.07823898 34.32311518 6.24682617 35.25732422 C-23.74880721 36.2050759 -53.31836554 42.04148317 -81.859375 51.16796875 C-81.22999023 51.62308838 -80.60060547 52.07820801 -79.95214844 52.54711914 C-70.71155837 59.30056228 -64.43450833 67.42625822 -62.21484375 78.828125 C-60.55610976 89.7466048 -63.2754621 99.85490183 -69.421875 109.04296875 C-75.42993325 116.70380139 -84.19599272 122.40376573 -93.859375 124.16796875 C-106.74280464 125.4107996 -116.15761145 121.83915814 -126.36328125 114.32421875 C-135.53818765 106.39847801 -138.57046058 94.76819854 -139.859375 83.16796875 C-140.82292744 84.24666268 -141.77998917 85.33115618 -142.734375 86.41796875 C-143.26804687 87.02125 -143.80171875 87.62453125 -144.3515625 88.24609375 C-155.68985449 102.69800996 -148.4845785 124.80294016 -148.859375 143.16796875 C-78.239375 143.16796875 -7.619375 143.16796875 65.140625 143.16796875 C65.140625 177.15796875 65.140625 211.14796875 65.140625 246.16796875 C32.42876559 254.89113126 -0.98516072 257.99649955 -34.76171875 258.46484375 C-35.47031288 258.47477104 -36.17890701 258.48469833 -36.90897369 258.49492645 C-44.07591066 258.59241327 -51.24249352 258.66880685 -58.41006565 258.69417572 C-159.29358958 259.08720026 -252.33164634 290.62051569 -344.9375 361.6484375 C-347.77861817 364.09833218 -350.67978022 366.4501022 -353.609375 368.79296875 C-357.84724025 372.23738753 -361.72359039 375.88564497 -365.49609375 379.83203125 C-367.47696739 381.78998569 -369.49239852 383.59944124 -371.6015625 385.4140625 C-376.05030014 389.27091246 -380.1740486 393.40579564 -384.296875 397.60546875 C-385.70996453 399.04390517 -387.12520473 400.48023317 -388.54296875 401.9140625 C-389.15712646 402.53982178 -389.77128418 403.16558105 -390.40405273 403.81030273 C-391.859375 405.16796875 -391.859375 405.16796875 -392.859375 405.16796875 C-394.5161232 349.67964811 -378.4369642 274.72441244 -339.859375 232.16796875 C-327.89690741 219.60840725 -313.26217658 213.46910648 -296.08866882 212.81169891 C-288.34228536 212.6406494 -280.59724372 212.66206096 -272.84950948 212.70370626 C-268.7747713 212.72113988 -264.70005495 212.71512343 -260.62528992 212.71209717 C-253.5826149 212.71000976 -246.54008924 212.72245445 -239.49745178 212.74504852 C-229.31527253 212.77769338 -219.13316478 212.78798824 -208.95093888 212.79300049 C-192.42704993 212.80173366 -175.90324041 212.82829529 -159.37939453 212.86621094 C-143.33740636 212.90298241 -127.29543983 212.93126897 -111.25341797 212.94824219 C-110.26295202 212.94929308 -109.27248607 212.95034398 -108.25200599 212.95142671 C-103.28264055 212.95664724 -98.31327496 212.96170198 -93.34390926 212.96667433 C-52.18234004 213.0080747 -11.02086789 213.07957743 30.140625 213.16796875 C30.140625 201.61796875 30.140625 190.06796875 30.140625 178.16796875 C-40.479375 178.16796875 -111.099375 178.16796875 -183.859375 178.16796875 C-183.859375 75.6353227 -183.859375 75.6353227 -166.859375 58.16796875 C-166.23289062 57.47960937 -165.60640625 56.79125 -164.9609375 56.08203125 C-151.30264039 41.50165501 -131.9773892 32.80691528 -113.859375 25.16796875 C-112.89064453 24.75417969 -112.89064453 24.75417969 -111.90234375 24.33203125 C-93.59473874 16.54648133 -74.35134828 11.04330648 -54.859375 7.16796875 C-54.05564453 7.00651367 -53.25191406 6.84505859 -52.42382812 6.67871094 C-39.61614057 4.13537433 -26.91580308 2.36357356 -13.89208984 1.40161133 C-11.88138419 1.2278849 -11.88138419 1.2278849 -10.08740234 0.65380859 C-6.74545447 -0.07493086 -3.40446546 0.00564917 0 0 Z " fill="#779EC0" transform="translate(487.859375,57.83203125)"/>
<path d="M0 0 C4.03151447 6.04727171 3.15064997 14.24149824 3.1328125 21.3203125 C3.13376923 22.18204071 3.13472595 23.04376892 3.13571167 23.93161011 C3.13638779 25.74509759 3.13457346 27.55858757 3.13037109 29.37207031 C3.12505451 32.09706291 3.13031513 34.82188771 3.13671875 37.546875 C3.1447749 52.43956727 2.51096224 66.93546896 -0.1875 81.625 C-0.41034668 82.84155273 -0.63319336 84.05810547 -0.86279297 85.31152344 C-2.91126622 96.11825049 -5.5947385 106.54691504 -9 117 C-9.57645264 118.77866455 -9.57645264 118.77866455 -10.16455078 120.59326172 C-29.85043797 180.95954765 -29.85043797 180.95954765 -49 202 C-49.64582031 202.72703125 -50.29164063 203.4540625 -50.95703125 204.203125 C-60.59962345 214.49379367 -73.65500987 221.51298887 -87.89322078 222.1241985 C-89.41627903 222.12362892 -89.41627903 222.12362892 -90.97010612 222.12304783 C-92.73843184 222.1260344 -92.73843184 222.1260344 -94.5424813 222.12908131 C-95.82847193 222.12616847 -97.11446256 222.12325563 -98.43942261 222.12025452 C-99.82640926 222.12069077 -101.21339584 222.12156667 -102.60038197 222.12284368 C-106.40636367 222.12507801 -110.21231718 222.12108187 -114.01829529 222.11606562 C-118.12456765 222.11174608 -122.23083843 222.11320862 -126.33711243 222.1139679 C-133.44975028 222.11449217 -140.56237895 222.11135538 -147.6750145 222.10573006 C-157.95868414 222.09760209 -168.24234935 222.0949985 -178.52602185 222.09374207 C-195.21070979 222.09155359 -211.89539284 222.08489903 -228.58007812 222.07543945 C-244.78743465 222.06626006 -260.99478984 222.0591818 -277.20214844 222.05493164 C-278.20121562 222.05466892 -279.20028279 222.05440619 -280.22962473 222.05413551 C-285.24166479 222.05283047 -290.25370485 222.05156676 -295.26574492 222.05032361 C-336.84383351 222.03995735 -378.42191612 222.02206931 -420 222 C-420 233.55 -420 245.1 -420 257 C-349.38 257 -278.76 257 -206 257 C-206 359.43334184 -206 359.43334184 -225.25 379.25 C-232.86710297 386.86710297 -240.63484108 392.64209904 -250 398 C-251.10859375 398.64839844 -252.2171875 399.29679687 -253.359375 399.96484375 C-263.54426043 405.75810768 -274.34113573 409.90953644 -285.30224609 413.9921875 C-287.63209575 414.8625603 -289.95162404 415.75474867 -292.26953125 416.65625 C-310.20691265 423.48223492 -329.20030731 427.52348322 -348.0625 430.8125 C-349.1772168 431.007229 -350.29193359 431.20195801 -351.44042969 431.40258789 C-368.63713175 434.25322368 -385.58167478 435.37830067 -403 435.3125 C-403.98079529 435.31100952 -404.96159058 435.30951904 -405.97210693 435.3079834 C-428.43247822 435.24683197 -450.1358992 433.29467959 -472 428 C-473.05300293 427.75233887 -474.10600586 427.50467773 -475.19091797 427.24951172 C-509.95371758 419.05531816 -543.91670037 408.61333026 -570 383 C-570.62261719 382.39027344 -571.24523437 381.78054688 -571.88671875 381.15234375 C-585.0512865 367.21861025 -589.81645233 349.66151576 -590.47851562 330.93164062 C-590.51560638 329.94343826 -590.55269714 328.9552359 -590.59091187 327.93708801 C-590.91653319 318.80885444 -591.1159663 309.67840531 -591.27381134 300.54586029 C-591.38217823 294.43030514 -591.53362725 288.32271085 -591.79003906 282.21142578 C-593.6104568 237.69702805 -593.6104568 237.69702805 -583.58074188 226.0638504 C-579.44436352 221.73293432 -574.76943188 218.16109764 -569.77661133 214.86401367 C-566.47744185 212.6491927 -563.62261385 210.12929302 -560.7220459 207.42443848 C-558.91000884 205.92556129 -557.11131122 205.0163681 -555 204 C-554.99761165 204.66923115 -554.99522329 205.3384623 -554.99276257 206.02797318 C-554.93347702 222.35550507 -554.85784103 238.68287255 -554.76428509 255.01024246 C-554.7194302 262.90622874 -554.67999214 270.80217095 -554.65356445 278.69824219 C-554.63050049 285.58510826 -554.59700974 292.47183366 -554.55129844 299.35858798 C-554.5274787 303.00087195 -554.50867664 306.64301758 -554.50238609 310.2853775 C-554.49514593 314.36395384 -554.46461431 318.44205237 -554.43237305 322.52050781 C-554.43380814 323.71166199 -554.43524323 324.90281616 -554.4367218 326.13006592 C-554.30486644 337.98370387 -552.35564767 350.37965156 -544.125 359.4375 C-522.45067903 379.60284925 -490.41779299 387.66194635 -462.30957031 393.50927734 C-460.33230143 393.92939473 -458.36416449 394.39210374 -456.3984375 394.86328125 C-405.4323014 406.95378799 -353.15404913 398.48764453 -304 383 C-304.556875 382.67128906 -305.11375 382.34257813 -305.6875 382.00390625 C-315.60555368 375.82187617 -321.97314006 368.34645265 -325.578125 357.21484375 C-327.62876175 346.44900081 -326.44206732 336.18878943 -320.6796875 326.86328125 C-314.67967252 318.25670239 -306.91272411 311.910413 -296.60546875 309.421875 C-285.12121605 307.56235582 -274.79319326 309.23350528 -265.171875 315.984375 C-254.23253845 325.22058131 -250.35633961 335.26535347 -249.1484375 349.09375 C-249.09945313 349.7228125 -249.05046875 350.351875 -249 351 C-248.03451388 349.7764437 -247.07794102 348.54585189 -246.125 347.3125 C-245.59132813 346.62800781 -245.05765625 345.94351562 -244.5078125 345.23828125 C-234.4153052 330.25639865 -240.32069895 306.75215157 -240 292 C-310.95 292 -381.9 292 -455 292 C-455 257.35 -455 222.7 -455 187 C-438.71418579 187.03927612 -438.71418579 187.03927612 -422.09936523 187.0793457 C-387.33232664 187.15965127 -352.56528767 187.21523618 -317.79818037 187.25532665 C-312.3948316 187.26157993 -306.99148311 187.26805157 -301.58813477 187.2746582 C-300.51245749 187.27596976 -299.43678021 187.27728131 -298.32850666 187.2786326 C-280.92747366 187.30036964 -263.52652354 187.3397818 -246.12553965 187.38576398 C-228.26110635 187.43257596 -210.39671635 187.46030542 -192.53222424 187.47044247 C-181.51514498 187.47729179 -170.49829998 187.49889897 -159.48129285 187.53958233 C-151.91924474 187.56607925 -144.35731716 187.57398529 -136.79522603 187.56750689 C-132.43685875 187.56431479 -128.0788999 187.56909379 -123.72060585 187.59602737 C-119.72084172 187.62056324 -115.72175623 187.62145784 -111.72195924 187.60449447 C-110.28427219 187.60240153 -108.84654079 187.60857139 -107.40893953 187.62441591 C-95.95127183 187.74322861 -81.88141647 186.03889428 -72.80859375 178.17578125 C-61.69999042 164.81186753 -56.68132571 146.14217938 -51 130 C-50.74224792 129.26988708 -50.48449585 128.53977417 -50.21893311 127.78753662 C-42.92410814 107.05643346 -36.98055301 86.84377889 -34 65 C-33.75742794 63.38918448 -33.5140255 61.77849364 -33.26953125 60.16796875 C-32.44951371 54.38431098 -31.89540382 48.86575064 -32.23828125 43.03125 C-32.94676146 30.37290908 -32.94676146 30.37290908 -30.23828125 26.4453125 C-27.8125 24.5625 -27.8125 24.5625 -25.0546875 22.875 C-21.41457266 20.64065841 -18.52399925 17.99182061 -15.4375 15.0625 C-14.88980957 14.55243408 -14.34211914 14.04236816 -13.77783203 13.5168457 C-9.07268682 9.1239268 -4.49906534 4.60369476 0 0 Z " fill="#FEE27B" transform="translate(926,467)"/>
<path d="M0 0 C10.54544785 -0.09326827 21.09079526 -0.16405035 31.63657379 -0.20724869 C36.53504658 -0.2279967 41.43323422 -0.25607634 46.33154297 -0.30175781 C51.07134241 -0.34567718 55.81087009 -0.36923284 60.55085754 -0.37950897 C62.34630096 -0.38681862 64.14173193 -0.40108866 65.9370575 -0.42292023 C89.2256025 -0.69448141 108.32785721 4.75027471 125.5625 21.0625 C154.3144174 50.83834608 162.85472351 98.51617991 169 138 C169.17354004 139.10891602 169.17354004 139.10891602 169.35058594 140.24023438 C170.00012502 144.48440367 170.61391918 148.72263089 171 153 C171.18691406 154.27230469 171.37382813 155.54460937 171.56640625 156.85546875 C171.50337346 161.81959849 168.54860268 164.32520271 165.15649414 167.64868164 C163.93434204 168.78164673 163.93434204 168.78164673 162.6875 169.9375 C161.45858032 171.11783813 161.45858032 171.11783813 160.20483398 172.32202148 C144.65519477 187.11493508 144.65519477 187.11493508 139 189 C138.23530376 185.53110953 137.82188985 182.20575931 137.640625 178.66015625 C135.31458034 138.53665807 129.50964394 77.33925279 101 46 C98.34644862 44.0269137 98.34644862 44.0269137 95.375 42.375 C94.41335938 41.80523437 93.45171875 41.23546875 92.4609375 40.6484375 C84.54834472 36.87968563 77.11173308 35.5494091 68.3984375 35.48828125 C67.435961 35.47033005 66.4734845 35.45237885 65.48184204 35.43388367 C62.44627092 35.38025521 59.41085263 35.34603867 56.375 35.3125 C54.30076019 35.27928494 52.22654043 35.24479149 50.15234375 35.20898438 C45.1016737 35.12455663 40.05104522 35.05752103 35 35 C35.01571045 35.73299316 35.0314209 36.46598633 35.04760742 37.22119141 C36.10691543 94.53109575 17.20856052 143.96705348 -22.52001953 185.48388672 C-35.99620825 199.2890883 -51.22051729 210.54012723 -68 220 C-68.59603027 220.34514648 -69.19206055 220.69029297 -69.80615234 221.04589844 C-99.46519803 238.18939024 -132.3652625 244.13921303 -166.20239258 244.15771484 C-168.13201512 244.16239093 -170.06163656 244.16753579 -171.99125671 244.17311096 C-176.12880663 244.18433635 -180.26634959 244.19279704 -184.40390968 244.19923019 C-190.95742548 244.20997207 -197.51089079 244.23023229 -204.06437683 244.25234985 C-222.69401741 244.31406956 -241.32365403 244.3682603 -259.95336914 244.40136719 C-270.25616557 244.41975581 -280.55887628 244.44874021 -290.86160964 244.4893719 C-296.30349621 244.51036146 -301.74527519 244.52588781 -307.18720436 244.52817917 C-312.30831183 244.53033832 -317.42919488 244.54633606 -322.55023384 244.57256889 C-324.41975412 244.57971379 -326.28930174 244.58188647 -328.15883255 244.57846642 C-344.26396761 244.553729 -359.71431629 245.11822315 -372.1875 256.4375 C-382.53367658 267.24456617 -384.3094626 282.16611752 -384.00401402 296.52983856 C-383.96372146 298.12084785 -383.92072294 299.71179055 -383.87524223 301.30265999 C-383.78362119 304.71532408 -383.73315275 308.12824006 -383.68009281 311.54168606 C-383.58166751 317.87049443 -383.4684401 324.19782073 -383.2800293 330.5246582 C-383.14974868 334.95296528 -383.07432035 339.37935065 -383.03422737 343.80935478 C-383.00906058 345.48454052 -382.9640896 347.15956066 -382.8980999 348.83363533 C-382.398371 361.8460162 -382.398371 361.8460162 -386.37135315 367.18916321 C-389.13077463 369.72066177 -391.92225044 371.87418021 -395 374 C-396.40184355 375.18150293 -397.79228625 376.37698177 -399.16015625 377.59765625 C-400.10785889 378.42160889 -400.10785889 378.42160889 -401.07470703 379.26220703 C-404.67167999 382.5088788 -408.04403521 385.9807833 -411.4375 389.4375 C-412.85058953 390.87593642 -414.26582973 392.31226442 -415.68359375 393.74609375 C-416.29775146 394.37185303 -416.91190918 394.9976123 -417.54467773 395.64233398 C-419 397 -419 397 -420 397 C-420.09395015 382.56029717 -420.16395806 368.12064258 -420.20724869 353.68069553 C-420.22776723 346.97411097 -420.25619144 340.26774583 -420.30175781 333.5612793 C-420.34553173 327.07732577 -420.36920333 320.59356991 -420.37950897 314.1094799 C-420.38684405 311.64780508 -420.40116603 309.18613987 -420.42292023 306.72455025 C-420.63265212 281.98653627 -417.3851143 255.58057926 -399.6875 236.5078125 C-397.20728764 234.21043631 -394.65539966 232.09189915 -392 230 C-391.071875 229.23945312 -390.14375 228.47890625 -389.1875 227.6953125 C-374.84303412 216.36471046 -357.9021644 208.8372887 -339.47583008 208.86196899 C-338.61910076 208.85914771 -337.76237144 208.85632643 -336.87968063 208.85341966 C-334.00962165 208.84508857 -331.13960133 208.84373666 -328.26953125 208.84228516 C-326.21109407 208.8376157 -324.15265792 208.83247192 -322.09422302 208.82688904 C-317.66026913 208.81561331 -313.22632195 208.80717645 -308.7923584 208.80076981 C-301.77333076 208.79007831 -294.75435113 208.76982899 -287.73535156 208.74765015 C-267.77525032 208.68576899 -247.81515166 208.63176527 -227.85498047 208.59863281 C-216.83185798 208.58025498 -205.80881575 208.55127771 -194.7857523 208.5106281 C-188.95648256 208.48960813 -183.12731377 208.47410796 -177.29800415 208.47182083 C-171.80845726 208.46966452 -166.31912036 208.45369518 -160.82963753 208.42743111 C-158.8226341 208.42027352 -156.81560513 208.41811981 -154.80859184 208.42153358 C-144.05318886 208.43689595 -134.38866268 208.02070418 -124 205 C-122.25125754 204.57808659 -120.50142587 204.16063187 -118.75 203.75 C-112.89910816 202.15115954 -107.38263608 199.76788216 -101.83691406 197.33691406 C-98.27246733 195.80082686 -95.94046695 195 -92 195 C-92 194.01 -92 193.02 -92 192 C-91.41734375 191.8040625 -90.8346875 191.608125 -90.234375 191.40625 C-80.44822321 187.83645878 -72.2905767 182.40666869 -65 175 C-63.37051053 173.66726309 -61.72388543 172.35525754 -60.0625 171.0625 C-28.15010747 145.12025897 -5.62571639 107.15545033 -1 66 C-0.30968959 55.33661287 -0.30544579 44.64492963 -0.26177979 33.96295166 C-0.24188702 30.12034936 -0.19995941 26.27798537 -0.16015625 22.43554688 C-0.08580026 14.95709679 -0.03494495 7.4787495 0 0 Z " fill="#FEF2BE" transform="translate(756,306)"/>
<path d="M0 0 C2.31755694 -0.00022717 4.63511452 -0.00264957 6.95266724 -0.00708008 C13.24139335 -0.01277604 19.52965325 0.01252907 25.81829095 0.04359484 C31.8282189 0.06861958 37.83812577 0.07064727 43.84809425 0.07327513 C55.85730819 0.07934105 67.86635417 0.10837768 79.87548828 0.15136719 C91.29085603 0.19219161 102.70614674 0.22105302 114.12158203 0.23339844 C115.15965912 0.23453561 115.15965912 0.23453561 116.21870746 0.23569575 C119.00811667 0.23872284 121.79752594 0.24169305 124.58693529 0.24458702 C191.36452888 0.31485027 258.13632863 0.73926446 324.90893555 1.58349609 C324.90893555 1.91349609 324.90893555 2.24349609 324.90893555 2.58349609 C296.65975402 7.52790981 268.69833719 10.48253267 240.0065918 10.88037109 C239.29799767 10.89029839 238.58940353 10.90022568 237.85933685 10.9104538 C230.69239988 11.00794062 223.52581703 11.0843342 216.3582449 11.10970306 C115.4794743 11.50270909 22.45148328 43.03428615 -70.33325195 114.22802734 C-73.80323186 117.19176373 -77.39857237 119.90462929 -81.09106445 122.58349609 C-86.5742936 111.6170378 -73.85288731 83.92283768 -70.09106445 72.58349609 C-69.75059082 71.54580078 -69.41011719 70.50810547 -69.05932617 69.43896484 C-65.06396131 57.33024569 -60.75552752 45.37683278 -55.90356445 33.58349609 C-55.51193115 32.6232251 -55.12029785 31.6629541 -54.71679688 30.67358398 C-50.1636703 19.8524181 -45.20182428 9.75777704 -34.40090656 4.19898033 C-23.0864313 -0.3953682 -12.06618615 -0.09484442 0 0 Z " fill="#719DC1" transform="translate(213.091064453125,305.41650390625)"/>
<path d="M0 0 C7.66662998 6.47302291 14.05512165 14.7875824 15.171875 25.015625 C16.10947833 38.26140292 13.72937571 47.75018236 5.171875 58.015625 C-0.95650851 64.60543974 -9.65447868 69.58062553 -18.7109375 70.21875 C-31.32198996 70.40107847 -40.731639 67.70875833 -50.02734375 58.94140625 C-59.01831265 49.41862403 -61.33954789 39.84352016 -61.10546875 27.0703125 C-60.61392383 16.50087391 -54.51094284 8.28410354 -47.015625 1.265625 C-33.52692742 -10.05247757 -14.24022376 -9.99175922 0 0 Z " fill="#FFFEFD" transform="translate(660.828125,782.984375)"/>
<path d="M0 0 C8.90476842 6.49646711 14.99319143 15.24687705 17.109375 26.1171875 C18.76810899 37.0356673 16.04875665 47.14396433 9.90234375 56.33203125 C3.8942855 63.99286389 -4.87177397 69.69282823 -14.53515625 71.45703125 C-27.43074939 72.70103548 -36.8032433 69.11099259 -47.03515625 61.62890625 C-49.68951577 59.32293142 -51.35374246 57.11379429 -53.22265625 54.14453125 C-54.09470703 52.78908203 -54.09470703 52.78908203 -54.984375 51.40625 C-58.1448681 45.39574046 -58.90005419 39.74106072 -58.84765625 33.08203125 C-58.8420166 32.33179688 -58.83637695 31.5815625 -58.83056641 30.80859375 C-58.60291893 20.4224596 -55.03774931 12.40468698 -47.94140625 4.734375 C-34.68319877 -7.49194369 -15.46846227 -9.41454946 0 0 Z " fill="#FDFEFE" transform="translate(408.53515625,110.54296875)"/>
<path d="M0 0 C-0.81082031 0.35191406 -1.62164062 0.70382812 -2.45703125 1.06640625 C-15.59671497 6.92496139 -25.7312666 14.08968662 -36 24 C-36 20.14602485 -35.03789643 19.57662947 -32.375 16.875 C-25.43465044 10.16453583 -10.11664171 -3.3722139 0 0 Z " fill="#D4BB5D" transform="translate(393,520)"/>
<path d="M0 0 C0.66 0.33 1.32 0.66 2 1 C0.23519919 2.8187336 -1.53630765 4.62994991 -3.3125 6.4375 C-4.06176758 7.2119043 -4.06176758 7.2119043 -4.82617188 8.00195312 C-7.19869635 10.40590176 -8.74970379 11.91656793 -12 13 C-10.56652501 9.61042892 -8.81218308 7.7219322 -6 5.375 C-3.92339664 3.6266832 -1.92037235 1.92037235 0 0 Z " fill="#F2E4AC" transform="translate(365,535)"/>
<path d="M0 0 C0 0.99 0 1.98 0 3 C-3.3 3 -6.6 3 -10 3 C-6.48579734 1.24289867 -3.89581553 0 0 0 Z " fill="#5484AC" transform="translate(553,304)"/>
</svg>
