<?xml version="1.0" encoding="UTF-8"?>
<svg version="1.1" xmlns="http://www.w3.org/2000/svg" width="214" height="214">
<path d="M0 0 C3.6643473 1.91851049 7.31379734 3.86267473 10.95825195 5.81860352 C11.61565369 6.17014496 12.27305542 6.5216864 12.95037842 6.88388062 C22.61844223 12.05517396 32.21968179 17.33325454 41.73388672 22.78369141 C46.28320534 25.38871063 50.84824905 27.93945582 55.4855957 30.38500977 C56.39615723 30.86929443 57.30671875 31.3535791 58.24487305 31.85253906 C59.94573539 32.75309696 61.65266627 33.6423377 63.36694336 34.51708984 C69.66123606 37.86612108 74.53028832 41.56057334 76.89167786 48.48460388 C78.01245114 52.5577278 78.11479503 56.55723514 78.09204102 60.75976562 C78.09729797 61.97097328 78.09729797 61.97097328 78.10266113 63.20664978 C78.11141323 65.85733822 78.1056519 68.50775643 78.09887695 71.15844727 C78.10022561 73.01257885 78.10216781 74.86671008 78.10467529 76.72084045 C78.10761784 80.60006082 78.1033574 84.47918884 78.09399414 88.35839844 C78.08260814 93.31567977 78.08915923 98.2727443 78.10113907 103.23001766 C78.10838797 107.05715041 78.10605571 110.88423232 78.10088348 114.71136665 C78.09955495 116.53849883 78.10116663 118.3656357 78.10584259 120.19276237 C78.1109569 122.75298045 78.10312886 125.31285425 78.09204102 127.87304688 C78.09608948 128.61874939 78.10013794 129.3644519 78.10430908 130.13275146 C78.04035322 138.15801357 76.76564364 144.53099188 70.83325195 150.38110352 C68.48754942 152.0159871 66.25237171 153.43384397 63.77075195 154.81860352 C62.69011475 155.43868286 62.69011475 155.43868286 61.58764648 156.07128906 C53.34353104 160.75255708 44.95315637 165.17390477 36.58105469 169.62084961 C28.76367618 173.77797487 21.02340795 178.05478033 13.33325195 182.44360352 C-10.71022719 196.14372617 -10.71022719 196.14372617 -20.16674805 195.38110352 C-28.46651835 192.78149066 -36.0634888 188.39567998 -43.66674805 184.25610352 C-44.92088187 183.57811869 -46.17519713 182.90046939 -47.4296875 182.22314453 C-56.22304188 177.46809304 -64.98266728 172.65410576 -73.69799805 167.75756836 C-76.64798981 166.11278458 -79.61051251 164.49155373 -82.57299805 162.86938477 C-84.83348247 161.62341394 -87.09389942 160.37732069 -89.35424805 159.13110352 C-90.41861084 158.55223389 -91.48297363 157.97336426 -92.57958984 157.37695312 C-107.45537527 149.13814765 -107.45537527 149.13814765 -110.16674805 142.38110352 C-111.15105075 137.64651563 -111.31495363 133.02436297 -111.31201172 128.20776367 C-111.31537033 127.4101915 -111.31872894 126.61261932 -111.32218933 125.7908783 C-111.33164955 123.16729148 -111.33363991 120.54376881 -111.3347168 117.92016602 C-111.33793263 116.0870257 -111.34129695 114.25388564 -111.34480286 112.42074585 C-111.35078168 108.5826559 -111.35264402 104.74458842 -111.35205078 100.90649414 C-111.35194919 96.0018864 -111.36560367 91.09742354 -111.38282299 86.19285011 C-111.39397107 82.40775904 -111.39596913 78.6227027 -111.39544106 74.83759689 C-111.39661685 73.02999751 -111.40101601 71.22239711 -111.40877342 69.414814 C-111.41863081 66.88085176 -111.41567282 64.34720024 -111.40966797 61.81323242 C-111.41528748 61.0753096 -111.42090698 60.33738678 -111.42669678 59.57710266 C-111.38294554 52.26833557 -110.33447083 45.57932917 -105.19702148 40.10083008 C-100.85545631 36.42334269 -95.79749398 33.90840174 -90.79174805 31.25610352 C-89.58301784 30.60200048 -88.37502074 29.9465411 -87.16772461 29.28979492 C-84.09543063 27.62250599 -81.01477129 25.97140852 -77.93127441 24.32495117 C-74.23385551 22.34719655 -70.54869159 20.34671814 -66.86157227 18.34985352 C-64.90355615 17.29016779 -62.94425019 16.23286179 -60.98364258 15.17797852 C-52.8515618 10.79238114 -44.81426252 6.24746591 -36.82592773 1.60522461 C-22.66580199 -6.52335574 -14.46256036 -7.39351151 0 0 Z " fill="#2C353B" transform="translate(123.166748046875,13.618896484375)"/>
<path d="M0 0 C0.495 1.485 0.495 1.485 1 3 C3.80376352 4.12949221 3.80376352 4.12949221 7 5 C8.67163195 5.65411685 10.34015202 6.31653318 12 7 C12 7.66 12 8.32 12 9 C12.886875 9.28875 13.77375 9.5775 14.6875 9.875 C17.50382424 10.83148748 20.25083156 11.86798946 23 13 C23 13.66 23 14.32 23 15 C23.886875 15.28875 24.77375 15.5775 25.6875 15.875 C28.50382424 16.83148748 31.25083156 17.86798946 34 19 C34 19.66 34 20.32 34 21 C36.97 21.99 39.94 22.98 43 24 C43 24.66 43 25.32 43 26 C43.86625 26.226875 44.7325 26.45375 45.625 26.6875 C49.52867483 28.20559577 52.62411635 29.4943087 55 33 C55.89602693 37.32707208 55.79267755 41.59512559 55.7265625 46 C55.72805801 47.90265625 55.72805801 47.90265625 55.72958374 49.84375 C55.72490415 52.5246782 55.70864521 55.20243608 55.67236328 57.8828125 C55.62698484 61.30959727 55.62590314 64.73461852 55.63939857 68.16162109 C55.6477076 71.4412126 55.62372062 74.72049381 55.6015625 78 C55.60429672 79.84078125 55.60429672 79.84078125 55.60708618 81.71875 C55.58802216 82.8634375 55.56895813 84.008125 55.54931641 85.1875 C55.54010162 86.19167969 55.53088684 87.19585937 55.52139282 88.23046875 C54.85635613 91.76300664 53.46920793 93.42907512 51 96 C45.82758621 99 45.82758621 99 43 99 C43 99.66 43 100.32 43 101 C41.25 102.0625 41.25 102.0625 39 103 C37.02 102.505 37.02 102.505 35 102 C35 85.17 35 68.34 35 51 C33.02 51.33 31.04 51.66 29 52 C29 52.66 29 53.32 29 54 C27.99582031 54.4125 26.99164063 54.825 25.95703125 55.25 C22.05227304 56.92557491 18.37402422 58.89341473 14.6875 61 C14.06810547 61.34289062 13.44871094 61.68578125 12.81054688 62.0390625 C9.7012172 63.80810566 8.01924936 64.97112596 6 68 C5.67216171 70.44368974 5.67216171 70.44368974 5.68115234 73.20581055 C5.66128265 74.26668381 5.64141296 75.32755707 5.62094116 76.420578 C5.60938995 77.56440445 5.59783875 78.7082309 5.5859375 79.88671875 C5.56657135 81.05886429 5.5472052 82.23100983 5.5272522 83.43867493 C5.46739803 87.1882089 5.42104717 90.93777348 5.375 94.6875 C5.33682564 97.22722705 5.29777424 99.76694107 5.2578125 102.30664062 C5.16169165 108.53764497 5.07666115 114.76872751 5 121 C4.360625 121.103125 3.72125 121.20625 3.0625 121.3125 C2.381875 121.539375 1.70125 121.76625 1 122 C0.505 123.485 0.505 123.485 0 125 C-7.75 125.125 -7.75 125.125 -10 124 C-10 123.34 -10 122.68 -10 122 C-11.32 121.34 -12.64 120.68 -14 120 C-14.00546844 119.03613373 -14.00546844 119.03613373 -14.01104736 118.05279541 C-14.05283407 111.36913796 -14.12215289 104.68616967 -14.20751953 98.00292969 C-14.23575799 95.50820811 -14.25695812 93.01339658 -14.27099609 90.51855469 C-14.29238499 86.93377534 -14.33901708 83.35008082 -14.390625 79.765625 C-14.39185364 78.64883362 -14.39308228 77.53204224 -14.39434814 76.38140869 C-14.41406677 75.34063171 -14.4337854 74.29985474 -14.45410156 73.22753906 C-14.46298401 72.31264709 -14.47186646 71.39775513 -14.48101807 70.45513916 C-15.16309819 67.22843412 -16.4821301 66.06937631 -19 64 C-20.96879323 62.93988057 -22.96435867 61.92529151 -25 61 C-25 60.34 -25 59.68 -25 59 C-25.70125 58.896875 -26.4025 58.79375 -27.125 58.6875 C-30.39137647 57.90640997 -33.0471852 56.57941257 -36 55 C-36 54.34 -36 53.68 -36 53 C-36.66386719 52.91878906 -37.32773438 52.83757812 -38.01171875 52.75390625 C-41.98331482 51.75192188 -45.24584559 49.91366546 -48.8125 47.9375 C-49.50537109 47.56044922 -50.19824219 47.18339844 -50.91210938 46.79492188 C-52.61128985 45.86916148 -54.30609425 44.93537688 -56 44 C-56 43.34 -56 42.68 -56 42 C-58.31 41.34 -60.62 40.68 -63 40 C-63.71989716 32.92101128 -63.71989716 32.92101128 -61.76953125 30.42578125 C-58.37663092 27.6360632 -55.18212632 25.16225263 -50.8125 24.5625 C-45.85757794 25.13109761 -42.99895503 27.17373431 -39 30 C-35.98138701 31.92093554 -33.53119238 33.34607548 -30 34 C-30 34.66 -30 35.32 -30 36 C-29.113125 36.28875 -28.22625 36.5775 -27.3125 36.875 C-24.49617576 37.83148748 -21.74916844 38.86798946 -19 40 C-19 40.66 -19 41.32 -19 42 C-17.88625 42.433125 -17.88625 42.433125 -16.75 42.875 C-14 44 -14 44 -12.08984375 45.04296875 C-8.43247248 46.7178397 -4.9301868 46.64666013 -1 46 C1.47159292 44.86685756 3.68464383 43.58384011 5.95703125 42.09375 C8 41 8 41 12 41 C12 40.34 12 39.68 12 39 C13.98 38.34 15.96 37.68 18 37 C17.67 35.35 17.34 33.7 17 32 C16.29875 31.896875 15.5975 31.79375 14.875 31.6875 C11.60862353 30.90640997 8.9528148 29.57941257 6 28 C6 27.34 6 26.68 6 26 C5.33613281 25.91878906 4.67226562 25.83757812 3.98828125 25.75390625 C0.01668518 24.75192188 -3.24584559 22.91366546 -6.8125 20.9375 C-7.50537109 20.56044922 -8.19824219 20.18339844 -8.91210938 19.79492188 C-10.61128985 18.86916148 -12.30609425 17.93537688 -14 17 C-14 16.34 -14 15.68 -14 15 C-14.763125 14.87625 -15.52625 14.7525 -16.3125 14.625 C-19 14 -19 14 -22 12 C-21.87890625 9.73828125 -21.87890625 9.73828125 -21 7 C-14.65799232 2.18528933 -7.99681449 -1.09760199 0 0 Z " fill="#F7F8F8" transform="translate(111,46)"/>
<path d="M0 0 C3.02266703 0.59651306 6.01725858 1.22669667 9 2 C9 2.66 9 3.32 9 4 C9.62648438 4.19335938 10.25296875 4.38671875 10.8984375 4.5859375 C11.71570312 4.84632812 12.53296875 5.10671875 13.375 5.375 C14.18710937 5.63023438 14.99921875 5.88546875 15.8359375 6.1484375 C18 7 18 7 20 9 C20.24050903 10.83499146 20.24050903 10.83499146 20.22705078 13.08251953 C20.22689972 13.92324005 20.22674866 14.76396057 20.22659302 15.63015747 C20.21627045 16.53853363 20.20594788 17.44690979 20.1953125 18.3828125 C20.1924826 19.31221649 20.18965271 20.24162048 20.18673706 21.19918823 C20.17552069 24.1745885 20.1504136 27.14969035 20.125 30.125 C20.11497208 32.13931858 20.1058459 34.15364186 20.09765625 36.16796875 C20.07557661 41.11209456 20.04103693 46.05599665 20 51 C18.02 51 16.04 51 14 51 C14 50.34 14 49.68 14 49 C13.29875 48.9175 12.5975 48.835 11.875 48.75 C7.61881629 47.63969121 4.52191133 45.43401843 1.33862305 42.43457031 C-0.72802344 38.67593475 -0.36941372 35.07714869 -0.29296875 30.859375 C-0.28872391 29.97719299 -0.28447906 29.09501099 -0.28010559 28.18609619 C-0.26333838 25.37375117 -0.22568998 22.56212774 -0.1875 19.75 C-0.17245062 17.8411562 -0.15876266 15.93230114 -0.14648438 14.0234375 C-0.11344127 9.34868111 -0.06167255 4.67446282 0 0 Z " fill="#F3F4F4" transform="translate(47,97)"/>
<path d="M0 0 C-0.51949219 0.37511719 -1.03898437 0.75023437 -1.57421875 1.13671875 C-9.2390286 6.38824002 -9.2390286 6.38824002 -14 14 C-14.66 14 -15.32 14 -16 14 C-15.67702048 8.67083799 -12.65001406 5.57948239 -9 2 C-5.483042 -0.67958704 -4.15680063 -1.26282551 0 0 Z " fill="#363B3E" transform="translate(29,50)"/>
<path d="M0 0 C-1.28913487 0.67154933 -2.58140204 1.33708859 -3.875 2 C-4.59429687 2.37125 -5.31359375 2.7425 -6.0546875 3.125 C-8 4 -8 4 -10 4 C-10 3.34 -10 2.68 -10 2 C-4.10714286 -1.34821429 -4.10714286 -1.34821429 0 0 Z " fill="#404345" transform="translate(93,15)"/>
</svg>
