<?xml version="1.0" encoding="UTF-8"?>
<svg version="1.1" xmlns="http://www.w3.org/2000/svg" width="500" height="500">
<path d="M0 0 C12.69796649 13.76134299 18.08042823 26.66911618 18.2109375 45.21484375 C18.23902922 47.4511789 18.26769381 49.68750692 18.296875 51.92382812 C18.33789631 55.41869729 18.3748172 58.91343662 18.40136719 62.40844727 C18.60800023 87.48764167 21.64737366 109.31767064 38.015625 129.48828125 C40.92600512 133.17208916 43.60059184 137.01538955 46.30541992 140.85131836 C48.62370259 144.12317709 51.00799665 147.28114676 53.5625 150.375 C58.55152009 156.71399023 62.25989576 163.87971077 66 171 C66.48799072 171.92474121 66.48799072 171.92474121 66.98583984 172.86816406 C75.7101864 189.6770413 81.38722095 208.47978653 80.8984375 227.51953125 C80.8773291 228.46900635 80.8562207 229.41848145 80.83447266 230.39672852 C80.77918288 232.26427641 80.6940559 234.13123703 80.57568359 235.99584961 C80.48849374 238.46164398 80.46147356 240.59095506 81 243 C83.7501098 245.57197106 83.7501098 245.57197106 87 247 C91.72627412 251.72627412 93.17094086 257.50165795 94.67578125 263.8515625 C94.90652344 264.80804688 95.13726562 265.76453125 95.375 266.75 C95.66503906 268.07257813 95.66503906 268.07257813 95.9609375 269.421875 C98.09953924 274.72818008 103.20821341 278.0786193 107.4375 281.75 C113.24546272 287.02497829 117.73879262 292.00617663 120.125 299.5625 C119.95903544 304.12652537 118.57765001 307.2482007 116 311 C113.67460171 313.0481234 111.14362598 314.5065712 108.4375 316 C106.98258904 316.85634791 105.52946415 317.71573743 104.078125 318.578125 C103.02141602 319.1978418 103.02141602 319.1978418 101.94335938 319.83007812 C97.40369442 322.56300205 93.2353811 325.82611792 89 329 C87.4619236 330.13415102 85.92276214 331.26683128 84.3828125 332.3984375 C79.58347239 335.92546777 74.78629027 339.45527208 70 343 C68.87984497 343.82890747 68.87984497 343.82890747 67.73706055 344.67456055 C67.02976807 345.20090088 66.32247559 345.72724121 65.59375 346.26953125 C64.96791016 346.73464111 64.34207031 347.19975098 63.69726562 347.67895508 C62.13175671 348.89744885 60.65393312 350.22641649 59.1875 351.5625 C51.13540606 358.34551391 39.73174719 361.54021421 29.3203125 361.25 C21.95954504 360.45692068 14.65324542 357.87169075 9 353 C6.53623042 349.84025031 5 347.09997753 5 343 C-19.59002059 332.99075483 -39.90433512 331.17016936 -65.90966797 336.6328125 C-68 337 -68 337 -71 337 C-71.226875 337.845625 -71.45375 338.69125 -71.6875 339.5625 C-74.53804195 347.02820512 -78.7893649 351.53673061 -86 355 C-98.29779178 359.45264875 -113.66156492 357.80819329 -125.5234375 352.73046875 C-135.80986715 348.69424329 -146.66760349 346.71642761 -157.43725586 344.375 C-188.37378947 337.60887219 -188.37378947 337.60887219 -194.75 328.5 C-197.51232141 322.97535718 -197.87296315 317.07141938 -197 311 C-195.66015625 308.421875 -195.66015625 308.421875 -194 305.75 C-190.03785477 298.76556725 -190.6006802 291.95832792 -191.046875 284.09667969 C-191.32023036 278.12507104 -191.22087955 274.64723102 -187 270 C-182.06549374 264.91846934 -175.34638891 263.67849777 -168.74804688 261.73242188 C-161.83467163 259.58214075 -157.42820963 257.42596453 -153.13671875 251.37109375 C-149.27624994 243.55650594 -148.50752059 237.19491193 -148.31762695 228.58666992 C-147.58791582 200.63372823 -130.30681726 173.51613067 -114.125 151.75 C-93.35162665 123.50303392 -84.83909437 94.66491168 -87.5 59.6875 C-87.97733189 53.32999266 -88.14504469 47.00019492 -88.1875 40.625 C-88.20683594 39.25154419 -88.20683594 39.25154419 -88.2265625 37.8503418 C-88.2438195 25.98292 -85.25862517 14.23390534 -76.9375 5.3125 C-54.48765607 -14.91213914 -24.02484315 -21.64840202 0 0 Z " fill="#373737" transform="translate(292,62)"/>
<path d="M0 0 C2.50048276 2.50048276 2.77660942 4.2706299 3.6875 7.6875 C4.038125 8.94949219 4.38875 10.21148437 4.75 11.51171875 C4.94722656 12.22247559 5.14445312 12.93323242 5.34765625 13.66552734 C11.30485454 34.98391434 18.45402077 55.26617908 29.19433594 74.68603516 C38.81675274 92.25385949 41.23369724 110.29153272 41 130 C43.93226664 129.87571578 43.93226664 129.87571578 47 129 C48.5506835 126.90825886 48.5506835 126.90825886 49.3125 124.25 C49.77076172 122.95835937 49.77076172 122.95835937 50.23828125 121.640625 C54.7196056 106.10536724 51.55751975 93.01962199 44.0703125 79.35546875 C42.25064812 76.40623913 40.47057975 74.37640967 38 72 C38 71.34 38 70.68 38 70 C44.36506099 72.121687 48.73468798 80.47234619 51.6640625 86.32421875 C57.59045297 100.41239258 56.81599809 112.55200573 52 127 C52.92941406 127.18175781 53.85882813 127.36351562 54.81640625 127.55078125 C61.20223816 128.84925594 67.15608576 130.07804288 73 133 C70.83066514 133.6972862 69.41969337 134.10674185 67.18286133 133.5378418 C62.79588911 132.45692246 58.18249867 132.81530762 53.6875 132.8125 C52.66720703 132.80025391 51.64691406 132.78800781 50.59570312 132.77539062 C41.038811 132.72637081 41.038811 132.72637081 32.625 136.8125 C30.81939866 138.91136453 30.81939866 138.91136453 30.5 141.625 C30.335 142.40875 30.17 143.1925 30 144 C29.071875 144.4021875 29.071875 144.4021875 28.125 144.8125 C24.23947578 146.98382236 23.6510713 151.75920729 22.46606445 155.83764648 C21.96017319 158.18478052 21.90605308 160.2685931 21.9296875 162.66796875 C21.82627499 180.50177897 21.82627499 180.50177897 16.078125 186.2265625 C15.39234375 186.81179688 14.7065625 187.39703125 14 188 C13.31421875 188.68835938 12.6284375 189.37671875 11.921875 190.0859375 C-0.551498 202.15549626 -17.94691666 207.83336762 -35.0625 208.375 C-49.77197937 208.10863116 -63.55570594 203.89110835 -76 196 C-76.33 195.01 -76.66 194.02 -77 193 C-76.4946875 192.62488281 -75.989375 192.24976563 -75.46875 191.86328125 C-74.8190625 191.35152344 -74.169375 190.83976563 -73.5 190.3125 C-72.52546875 189.56419922 -72.52546875 189.56419922 -71.53125 188.80078125 C-69.79897558 187.06318769 -69.79897558 187.06318769 -69.51953125 184.49609375 C-69.77454559 181.8998015 -69.77454559 181.8998015 -71.73046875 180.296875 C-72.94669922 179.53117187 -72.94669922 179.53117187 -74.1875 178.75 C-75.095 178.15703125 -76.0025 177.5640625 -76.9375 176.953125 C-77.948125 176.30859375 -78.95875 175.6640625 -80 175 C-97.47687651 163.37622836 -109.35700212 150.13803902 -116 130 C-116.26554688 129.20207031 -116.53109375 128.40414062 -116.8046875 127.58203125 C-120.94928652 112.45140606 -117.4310193 97.36632946 -109.91796875 84.0703125 C-107.24413328 79.78999747 -104.2668 75.84271003 -101 72 C-101 75.52971854 -101.73457196 76.32943654 -103.6875 79.1875 C-111.54016972 92.11362854 -114.84417132 108.19101924 -111.52392578 123.14404297 C-111.06149016 124.77628914 -110.53777253 126.39100187 -110 128 C-109.92523438 127.22140625 -109.85046875 126.4428125 -109.7734375 125.640625 C-108.09285982 111.3392385 -104.2357528 97.30076885 -97.375 84.59765625 C-95.66609257 81.36918056 -94.34600686 78.05730385 -93.0546875 74.64453125 C-90.58075022 68.44136259 -87.73850557 62.41611818 -84.80371094 56.42016602 C-76.98649755 40.34632021 -71.4010753 24.19174031 -67.46142578 6.76147461 C-67 5 -67 5 -66 3 C-62.27632734 4.24122422 -61.54248491 5.68096561 -59.25 8.8125 C-55.81817747 13.24474312 -53.06320116 15.67092746 -48 18 C-47.34 18.33 -46.68 18.66 -46 19 C-28.64312244 21.10910265 -13.52101673 9.34379205 0 0 Z " fill="#EDEDED" transform="translate(281,163)"/>
<path d="M0 0 C11.3701182 9.39367187 19.77309477 24.49155018 27.78515625 36.6875 C32.50045944 43.7396642 37.41625225 50.6555565 42.30322266 57.58935547 C43.85704627 59.79690286 45.40394197 62.00912296 46.94921875 64.22265625 C47.8199443 65.46119643 48.69101246 66.69949586 49.5625 67.9375 C50.67818359 69.52884766 50.67818359 69.52884766 51.81640625 71.15234375 C54.01894475 74.02470612 56.42921836 76.45891386 59 79 C63.09063845 84.34478834 63.73795268 90.00825799 63.5078125 96.61328125 C62.37188035 104.18907487 59.04166757 110.82652172 53 115.625 C44.26625714 121.62944822 33.13743882 120.99023331 23 120 C18.49532893 119.11683611 14.28489041 117.40939256 10.01708984 115.74853516 C6.1946103 114.33002605 2.29000314 113.19518446 -1.625 112.0625 C-2.48722168 111.81161621 -3.34944336 111.56073242 -4.23779297 111.30224609 C-13.27240288 108.76816786 -22.46409162 106.99169014 -31.69970703 105.35571289 C-40.82915695 103.62409096 -50.75533296 100.98197462 -57.25 93.875 C-60.12836505 89.00226217 -59.78755665 83.43554725 -59 78 C-57.88664615 74.51579889 -56.6415736 70.6415736 -54 68 C-53.87836 66.13284483 -53.82029113 64.26147761 -53.7890625 62.390625 C-53.76070313 61.24335938 -53.73234375 60.09609375 -53.703125 58.9140625 C-53.65137798 56.48712705 -53.60700897 54.06002217 -53.5703125 51.6328125 C-53.52390625 49.90417969 -53.52390625 49.90417969 -53.4765625 48.140625 C-53.45674316 47.08391602 -53.43692383 46.02720703 -53.41650391 44.93847656 C-52.94102157 41.5839013 -52.00554193 39.71192594 -50 37 C-44.13361427 32.95574923 -37.84994935 31.28636088 -31.02734375 29.46484375 C-24.19914791 27.48105009 -19.15283089 24.54954557 -15.3984375 18.359375 C-15.06070313 17.49828125 -14.72296875 16.6371875 -14.375 15.75 C-13.98441406 14.80898438 -13.59382813 13.86796875 -13.19140625 12.8984375 C-12.79824219 11.94195312 -12.40507812 10.98546875 -12 10 C-11.12388036 8.1157079 -10.22896879 6.24000062 -9.3125 4.375 C-8.91675781 3.55773437 -8.52101562 2.74046875 -8.11328125 1.8984375 C-5.97129597 -1.75421109 -3.69830884 -1.13921121 0 0 Z " fill="#FDCB22" transform="translate(157,296)"/>
<path d="M0 0 C5.25267342 9.86044566 4.23932474 23.21520413 3.75048828 34.07983398 C3.68588221 36.44864905 3.64366377 38.65694322 4 41 C5.81665009 43.17024686 5.81665009 43.17024686 8 44 C7.34 44 6.68 44 6 44 C6.92683594 44.93585938 7.85367188 45.87171875 8.80859375 46.8359375 C12.64633291 51.31236117 13.75289685 55.97511088 15.0625 61.625 C17.1077908 70.36993754 17.1077908 70.36993754 23 77 C24.16961306 78.12698595 25.32908453 79.26455317 26.48046875 80.41015625 C27.08697266 81.00763672 27.69347656 81.60511719 28.31835938 82.22070312 C28.93517578 82.82849609 29.55199219 83.43628906 30.1875 84.0625 C30.81591797 84.67416016 31.44433594 85.28582031 32.09179688 85.91601562 C32.69443359 86.51220703 33.29707031 87.10839844 33.91796875 87.72265625 C34.46219482 88.25640869 35.0064209 88.79016113 35.56713867 89.34008789 C38.7197283 92.99223594 39.25070847 96.09574371 39.4609375 100.90234375 C38.14749344 106.87962733 32.35372532 110.14761468 27.625 113.375 C26.8932959 113.88321289 26.1615918 114.39142578 25.40771484 114.91503906 C18.2268121 119.88769835 10.99092156 124.78156132 3.76782227 129.69262695 C-7.95683155 137.53549093 -7.95683155 137.53549093 -18.8125 146.5 C-21.33632153 148.75558929 -21.85237204 148.98389513 -25.4375 149.375 C-26.7059375 149.189375 -26.7059375 149.189375 -28 149 C-28.13728516 149.93585938 -28.13728516 149.93585938 -28.27734375 150.890625 C-29 153 -29 153 -32.5625 154.75 C-40.3131732 156.99819207 -51.09280147 157.80449433 -58.625 154.4375 C-64.59235348 150.6700318 -68.6089296 145.43566904 -70.47412109 138.62475586 C-72.00637175 130.97701826 -71.21232099 123.76028733 -68.91723633 116.39013672 C-64.06998019 100.70889621 -64.29537353 84.97160677 -64.31469727 68.70556641 C-64.31169617 67.72320007 -64.30869507 66.74083374 -64.30560303 65.72869873 C-64.30247951 63.87502989 -64.31281196 62.02126967 -64.33917236 60.16778564 C-64.33483315 54.68025414 -63.68021242 50.83183284 -61 46 C-58 44 -58 44 -55 44 C-54.91363281 44.90621094 -54.82726562 45.81242187 -54.73828125 46.74609375 C-53.86558621 54.31211952 -52.94130981 60.9743472 -48 67 C-44.58846084 69.63618935 -41.95969767 70.23296311 -37.75 70.0625 C-28.52789605 68.60556257 -20.71494917 62.10148747 -15 55 C-13.87959745 53.00904993 -12.77567733 51.00874441 -11.6875 49 C-8.83401505 44.2177706 -8.83401505 44.2177706 -5.1875 43.265625 C-1.51084549 43.24647576 1.68009949 43.34004975 5 45 C5 44.34 5 43.68 5 43 C4.01 43 3.02 43 2 43 C1.97494385 42.15928955 1.9498877 41.3185791 1.92407227 40.45239258 C1.82768047 37.26709196 1.72854589 34.08189054 1.62768555 30.89672852 C1.58495747 29.53055036 1.54325394 28.16433969 1.50268555 26.7980957 C1.23582487 17.84014299 0.77653402 8.92871205 0 0 Z " fill="#FCCB24" transform="translate(369,264)"/>
<path d="M0 0 C0.33 0 0.66 0 1 0 C1 2.31 1 4.62 1 7 C3.31 7 5.62 7 8 7 C7.67 8.65 7.34 10.3 7 12 C7.99 12.495 7.99 12.495 9 13 C9.33 11.35 9.66 9.7 10 8 C10.99 8.495 10.99 8.495 12 9 C7.01411667 27.66397033 1.1964622 45.31849237 -6.99414062 62.84130859 C-8.2944591 65.63194354 -9.55348536 68.44053215 -10.8125 71.25 C-12.18272518 74.26826234 -13.61332412 77.23775044 -15.125 80.1875 C-16.75626435 83.39130318 -18.01256317 86.63781166 -19.22265625 90.01953125 C-20.00133473 92.00340056 -20.92722791 93.81240355 -21.9375 95.6875 C-28.12368099 107.77652544 -31.1177489 122.5228539 -32 136 C-36.71588572 131.28411428 -36.42228402 123.85339464 -36.4375 117.5625 C-36.41726519 102.90710182 -32.02912634 91.2172297 -24 79 C-35.13936139 94.26505079 -41.52389147 107.62752964 -40 127 C-36.65648873 145.86424259 -26.54231248 163.52933558 -11 175 C-5.95953227 178.41883684 -0.82112538 181.68169275 4.35522461 184.89013672 C6.7037775 186.47489573 7.87466338 187.43598522 8.5 190.25 C7.76467251 194.29430121 5.23049803 196.56457273 2 199 C1.34 199 0.68 199 0 199 C3.24411731 202.74637913 6.89172445 204.64950028 11.375 206.5625 C12.08325928 206.86551025 12.79151855 207.16852051 13.52124023 207.48071289 C32.28056739 215.22289024 52.15246055 214.91054752 70.875 207.1875 C79.13279799 203.09060798 87.10258796 198.18793987 93 191 C93.7115625 190.15050781 94.423125 189.30101562 95.15625 188.42578125 C97.64723579 183.797403 97.55881909 179.92535359 97.5625 174.75 C97.60401655 166.55344641 97.95526771 158.26262521 102.875 151.375 C105.44575241 149.71157197 106.99368921 149.66596547 110 150 C108 151.33333333 106 152.66666667 104 154 C101.58091385 159.17750795 101.75005368 164.18196739 101.796875 169.76953125 C101.79067849 171.71891889 101.78271827 173.66830156 101.77319336 175.61767578 C101.76882767 177.13702728 101.76882767 177.13702728 101.76437378 178.68707275 C101.68882127 195.11517082 101.19507346 210.18766968 96.27734375 225.9765625 C93.75703737 234.47328088 93.92791539 244.02422525 98 252 C101.3549534 257.21542756 104.98360556 260.18324315 111 262 C113.7290752 262.28117744 116.16182017 262.43091825 118.875 262.375 C119.57246338 262.36702393 120.26992676 262.35904785 120.98852539 262.35083008 C126.57444039 262.19701785 130.96199704 261.38642245 136 259 C136.33 258.01 136.66 257.02 137 256 C138.19625 255.7525 139.3925 255.505 140.625 255.25 C144.13215518 254.49678546 145.74945786 253.55212833 148.12109375 250.875 C152.40029547 246.40128911 157.29227452 243.15304981 162.4375 239.75 C164.40247813 238.42988751 166.36732095 237.10957358 168.33203125 235.7890625 C169.29447754 235.14614258 170.25692383 234.50322266 171.24853516 233.84082031 C189.10873284 223.75244344 189.10873284 223.75244344 203 210 C203.52721694 203.67339676 202.9227272 201.2170951 199 196 C197.235206 194.08003037 195.42063473 192.20478594 193.5625 190.375 C192.63566406 189.45460938 191.70882813 188.53421875 190.75390625 187.5859375 C188.12287831 184.98605486 188.12287831 184.98605486 185.3203125 183.15234375 C182.22162132 180.2779686 181.37670345 177.14809222 180.3125 173.1875 C180.11333984 172.50107422 179.91417969 171.81464844 179.70898438 171.10742188 C178.75612287 167.80521002 177.87075705 164.49435625 177.01953125 161.1640625 C175.79356865 157.359351 173.90223865 155.67311454 171 153 C171 152.34 171 151.68 171 151 C173.87110893 151.30761881 174.96268285 151.96381367 177.0625 154 C180.04893852 158.62416288 181.41222041 163.51977397 182.67578125 168.8515625 C182.90652344 169.80804688 183.13726562 170.76453125 183.375 171.75 C183.66503906 173.07257813 183.66503906 173.07257813 183.9609375 174.421875 C186.09953924 179.72818008 191.20821341 183.0786193 195.4375 186.75 C201.24546272 192.02497829 205.73879262 197.00617663 208.125 204.5625 C207.95903544 209.12652537 206.57765001 212.2482007 204 216 C201.67460171 218.0481234 199.14362598 219.5065712 196.4375 221 C194.98258904 221.85634791 193.52946415 222.71573743 192.078125 223.578125 C191.02141602 224.1978418 191.02141602 224.1978418 189.94335938 224.83007812 C185.40369442 227.56300205 181.2353811 230.82611792 177 234 C175.4619236 235.13415102 173.92276214 236.26683128 172.3828125 237.3984375 C167.58347239 240.92546777 162.78629027 244.45527208 158 248 C156.87984497 248.82890747 156.87984497 248.82890747 155.73706055 249.67456055 C155.02976807 250.20090088 154.32247559 250.72724121 153.59375 251.26953125 C152.65499023 251.96719604 152.65499023 251.96719604 151.69726562 252.67895508 C150.13175671 253.89744885 148.65393312 255.22641649 147.1875 256.5625 C139.13540606 263.34551391 127.73174719 266.54021421 117.3203125 266.25 C109.95954504 265.45692068 102.65324542 262.87169075 97 258 C94.53623042 254.84025031 93 252.09997753 93 248 C68.40997941 237.99075483 48.09566488 236.17016936 22.09033203 241.6328125 C20 242 20 242 17 242 C16.773125 242.845625 16.54625 243.69125 16.3125 244.5625 C13.46195805 252.02820512 9.2106351 256.53673061 2 260 C-10.29779178 264.45264875 -25.66156492 262.80819329 -37.5234375 257.73046875 C-47.80986715 253.69424329 -58.66760349 251.71642761 -69.43725586 249.375 C-100.37378947 242.60887219 -100.37378947 242.60887219 -106.75 233.5 C-109.51232141 227.97535718 -109.87296315 222.07141938 -109 216 C-107.66015625 213.421875 -107.66015625 213.421875 -106 210.75 C-102.03785477 203.76556725 -102.6006802 196.95832792 -103.046875 189.09667969 C-103.32023036 183.12507104 -103.22087955 179.64723102 -99 175 C-94.06549374 169.91846934 -87.34638891 168.67849777 -80.74804688 166.73242188 C-73.83467163 164.58214075 -69.42820963 162.42596453 -65.13671875 156.37109375 C-61.27624994 148.55650594 -60.50752059 142.19491193 -60.31762695 133.58666992 C-59.58791582 105.63372823 -42.30681726 78.51613067 -26.125 56.75 C-13.83724206 40.04150129 -3.01073755 20.75487161 0 0 Z M-54.03125 139.671875 C-56.10592693 142.1252628 -57.25185277 144.29830047 -58.5 147.25 C-58.92410156 148.21679688 -59.34820312 149.18359375 -59.78515625 150.1796875 C-60.52308475 151.89282055 -61.26026941 153.60627462 -61.99609375 155.3203125 C-62.30675781 155.99835938 -62.61742187 156.67640625 -62.9375 157.375 C-63.19402344 157.96023438 -63.45054687 158.54546875 -63.71484375 159.1484375 C-68.34551407 165.81998075 -74.58214168 167.46404965 -82.0625 169.5625 C-91.92626988 172.0102003 -91.92626988 172.0102003 -99.10205078 178.75610352 C-100.23335641 181.58313724 -100.27262653 183.89462619 -100.30859375 186.9375 C-100.33373047 188.07960938 -100.35886719 189.22171875 -100.38476562 190.3984375 C-100.41992108 192.79942516 -100.45117133 195.20047318 -100.47851562 197.6015625 C-100.50494141 198.74367188 -100.53136719 199.88578125 -100.55859375 201.0625 C-100.57204834 202.10535156 -100.58550293 203.14820313 -100.59936523 204.22265625 C-101.05231777 207.36268552 -101.95211316 208.63628278 -104 211 C-106.69185099 216.66705471 -106.8786139 222.86582407 -106 229 C-103.39404857 235.47765069 -98.48444682 238.11767239 -92.34692383 240.79760742 C-86.61177016 242.85797884 -80.69953848 243.92517254 -74.72320557 245.02597046 C-60.41975631 247.67363022 -46.42284719 250.75462845 -32.90234375 256.26171875 C-26.48988295 258.77554451 -20.64242793 259.40637949 -13.8125 259.5 C-12.56448608 259.52779541 -12.56448608 259.52779541 -11.29125977 259.55615234 C-3.10813255 259.47328935 4.0732559 256.77560673 10 251 C15.47443761 243.22178604 17.57742618 235.40569787 16 226 C14.43727042 221.28004848 12.7329102 217.30852403 8.703125 214.265625 C4.95883503 211.12734728 2.61124068 207.37010404 -0.0625 203.3125 C-1.2189057 201.58907398 -2.37648159 199.86643264 -3.53515625 198.14453125 C-4.11539551 197.27908691 -4.69563477 196.41364258 -5.29345703 195.52197266 C-7.80657193 191.80802746 -10.39841653 188.15227296 -13 184.5 C-16.11336283 180.1260999 -19.19259422 175.7361065 -22.18359375 171.27734375 C-27.54554914 163.29045758 -33.00650429 155.48083478 -39.0625 148 C-39.59866943 147.33540771 -40.13483887 146.67081543 -40.68725586 145.98608398 C-44.37493442 141.47985317 -44.37493442 141.47985317 -49 138 C-52.05241692 137.68225047 -52.05241692 137.68225047 -54.03125 139.671875 Z " fill="#383736" transform="translate(204,157)"/>
<path d="M0 0 C0.33 0 0.66 0 1 0 C1 2.31 1 4.62 1 7 C3.31 7 5.62 7 8 7 C7.67 8.65 7.34 10.3 7 12 C7.99 12.495 7.99 12.495 9 13 C9.33 11.35 9.66 9.7 10 8 C10.99 8.495 10.99 8.495 12 9 C7.01411667 27.66397033 1.1964622 45.31849237 -6.99414062 62.84130859 C-8.2944591 65.63194354 -9.55348536 68.44053215 -10.8125 71.25 C-12.18272518 74.26826234 -13.61332412 77.23775044 -15.125 80.1875 C-16.75626435 83.39130318 -18.01256317 86.63781166 -19.22265625 90.01953125 C-20.00133473 92.00340056 -20.92722791 93.81240355 -21.9375 95.6875 C-28.12368099 107.77652544 -31.1177489 122.5228539 -32 136 C-36.71588572 131.28411428 -36.42228402 123.85339464 -36.4375 117.5625 C-36.41726519 102.90710182 -32.02912634 91.2172297 -24 79 C-34.93312623 93.98243225 -42.03014698 107.8626053 -40 127 C-39.07053383 132.11206395 -37.54322787 137.04364772 -36 142 C-35.32258569 144.33039662 -34.66120602 146.6649301 -34 149 C-37 149 -37 149 -38.4140625 147.734375 C-38.93742187 147.16203125 -39.46078125 146.5896875 -40 146 C-41.43379874 144.72193221 -42.89407624 143.47315205 -44.375 142.25 C-45.50035156 141.29867187 -45.50035156 141.29867187 -46.6484375 140.328125 C-48.92640824 138.80587094 -48.92640824 138.80587094 -51.58984375 138.89453125 C-55.18080367 140.54160039 -55.72019947 142.84595742 -57.1875 146.4375 C-59.85902256 152.85902256 -59.85902256 152.85902256 -62 155 C-62.125 148.25 -62.125 148.25 -61 146 C-60.89547251 144.66686976 -60.84485518 143.32925009 -60.82421875 141.9921875 C-60.00110767 109.76962178 -45.14141148 82.3289378 -26.125 56.75 C-13.83724206 40.04150129 -3.01073755 20.75487161 0 0 Z " fill="#3E3E3E" transform="translate(204,157)"/>
<path d="M0 0 C1.29067383 0.47542236 1.29067383 0.47542236 2.60742188 0.96044922 C4.36681068 1.60999479 6.12416424 2.26508084 7.87939453 2.92578125 C10.29253291 3.82120805 12.71642284 4.66890286 15.15234375 5.5 C16.58087058 5.99959582 18.00926374 6.49957409 19.4375 7 C20.08920166 7.21672363 20.74090332 7.43344727 21.41235352 7.65673828 C25.70721129 9.2076116 28.05655447 10.96811183 30.4375 14.875 C30.78515625 16.9375 30.78515625 16.9375 30.5 18.875 C30.42910156 19.514375 30.35820312 20.15375 30.28515625 20.8125 C27.92827581 26.54721369 21.94883959 29.71700905 16.875 32.8125 C16.17262207 33.245625 15.47024414 33.67875 14.74658203 34.125 C-4.88844998 46.08180204 -4.88844998 46.08180204 -13.9375 46.25 C-14.62585938 46.27835938 -15.31421875 46.30671875 -16.0234375 46.3359375 C-23.71148258 44.94026162 -28.5856068 40.33276562 -33.5625 34.625 C-34.43841797 33.65046875 -34.43841797 33.65046875 -35.33203125 32.65625 C-36.75304301 31.07217131 -38.15935566 29.47492677 -39.5625 27.875 C-36.04773762 27.875 -34.39424416 28.84329784 -31.25 30.375 C-21.07681272 34.6771551 -11.18318234 33.81837139 -0.875 30.28125 C12.66841309 24.72288464 12.66841309 24.72288464 22.4375 14.875 C21.48230469 15.53886719 20.52710938 16.20273438 19.54296875 16.88671875 C6.28799336 25.98725236 -6.87905514 33.76547534 -23.5625 31.875 C-31.29405971 29.80698403 -39.87783993 25.55966007 -45.5625 19.875 C-45.06226819 13.99727625 -41.797319 10.68983695 -37.5625 6.875 C-24.75348574 -2.17882498 -14.92430556 -5.68362388 0 0 Z " fill="#FACB25" transform="translate(254.5625,135.125)"/>
<path d="M0 0 C2.92572678 0.10600459 4.29720789 0.42863497 7 1.75 C12.89221922 8.82066307 12.78711377 18.56650287 13.1875 27.375 C12.48625 27.73851562 11.785 28.10203125 11.0625 28.4765625 C-1.29898734 34.81907789 -1.29898734 34.81907789 -9.8125 45.375 C-9.828239 47.40506127 -9.828239 47.40506127 -8.8125 49.375 C-0.5584483 56.22881079 8.59569177 60.02483686 19.30859375 59.65234375 C32.35081409 58.3959019 43.6323296 52.69754874 53.69921875 44.44140625 C55.1875 43.375 55.1875 43.375 57.1875 43.375 C54.258347 50.98081205 43.63151995 54.98139632 36.63671875 58.30859375 C26.99771491 62.50548059 16.90888804 64.49754359 6.625 61.25 C3.74918007 60.05626342 0.95741996 58.79547178 -1.8125 57.375 C-1.8125 60.55566229 3.26539854 64.35362035 5.46484375 66.6953125 C9.96569275 71.12512945 14.04205546 73.45389333 20.375 73.9375 C34.91421936 73.14219227 48.76568998 62.67114846 60.1875 54.375 C60.8475 54.705 61.5075 55.035 62.1875 55.375 C58.74030976 59.21310872 54.79258052 61.70366808 50.4375 64.375 C49.75945312 64.80039063 49.08140625 65.22578125 48.3828125 65.6640625 C38.16553454 71.9964439 27.59262711 77.94151776 15.1875 76.375 C8.66949243 73.9153745 4.17913029 69.65997815 0 64.1875 C-2.46340988 60.7497194 -2.46340988 60.7497194 -5.8125 58.375 C-6.3075 60.85 -6.3075 60.85 -6.8125 63.375 C-7.8025 63.045 -8.7925 62.715 -9.8125 62.375 C-9.1525 60.725 -8.4925 59.075 -7.8125 57.375 C-8.59625 57.560625 -9.38 57.74625 -10.1875 57.9375 C-12.8125 58.375 -12.8125 58.375 -14.8125 57.375 C-14.9924928 52.15520872 -14.78344808 48.30237019 -12.8125 43.375 C-12.1525 43.375 -11.4925 43.375 -10.8125 43.375 C-10.8125 42.715 -10.8125 42.055 -10.8125 41.375 C-10.1525 41.375 -9.4925 41.375 -8.8125 41.375 C-8.68875 40.818125 -8.565 40.26125 -8.4375 39.6875 C-7.8125 37.375 -7.8125 37.375 -6.65625 35.01171875 C-5.55948008 32.44781499 -5.55948008 32.44781499 -6.4921875 30.15625 C-7.08386719 29.02703125 -7.08386719 29.02703125 -7.6875 27.875 C-10.56159609 21.33496501 -11.45064636 13.90669462 -8.9765625 7.0625 C-6.5537087 2.69043298 -5.04218701 0.49595282 0 0 Z " fill="#39393A" transform="translate(219.8125,106.625)"/>
<path d="M0 0 C5.43898571 2.38229326 9.08332101 6.43671989 11.3671875 11.87890625 C13.73392672 19.8118655 11.34986958 25.24247147 7.60546875 32.3984375 C5.12895768 36.41147004 5.12895768 36.41147004 3 38 C-3.33333333 37.66666667 -3.33333333 37.66666667 -6 35 C-5.319375 34.4121875 -5.319375 34.4121875 -4.625 33.8125 C-0.78268256 29.52683824 -0.55082264 24.86532406 -0.69140625 19.31640625 C-0.86802203 16.8299954 -0.86802203 16.8299954 -2.5625 14.375 C-5.8713789 12.50845293 -8.25757582 12.65977962 -12 13 C-15.14832025 13.66357892 -15.14832025 13.66357892 -16.1484375 16.19921875 C-17.03842942 19.126394 -17.40466476 21.76452919 -17.625 24.8125 C-17.69976562 25.78832031 -17.77453125 26.76414063 -17.8515625 27.76953125 C-17.90054687 28.50558594 -17.94953125 29.24164063 -18 30 C-19.98 29.67 -21.96 29.34 -24 29 C-24.47979795 19.08417577 -22.70257363 11.47618732 -16.5 3.59375 C-11.86522507 -1.33069837 -6.30811592 -0.89544865 0 0 Z " fill="#E7E7E7" transform="translate(274,103)"/>
<path d="M0 0 C0.33 0 0.66 0 1 0 C1.53258737 3.65202769 1.64415501 5.84266817 -0.171875 9.10546875 C-5.61922446 16.01841462 -12.22448548 17.67528535 -20.421875 19.94921875 C-28.84555116 22.22452314 -28.84555116 22.22452314 -35 28 C-36.33103243 30.66206487 -36.1612836 32.76432036 -36.2109375 35.7421875 C-36.23929688 36.89074219 -36.26765625 38.03929687 -36.296875 39.22265625 C-36.34878798 41.64958815 -36.3931095 44.07669479 -36.4296875 46.50390625 C-36.460625 47.65503906 -36.4915625 48.80617188 -36.5234375 49.9921875 C-36.54325684 51.04776855 -36.56307617 52.10334961 -36.58349609 53.19091797 C-37.05103717 56.34421668 -37.94143469 57.6264345 -40 60 C-42.85308161 66.00648761 -43.42216924 73.82426904 -41.265625 80.15625 C-37.28908997 86.72617744 -29.28567043 89.16461686 -22.22338867 90.96020508 C-18.73568165 91.71423069 -15.23228723 92.37962263 -11.72320557 93.02597046 C2.58024369 95.67363022 16.57715281 98.75462845 30.09765625 104.26171875 C36.51011705 106.77554451 42.35757207 107.40637949 49.1875 107.5 C50.43551392 107.52779541 50.43551392 107.52779541 51.70874023 107.55615234 C59.09820089 107.48132608 65.08517956 105.39663014 70.8125 100.6875 C73.32923531 97.59551091 75.1361117 94.5206779 77 91 C77.99 91 78.98 91 80 91 C78.17200934 97.81341972 75.08069311 102.87598594 69.1875 106.8125 C57.74017731 113.26887495 43.39159092 112.05850641 31 109 C29.14708749 108.2727853 27.30646028 107.51379506 25.4765625 106.73046875 C15.19013285 102.69424329 4.33239651 100.71642761 -6.43725586 98.375 C-37.37378947 91.60887219 -37.37378947 91.60887219 -43.75 82.5 C-46.51232141 76.97535718 -46.87296315 71.07141938 -46 65 C-44.66015625 62.421875 -44.66015625 62.421875 -43 59.75 C-39.03785477 52.76556725 -39.6006802 45.95832792 -40.046875 38.09667969 C-40.32023036 32.12507104 -40.22087955 28.64723102 -36 24 C-31.06549374 18.91846934 -24.34638891 17.67849777 -17.74804688 15.73242188 C-11.22307705 13.70294727 -6.40797932 11.68923036 -2.5390625 5.76171875 C-2.23742187 5.07722656 -1.93578125 4.39273437 -1.625 3.6875 C-1.14933594 2.64142578 -1.14933594 2.64142578 -0.6640625 1.57421875 C-0.33535156 0.79498047 -0.33535156 0.79498047 0 0 Z " fill="#756D4F" transform="translate(141,308)"/>
<path d="M0 0 C2.87110893 0.30761881 3.96268285 0.96381367 6.0625 3 C9.04893852 7.62416288 10.41222041 12.51977397 11.67578125 17.8515625 C12.02189453 19.28628906 12.02189453 19.28628906 12.375 20.75 C12.56835938 21.63171875 12.76171875 22.5134375 12.9609375 23.421875 C15.09953924 28.72818008 20.20821341 32.0786193 24.4375 35.75 C30.24546272 41.02497829 34.73879262 46.00617663 37.125 53.5625 C36.95903544 58.12652537 35.57765001 61.2482007 33 65 C30.67460171 67.0481234 28.14362598 68.5065712 25.4375 70 C23.98258904 70.85634791 22.52946415 71.71573743 21.078125 72.578125 C20.37365234 72.99126953 19.66917969 73.40441406 18.94335938 73.83007812 C14.40369442 76.56300205 10.2353811 79.82611792 6 83 C4.4619236 84.13415102 2.92276214 85.26683128 1.3828125 86.3984375 C-3.41652761 89.92546777 -8.21370973 93.45527208 -13 97 C-13.74677002 97.55260498 -14.49354004 98.10520996 -15.26293945 98.67456055 C-15.97023193 99.20090088 -16.67752441 99.72724121 -17.40625 100.26953125 C-18.03208984 100.73464111 -18.65792969 101.19975098 -19.30273438 101.67895508 C-20.86824329 102.89744885 -22.34606688 104.22641649 -23.8125 105.5625 C-31.86459394 112.34551391 -43.26825281 115.54021421 -53.6796875 115.25 C-61.04045496 114.45692068 -68.34675458 111.87169075 -74 107 C-76.46376958 103.84025031 -78 101.09997753 -78 97 C-78.763125 96.71125 -79.52625 96.4225 -80.3125 96.125 C-83 95 -83 95 -86 93 C-79.64705882 94.05882353 -79.64705882 94.05882353 -77 96 C-75.76139445 98.28665639 -74.90792037 100.548615 -74 103 C-73.01 102.505 -73.01 102.505 -72 102 C-70.92578125 103.46484375 -69.8515625 104.9296875 -68.77734375 106.39453125 C-63.94658341 110.75814114 -58.41559356 111.50464825 -52.125 111.375 C-51.07880493 111.36303589 -51.07880493 111.36303589 -50.01147461 111.35083008 C-44.42555961 111.19701785 -40.03800296 110.38642245 -35 108 C-34.505 106.515 -34.505 106.515 -34 105 C-32.80375 104.7525 -31.6075 104.505 -30.375 104.25 C-26.86784482 103.49678546 -25.25054214 102.55212833 -22.87890625 99.875 C-18.59970453 95.40128911 -13.70772548 92.15304981 -8.5625 88.75 C-6.59752187 87.42988751 -4.63267905 86.10957358 -2.66796875 84.7890625 C-1.70552246 84.14614258 -0.74307617 83.50322266 0.24853516 82.84082031 C18.10873284 72.75244344 18.10873284 72.75244344 32 59 C32.52721694 52.67339676 31.9227272 50.2170951 28 45 C26.235206 43.08003037 24.42063473 41.20478594 22.5625 39.375 C21.63566406 38.45460938 20.70882812 37.53421875 19.75390625 36.5859375 C17.12287831 33.98605486 17.12287831 33.98605486 14.3203125 32.15234375 C11.22162132 29.2779686 10.37670345 26.14809222 9.3125 22.1875 C9.01375977 21.15786133 9.01375977 21.15786133 8.70898438 20.10742188 C7.75612287 16.80521002 6.87075705 13.49435625 6.01953125 10.1640625 C4.79356865 6.359351 2.90223865 4.67311454 0 2 C0 1.34 0 0.68 0 0 Z " fill="#958C77" transform="translate(375,308)"/>
<path d="M0 0 C2.92572678 0.10600459 4.29720789 0.42863497 7 1.75 C12.62737992 8.5028559 12.61946255 16.95972959 12.1875 25.375 C10.8675 25.705 9.5475 26.035 8.1875 26.375 C8.10113281 25.71113281 8.01476562 25.04726562 7.92578125 24.36328125 C7.21045265 19.86786758 6.58840091 16.92759315 3.875 13.1875 C1.34753361 11.10638503 1.34753361 11.10638503 -1.5625 11.4375 C-3.97482993 12.15497664 -3.97482993 12.15497664 -4.8125 14.375 C-5.24258598 19.0480496 -5.37663789 23.11851106 -3.4375 27.4375 C-1.94997501 29.4720615 -1.94997501 29.4720615 0.1875 30.375 C0.1875 31.035 0.1875 31.695 0.1875 32.375 C-1.4625 33.035 -3.1125 33.695 -4.8125 34.375 C-9.01290128 26.0492046 -11.19839623 18.7391637 -9.8125 9.375 C-7.93377515 4.21942949 -5.65212009 0.55594624 0 0 Z " fill="#E9E9E9" transform="translate(219.8125,106.625)"/>
<path d="M0 0 C0 3.52971854 -0.73457196 4.32943654 -2.6875 7.1875 C-10.54016972 20.11362854 -13.84417132 36.19101924 -10.52392578 51.14404297 C-10.06149016 52.77628914 -9.53777253 54.39100187 -9 56 C-8.67 53.36 -8.34 50.72 -8 48 C-7.67 48 -7.34 48 -7 48 C-6.77213542 50.01822917 -6.54427083 52.03645833 -6.31640625 54.0546875 C-6.08707039 56.07404316 -6.08707039 56.07404316 -5 58 C-6.423125 58.928125 -6.423125 58.928125 -7.875 59.875 C-10.94445109 61.81970969 -10.94445109 61.81970969 -13 64 C-18.37616447 47.07948236 -19.08286944 31.47264905 -10.75 15.3125 C-7.63605098 9.80167338 -4.0968013 4.81903375 0 0 Z " fill="#E5E5E5" transform="translate(180,235)"/>
<path d="M0 0 C6.36506099 2.121687 10.73468798 10.47234619 13.6640625 16.32421875 C19.59045297 30.41239258 18.81599809 42.55200573 14 57 C14.92941406 57.18175781 15.85882813 57.36351562 16.81640625 57.55078125 C23.20223816 58.84925594 29.15608576 60.07804288 35 63 C32.84898453 63.69139783 31.44046213 64.11581221 29.22558594 63.53344727 C26.47493008 62.8741468 23.96893663 62.88791359 21.140625 62.90234375 C20.02558594 62.90556641 18.91054688 62.90878906 17.76171875 62.91210938 C16.02341797 62.92467773 16.02341797 62.92467773 14.25 62.9375 C13.07566406 62.94201172 11.90132813 62.94652344 10.69140625 62.95117188 C7.79421928 62.96294906 4.89713546 62.97939674 2 63 C2 62.34 2 61.68 2 61 C3.0725 60.87625 4.145 60.7525 5.25 60.625 C8.01313924 59.8587043 8.8137042 59.3081046 10.3203125 56.81640625 C14.71976858 45.85035462 16.33985597 32.25539881 12 21 C8.80634419 14.05810145 5.55336666 7.34169125 0 2 C0 1.34 0 0.68 0 0 Z " fill="#DBDBDB" transform="translate(319,233)"/>
<path d="M0 0 C2.475 0.99 2.475 0.99 5 2 C5 2.66 5 3.32 5 4 C6.32 4 7.64 4 9 4 C10.7890625 6.23828125 10.7890625 6.23828125 12.625 9.3125 C19.12464542 19.51935058 26.68126306 27.56725548 37 34 C36.505 34.99 36.505 34.99 36 36 C35.01 36 34.02 36 33 36 C32.67 36.99 32.34 37.98 32 39 C31.67 39.99 31.34 40.98 31 42 C31.99 42.33 32.98 42.66 34 43 C34.495 45.475 34.495 45.475 35 48 C31.18360297 44.41918303 28.25991036 40.6627233 25.4375 36.25 C17.8948624 24.71428602 10.14433376 13.29562111 1.328125 2.6875 C0 1 0 1 0 0 Z " fill="#413B2A" transform="translate(162,302)"/>
<path d="M0 0 C0.99 0 1.98 0 3 0 C1.17200934 6.81341972 -1.91930689 11.87598594 -7.8125 15.8125 C-19.27320671 22.27642364 -33.58800647 21.02507966 -46 18 C-48.46092112 17.14348246 -50.66422308 16.16788846 -53 15 C-53 14.34 -53 13.68 -53 13 C-53.92683594 12.80664062 -54.85367188 12.61328125 -55.80859375 12.4140625 C-57.00613281 12.15367187 -58.20367187 11.89328125 -59.4375 11.625 C-60.63246094 11.36976563 -61.82742187 11.11453125 -63.05859375 10.8515625 C-64.02925781 10.57054687 -64.99992188 10.28953125 -66 10 C-66.33 9.34 -66.66 8.68 -67 8 C-61.50417036 8.44954367 -56.98358989 9.61313611 -51.84472656 11.57885742 C-43.63310166 14.69182663 -36.06698731 16.67998267 -27.25 16.6875 C-26.45368164 16.69402588 -25.65736328 16.70055176 -24.83691406 16.70727539 C-17.72119795 16.49098995 -11.6902945 14.21201992 -6.1875 9.6875 C-3.67076469 6.59551091 -1.8638883 3.5206779 0 0 Z " fill="#685E3A" transform="translate(218,399)"/>
<path d="M0 0 C0.87849609 0.33386719 1.75699219 0.66773438 2.66210938 1.01171875 C3.57541016 1.34558594 4.48871094 1.67945313 5.4296875 2.0234375 C7.65807736 2.84012488 9.880733 3.66960158 12.09960938 4.51171875 C8.31074394 5.63934532 6.61182823 5.18653815 2.97460938 3.57421875 C-0.34965781 2.00985921 -0.34965781 2.00985921 -3.90039062 1.51171875 C-4.56039062 2.83171875 -5.22039062 4.15171875 -5.90039062 5.51171875 C-4.91039062 6.17171875 -3.92039063 6.83171875 -2.90039062 7.51171875 C-3.23039062 8.50171875 -3.56039062 9.49171875 -3.90039062 10.51171875 C-7.27539062 10.19921875 -7.27539062 10.19921875 -10.90039062 9.51171875 C-11.56039062 8.52171875 -12.22039062 7.53171875 -12.90039062 6.51171875 C-13.41601562 6.98609375 -13.93164062 7.46046875 -14.46289062 7.94921875 C-17.56821738 9.93981282 -20.26671567 10.16232693 -23.90039062 10.51171875 C-23.90039062 9.19171875 -23.90039062 7.87171875 -23.90039062 6.51171875 C-22.91039062 6.18171875 -21.92039063 5.85171875 -20.90039062 5.51171875 C-21.23039063 4.85171875 -21.56039062 4.19171875 -21.90039062 3.51171875 C-20.91039062 3.51171875 -19.92039063 3.51171875 -18.90039062 3.51171875 C-19.56039062 2.19171875 -20.22039062 0.87171875 -20.90039062 -0.48828125 C-13.93573571 -4.39511637 -7.17077002 -2.59311979 0 0 Z " fill="#FDCC21" transform="translate(252.900390625,134.48828125)"/>
<path d="M0 0 C-2 1.33333333 -4 2.66666667 -6 4 C-8.47080644 9.26227553 -8.29556115 14.50075936 -8.30859375 20.19140625 C-8.33377224 22.20898703 -8.35916997 24.22656509 -8.38476562 26.24414062 C-8.41335511 29.39460417 -8.43739512 32.54502 -8.45629883 35.69555664 C-8.61789335 58.26729255 -8.61789335 58.26729255 -12 69 C-12.33 69 -12.66 69 -13 69 C-13.09765625 62.84765625 -13.09765625 62.84765625 -13 61 C-12.505 60.505 -12.505 60.505 -12 60 C-11.91314397 58.43827255 -11.89297781 56.87270656 -11.90234375 55.30859375 C-11.90556641 54.36435547 -11.90878906 53.42011719 -11.91210938 52.44726562 C-11.92048828 51.45404297 -11.92886719 50.46082031 -11.9375 49.4375 C-11.94201172 48.44041016 -11.94652344 47.44332031 -11.95117188 46.41601562 C-11.96299993 43.94395151 -11.97948151 41.47200482 -12 39 C-12.45375 39.66 -12.9075 40.32 -13.375 41 C-13.91125 41.66 -14.4475 42.32 -15 43 C-15.66 43 -16.32 43 -17 43 C-17.3403125 43.928125 -17.3403125 43.928125 -17.6875 44.875 C-19.37929835 47.61410209 -20.99244161 48.05024472 -24 49 C-23.43732422 48.36384766 -23.43732422 48.36384766 -22.86328125 47.71484375 C-22.09564453 46.83505859 -22.09564453 46.83505859 -21.3125 45.9375 C-20.81363281 45.36902344 -20.31476563 44.80054688 -19.80078125 44.21484375 C-19.20652344 43.48394531 -18.61226563 42.75304687 -18 42 C-17.57074219 41.52296631 -17.14148438 41.04593262 -16.69921875 40.55444336 C-12.50630669 35.47577862 -12.31961871 31.11634493 -12.375 24.6875 C-12.375 16.49327029 -12.04565451 8.26391631 -7.125 1.375 C-4.55424759 -0.28842803 -3.00631079 -0.33403453 0 0 Z " fill="#6E5C1C" transform="translate(314,307)"/>
<path d="M0 0 C0.33 0 0.66 0 1 0 C1.16435547 1.25103516 1.16435547 1.25103516 1.33203125 2.52734375 C2.09152109 7.91786922 2.83728734 12.97121908 4.8125 18.0625 C5.59765625 20.19921875 5.59765625 20.19921875 6 22 C4.75 24.375 4.75 24.375 3 26 C2.67 26.99 2.34 27.98 2 29 C1.34 29 0.68 29 0 29 C0 29.66 0 30.32 0 31 C-0.66 31.33 -1.32 31.66 -2 32 C-2.65555119 34.52733235 -2.65555119 34.52733235 -3 37 C-3.33 37 -3.66 37 -4 37 C-4 25.78 -4 14.56 -4 3 C-2.68 3.33 -1.36 3.66 0 4 C0 2.68 0 1.36 0 0 Z " fill="#3F3E3F" transform="translate(209,119)"/>
<path d="M0 0 C0.99 0.495 0.99 0.495 2 1 C-1.44719024 4.83810872 -5.39491948 7.32866808 -9.75 10 C-10.42804688 10.42539063 -11.10609375 10.85078125 -11.8046875 11.2890625 C-22.02196546 17.6214439 -32.59487289 23.56651776 -45 22 C-53.25263066 18.88579975 -57.89944552 12.87913399 -63 6 C-62.67 5.34 -62.34 4.68 -62 4 C-61.3709375 4.74765625 -60.741875 5.4953125 -60.09375 6.265625 C-51.71175634 15.93207223 -51.71175634 15.93207223 -39.8125 19.5625 C-25.27328064 18.76719227 -11.42181002 8.29614846 0 0 Z " fill="#5F5334" transform="translate(280,161)"/>
<path d="M0 0 C-2.929153 7.60581205 -13.55598005 11.60639632 -20.55078125 14.93359375 C-30.10702521 19.09444638 -40.17256472 21.12619092 -50.38671875 17.9453125 C-53.31755605 16.72683401 -56.15267374 15.40032439 -59 14 C-60.66093413 13.31917693 -62.32592329 12.64783439 -64 12 C-63.67 11.01 -63.34 10.02 -63 9 C-62.10796875 9.42152344 -61.2159375 9.84304687 -60.296875 10.27734375 C-59.12640625 10.82519531 -57.9559375 11.37304688 -56.75 11.9375 C-55.00976562 12.75541016 -55.00976562 12.75541016 -53.234375 13.58984375 C-43.43523654 17.86217344 -32.88888624 16.519353 -23 13 C-15.96650761 9.76883644 -9.47715943 5.9780558 -3.48828125 1.06640625 C-2 0 -2 0 0 0 Z " fill="#5E4A07" transform="translate(277,150)"/>
<path d="M0 0 C0.33 0 0.66 0 1 0 C1.53258737 3.65202769 1.64415501 5.84266817 -0.171875 9.10546875 C-4.82736408 15.01350608 -9.91412339 17.00282242 -17 19 C-24.77148811 21.22434819 -31.35738459 23.311095 -38 28 C-36.47612905 24.12105577 -34.48344898 22.26087076 -31 20 C-26.67028879 18.30729927 -22.20401617 17.04663905 -17.74804688 15.73242188 C-11.22307705 13.70294727 -6.40797932 11.68923036 -2.5390625 5.76171875 C-2.23742187 5.07722656 -1.93578125 4.39273437 -1.625 3.6875 C-1.14933594 2.64142578 -1.14933594 2.64142578 -0.6640625 1.57421875 C-0.33535156 0.79498047 -0.33535156 0.79498047 0 0 Z " fill="#706851" transform="translate(141,308)"/>
<path d="M0 0 C5.51413671 0.1395984 10.75573525 1.48527529 16.09375 2.78125 C17.10695312 3.01972656 18.12015625 3.25820313 19.1640625 3.50390625 C21.64261426 4.08847034 24.11894334 4.68106469 26.59375 5.28125 C26.59375 5.94125 26.59375 6.60125 26.59375 7.28125 C30.88375 8.60125 35.17375 9.92125 39.59375 11.28125 C36.17407561 12.42114146 35.09448206 12.10787251 31.68359375 11.20703125 C30.21019531 10.82635498 30.21019531 10.82635498 28.70703125 10.43798828 C27.65902344 10.15938965 26.61101562 9.88079102 25.53125 9.59375 C23.36377827 9.03323081 21.19580271 8.47465647 19.02734375 7.91796875 C17.94694824 7.64001465 16.86655273 7.36206055 15.75341797 7.07568359 C11.21815092 5.93538387 6.66212192 4.90442498 2.09375 3.90625 C1.32925537 3.73907471 0.56476074 3.57189941 -0.22290039 3.3996582 C-1.95008939 3.02411214 -3.67806769 2.65219822 -5.40625 2.28125 C-3.40625 0.28125 -3.40625 0.28125 0 0 Z " fill="#9B947C" transform="translate(125.40625,400.71875)"/>
<path d="M0 0 C0.66 0 1.32 0 2 0 C2 0.66 2 1.32 2 2 C3.98 1.34 5.96 0.68 8 0 C8 1.32 8 2.64 8 4 C7.34 4 6.68 4 6 4 C9.17341525 7.6132946 12.37058591 9.3230578 16.75 11.25 C17.92046875 11.77078125 19.0909375 12.2915625 20.296875 12.828125 C21.18890625 13.21484375 22.0809375 13.6015625 23 14 C22.401875 14.28875 21.80375 14.5775 21.1875 14.875 C18.80672208 16.04742026 18.80672208 16.04742026 16 18 C15.67 17.67 15.34 17.34 15 17 C14.34 17.66 13.68 18.32 13 19 C11.01429174 16.40076281 9.03759675 13.79480707 7.0625 11.1875 C6.49853516 10.44951172 5.93457031 9.71152344 5.35351562 8.95117188 C4.81533203 8.23896484 4.27714844 7.52675781 3.72265625 6.79296875 C3.22515869 6.1383667 2.72766113 5.48376465 2.21508789 4.80932617 C1 3 1 3 0 0 Z " fill="#3F3E36" transform="translate(198,352)"/>
<path d="M0 0 C6.36506099 2.121687 10.73468798 10.47234619 13.6640625 16.32421875 C16.51132563 23.09271268 18.13617175 28.38282465 18.0625 35.75 C18.05347656 36.92046875 18.04445313 38.0909375 18.03515625 39.296875 C18.02355469 40.18890625 18.01195312 41.0809375 18 42 C15.47221086 40.12279466 15.02402468 39.16106981 14.55078125 35.98828125 C14.47214844 34.77527344 14.39351563 33.56226563 14.3125 32.3125 C13.70784604 26.07465308 12.0271927 21.01563111 9.1875 15.4375 C8.85596924 14.78370361 8.52443848 14.12990723 8.18286133 13.45629883 C6.46295309 10.24031453 4.61594759 7.43004953 2.23828125 4.66015625 C0 2 0 2 0 0 Z " fill="#C9C9C9" transform="translate(319,233)"/>
<path d="M0 0 C0.33 0 0.66 0 1 0 C1.01417969 0.92941406 1.02835937 1.85882813 1.04296875 2.81640625 C1.1610779 11.86792689 1.1610779 11.86792689 5.2265625 19.609375 C11.53552469 24.55649073 19.2464565 26.60182002 27 28 C26.34 28.66 25.68 29.32 25 30 C16.97865165 30 10.84618018 27.02653655 4 23 C-0.22070375 18.77929625 -1.1858603 11.26352262 -1.25 5.4375 C-1 2 -1 2 0 0 Z " fill="#73694E" transform="translate(97,372)"/>
<path d="M0 0 C6.35294118 1.05882353 6.35294118 1.05882353 9 3 C10.23860555 5.28665639 11.09207963 7.548615 12 10 C12.66 9.67 13.32 9.34 14 9 C14.680625 9.928125 15.36125 10.85625 16.0625 11.8125 C20.83844744 17.42192303 25.87040965 18.11967732 32.9375 18.6875 C34.95767973 18.80365464 36.97840511 18.91184022 39 19 C39 19.99 39 20.98 39 22 C29.17011711 22.47563949 19.65985607 20.60088979 12 14 C9.53623042 10.84025031 8 8.09997753 8 4 C7.236875 3.71125 6.47375 3.4225 5.6875 3.125 C3 2 3 2 0 0 Z " fill="#A09C8A" transform="translate(289,401)"/>
<path d="M0 0 C6.992 5.472 6.992 5.472 8 9 C8.65084746 15.83389831 8.65084746 15.83389831 6.5 19.6875 C3.28517801 22.66121034 -0.20640514 24.83617769 -4 27 C-4.33 25.35 -4.66 23.7 -5 22 C-3.35 22 -1.7 22 0 22 C0.33 21.34 0.66 20.68 1 20 C1.99 20 2.98 20 4 20 C4 19.01 4 18.02 4 17 C3.01 16.67 2.02 16.34 1 16 C1.75 14.0625 1.75 14.0625 3 12 C5.125 11.25 5.125 11.25 7 11 C6.34 10.67 5.68 10.34 5 10 C4.01 9.34 3.02 8.68 2 8 C2 6.68 2 5.36 2 4 C1.34 4 0.68 4 0 4 C0 2.68 0 1.36 0 0 Z " fill="#F1C832" transform="translate(400,350)"/>
<path d="M0 0 C5.96215383 -0.24143705 10.76339111 0.46578646 16.4375 2.25 C17.18177246 2.47526367 17.92604492 2.70052734 18.69287109 2.93261719 C23.34875166 4.37631687 27.74254266 6.09585238 32.1328125 8.22265625 C35.04255713 9.43403529 37.87881475 9.67487654 41 10 C41.495 10.495 41.495 10.495 42 11 C43.34015221 11.15582303 44.68758903 11.25044142 46.03515625 11.31640625 C46.84404297 11.35830078 47.65292969 11.40019531 48.48632812 11.44335938 C49.33646484 11.48267578 50.18660156 11.52199219 51.0625 11.5625 C51.91650391 11.60568359 52.77050781 11.64886719 53.65039062 11.69335938 C55.76672037 11.79976702 57.88333813 11.90041731 60 12 C60 12.33 60 12.66 60 13 C47.95632798 13.55021852 38.4342646 13.18321453 27.12695312 8.76611328 C21.87660003 6.8749737 16.43353772 5.53139994 11.05493164 4.05615234 C9.76897095 3.6977124 9.76897095 3.6977124 8.45703125 3.33203125 C7.69366455 3.12296143 6.93029785 2.9138916 6.14379883 2.69848633 C3.96293012 1.987922 2.02198012 1.07680263 0 0 Z " fill="#E2BF3F" transform="translate(140,403)"/>
<path d="M0 0 C2.475 0.99 2.475 0.99 5 2 C5 2.66 5 3.32 5 4 C6.32 4 7.64 4 9 4 C11.0703125 6.51953125 11.0703125 6.51953125 13.125 9.8125 C13.80820313 10.89144531 14.49140625 11.97039062 15.1953125 13.08203125 C15.79085937 14.04496094 16.38640625 15.00789063 17 16 C17.66 16.99 18.32 17.98 19 19 C16.70605469 19.22802734 16.70605469 19.22802734 14 19 C12.25488281 17.47119141 12.25488281 17.47119141 10.703125 15.3515625 C10.13722656 14.59359375 9.57132813 13.835625 8.98828125 13.0546875 C8.12783203 11.85199219 8.12783203 11.85199219 7.25 10.625 C6.66089844 9.8309375 6.07179687 9.036875 5.46484375 8.21875 C1.25320871 2.50641741 1.25320871 2.50641741 0 0 Z " fill="#4D483A" transform="translate(162,302)"/>
<path d="M0 0 C4.11722438 1.4971725 6.15200193 4.58064172 8.75 8 C7.76 8.495 7.76 8.495 6.75 9 C6.42 8.34 6.09 7.68 5.75 7 C3.90028304 5.94978897 3.90028304 5.94978897 1.75 5 C0.41666667 4.33333333 -0.91666667 3.66666667 -2.25 3 C-2.25 3.66 -2.25 4.32 -2.25 5 C-1.59 5 -0.93 5 -0.25 5 C-0.25 5.99 -0.25 6.98 -0.25 8 C-2.23 8 -4.21 8 -6.25 8 C-6.518125 9.11375 -6.78625 10.2275 -7.0625 11.375 C-8.25 15 -8.25 15 -11.25 17 C-9.51459862 11.20218175 -7.54229697 6.09775015 -4.25 1 C-2.25 0 -2.25 0 0 0 Z " fill="#E8C133" transform="translate(154.25,295)"/>
<path d="M0 0 C0.66 0.33 1.32 0.66 2 1 C2 1.99 2 2.98 2 4 C4.97 4.495 4.97 4.495 8 5 C8 5.99 8 6.98 8 8 C8.99 8.66 9.98 9.32 11 10 C10.67 10.66 10.34 11.32 10 12 C9.34 11.67 8.68 11.34 8 11 C7.67 12.65 7.34 14.3 7 16 C6.01 15.67 5.02 15.34 4 15 C4.66 13.35 5.32 11.7 6 10 C5.21625 10.185625 4.4325 10.37125 3.625 10.5625 C1 11 1 11 -1 10 C-1.125 2.25 -1.125 2.25 0 0 Z " fill="#343331" transform="translate(206,154)"/>
<path d="M0 0 C0.66 0.33 1.32 0.66 2 1 C0.6875 3 0.6875 3 -1 5 C-1.99 5 -2.98 5 -4 5 C-3.979375 6.11375 -3.95875 7.2275 -3.9375 8.375 C-4 12 -4 12 -5 14 C-5.05935732 17.75806005 -5.02091149 21.50239508 -4.9609375 25.25976562 C-4.9210426 29.31907177 -4.97117505 33.03741642 -6 37 C-7.98 37.495 -7.98 37.495 -10 38 C-9.67636475 37.46173584 -9.35272949 36.92347168 -9.01928711 36.36889648 C-7.77392667 33.47458933 -7.72883557 31.24489922 -7.69140625 28.09765625 C-7.66626953 26.96005859 -7.64113281 25.82246094 -7.61523438 24.65039062 C-7.58013632 22.26242325 -7.54887347 19.87439636 -7.52148438 17.48632812 C-7.49505859 16.34744141 -7.46863281 15.20855469 -7.44140625 14.03515625 C-7.42122437 12.47873413 -7.42122437 12.47873413 -7.40063477 10.89086914 C-6.80435716 6.58829566 -5.13236789 3.93824768 -1.8125 1.1875 C-1.214375 0.795625 -0.61625 0.40375 0 0 Z " fill="#DABA35" transform="translate(111,330)"/>
<path d="M0 0 C2.87110893 0.30761881 3.96268285 0.96381367 6.0625 3 C10.76543293 10.28196066 12.16762682 18.45103239 12 27 C9.81921679 24.81921679 9.57068479 23.9551808 8.88671875 21.04296875 C8.69013672 20.25986328 8.49355469 19.47675781 8.29101562 18.66992188 C7.89201068 17.02870737 7.50123405 15.38546828 7.11914062 13.74023438 C5.77077295 8.44648219 4.21245603 5.70442113 0 2 C0 1.34 0 0.68 0 0 Z " fill="#685B3D" transform="translate(375,308)"/>
<path d="M0 0 C0.99 0.33 1.98 0.66 3 1 C2.125 5.75 2.125 5.75 1 8 C-1.64 8 -4.28 8 -7 8 C-8.125 3.25 -8.125 3.25 -7 1 C-5.5459375 1.0309375 -5.5459375 1.0309375 -4.0625 1.0625 C-1.12534105 1.35618499 -1.12534105 1.35618499 0 0 Z " fill="#31322F" transform="translate(224,128)"/>
<path d="M0 0 C0.33 0 0.66 0 1 0 C2.35985312 7.41738066 2.35985312 7.41738066 0.6875 10.125 C0.130625 10.74375 -0.42625 11.3625 -1 12 C-1.72351427 13.98014432 -2.40265389 15.97821315 -3 18 C-3.66 18 -4.32 18 -5 18 C-5.21824777 24.0018137 -4.5056904 29.19233704 -3 35 C-6.30209279 32.12861497 -6.75948467 29.85105466 -7.30859375 25.625 C-7.65841524 18.50136242 -5.92512552 13.89230056 -2.41015625 7.7265625 C-1.04515583 5.08730962 -0.41996583 2.92381276 0 0 Z " fill="#A39D8B" transform="translate(102,356)"/>
<path d="M0 0 C0 3.55256383 -0.81595789 4.52207514 -2.75 7.4375 C-6.21685127 12.99924954 -8.17030945 18.73600058 -10 25 C-11.32 25 -12.64 25 -14 25 C-12.50956761 15.36418127 -6.10098668 7.31035386 0 0 Z " fill="#DDDDDD" transform="translate(180,235)"/>
<path d="M0 0 C1.98 0 3.96 0 6 0 C-0.59474092 5.56577425 -9.98965721 6.52407147 -18.375 6.3046875 C-22.48193702 5.82798945 -26.19424923 4.5786818 -30 3 C-30 2.67 -30 2.34 -30 2 C-26.535 1.505 -26.535 1.505 -23 1 C-23 1.99 -23 2.98 -23 4 C-20.4783624 3.88496731 -17.9581881 3.75825223 -15.4375 3.625 C-14.73302734 3.5940625 -14.02855469 3.563125 -13.30273438 3.53125 C-8.58704259 3.27047442 -4.49614504 2.45341877 0 1 C0 0.67 0 0.34 0 0 Z " fill="#E4BE40" transform="translate(252,161)"/>
<path d="M0 0 C-1.3581266 3.19453883 -2.68476794 4.79408682 -5.5546875 6.7265625 C-6.25207031 7.2009375 -6.94945312 7.6753125 -7.66796875 8.1640625 C-8.39628906 8.64617187 -9.12460937 9.12828125 -9.875 9.625 C-10.59558594 10.11484375 -11.31617188 10.6046875 -12.05859375 11.109375 C-15.29923334 13.29367351 -18.47239234 15.30514442 -22 17 C-21.8515625 15.24609375 -21.8515625 15.24609375 -21 13 C-18.5234375 11.03515625 -18.5234375 11.03515625 -15.375 9.0625 C-11.80258083 6.78720922 -8.27405397 4.52768632 -4.875 2 C-2 0 -2 0 0 0 Z " fill="#6E664D" transform="translate(396,378)"/>
<path d="M0 0 C-0.33 2.64 -0.66 5.28 -1 8 C-2.65 8 -4.3 8 -6 8 C-6 8.66 -6 9.32 -6 10 C-7.98 10 -9.96 10 -12 10 C-11.75 8.125 -11.75 8.125 -11 6 C-9.1875 5 -9.1875 5 -7 4 C-5.9790625 2.948125 -5.9790625 2.948125 -4.9375 1.875 C-3 0 -3 0 0 0 Z " fill="#FDCC20" transform="translate(269,161)"/>
<path d="M0 0 C0.13277344 0.96421875 0.26554687 1.9284375 0.40234375 2.921875 C0.57894531 4.18515625 0.75554687 5.4484375 0.9375 6.75 C1.11152344 8.00296875 1.28554688 9.2559375 1.46484375 10.546875 C1.86049338 13.09982593 2.30446422 15.5186291 3 18 C2.34 18 1.68 18 1 18 C1 17.01 1 16.02 1 15 C0.34 15 -0.32 15 -1 15 C-1.33 11.04 -1.66 7.08 -2 3 C-2.66 3 -3.32 3 -4 3 C-4.99 5.97 -5.98 8.94 -7 12 C-7.66 12 -8.32 12 -9 12 C-7.6816516 3.72562912 -7.6816516 3.72562912 -5.0625 0.9375 C-3 0 -3 0 0 0 Z " fill="#DFBB3A" transform="translate(314,308)"/>
<path d="M0 0 C3.61998598 0.92246223 7.07290785 2.17380137 10.5625 3.5 C11.47580078 3.83386719 12.38910156 4.16773438 13.33007812 4.51171875 C15.55846798 5.32840613 17.78112363 6.15788283 20 7 C16.26009738 8.10777237 14.6879925 7.71080027 11.125 6.0625 C7.24269276 4.40765222 4.28474045 3.35728893 0 4 C-0.66 4.66 -1.32 5.32 -2 6 C-3.32 6 -4.64 6 -6 6 C-6 5.34 -6 4.68 -6 4 C-5.01 4 -4.02 4 -3 4 C-3 3.01 -3 2.02 -3 1 C-7.455 1.495 -7.455 1.495 -12 2 C-7.89298345 -0.73801103 -4.82371483 -0.5440349 0 0 Z " fill="#EBC339" transform="translate(245,132)"/>
<path d="M0 0 C3.63 0.33 7.26 0.66 11 1 C11 1.66 11 2.32 11 3 C11.61488281 3.06058594 12.22976563 3.12117187 12.86328125 3.18359375 C13.67152344 3.26738281 14.47976563 3.35117188 15.3125 3.4375 C16.11300781 3.51871094 16.91351563 3.59992188 17.73828125 3.68359375 C21.53026793 4.21407893 23.4623606 5.22068065 26 8 C25.67 8.99 25.34 9.98 25 11 C23.845 10.46375 22.69 9.9275 21.5 9.375 C14.47117894 6.23854373 7.21967527 3.65754918 0 1 C0 0.67 0 0.34 0 0 Z " fill="#69592F" transform="translate(257,136)"/>
<path d="M0 0 C-0.30549882 3.08970393 -0.97804967 3.98014895 -3.328125 6.10546875 C-4.77445312 7.13607422 -4.77445312 7.13607422 -6.25 8.1875 C-7.20390625 8.88230469 -8.1578125 9.57710938 -9.140625 10.29296875 C-11.88559848 11.93170292 -13.85648505 12.61566514 -17 13 C-17.33 12.34 -17.66 11.68 -18 11 C-15.38021769 9.15912001 -12.75335419 7.32861565 -10.125 5.5 C-9.37863281 4.97535156 -8.63226563 4.45070313 -7.86328125 3.91015625 C-7.14785156 3.41386719 -6.43242187 2.91757812 -5.6953125 2.40625 C-5.03547363 1.94541016 -4.37563477 1.48457031 -3.69580078 1.00976562 C-2 0 -2 0 0 0 Z " fill="#9C9580" transform="translate(374,393)"/>
<path d="M0 0 C0.99 0 1.98 0 3 0 C0.88060343 7.89956902 -3.00635451 12.93392704 -10 17 C-10.66 16.67 -11.32 16.34 -12 16 C-11 13 -11 13 -8.25 11.375 C-3.93011568 8.72463619 -2.14356079 4.4388781 0 0 Z " fill="#746A51" transform="translate(218,399)"/>
<path d="M0 0 C6.48254932 5.29893778 6.48254932 5.29893778 8.9375 8.625 C13.42304678 13.79017509 19.37429507 15.44785792 26 16 C26 16.33 26 16.66 26 17 C20.56822103 17.39344878 15.55052062 17.73553988 10.8046875 14.61328125 C6.67200659 10.91891498 3.17263286 6.53233266 0 2 C0 1.34 0 0.68 0 0 Z " fill="#564A26" transform="translate(217,165)"/>
<path d="M0 0 C0.33 0 0.66 0 1 0 C1 8.25 1 16.5 1 25 C0.34 25 -0.32 25 -1 25 C-1.66 26.32 -2.32 27.64 -3 29 C-3.66 29 -4.32 29 -5 29 C-5.3403125 29.928125 -5.3403125 29.928125 -5.6875 30.875 C-7.37929835 33.61410209 -8.99244161 34.05024472 -12 35 C-11.43732422 34.36384766 -11.43732422 34.36384766 -10.86328125 33.71484375 C-10.09564453 32.83505859 -10.09564453 32.83505859 -9.3125 31.9375 C-8.81363281 31.36902344 -8.31476563 30.80054688 -7.80078125 30.21484375 C-7.20652344 29.48394531 -6.61226563 28.75304687 -6 28 C-5.57291748 27.53021729 -5.14583496 27.06043457 -4.70581055 26.57641602 C-0.39349637 21.38757123 -0.22795707 16.6390211 -0.1875 10.0625 C-0.16236328 9.09248047 -0.13722656 8.12246094 -0.11132812 7.12304688 C-0.05283656 4.74828939 -0.01628051 2.37535868 0 0 Z " fill="#5B5B59" transform="translate(302,321)"/>
<path d="M0 0 C1.65 0.33 3.3 0.66 5 1 C4.59007812 1.54269531 4.18015625 2.08539063 3.7578125 2.64453125 C2.94957031 3.71767578 2.94957031 3.71767578 2.125 4.8125 C1.59132812 5.52019531 1.05765625 6.22789062 0.5078125 6.95703125 C-2.17382099 10.13077037 -2.17382099 10.13077037 -2.8125 14 C-1.90059285 16.24469451 -0.81466246 17.42203265 1 19 C-1.875 18.75 -1.875 18.75 -5 18 C-6.4375 16.1875 -6.4375 16.1875 -7 14 C-6.625 11.75 -6.625 11.75 -6 10 C-5.34 10 -4.68 10 -4 10 C-4 9.34 -4 8.68 -4 8 C-3.34 8 -2.68 8 -2 8 C-1.855625 7.4225 -1.71125 6.845 -1.5625 6.25 C-1.04166667 4.16666667 -0.52083333 2.08333333 0 0 Z " fill="#463B1F" transform="translate(213,140)"/>
<path d="M0 0 C2.97 0.495 2.97 0.495 6 1 C5.01 1.495 5.01 1.495 4 2 C4.66 2.61875 5.32 3.2375 6 3.875 C8 6 8 6 8 8 C7.34 8 6.68 8 6 8 C6 7.34 6 6.68 6 6 C1.38 5.01 -3.24 4.02 -8 3 C-8.33 4.32 -8.66 5.64 -9 7 C-10.5625 8.75 -10.5625 8.75 -12 10 C-12.66 9.67 -13.32 9.34 -14 9 C-12.68 6.69 -11.36 4.38 -10 2 C-8.20841511 1.97303635 -6.41671527 1.95362083 -4.625 1.9375 C-3.62726563 1.92589844 -2.62953125 1.91429687 -1.6015625 1.90234375 C1 2 1 2 3 3 C3 2.34 3 1.68 3 1 C2.01 0.67 1.02 0.34 0 0 Z " fill="#D9BD4A" transform="translate(371,306)"/>
<path d="M0 0 C0.86625 0.3403125 0.86625 0.3403125 1.75 0.6875 C1.09 2.0075 0.43 3.3275 -0.25 4.6875 C0.74 5.3475 1.73 6.0075 2.75 6.6875 C2.42 7.6775 2.09 8.6675 1.75 9.6875 C-0.56 9.3575 -2.87 9.0275 -5.25 8.6875 C-5.58 6.7075 -5.91 4.7275 -6.25 2.6875 C-2.80384615 -0.38942308 -2.80384615 -0.38942308 0 0 Z " fill="#F9CC1F" transform="translate(247.25,135.3125)"/>
<path d="M0 0 C0 0.66 0 1.32 0 2 C-0.75925781 2.1959375 -1.51851562 2.391875 -2.30078125 2.59375 C-6.01727089 4.52998194 -6.60912032 6.67465085 -8.1875 10.5 C-10.84952381 16.84952381 -10.84952381 16.84952381 -13 19 C-12.46335375 15.02881775 -11.62859543 11.14224795 -10.6875 7.25 C-10.46449219 6.30640625 -10.24148437 5.3628125 -10.01171875 4.390625 C-9 2 -9 2 -7.06640625 0.6796875 C-4.61913597 -0.12527475 -2.55994941 -0.14221941 0 0 Z " fill="#483C20" transform="translate(155,293)"/>
<path d="M0 0 C5 2 10 4 15 6 C14.01 6.33 13.02 6.66 12 7 C12.33 9.31 12.66 11.62 13 14 C11.88085919 12.88085919 10.76206063 11.76137493 9.64453125 10.640625 C8.39693967 9.39599682 7.14323731 8.15749029 5.88671875 6.921875 C5.16097656 6.20515625 4.43523437 5.4884375 3.6875 4.75 C2.99011719 4.06421875 2.29273438 3.3784375 1.57421875 2.671875 C0 1 0 1 0 0 Z " fill="#EDC638" transform="translate(215,162)"/>
<path d="M0 0 C0.33 0 0.66 0 1 0 C1 2.64 1 5.28 1 8 C2.32 7.67 3.64 7.34 5 7 C5.33 7.66 5.66 8.32 6 9 C4.25048432 9.95921722 2.50036756 10.91733817 0.75 11.875 C-0.71179688 12.67550781 -0.71179688 12.67550781 -2.203125 13.4921875 C-4.45130408 14.70419466 -6.7072805 15.87547567 -9 17 C-9 16.01 -9 15.02 -9 14 C-8.34 14 -7.68 14 -7 14 C-7 13.34 -7 12.68 -7 12 C-7.66 11.67 -8.32 11.34 -9 11 C-5.98968256 10.06576355 -5.13349732 9.95550089 -2 11 C-1.34 7.37 -0.68 3.74 0 0 Z " fill="#574D34" transform="translate(227,125)"/>
<path d="M0 0 C-0.33 5.61 -0.66 11.22 -1 17 C-1.33 17 -1.66 17 -2 17 C-2 14.69 -2 12.38 -2 10 C-4.33075929 10.95865509 -4.33075929 10.95865509 -6 14 C-5.85851011 12.3954444 -5.71164314 10.79136233 -5.5625 9.1875 C-5.48128906 8.29417969 -5.40007812 7.40085937 -5.31640625 6.48046875 C-5 4 -5 4 -4 1 C-2 0 -2 0 0 0 Z " fill="#DDDDDD" transform="translate(169,259)"/>
<path d="M0 0 C0.33 0.66 0.66 1.32 1 2 C0.67 2.66 0.34 3.32 0 4 C-0.66 4 -1.32 4 -2 4 C-2.33 5.32 -2.66 6.64 -3 8 C-3.94875 7.979375 -4.8975 7.95875 -5.875 7.9375 C-8.90666283 7.77448174 -8.90666283 7.77448174 -11 9 C-13.0374763 9.22858114 -15.08040303 9.41024278 -17.125 9.5625 C-18.22070312 9.64628906 -19.31640625 9.73007812 -20.4453125 9.81640625 C-21.28835937 9.87699219 -22.13140625 9.93757813 -23 10 C-18.94644282 7.29762855 -14.53043807 6.26667315 -9.89257812 4.94335938 C-6.04668644 3.79921551 -3.05317585 2.73430631 0 0 Z " fill="#DBB83A" transform="translate(137,320)"/>
<path d="M0 0 C0 0.66 0 1.32 0 2 C-0.928125 2.61875 -0.928125 2.61875 -1.875 3.25 C-4.69544609 5.57272031 -5.27643127 7.4545132 -6 11 C-4.96771107 14.37840013 -4.03111143 14.97925904 -1 17 C-1.33 17.66 -1.66 18.32 -2 19 C-4.64 17.02 -7.28 15.04 -10 13 C-9.47470631 8.8911959 -8.33192009 6.74480159 -5.5625 3.6875 C-4.94503906 2.99011719 -4.32757813 2.29273438 -3.69140625 1.57421875 C-2 0 -2 0 0 0 Z " fill="#E2BF39" transform="translate(219,142)"/>
<path d="M0 0 C1.32 0.33 2.64 0.66 4 1 C-11.81636213 9.18949976 -11.81636213 9.18949976 -21 8 C-21.99 7.34 -22.98 6.68 -24 6 C-22.72125 6.0825 -21.4425 6.165 -20.125 6.25 C-15.27830763 6.2805785 -11.70536911 4.9201737 -7.359375 2.875 C-4.75538307 1.90928114 -2.75475255 1.84370198 0 2 C0 1.34 0 0.68 0 0 Z " fill="#C6A839" transform="translate(257,173)"/>
<path d="M0 0 C0.99 0.33 1.98 0.66 3 1 C3.33 1.99 3.66 2.98 4 4 C8.60219706 7.06813137 13.22776249 6.25317679 18.5 5.5 C19.325 5.335 20.15 5.17 21 5 C21 4.34 21 3.68 21 3 C22.32 3.33 23.64 3.66 25 4 C19.83942488 7.40378359 15.29904862 9.46659619 9 9 C5.06003418 7.72904328 2.5216613 5.99796076 0.5625 2.25 C0.376875 1.5075 0.19125 0.765 0 0 Z " fill="#524316" transform="translate(318,326)"/>
<path d="M0 0 C0.33 0 0.66 0 1 0 C1.09796875 0.75925781 1.1959375 1.51851563 1.296875 2.30078125 C1.44640625 3.29464844 1.5959375 4.28851563 1.75 5.3125 C1.88921875 6.29863281 2.0284375 7.28476563 2.171875 8.30078125 C3.1533533 11.49984496 4.27589504 12.20054042 7 14 C7 14.66 7 15.32 7 16 C5.35 16.66 3.7 17.32 2 18 C0.68 14.7 -0.64 11.4 -2 8 C-1.34 8 -0.68 8 0 8 C0 5.36 0 2.72 0 0 Z " fill="#D1D3D0" transform="translate(213,123)"/>
<path d="M0 0 C-0.95041294 2.38341898 -1.53122431 3.72388597 -3.77734375 5.046875 C-9.94041209 7.05293703 -15.5458442 7.32572375 -22 7 C-22 6.67 -22 6.34 -22 6 C-20.89140625 5.73445313 -19.7828125 5.46890625 -18.640625 5.1953125 C-17.17702189 4.83879379 -15.71348359 4.48200897 -14.25 4.125 C-13.52039063 3.95097656 -12.79078125 3.77695312 -12.0390625 3.59765625 C-8.14776792 2.64252031 -3.83391897 0 0 0 Z " fill="#635737" transform="translate(344,415)"/>
<path d="M0 0 C0.66 0 1.32 0 2 0 C2 0.66 2 1.32 2 2 C3.98 1.34 5.96 0.68 8 0 C8 1.32 8 2.64 8 4 C7.34 4 6.68 4 6 4 C7.68807908 8.23084903 7.68807908 8.23084903 11 11 C10.67 12.32 10.34 13.64 10 15 C8.33048421 12.6895094 6.66428386 10.37675417 5 8.0625 C4.52304688 7.40314453 4.04609375 6.74378906 3.5546875 6.06445312 C0 1.11328125 0 1.11328125 0 0 Z " fill="#453F22" transform="translate(198,352)"/>
<path d="M0 0 C0.33 0 0.66 0 1 0 C1.25 2.8125 1.25 2.8125 1 6 C-0.875 7.875 -0.875 7.875 -3 9 C-3.66 9 -4.32 9 -5 9 C-5.66 10.32 -6.32 11.64 -7 13 C-8.32 12.67 -9.64 12.34 -11 12 C-10.37351562 11.38511719 -9.74703125 10.77023437 -9.1015625 10.13671875 C-8.28429687 9.32847656 -7.46703125 8.52023437 -6.625 7.6875 C-5.40683594 6.48673828 -5.40683594 6.48673828 -4.1640625 5.26171875 C-1.87395158 2.99990063 -1.87395158 2.99990063 0 0 Z " fill="#E9C333" transform="translate(356,316)"/>
<path d="M0 0 C0.33 0 0.66 0 1 0 C1.56673258 3.88616629 1.72075397 5.91224794 -0.48828125 9.24609375 C-2.24985118 11.29214081 -3.96354095 13.22616124 -6 15 C-6.66 15 -7.32 15 -8 15 C-7.42042915 11.08789674 -5.44583996 9.02133171 -3 6 C-1.95548562 4.02288349 -0.94301862 2.02749004 0 0 Z " fill="#8C856E" transform="translate(141,308)"/>
<path d="M0 0 C0.86367188 0.15984375 1.72734375 0.3196875 2.6171875 0.484375 C5.125 1.25 5.125 1.25 9.125 4.25 C0.545 3.59 -8.035 2.93 -16.875 2.25 C-16.875 1.92 -16.875 1.59 -16.875 1.25 C-15.82699219 1.15912109 -15.82699219 1.15912109 -14.7578125 1.06640625 C-13.84773438 0.98261719 -12.93765625 0.89882813 -12 0.8125 C-11.09507812 0.73128906 -10.19015625 0.65007812 -9.2578125 0.56640625 C-2.01717624 -0.39505529 -2.01717624 -0.39505529 0 0 Z " fill="#C2C2C2" transform="translate(344.875,292.75)"/>
<path d="M0 0 C0.99 0.99 1.98 1.98 3 3 C3.66 3 4.32 3 5 3 C5.33 2.34 5.66 1.68 6 1 C6 3.97 6 6.94 6 10 C3.03 9.505 3.03 9.505 0 9 C0 6.03 0 3.06 0 0 Z " fill="#CDCDCC" transform="translate(250,123)"/>
<path d="M0 0 C3.10380501 0.77595125 5.25002779 1.5268006 8 3 C8 3.66 8 4.32 8 5 C6.02 5.66 4.04 6.32 2 7 C1.67 8.65 1.34 10.3 1 12 C0.67 12 0.34 12 0 12 C0 8.04 0 4.08 0 0 Z " fill="#2F3031" transform="translate(145,288)"/>
<path d="M0 0 C3.88083745 1.29361248 5.31504237 3.69321965 7.625 6.875 C8.03234375 7.41769531 8.4396875 7.96039063 8.859375 8.51953125 C10.69328344 11.00320196 12.01704835 13.05114504 13 16 C12.01 16.33 11.02 16.66 10 17 C9.61328125 16.25234375 9.2265625 15.5046875 8.828125 14.734375 C8.30734375 13.74953125 7.7865625 12.7646875 7.25 11.75 C6.73953125 10.77546875 6.2290625 9.8009375 5.703125 8.796875 C4.05109758 6.08391255 2.25014607 4.2110131 0 2 C0 1.34 0 0.68 0 0 Z " fill="#D2D2D2" transform="translate(319,233)"/>
<path d="M0 0 C0.33 0 0.66 0 1 0 C1 3.63 1 7.26 1 11 C0.01 11.33 -0.98 11.66 -2 12 C-4 10 -4 10 -4.125 6.375 C-4.08375 5.26125 -4.0425 4.1475 -4 3 C-2.68 3.33 -1.36 3.66 0 4 C0 2.68 0 1.36 0 0 Z " fill="#545453" transform="translate(209,119)"/>
<path d="M0 0 C1.32 0 2.64 0 4 0 C4 0.66 4 1.32 4 2 C5.32 2.66 6.64 3.32 8 4 C2.70769231 7.07692308 2.70769231 7.07692308 -0.875 6.6875 C-1.57625 6.460625 -2.2775 6.23375 -3 6 C-3 5.34 -3 4.68 -3 4 C-2.01 4 -1.02 4 0 4 C0 2.68 0 1.36 0 0 Z " fill="#F5C933" transform="translate(201,408)"/>
<path d="M0 0 C-2 1.33333333 -4 2.66666667 -6 4 C-7.77760174 8.24649304 -8.45347315 12.44560959 -9 17 C-11.29524388 13.55713418 -11.10185676 11.99548479 -10.484375 8.00390625 C-9.82191123 5.26322951 -8.69567895 3.23829621 -7 1 C-4.53721199 -0.231394 -2.7204945 -0.07159196 0 0 Z " fill="#5F522C" transform="translate(314,307)"/>
<path d="M0 0 C2.475 0.99 2.475 0.99 5 2 C5 2.66 5 3.32 5 4 C6.32 4 7.64 4 9 4 C10.125 9.75 10.125 9.75 9 12 C7.49707257 10.18992669 5.99772829 8.37687764 4.5 6.5625 C3.6646875 5.55316406 2.829375 4.54382813 1.96875 3.50390625 C0 1 0 1 0 0 Z " fill="#4A4022" transform="translate(162,302)"/>
<path d="M0 0 C3.80167749 5.70251624 4.28602017 12.27852593 4 19 C0.53226679 15.53226679 0.12727626 10.41427164 -0.125 5.62890625 C-0.125 3.75214158 -0.06820091 1.87552506 0 0 Z " fill="#746A52" transform="translate(383,316)"/>
<path d="M0 0 C2.375 -0.125 2.375 -0.125 5 0 C5.66 0.66 6.32 1.32 7 2 C7.99 2.33 8.98 2.66 10 3 C10.33 4.65 10.66 6.3 11 8 C8 8 8 8 6.625 6.8125 C6.08875 6.214375 5.5525 5.61625 5 5 C4.113125 4.113125 3.22625 3.22625 2.3125 2.3125 C1.549375 1.549375 0.78625 0.78625 0 0 Z " fill="#3E3A2D" transform="translate(159,298)"/>
<path d="M0 0 C0.66 0.33 1.32 0.66 2 1 C1.34 1.66 0.68 2.32 0 3 C-0.12375 3.825 -0.2475 4.65 -0.375 5.5 C-1 8 -1 8 -2.8125 9.1875 C-3.534375 9.455625 -4.25625 9.72375 -5 10 C-6.11375 10.556875 -6.11375 10.556875 -7.25 11.125 C-7.8275 11.41375 -8.405 11.7025 -9 12 C-7.54718935 6.67302761 -3.91888622 3.63597198 0 0 Z " fill="#9D9D9D" transform="translate(219,64)"/>
<path d="M0 0 C0.33 0 0.66 0 1 0 C1.19335938 1.14339844 1.38671875 2.28679687 1.5859375 3.46484375 C1.84849766 4.95581037 2.11154361 6.44669149 2.375 7.9375 C2.56449219 9.06961914 2.56449219 9.06961914 2.7578125 10.22460938 C3.10547563 12.16283135 3.54643504 14.08379205 4 16 C4.66 16.33 5.32 16.66 6 17 C5.01 17 4.02 17 3 17 C0.01995523 13.25584118 -0.3424139 10.38655511 -0.1875 5.6875 C-0.16042969 4.61886719 -0.13335937 3.55023438 -0.10546875 2.44921875 C-0.07066406 1.64097656 -0.03585938 0.83273437 0 0 Z " fill="#D2B334" transform="translate(98,374)"/>
<path d="M0 0 C1.65 0 3.3 0 5 0 C6.0712828 6.02596573 6.09945415 11.88909517 6 18 C5.67 18 5.34 18 5 18 C4.89042969 17.20335937 4.78085938 16.40671875 4.66796875 15.5859375 C3.81008432 9.8527586 3.03978343 4.97419107 0 0 Z " fill="#413817" transform="translate(215,374)"/>
<path d="M0 0 C0.66 0.33 1.32 0.66 2 1 C0.625 2.5 0.625 2.5 -1 4 C-1.66 4 -2.32 4 -3 4 C-3 4.66 -3 5.32 -3 6 C-5.97 6.66 -8.94 7.32 -12 8 C-12 7.34 -12 6.68 -12 6 C-10.04669132 4.96958487 -8.08718472 3.9509107 -6.125 2.9375 C-5.03445313 2.36902344 -3.94390625 1.80054688 -2.8203125 1.21484375 C-1.42425781 0.61349609 -1.42425781 0.61349609 0 0 Z " fill="#E4C23C" transform="translate(266,159)"/>
<path d="M0 0 C1.98 0 3.96 0 6 0 C5.07038578 1.15224028 4.1309875 2.29659176 3.1875 3.4375 C2.40439453 4.39462891 2.40439453 4.39462891 1.60546875 5.37109375 C0 7 0 7 -3 8 C-3 7.34 -3 6.68 -3 6 C-2.34 6 -1.68 6 -1 6 C-0.67 4.02 -0.34 2.04 0 0 Z " fill="#443820" transform="translate(346,321)"/>
<path d="M0 0 C1.75070517 0.11470137 3.50057536 0.24219028 5.25 0.375 C6.22453125 0.44460938 7.1990625 0.51421875 8.203125 0.5859375 C10.89633189 0.98465249 12.66963279 1.63507063 15 3 C12.15697309 4.42151345 10.16974528 4.23922606 7 4 C4.5570559 3.15794312 2.33716233 2.12183792 0 1 C0 0.67 0 0.34 0 0 Z " fill="#999182" transform="translate(165,413)"/>
<path d="M0 0 C1.32 0.66 2.64 1.32 4 2 C-0.95 4.97 -0.95 4.97 -6 8 C-6.33 7.01 -6.66 6.02 -7 5 C-4.69 3.35 -2.38 1.7 0 0 Z " fill="#81785B" transform="translate(402,372)"/>
<path d="M0 0 C3.99996286 1.33332095 4.83782337 3.4957827 7 7 C6.67 7.66 6.34 8.32 6 9 C4.5 7.625 4.5 7.625 3 6 C3 5.34 3 4.68 3 4 C1.02 4.66 -0.96 5.32 -3 6 C-2 4 -1 2 0 0 Z " fill="#EAC034" transform="translate(181,330)"/>
<path d="M0 0 C-1.40929697 3.47132095 -2.90605083 4.88093274 -6.125 6.75 C-6.84945313 7.17796875 -7.57390625 7.6059375 -8.3203125 8.046875 C-8.87460937 8.36140625 -9.42890625 8.6759375 -10 9 C-10.66 8.34 -11.32 7.68 -12 7 C-10.3790787 5.82767315 -8.75313167 4.6622923 -7.125 3.5 C-6.22007812 2.8503125 -5.31515625 2.200625 -4.3828125 1.53125 C-2 0 -2 0 0 0 Z " fill="#66510A" transform="translate(277,150)"/>
<path d="M0 0 C1.5625 1 1.5625 1 3 3 C3.1652987 6.77825601 2.78867813 9.99049199 0.4375 13 C-0.036875 13.33 -0.51125 13.66 -1 14 C-1.04254356 12.00045254 -1.04080783 9.99958364 -1 8 C-0.67 7.67 -0.34 7.34 0 7 C0.04092937 4.66702567 0.04241723 2.33294775 0 0 Z " fill="#E3C23D" transform="translate(282,147)"/>
<path d="M0 0 C-1.62339805 1.70884005 -3.29319053 3.37446717 -5 5 C-5.66 5 -6.32 5 -7 5 C-7 4.34 -7 3.68 -7 3 C-7.99 3.33 -8.98 3.66 -10 4 C-10 3.01 -10 2.02 -10 1 C-8.71073008 0.63720544 -7.41846728 0.28503302 -6.125 -0.0625 C-5.40570313 -0.25972656 -4.68640625 -0.45695312 -3.9453125 -0.66015625 C-2 -1 -2 -1 0 0 Z " fill="#948345" transform="translate(351,412)"/>
<path d="M0 0 C1.0828125 1.11375 1.0828125 1.11375 2.1875 2.25 C4.68592573 4.69290515 7.23643202 6.8681047 10 9 C3.54847841 8.51309271 3.54847841 8.51309271 1.0625 6.1875 C0 4 0 4 0 0 Z " fill="#6B603C" transform="translate(302,410)"/>
<path d="M0 0 C3.96 0.33 7.92 0.66 12 1 C12 1.33 12 1.66 12 2 C9.03 2 6.06 2 3 2 C2.87625 2.804375 2.7525 3.60875 2.625 4.4375 C2.41875 5.283125 2.2125 6.12875 2 7 C1.01 7.495 1.01 7.495 0 8 C0 5.36 0 2.72 0 0 Z " fill="#3D351F" transform="translate(358,305)"/>
<path d="M0 0 C0.66 0 1.32 0 2 0 C4.09412209 3.4029484 4.57805215 6.03621385 4 10 C1.5 12.375 1.5 12.375 -1 14 C-0.4740625 12.7625 -0.4740625 12.7625 0.0625 11.5 C1.22335775 7.16613108 0.75705178 4.39090031 0 0 Z " fill="#4E411B" transform="translate(283,147)"/>
<path d="M0 0 C1.65 0 3.3 0 5 0 C4.42415568 2.38564077 3.77772405 4.66682784 3 7 C2.34 7 1.68 7 1 7 C0.67 4.69 0.34 2.38 0 0 Z " fill="#333331" transform="translate(188,332)"/>
<path d="M0 0 C2.25170312 2.25170312 2.51474 3.32987578 3.1875 6.375 C3.36667969 7.14585937 3.54585938 7.91671875 3.73046875 8.7109375 C4.01304909 11.11082272 3.73503321 12.71670535 3 15 C0.03090402 11.72698081 -0.34354794 9.61934238 -0.1875 5.25 C-0.16042969 4.26515625 -0.13335937 3.2803125 -0.10546875 2.265625 C-0.07066406 1.51796875 -0.03585937 0.7703125 0 0 Z " fill="#E0BE3B" transform="translate(380,315)"/>
<path d="M0 0 C2.912575 0.08566397 4.56798024 0.57910955 6.66796875 2.625 C8.16091772 4.38391375 9.60436262 6.16313019 11 8 C10.01 8.495 10.01 8.495 9 9 C8.67 8.34 8.34 7.68 8 7 C5.98330173 5.86649466 5.98330173 5.86649466 4 5 C4 4.01 4 3.02 4 2 C2.68 1.67 1.36 1.34 0 1 C0 0.67 0 0.34 0 0 Z " fill="#E3C242" transform="translate(152,295)"/>
<path d="M0 0 C1.65 1.65 3.3 3.3 5 5 C2.525 6.485 2.525 6.485 0 8 C-0.38063221 5.6739143 -0.71269945 3.33944736 -1 1 C-0.67 0.67 -0.34 0.34 0 0 Z " fill="#EEC32B" transform="translate(209,403)"/>
<path d="M0 0 C1.32 0.33 2.64 0.66 4 1 C-0.455 3.97 -0.455 3.97 -5 7 C-5.33 5.35 -5.66 3.7 -6 2 C-4.35 2 -2.7 2 -1 2 C-0.67 1.34 -0.34 0.68 0 0 Z " fill="#E6C33D" transform="translate(401,370)"/>
<path d="M0 0 C1.65 0 3.3 0 5 0 C5.625 1.875 5.625 1.875 6 4 C5.34 4.66 4.68 5.32 4 6 C1 4 1 4 0.3125 1.875 C0.209375 1.25625 0.10625 0.6375 0 0 Z " fill="#33332A" transform="translate(320,326)"/>
<path d="M0 0 C1.65 0.33 3.3 0.66 5 1 C4.01 2.485 4.01 2.485 3 4 C3.33 4.66 3.66 5.32 4 6 C1.69 5.34 -0.62 4.68 -3 4 C-2.01 2.68 -1.02 1.36 0 0 Z " fill="#D1D0CD" transform="translate(271,135)"/>
<path d="M0 0 C0.66 0 1.32 0 2 0 C2 0.66 2 1.32 2 2 C2.66 2 3.32 2 4 2 C3.67 3.32 3.34 4.64 3 6 C1.35 5.67 -0.3 5.34 -2 5 C-1.34 3.35 -0.68 1.7 0 0 Z " fill="#383637" transform="translate(218,130)"/>
<path d="M0 0 C0 0.99 0 1.98 0 3 C-3 5.1875 -3 5.1875 -6 7 C-6.66 6.67 -7.32 6.34 -8 6 C-7.67 5.01 -7.34 4.02 -7 3 C-3.4375 1.3125 -3.4375 1.3125 0 0 Z " fill="#9E9586" transform="translate(214,409)"/>
<path d="M0 0 C1.98 0 3.96 0 6 0 C6 1.32 6 2.64 6 4 C3.03 3.505 3.03 3.505 0 3 C0 2.01 0 1.02 0 0 Z " fill="#AD8A1C" transform="translate(243,141)"/>
<path d="M0 0 C3.63 0.33 7.26 0.66 11 1 C11.33 1.99 11.66 2.98 12 4 C7.6822542 3.49202991 3.96697886 2.80317221 0 1 C0 0.67 0 0.34 0 0 Z " fill="#58491B" transform="translate(257,136)"/>
<path d="M0 0 C1.04449911 3.13349732 0.93423645 3.98968256 0 7 C-0.99 7 -1.98 7 -3 7 C-3.33 5.02 -3.66 3.04 -4 1 C-3.01 1 -2.02 1 -1 1 C-0.67 0.67 -0.34 0.34 0 0 Z " fill="#30322F" transform="translate(211,135)"/>
<path d="M0 0 C0.33 0 0.66 0 1 0 C1.07654536 4.51617599 1.10228696 8.59085217 0 13 C-1.32 13.33 -2.64 13.66 -4 14 C-3.69320312 13.44828125 -3.38640625 12.8965625 -3.0703125 12.328125 C-1.90557059 9.79459879 -1.37942044 7.48828238 -0.875 4.75 C-0.70742187 3.85796875 -0.53984375 2.9659375 -0.3671875 2.046875 C-0.24601562 1.37140625 -0.12484375 0.6959375 0 0 Z " fill="#E4C13A" transform="translate(105,354)"/>
<path d="M0 0 C0 3.44360632 -0.79591532 4.74795392 -2.5 7.6875 C-2.9640625 8.49574219 -3.428125 9.30398437 -3.90625 10.13671875 C-4.44765625 11.05904297 -4.44765625 11.05904297 -5 12 C-5.66 11.01 -6.32 10.02 -7 9 C-4.69 6.03 -2.38 3.06 0 0 Z " fill="#B1B1B1" transform="translate(180,235)"/>
<path d="M0 0 C1.32 0.33 2.64 0.66 4 1 C-2.625 5 -2.625 5 -6 5 C-5.67 4.01 -5.34 3.02 -5 2 C-3.35 2 -1.7 2 0 2 C0 1.34 0 0.68 0 0 Z " fill="#E1BA3A" transform="translate(257,173)"/>
<path d="M0 0 C0.99 0.33 1.98 0.66 3 1 C3.33 3.31 3.66 5.62 4 8 C3.34 8 2.68 8 2 8 C0.74335022 5.09399739 0 3.20395416 0 0 Z " fill="#E0E0E0" transform="translate(330,249)"/>
<path d="M0 0 C2.72426311 2.35277269 3.8141763 4.62496331 5 8 C2.525 7.01 2.525 7.01 0 6 C0 4.02 0 2.04 0 0 Z " fill="#868686" transform="translate(349,219)"/>
<path d="M0 0 C1.65 0 3.3 0 5 0 C5.33 0.99 5.66 1.98 6 3 C4.02 3.33 2.04 3.66 0 4 C0 2.68 0 1.36 0 0 Z " fill="#BC961D" transform="translate(229,141)"/>
<path d="M0 0 C0.66 0.33 1.32 0.66 2 1 C-0.64 2.98 -3.28 4.96 -6 7 C-6.66 6.34 -7.32 5.68 -8 5 C-6.71475739 4.13619741 -5.42157581 3.28419631 -4.125 2.4375 C-3.04605469 1.72400391 -3.04605469 1.72400391 -1.9453125 0.99609375 C-1.30335938 0.66738281 -0.66140625 0.33867187 0 0 Z " fill="#524922" transform="translate(364,399)"/>
<path d="M0 0 C2.5625 2.0625 2.5625 2.0625 5 5 C4.8125 8.8125 4.8125 8.8125 4 12 C3.67 12 3.34 12 3 12 C2 8 1 4 0 0 Z " fill="#615329" transform="translate(405,353)"/>
<path d="M0 0 C0.33 0.66 0.66 1.32 1 2 C-0.4375 4.625 -0.4375 4.625 -2 7 C-3.32 6.67 -4.64 6.34 -6 6 C-4.02 4.02 -2.04 2.04 0 0 Z " fill="#E2BD39" transform="translate(351,322)"/>
<path d="M0 0 C3.34998521 1.11666174 3.79340222 1.74694925 5.6875 4.5625 C6.12449219 5.20316406 6.56148438 5.84382812 7.01171875 6.50390625 C7.33785156 6.99761719 7.66398437 7.49132812 8 8 C7.01 8 6.02 8 5 8 C0 2.65116279 0 2.65116279 0 0 Z " fill="#B0B0B0" transform="translate(319,233)"/>
<path d="M0 0 C2.13093906 1.06546953 3.36587557 2.29159719 5 4 C4.67 4.99 4.34 5.98 4 7 C2.02 6.01 0.04 5.02 -2 4 C-2 3.34 -2 2.68 -2 2 C-1.34 2 -0.68 2 0 2 C0 1.34 0 0.68 0 0 Z " fill="#534A23" transform="translate(278,140)"/>
<path d="M0 0 C0.66 0 1.32 0 2 0 C1.67 2.64 1.34 5.28 1 8 C0.01 6.68 -0.98 5.36 -2 4 C-1.34 2.68 -0.68 1.36 0 0 Z " fill="#463E23" transform="translate(299,376)"/>
<path d="M0 0 C0.66 0.33 1.32 0.66 2 1 C1 4 1 4 -2.0625 5.6875 C-3.031875 6.120625 -4.00125 6.55375 -5 7 C-3.70700306 4.11562221 -2.34058637 2.12780579 0 0 Z " fill="#857867" transform="translate(108,329)"/>
<path d="M0 0 C3.16115776 1.36983503 3.9927092 1.9890638 6 5 C4.68 5 3.36 5 2 5 C1.34 3.35 0.68 1.7 0 0 Z " fill="#3C3C39" transform="translate(179,321)"/>
<path d="M0 0 C4.875 4.625 4.875 4.625 6 8 C5.34 8 4.68 8 4 8 C4 7.34 4 6.68 4 6 C3.01 6 2.02 6 1 6 C0.67 4.02 0.34 2.04 0 0 Z " fill="#E0BD3A" transform="translate(169,312)"/>
<path d="M0 0 C3 1 3 1 4.1875 3.0625 C4.455625 3.701875 4.72375 4.34125 5 5 C4.01 5.495 4.01 5.495 3 6 C3 5.34 3 4.68 3 4 C1.68 4 0.36 4 -1 4 C-0.67 2.68 -0.34 1.36 0 0 Z " fill="#DBD9D7" transform="translate(215,166)"/>
<path d="M0 0 C3.45925163 1.2491742 6.14693203 2.67527795 9 5 C7.68 5.33 6.36 5.66 5 6 C3.35 4.02 1.7 2.04 0 0 Z " fill="#C7AE4C" transform="translate(215,162)"/>
<path d="M0 0 C1.98 0.99 3.96 1.98 6 3 C6 3.66 6 4.32 6 5 C3.69 4.34 1.38 3.68 -1 3 C-0.67 2.01 -0.34 1.02 0 0 Z " fill="#534717" transform="translate(214,159)"/>
<path d="M0 0 C0.99 0.33 1.98 0.66 3 1 C2.67 2.65 2.34 4.3 2 6 C1.34 6 0.68 6 0 6 C-0.33 6.66 -0.66 7.32 -1 8 C-1 6.68 -1 5.36 -1 4 C-0.34 3.67 0.32 3.34 1 3 C0.67 2.01 0.34 1.02 0 0 Z " fill="#F5CB2F" transform="translate(279,145)"/>
</svg>
