<?xml version="1.0" encoding="UTF-8"?>
<svg version="1.1" xmlns="http://www.w3.org/2000/svg" width="500" height="500">
<path d="M0 0 C3.18574218 1.33121791 6.36469274 2.15876532 9.7109375 3.0078125 C15.75648844 4.58114236 21.73450201 6.31527467 27.7109375 8.1328125 C34.7777581 10.27918017 41.85754787 12.27076819 49.00390625 14.13671875 C53.09426419 15.23581388 57.15210318 16.42360385 61.2109375 17.6328125 C66.44266102 19.19004796 71.68125763 20.68122642 76.9609375 22.0703125 C85.78413523 24.39369186 94.5536274 26.89658075 103.31542969 29.44091797 C105.41594294 30.04760922 107.51955802 30.64118891 109.625 31.23046875 C118.67117295 33.84686772 126.37763357 36.91988302 132.7109375 44.1328125 C133.9484375 45.4940625 133.9484375 45.4940625 135.2109375 46.8828125 C143.50345084 57.1111176 145.01619299 67.25227169 144.97163391 80.11264038 C144.97545946 81.29271561 144.97928501 82.47279084 144.98322648 83.68862593 C144.99172274 86.94215707 144.99133698 90.19554279 144.98704588 93.44907761 C144.98456992 96.96655702 144.99360359 100.48401036 145.00108337 104.0014801 C145.01380824 110.88409406 145.01562684 117.76666896 145.01328311 124.64929269 C145.01149733 130.24586084 145.01325516 135.84241718 145.01750755 141.43898392 C145.01810274 142.23666795 145.01869793 143.03435199 145.01931116 143.85620827 C145.02052296 145.47690442 145.02173709 147.09760057 145.02295353 148.71829672 C145.03382053 163.90438071 145.03167055 179.09044248 145.02556869 194.27652772 C145.02040016 208.15541792 145.03165477 222.03423792 145.05066691 235.91311423 C145.07005986 250.17986547 145.07829876 264.44658353 145.07454365 278.71334803 C145.07263384 286.71667137 145.07509776 294.71993497 145.08925819 302.72324753 C145.10119155 309.53652533 145.10255501 316.34970661 145.09046803 323.16298579 C145.08459304 326.63578078 145.08344137 330.1083994 145.09547043 333.58118248 C145.10594319 337.35395664 145.09783216 341.1262599 145.0851593 344.89901733 C145.09253359 345.98532106 145.09990787 347.07162478 145.10750562 348.1908468 C145.04528573 357.02368364 143.67374314 365.65359239 139.0234375 373.3203125 C138.58644531 374.05636719 138.14945312 374.79242188 137.69921875 375.55078125 C137.37308594 376.07285156 137.04695313 376.59492188 136.7109375 377.1328125 C136.0509375 377.1328125 135.3909375 377.1328125 134.7109375 377.1328125 C134.370625 378.3084375 134.370625 378.3084375 134.0234375 379.5078125 C132.37656712 382.80155325 131.06735397 382.92794505 127.7109375 384.1328125 C127.3809375 385.1228125 127.0509375 386.1128125 126.7109375 387.1328125 C121.37470079 390.73422328 115.34069496 392.70974813 109.1484375 394.2578125 C104.53663185 395.43172667 99.97134592 396.75412036 95.3984375 398.0703125 C93.54821756 398.60040172 91.69795769 399.13035158 89.84765625 399.66015625 C88.96255371 399.91394043 88.07745117 400.16772461 87.16552734 400.42919922 C84.0145744 401.33242643 80.86281409 402.23281429 77.7109375 403.1328125 C76.08671875 403.596875 76.08671875 403.596875 74.4296875 404.0703125 C59.84635417 408.23697917 45.26302083 412.40364583 30.6796875 416.5703125 C29.78612549 416.82570801 28.89256348 417.08110352 27.97192383 417.34423828 C26.13341581 417.86934049 24.29471158 418.39375624 22.45581055 418.91748047 C18.59448448 420.01792525 14.73649135 421.12524292 10.88671875 422.265625 C4.43409359 424.16918689 -2.0493203 425.86241759 -8.6015625 427.3828125 C-9.33076904 427.55828613 -10.05997559 427.73375977 -10.8112793 427.91455078 C-26.13864648 431.35847344 -39.15867973 426.97665818 -52.2890625 419.1328125 C-52.2890625 418.4728125 -52.2890625 417.8128125 -52.2890625 417.1328125 C-52.98128906 417.04773438 -53.67351562 416.96265625 -54.38671875 416.875 C-58.01559196 415.94702435 -60.57959347 414.28165831 -63.7265625 412.2578125 C-67.83299269 409.63008504 -71.90769177 407.26851369 -76.2890625 405.1328125 C-78.25231198 404.07942407 -80.21085012 403.01719734 -82.1640625 401.9453125 C-83.13085938 401.41550781 -84.09765625 400.88570313 -85.09375 400.33984375 C-86.18042969 399.74236328 -86.18042969 399.74236328 -87.2890625 399.1328125 C-87.2890625 398.4728125 -87.2890625 397.8128125 -87.2890625 397.1328125 C-88.02898437 397.01292969 -88.76890625 396.89304687 -89.53125 396.76953125 C-92.22956973 396.14654808 -94.04209671 395.33872966 -96.4140625 393.9453125 C-97.17847656 393.50445312 -97.94289063 393.06359375 -98.73046875 392.609375 C-99.57480469 392.12210937 -100.41914063 391.63484375 -101.2890625 391.1328125 C-103.30709941 390.02354318 -105.32794513 388.91936852 -107.3515625 387.8203125 C-108.29128906 387.30855469 -109.23101562 386.79679687 -110.19921875 386.26953125 C-110.88886719 385.89441406 -111.57851562 385.51929688 -112.2890625 385.1328125 C-112.2890625 384.4728125 -112.2890625 383.8128125 -112.2890625 383.1328125 C-113.0934375 382.9059375 -113.8978125 382.6790625 -114.7265625 382.4453125 C-124.08784086 378.99642047 -130.16409535 374.54942222 -135.1640625 365.8828125 C-137.4629643 358.21980649 -137.15636345 351.21713199 -133.47265625 344.06640625 C-129.55540056 337.66692913 -124.31237665 335.11859759 -117.2890625 333.1328125 C-112.61867389 332.59805993 -107.99882602 332.62571959 -103.30224609 332.67871094 C-101.8993058 332.67993877 -100.49636303 332.67939807 -99.09342384 332.67724991 C-95.364441 332.67635346 -91.63598026 332.69939568 -87.90711975 332.72769165 C-84.3974559 332.75061249 -80.88791372 332.75155169 -77.37817383 332.75439453 C-67.14006861 332.77531459 -56.9020588 332.8311597 -46.6640625 332.8828125 C-23.7703125 332.9653125 -0.8765625 333.0478125 22.7109375 333.1328125 C22.7109375 247.9928125 22.7109375 162.8528125 22.7109375 75.1328125 C17.4309375 77.1128125 12.1509375 79.0928125 6.7109375 81.1328125 C0.563739 83.35263418 -5.58932354 85.54684959 -11.765625 87.68359375 C-27.53574031 93.14807376 -43.16613705 98.97269422 -58.7265625 105.0078125 C-64.45324457 107.22142444 -70.239706 109.15752948 -76.0859375 111.02734375 C-91.44383658 115.83910769 -91.44383658 115.83910769 -104.2890625 125.1328125 C-104.6190625 125.7928125 -104.9490625 126.4528125 -105.2890625 127.1328125 C-105.9490625 127.1328125 -106.6090625 127.1328125 -107.2890625 127.1328125 C-107.3921875 127.7721875 -107.4953125 128.4115625 -107.6015625 129.0703125 C-108.2890625 132.1328125 -108.2890625 132.1328125 -109.00059795 133.88086987 C-111.9013653 141.10923492 -111.68834546 148.23711315 -111.6262207 155.91723633 C-111.62541305 157.39661142 -111.62601143 158.87598783 -111.62789917 160.35536194 C-111.62945325 163.52610897 -111.62213102 166.69666451 -111.60805702 169.86738014 C-111.58680738 174.89120355 -111.59171565 179.91479706 -111.60112 184.93864441 C-111.62392293 199.21932765 -111.61212719 213.49987144 -111.57397461 227.78051758 C-111.55310233 235.67936743 -111.55390943 243.57792959 -111.57750958 251.47677439 C-111.59111337 256.46061051 -111.57817384 261.44341983 -111.54491198 266.42715228 C-111.53046757 269.5406425 -111.54129244 272.65368299 -111.55889511 275.76714134 C-111.56204556 277.19891247 -111.55514298 278.63075099 -111.53682899 280.06240845 C-111.42336567 289.49872936 -112.57879462 297.34870288 -118.2890625 305.1328125 C-120.48935413 306.456357 -120.48935413 306.456357 -122.2890625 307.1328125 C-122.2890625 307.7928125 -122.2890625 308.4528125 -122.2890625 309.1328125 C-129.44649415 314.35381572 -137.44918151 318.32559984 -145.39428711 322.18847656 C-149.67205526 324.27953113 -153.77130896 326.54435943 -157.8515625 329.0078125 C-165.79885312 333.69714124 -174.18457359 335.95549973 -183.375 333.59765625 C-189.79115212 331.03399722 -193.89628978 327.07016476 -197.2890625 321.1328125 C-198.51926227 316.70323989 -198.4317323 312.25691693 -198.42277527 307.69561768 C-198.42504083 306.84831675 -198.42730638 306.00101583 -198.42964059 305.12803912 C-198.43596845 302.29009814 -198.435152 299.45220507 -198.43432617 296.61425781 C-198.43731845 294.57888731 -198.44072114 292.54351738 -198.44450378 290.50814819 C-198.45334177 284.97908766 -198.45568184 279.4500426 -198.45631957 273.92097569 C-198.45703028 270.46565401 -198.45916501 267.01033626 -198.46181679 263.55501556 C-198.47107009 251.497612 -198.47515176 239.4402195 -198.47436523 227.3828125 C-198.47376469 216.14879484 -198.48431195 204.91482525 -198.5001089 193.68081975 C-198.51319229 184.03224819 -198.51854878 174.38369232 -198.51790982 164.73511195 C-198.51765504 158.97416034 -198.52049548 153.21325142 -198.53108788 147.45230865 C-198.54078205 142.03178396 -198.54083894 136.61134264 -198.53357124 131.19081497 C-198.53252699 129.20469414 -198.5348788 127.21856809 -198.5409317 125.23245621 C-198.54867732 122.51418743 -198.54398982 119.79620475 -198.53630066 117.07794189 C-198.54144422 116.29825082 -198.54658779 115.51855975 -198.55188721 114.71524167 C-198.47493388 102.34288798 -194.13528358 92.80338627 -185.8359375 83.6484375 C-180.22520609 78.1510542 -173.16302455 74.78521684 -166.2890625 71.1328125 C-161.98352143 68.81028945 -157.73682715 66.41987919 -153.5703125 63.85546875 C-152.57499512 63.24602417 -152.57499512 63.24602417 -151.55957031 62.62426758 C-150.23711874 61.81171728 -148.91856958 60.99277272 -147.60449219 60.16674805 C-144.18913792 58.06998559 -141.29515561 56.59152545 -137.2890625 56.1328125 C-137.2890625 55.4728125 -137.2890625 54.8128125 -137.2890625 54.1328125 C-136.61101562 53.76929688 -135.93296875 53.40578125 -135.234375 53.03125 C-130.58138075 50.51785976 -125.97719106 47.97357073 -121.4765625 45.1953125 C-117.47769109 42.7589985 -113.36578538 40.63002419 -109.1640625 38.5703125 C-103.99291605 36.03000395 -99.10735657 33.28628467 -94.2890625 30.1328125 C-92.04534499 28.68402755 -89.79649356 27.24725889 -87.5390625 25.8203125 C-86.45109375 25.12292969 -85.363125 24.42554687 -84.2421875 23.70703125 C-81.2890625 22.1328125 -81.2890625 22.1328125 -77.2890625 22.1328125 C-77.2890625 21.4728125 -77.2890625 20.8128125 -77.2890625 20.1328125 C-76.71542969 19.82730469 -76.14179688 19.52179687 -75.55078125 19.20703125 C-70.09436686 16.26768814 -64.71983838 13.22679608 -59.3815918 10.07861328 C-56.09903209 8.15526129 -52.79208432 6.2761358 -49.48242188 4.39990234 C-47.64746574 3.33985978 -45.84634542 2.22153106 -44.0546875 1.08984375 C-31.8535526 -5.85161273 -12.79554518 -5.36587379 0 0 Z " fill="#DC4B01" transform="translate(272.2890625,27.8671875)"/>
<path d="M0 0 C3.16310587 1.81441962 6.10885644 3.78031205 9 6 C9.81210937 6.58394531 10.62421875 7.16789062 11.4609375 7.76953125 C14.4648237 10.40832974 16.55724832 13.34514601 18.6875 16.6875 C19.07744141 17.26177734 19.46738281 17.83605469 19.86914062 18.42773438 C24.65990491 25.85546635 25.30613795 33.75003945 25.1953125 42.41015625 C25.1924826 43.26306747 25.18965271 44.1159787 25.18673706 44.99473572 C25.17565831 47.68414118 25.15057793 50.37319742 25.125 53.0625 C25.11495425 54.90038577 25.10583121 56.73827683 25.09765625 58.57617188 C25.07575951 63.05091313 25.04131673 67.52539763 25 72 C22.4759953 73.28409967 19.94969209 74.56328778 17.421875 75.83984375 C16.71530762 76.1999353 16.00874023 76.56002686 15.28076172 76.93103027 C8.71164059 80.2401589 1.97546167 82.67724318 -5 85 C-8.12871252 86.07272156 -11.25224141 87.16008161 -14.375 88.25 C-15.20749268 88.5399585 -16.03998535 88.82991699 -16.89770508 89.12866211 C-30.17307574 93.77996881 -43.32338504 98.78868438 -56.4375 103.875 C-62.16418207 106.08861194 -67.9506435 108.02471698 -73.796875 109.89453125 C-89.15477408 114.70629519 -89.15477408 114.70629519 -102 124 C-102.33 124.66 -102.66 125.32 -103 126 C-103.66 126 -104.32 126 -105 126 C-105.103125 126.639375 -105.20625 127.27875 -105.3125 127.9375 C-106 131 -106 131 -106.71153545 132.74805737 C-109.6123028 139.97642242 -109.39928296 147.10430065 -109.3371582 154.78442383 C-109.33635055 156.26379892 -109.33694893 157.74317533 -109.33883667 159.22254944 C-109.34039075 162.39329647 -109.33306852 165.56385201 -109.31899452 168.73456764 C-109.29774488 173.75839105 -109.30265315 178.78198456 -109.3120575 183.80583191 C-109.33486043 198.08651515 -109.32306469 212.36705894 -109.28491211 226.64770508 C-109.26403983 234.54655493 -109.26484693 242.44511709 -109.28844708 250.34396189 C-109.30205087 255.32779801 -109.28911134 260.31060733 -109.25584948 265.29433978 C-109.24140507 268.40783 -109.25222994 271.52087049 -109.26983261 274.63432884 C-109.27298306 276.06609997 -109.26608048 277.49793849 -109.24776649 278.92959595 C-109.13430317 288.36591686 -110.28973212 296.21589038 -116 304 C-118.20029163 305.3235445 -118.20029163 305.3235445 -120 306 C-120 306.66 -120 307.32 -120 308 C-127.15743165 313.22100322 -135.16011901 317.19278734 -143.10522461 321.05566406 C-147.38299276 323.14671863 -151.48224646 325.41154693 -155.5625 327.875 C-163.50979062 332.56432874 -171.89551109 334.82268723 -181.0859375 332.46484375 C-187.50208962 329.90118472 -191.60722728 325.93735226 -195 320 C-196.23019977 315.57042739 -196.1426698 311.12410443 -196.13371277 306.56280518 C-196.13597833 305.71550425 -196.13824388 304.86820333 -196.14057809 303.99522662 C-196.14690595 301.15728564 -196.1460895 298.31939257 -196.14526367 295.48144531 C-196.14825595 293.44607481 -196.15165864 291.41070488 -196.15544128 289.37533569 C-196.16427927 283.84627516 -196.16661934 278.3172301 -196.16725707 272.78816319 C-196.16796778 269.33284151 -196.17010251 265.87752376 -196.17275429 262.42220306 C-196.18200759 250.3647995 -196.18608926 238.307407 -196.18530273 226.25 C-196.18470219 215.01598234 -196.19524945 203.78201275 -196.2110464 192.54800725 C-196.22412979 182.89943569 -196.22948628 173.25087982 -196.22884732 163.60229945 C-196.22859254 157.84134784 -196.23143298 152.08043892 -196.24202538 146.31949615 C-196.25171955 140.89897146 -196.25177644 135.47853014 -196.24450874 130.05800247 C-196.24346449 128.07188164 -196.2458163 126.08575559 -196.2518692 124.09964371 C-196.25961482 121.38137493 -196.25492732 118.66339225 -196.24723816 115.94512939 C-196.25238172 115.16543832 -196.25752529 114.38574725 -196.26282471 113.58242917 C-196.18587138 101.21007548 -191.84622108 91.67057377 -183.546875 82.515625 C-177.93614359 77.0182417 -170.87396205 73.65240434 -164 70 C-159.69445893 67.67747695 -155.44776465 65.28706669 -151.28125 62.72265625 C-150.28593262 62.11321167 -150.28593262 62.11321167 -149.27050781 61.49145508 C-147.94805624 60.67890478 -146.62950708 59.85996022 -145.31542969 59.03393555 C-141.90007542 56.93717309 -139.00609311 55.45871295 -135 55 C-135 54.34 -135 53.68 -135 53 C-134.32195312 52.63648438 -133.64390625 52.27296875 -132.9453125 51.8984375 C-128.29231825 49.38504726 -123.68812856 46.84075823 -119.1875 44.0625 C-115.18862859 41.626186 -111.07672288 39.49721169 -106.875 37.4375 C-101.70385355 34.89719145 -96.81829407 32.15347217 -92 29 C-89.75628249 27.55121505 -87.50743106 26.11444639 -85.25 24.6875 C-84.16203125 23.99011719 -83.0740625 23.29273437 -81.953125 22.57421875 C-79 21 -79 21 -75 21 C-75 20.34 -75 19.68 -75 19 C-74.42636719 18.69449219 -73.85273438 18.38898437 -73.26171875 18.07421875 C-67.80499626 15.13470967 -62.43053933 12.09296562 -57.09130859 8.94580078 C-53.8149617 7.0251389 -50.5183476 5.14144927 -47.21533203 3.26708984 C-45.32674055 2.18688378 -43.45623587 1.07515619 -41.58984375 -0.04296875 C-29.23038733 -6.75694443 -12.52263987 -6.26131993 0 0 Z " fill="#AC2331" transform="translate(270,29)"/>
<path d="M0 0 C1.82982925 -0.00618599 1.82982925 -0.00618599 3.69662476 -0.01249695 C5.03494487 -0.00188177 6.37326272 0.00902263 7.71157837 0.02018738 C9.13116437 0.02103426 10.55075168 0.02055731 11.97033691 0.01885986 C15.81295017 0.01800087 19.65528117 0.0356109 23.49782896 0.05658174 C27.51768269 0.07536462 31.53754324 0.07710024 35.55743408 0.08065796 C43.16464629 0.0899737 50.7717288 0.11458107 58.37888396 0.14470643 C67.041476 0.17826512 75.70407431 0.19474014 84.36671519 0.20979273 C102.1817756 0.24113107 119.99671538 0.29388238 137.81167603 0.36076355 C137.9049153 7.86330076 137.97571165 15.36577686 138.01892471 22.86876392 C138.03967933 26.35385617 138.06776985 29.8385481 138.11343384 33.32341003 C138.16575913 37.34240766 138.18472115 41.3609938 138.20230103 45.3802948 C138.22294617 46.61407364 138.24359131 47.84785248 138.26486206 49.11901855 C138.26825414 62.37181497 134.03292628 73.0742217 124.65151978 82.54045105 C119.31820213 87.36076355 119.31820213 87.36076355 116.81167603 87.36076355 C116.81167603 88.02076355 116.81167603 88.68076355 116.81167603 89.36076355 C112.81742151 90.71185785 108.81587706 92.03947807 104.81167603 93.36076355 C103.59480103 93.77326355 102.37792603 94.18576355 101.12417603 94.61076355 C87.19007479 97.7656544 74.57884375 92.39025 62.81167603 85.36076355 C62.81167603 84.70076355 62.81167603 84.04076355 62.81167603 83.36076355 C62.11944946 83.27568542 61.4272229 83.1906073 60.71401978 83.10295105 C57.08514656 82.1749754 54.52114506 80.50960936 51.37417603 78.48576355 C47.26774584 75.85803609 43.19304676 73.49646474 38.81167603 71.36076355 C36.84842655 70.30737512 34.8898884 69.24514839 32.93667603 68.17326355 C31.96987915 67.64345886 31.00308228 67.11365417 30.00698853 66.5677948 C29.2825354 66.16947449 28.55808228 65.77115417 27.81167603 65.36076355 C27.81167603 64.70076355 27.81167603 64.04076355 27.81167603 63.36076355 C27.07175415 63.24088074 26.33183228 63.12099792 25.56948853 62.9974823 C22.8711688 62.37449913 21.05864181 61.56668071 18.68667603 60.17326355 C17.92226196 59.73240417 17.1578479 59.2915448 16.37026978 58.83732605 C15.52593384 58.35006042 14.6815979 57.8627948 13.81167603 57.36076355 C11.79363912 56.25149423 9.77279339 55.14731957 7.74917603 54.04826355 C6.80944946 53.53650574 5.8697229 53.02474792 4.90151978 52.4974823 C4.21187134 52.12236511 3.5222229 51.74724792 2.81167603 51.36076355 C2.81167603 50.70076355 2.81167603 50.04076355 2.81167603 49.36076355 C2.00730103 49.13388855 1.20292603 48.90701355 0.37417603 48.67326355 C-8.98710234 45.22437152 -15.06335683 40.77737327 -20.06332397 32.11076355 C-22.36481465 24.43912797 -22.03630744 17.46776616 -18.38754272 10.29826355 C-14.0812735 3.34090349 -8.11124712 -0.02123363 0 0 Z " fill="#C21827" transform="translate(157.18832397460938,361.6392364501953)"/>
<path d="M0 0 C0.33 0 0.66 0 1 0 C0.9285376 0.85344498 0.8570752 1.70688995 0.78344727 2.5861969 C-0.27493803 17.3536181 -0.11225924 32.13254981 -0.06846237 46.92790675 C-0.05836737 50.79996014 -0.05494905 54.67201893 -0.05102539 58.54408264 C-0.04001516 68.34190166 -0.02041265 78.13969676 0 87.9375 C0.0220692 98.57119855 0.04257713 109.20488817 0.05341816 119.83860499 C0.05840011 124.4401775 0.06825555 129.04170605 0.08184814 133.64326084 C0.08928458 136.49169647 0.09261827 139.34012599 0.0948143 142.18857002 C0.0975896 144.14419441 0.10538888 146.09980962 0.11331177 148.05541992 C0.11338226 149.2115831 0.11345276 150.36774628 0.11352539 151.5589447 C0.115746 152.56742934 0.11796661 153.57591398 0.12025452 154.61495876 C0 157 0 157 -1 159 C-0.34 159.33 0.32 159.66 1 160 C0.97858948 160.64622314 0.95717896 161.29244629 0.93511963 161.95825195 C0.7157008 168.70645504 0.52591276 175.4550377 0.35302734 182.20458984 C0.28472538 184.72075648 0.20896333 187.23673244 0.12548828 189.75244141 C0.00655319 193.37637934 -0.08520831 197.00016408 -0.171875 200.625 C-0.21439392 201.74302002 -0.25691284 202.86104004 -0.30072021 204.01293945 C-0.41398534 209.92338103 -0.09163146 214.1942866 3.03338623 219.29443359 C4 221 4 221 4.43682861 223.13916016 C4.71559845 224.06027588 4.71559845 224.06027588 5 225 C7.99615946 226.3045656 7.99615946 226.3045656 11 227 C10.67 227.99 10.34 228.98 10 230 C19.08128979 232.9371684 19.08128979 232.9371684 28.1875 231.875 C30.8958133 230.20224476 30.8958133 230.20224476 32.5 228.5 C34.87930312 226.12069688 37.9200524 225.26497848 41 224 C44.16666667 222.16666667 44.16666667 222.16666667 46 219 C49.28491373 216.81005752 50.83095639 216.64722661 54.6875 216.375 C56.17830078 216.26285156 56.17830078 216.26285156 57.69921875 216.1484375 C58.83810547 216.07496094 58.83810547 216.07496094 60 216 C60.33 214.35 60.66 212.7 61 211 C61.928125 211.020625 62.85625 211.04125 63.8125 211.0625 C67.02286011 211.15769604 67.02286011 211.15769604 70 210 C70 209.34 70 208.68 70 208 C71.76957906 205.6716065 72.81583516 205.04711194 75.6875 204.3125 C76.450625 204.209375 77.21375 204.10625 78 204 C77.34 205.32 76.68 206.64 76 208 C75.34 208 74.68 208 74 208 C74 208.66 74 209.32 74 210 C66.84256835 215.22100322 58.83988099 219.19278734 50.89477539 223.05566406 C46.61700724 225.14671863 42.51775354 227.41154693 38.4375 229.875 C30.49020938 234.56432874 22.10448891 236.82268723 12.9140625 234.46484375 C6.49791038 231.90118472 2.39277272 227.93735226 -1 222 C-2.23019977 217.57042739 -2.1426698 213.12410443 -2.13371277 208.56280518 C-2.13597833 207.71550425 -2.13824388 206.86820333 -2.14057809 205.99522662 C-2.14690595 203.15728564 -2.1460895 200.31939257 -2.14526367 197.48144531 C-2.14825595 195.44607481 -2.15165864 193.41070488 -2.15544128 191.37533569 C-2.16427927 185.84627516 -2.16661934 180.3172301 -2.16725707 174.78816319 C-2.16796778 171.33284151 -2.17010251 167.87752376 -2.17275429 164.42220306 C-2.18200759 152.3647995 -2.18608926 140.307407 -2.18530273 128.25 C-2.18470219 117.01598234 -2.19524945 105.78201275 -2.2110464 94.54800725 C-2.22412979 84.89943569 -2.22948628 75.25087982 -2.22884732 65.60229945 C-2.22859254 59.84134784 -2.23143298 54.08043892 -2.24202538 48.31949615 C-2.25171955 42.89897146 -2.25177644 37.47853014 -2.24450874 32.05800247 C-2.24346449 30.07188164 -2.2458163 28.08575559 -2.2518692 26.09964371 C-2.25961482 23.38137493 -2.25492732 20.66339225 -2.24723816 17.94512939 C-2.25238172 17.16543832 -2.25752529 16.38574725 -2.26282471 15.58242917 C-2.22918446 10.17383844 -1.35596142 5.23108226 0 0 Z " fill="#BC5E7F" transform="translate(76,127)"/>
<path d="M0 0 C0.33 0 0.66 0 1 0 C1.1554514 26.90817518 1.30341057 53.81638309 1.4429636 80.72464561 C1.50795788 93.224655 1.57520941 105.72464387 1.64819336 118.22460938 C1.71195951 129.14690234 1.77106494 140.06921 1.82505554 150.99155581 C1.85367025 156.74998323 1.88428912 162.50838072 1.92053413 168.26676559 C2.06370958 191.27196545 2.08582895 214.27034021 1.6894511 237.27341771 C1.6520146 239.45767918 1.61726 241.64198854 1.58540452 243.82633853 C1.53945291 246.849718 1.48089113 249.87258451 1.4183197 252.8956604 C1.40637711 253.77413706 1.39443452 254.65261372 1.38213003 255.55771089 C1.19207484 263.40662685 0.80789167 275.19210833 -5 281 C-5.165 281.680625 -5.33 282.36125 -5.5 283.0625 C-5.665 283.701875 -5.83 284.34125 -6 285 C-6.66 285.33 -7.32 285.66 -8 286 C-8 286.66 -8 287.32 -8 288 C-4.12144087 289.29285304 -1.1368461 288.43357747 2.75 287.625 C4.14032476 287.34485994 5.530949 287.06620189 6.921875 286.7890625 C7.59798828 286.6540332 8.27410156 286.51900391 8.97070312 286.37988281 C11.96884573 285.81863282 14.9768788 285.40361042 18 285 C11.29217746 288.63340388 4.21437158 290.5413581 -3.16796875 292.25390625 C-5.90129492 292.97399632 -8.38009584 293.94958601 -11 295 C-12.95006024 295.53135157 -14.90919155 296.03024837 -16.875 296.5 C-20.29083806 297.3224868 -23.65449784 298.17828069 -27 299.25 C-30.03227549 300.00806887 -31.12116989 299.86861253 -34 299 C-32.56445975 298.49440092 -31.1264798 297.9957251 -29.6875 297.5 C-28.48673828 297.08234375 -28.48673828 297.08234375 -27.26171875 296.65625 C-25 296 -25 296 -22 296 C-22 295.34 -22 294.68 -22 294 C-20.68433783 292.94985695 -19.32014752 291.96023601 -17.9375 291 C-9.07452717 284.25522194 -3.30804085 274.5539651 -1.61377144 263.47424889 C-1.4549504 260.90553512 -1.40879863 258.3614668 -1.41040039 255.7878418 C-1.39537664 254.7887636 -1.3803529 253.7896854 -1.36487389 252.76033211 C-1.31912512 249.34405834 -1.30213614 245.9282491 -1.28515625 242.51171875 C-1.25843034 239.9686287 -1.23029879 237.42555312 -1.20094299 234.88249207 C-1.11947728 227.34766157 -1.07270003 219.8127784 -1.03037262 212.2776413 C-0.99860986 206.63251259 -0.96035643 200.98743371 -0.92205811 195.34234619 C-0.73289361 167.08051619 -0.59973908 138.81852963 -0.48258746 110.55632102 C-0.43235464 98.46822692 -0.3777607 86.3801535 -0.32291877 74.29207957 C-0.21065964 49.52807232 -0.10351257 24.76404526 0 0 Z " fill="#C53C0D" transform="translate(296,155)"/>
<path d="M0 0 C6.43406764 0.69876334 12.47570216 2.41005914 18.6875 4.1875 C19.7894873 4.49921143 20.89147461 4.81092285 22.02685547 5.13208008 C29.73993759 7.3244477 37.42340705 9.60749044 45.09570312 11.93798828 C51.13018466 13.76330847 57.19262121 15.41107444 63.29296875 17.00390625 C67.38332669 18.10300138 71.44116568 19.29079135 75.5 20.5 C80.73172352 22.05723546 85.97032013 23.54841392 91.25 24.9375 C100.07319773 27.26087936 108.8426899 29.76376825 117.60449219 32.30810547 C119.70500544 32.91479672 121.80862052 33.50837641 123.9140625 34.09765625 C136.3941824 37.70724596 143.84341112 42.97904795 152 53 C151.67 53.66 151.34 54.32 151 55 C149.25 54.875 149.25 54.875 147 54 C145.66666667 52 144.33333333 50 143 48 C139.99709822 45.73250274 137.56500652 44.18833551 134 43 C133.67 42.34 133.34 41.68 133 41 C130.79227376 40.12232004 130.79227376 40.12232004 128.1875 39.4375 C127.31480469 39.18871094 126.44210937 38.93992188 125.54296875 38.68359375 C123.98905402 38.26587474 122.43229952 37.85833529 120.87109375 37.46875 C113.66295265 35.66295265 113.66295265 35.66295265 111 33 C108.51792033 32.42098825 108.51792033 32.42098825 105.625 32.0625 C97.17667955 30.76119432 89.36040398 29.44991744 82 25 C78.30476048 24.28076792 78.30476048 24.28076792 75 24 C74.505 22.515 74.505 22.515 74 21 C73.40574219 21.03480469 72.81148438 21.06960937 72.19921875 21.10546875 C66.23927366 21.30011703 61.2405077 20.4959898 55.54296875 18.75390625 C53.02391156 17.95884488 53.02391156 17.95884488 50.47265625 17.53125 C47.8476795 16.96727395 45.68924049 16.04950669 43.25 14.9375 C38.24133299 12.85431567 34.38366013 12.65266709 29 13 C29.33 13.99 29.66 14.98 30 16 C30.66 16 31.32 16 32 16 C32 16.66 32 17.32 32 18 C32.474375 18.474375 32.94875 18.94875 33.4375 19.4375 C35 21 35 21 36 24 C35.505 24.495 35.505 24.495 35 25 C35.99 25.33 36.98 25.66 38 26 C37.67 27.98 37.34 29.96 37 32 C34.29191119 30.6459556 34.00190103 29.17081724 32.75 26.4375 C26.8603581 14.45335908 18.88791505 7.38148082 6.2265625 2.82421875 C4.05768823 2.02135477 2.04783884 1.07067373 0 0 Z " fill="#EDAC53" transform="translate(258,25)"/>
<path d="M0 0 C2.59342078 2.26743213 3.61901688 4.15976378 4.625 7.4375 C4.86476563 8.19933594 5.10453125 8.96117188 5.3515625 9.74609375 C5.56554687 10.48988281 5.77953125 11.23367187 6 12 C6.17583616 12.60324608 6.35167232 13.20649216 6.53283685 13.82801843 C7.06020721 16.27992137 7.12413466 18.49719537 7.12304783 21.00561142 C7.12503888 22.02027694 7.12702993 23.03494245 7.12908131 24.08035541 C7.12616847 25.1931881 7.12325563 26.30602079 7.12025452 27.45257568 C7.12110894 28.63614002 7.12196337 29.81970435 7.12284368 31.03913426 C7.12420735 34.32517387 7.12107694 37.61115409 7.11606562 40.89718652 C7.11175126 44.44043493 7.11320825 47.98368147 7.1139679 51.52693176 C7.1144925 57.66613958 7.11135228 63.80533678 7.10573006 69.94454193 C7.09760653 78.82082552 7.09499896 87.69710397 7.09374207 96.57339087 C7.09155289 110.97422313 7.08489644 125.37504972 7.07543945 139.77587891 C7.06626187 153.76578747 7.05918273 167.7556945 7.05493164 181.74560547 C7.05466892 182.6077963 7.05440619 183.46998712 7.05413551 184.35830495 C7.05283048 188.68361899 7.05156677 193.00893305 7.05032361 197.33424711 C7.03995518 233.22283541 7.0223405 269.11141726 7 305 C6.67 305 6.34 305 6 305 C5.99576806 303.8082721 5.99153612 302.61654421 5.98717594 301.38870335 C5.88565374 272.85193661 5.77979982 244.31518799 5.66888306 215.77845627 C5.65511981 212.23650027 5.64139176 208.69454412 5.62768555 205.15258789 C5.62359309 204.09524639 5.62359309 204.09524639 5.61941796 203.01654445 C5.57580391 191.72676696 5.535017 180.43698105 5.49534739 169.14718909 C5.45432418 157.49086205 5.41009522 145.83455007 5.36312145 134.17824548 C5.33694519 127.6614344 5.31216685 121.14462359 5.29092598 114.62779427 C5.23623749 98.08479312 5.15020489 81.54242898 5 65 C4.98974084 63.83947034 4.97948169 62.67894069 4.96891165 61.48324347 C4.90544266 54.59712409 4.82315507 47.7116243 4.71546924 40.82605064 C4.68413162 38.71331424 4.65738883 36.60050366 4.63569558 34.48764622 C4.52506805 24.2019552 4.36074038 14.82276533 1 5 C0.6441126 3.33800329 0.30485689 1.67210979 0 0 Z " fill="#DB9776" transform="translate(410,80)"/>
<path d="M0 0 C0.33 0 0.66 0 1 0 C1.09131196 31.04131202 1.16207043 62.08258842 1.20426132 93.12400293 C1.20926396 96.79132769 1.21444126 100.45865219 1.21972656 104.12597656 C1.2207758 104.85605408 1.22182505 105.58613159 1.22290608 106.33833267 C1.24029647 118.14919559 1.2718266 129.95998038 1.30861118 141.770797 C1.3460587 153.89587347 1.36824389 166.02090911 1.37635398 178.14604104 C1.38183388 185.62386309 1.3991219 193.10146429 1.43166587 200.57921834 C1.45537167 206.31970253 1.45781023 212.06004618 1.45243073 217.80056953 C1.45352943 220.1507166 1.46146287 222.50087218 1.4768219 224.85096931 C1.49680207 228.06638618 1.49190929 231.28086764 1.48101807 234.49630737 C1.49266943 235.42046129 1.5043208 236.34461521 1.51632524 237.29677379 C1.44141807 245.51098951 -1.10081692 253.3192958 -6 260 C-6.66 260 -7.32 260 -8 260 C-7.67 258.35 -7.34 256.7 -7 255 C-6.34 255 -5.68 255 -5 255 C-4.20734361 249.67787852 -3.57021934 244.3503559 -3 239 C-2.01 239.33 -1.02 239.66 0 240 C0 160.8 0 81.6 0 0 Z " fill="#C34511" transform="translate(415,145)"/>
<path d="M0 0 C-0.99 0 -1.98 0 -3 0 C-3 0.66 -3 1.32 -3 2 C-2.34 2.33 -1.68 2.66 -1 3 C-1.9075 3.226875 -2.815 3.45375 -3.75 3.6875 C-7.49773815 5.20100964 -8.80218768 6.66258129 -11 10 C-11.33 10.99 -11.66 11.98 -12 13 C-12.66 13 -13.32 13 -14 13 C-14 14.32 -14 15.64 -14 17 C-14 18.66666667 -14 20.33333333 -14 22 C-14.66 22 -15.32 22 -16 22 C-15.34 24.97 -14.68 27.94 -14 31 C-13.34 31 -12.68 31 -12 31 C-11.34 32.98 -10.68 34.96 -10 37 C-7.36 37.33 -4.72 37.66 -2 38 C-1.67 39.32 -1.34 40.64 -1 42 C0.98 42.33 2.96 42.66 5 43 C5 43.99 5 44.98 5 46 C7.64 46 10.28 46 13 46 C13.33 46.66 13.66 47.32 14 48 C13.67 48.99 13.34 49.98 13 51 C14.32 51.66 15.64 52.32 17 53 C17 53.66 17 54.32 17 55 C17.9590625 55.185625 17.9590625 55.185625 18.9375 55.375 C19.618125 55.58125 20.29875 55.7875 21 56 C21.33 56.66 21.66 57.32 22 58 C15.83643195 56.3341708 10.51740344 53.12194714 5 50 C5 49.34 5 48.68 5 48 C4.195625 47.773125 3.39125 47.54625 2.5625 47.3125 C-6.79877836 43.86360797 -12.87503285 39.41660972 -17.875 30.75 C-20.17649068 23.07836442 -19.84798347 16.10700261 -16.19921875 8.9375 C-12.89952633 3.60640085 -6.72840227 -2.84663173 0 0 Z " fill="#E0485D" transform="translate(155,363)"/>
<path d="M0 0 C6.43394519 0.69875004 12.47595754 2.40945368 18.6875 4.1875 C19.78586182 4.49921143 20.88422363 4.81092285 22.01586914 5.13208008 C25.34597763 6.08102729 28.67344307 7.03868313 32 8 C32.97517578 8.28101563 33.95035156 8.56203125 34.95507812 8.8515625 C44.14038734 11.5109774 53.21927105 14.17473194 62 18 C63.6650329 18.67073666 65.33133945 19.33833982 67 20 C63.42705525 21.19098158 62.17466786 20.6850378 58.625 19.625 C55.89747237 18.82101803 53.24226765 18.04482322 50.4453125 17.52734375 C47.83288109 16.96395998 45.67821075 16.04447843 43.25 14.9375 C38.24133299 12.85431567 34.38366013 12.65266709 29 13 C29.33 13.99 29.66 14.98 30 16 C30.66 16 31.32 16 32 16 C32 16.66 32 17.32 32 18 C32.474375 18.474375 32.94875 18.94875 33.4375 19.4375 C35 21 35 21 36 24 C35.505 24.495 35.505 24.495 35 25 C35.99 25.33 36.98 25.66 38 26 C37.67 27.98 37.34 29.96 37 32 C34.29191119 30.6459556 34.00190103 29.17081724 32.75 26.4375 C26.8603581 14.45335908 18.88791505 7.38148082 6.2265625 2.82421875 C4.05768823 2.02135477 2.04783884 1.07067373 0 0 Z " fill="#EDAA45" transform="translate(258,25)"/>
<path d="M0 0 C0.33 0 0.66 0 1 0 C1.11696396 19.51517906 1.20505205 39.03028667 1.25906086 58.54574394 C1.28480817 67.60776382 1.31989198 76.66956551 1.37719727 85.73144531 C1.42713892 93.63267802 1.45931625 101.53375265 1.47044247 109.43513882 C1.4769431 113.61633006 1.49214812 117.79706919 1.52865028 121.97811508 C1.56278041 125.91967889 1.57301908 129.86060766 1.56553841 133.80230522 C1.56690542 135.24299136 1.5767367 136.68370041 1.59602737 138.12425804 C1.70878342 146.98476364 0.86794289 153.47329747 -4 161 C-6.97753906 158.26513672 -6.97753906 158.26513672 -7.1796875 155.87890625 C-6.5932798 151.42070411 -6.14746858 148.40975763 -3 145 C-2.67 144.01 -2.34 143.02 -2 142 C-1.505 141.01 -1.505 141.01 -1 140 C-0.89456633 138.150435 -0.85338065 136.29708092 -0.84178162 134.44454956 C-0.8319928 133.26381866 -0.82220398 132.08308777 -0.81211853 130.86657715 C-0.80636307 129.56466431 -0.8006076 128.26275146 -0.79467773 126.92138672 C-0.78510144 125.54179591 -0.77509151 124.16220805 -0.76467896 122.78262329 C-0.73759679 119.0308141 -0.7166052 115.27899228 -0.69667697 111.52713919 C-0.67483781 107.60865562 -0.64743901 103.69021111 -0.62062073 99.77175903 C-0.5706658 92.34866024 -0.52573738 84.9255398 -0.48259836 77.50239861 C-0.43324989 69.05266864 -0.37832291 60.60297784 -0.32291877 52.15328574 C-0.20905575 34.76889336 -0.10222614 17.38446463 0 0 Z " fill="#C85D65" transform="translate(159,170)"/>
<path d="M0 0 C1.98 0 3.96 0 6 0 C6.09325368 7.37216853 6.16404243 14.74420699 6.20724869 22.11684895 C6.22800031 25.54141087 6.25608503 28.96556517 6.30175781 32.38989258 C6.35409597 36.33930343 6.37304794 40.28855729 6.390625 44.23828125 C6.41127014 45.45018631 6.43191528 46.66209137 6.45318604 47.91072083 C6.45637272 60.14988905 2.84838701 69.61569209 -5 79 C-6.92505993 80.87029892 -8.82803848 82.41075986 -11 84 C-11 80.47967572 -10.29648649 79.5614657 -8 77 C-7.34 77 -6.68 77 -6 77 C-5.67 75.68 -5.34 74.36 -5 73 C-4.01 73 -3.02 73 -2 73 C-2 71.68 -2 70.36 -2 69 C-1.34 69 -0.68 69 0 69 C-0.04125 67.88625 -0.0825 66.7725 -0.125 65.625 C0 62 0 62 2 60 C2.4230689 57.83000806 2.4230689 57.83000806 2.5625 55.4375 C2.90277778 51.09722222 2.90277778 51.09722222 4 50 C4.12221525 48.55815707 4.17772758 47.11056856 4.20532227 45.66381836 C4.22526749 44.7429393 4.24521271 43.82206024 4.26576233 42.87327576 C4.28247482 41.87224319 4.29918732 40.87121063 4.31640625 39.83984375 C4.33718735 38.82024063 4.35796844 37.80063751 4.37937927 36.75013733 C4.44498852 33.47932952 4.50381234 30.20843863 4.5625 26.9375 C4.60567442 24.72590272 4.64928834 22.51431397 4.69335938 20.30273438 C4.8006814 14.86857849 4.90242623 9.43433918 5 4 C4.34 4 3.68 4 3 4 C3 3.01 3 2.02 3 1 C2.01 0.67 1.02 0.34 0 0 Z " fill="#930904" transform="translate(289,363)"/>
<path d="M0 0 C0.33 0.99 0.66 1.98 1 3 C0.01 3.495 0.01 3.495 -1 4 C-1 4.66 -1 5.32 -1 6 C2.87855913 7.29285304 5.8631539 6.43357747 9.75 5.625 C11.14032476 5.34485994 12.530949 5.06620189 13.921875 4.7890625 C14.59798828 4.6540332 15.27410156 4.51900391 15.97070312 4.37988281 C18.96884573 3.81863282 21.9768788 3.40361042 25 3 C18.29217746 6.63340388 11.21437158 8.5413581 3.83203125 10.25390625 C1.09870508 10.97399632 -1.38009584 11.94958601 -4 13 C-5.95006024 13.53135157 -7.90919155 14.03024837 -9.875 14.5 C-13.29083806 15.3224868 -16.65449784 16.17828069 -20 17.25 C-23.03227549 18.00806887 -24.12116989 17.86861253 -27 17 C-25.56445975 16.49440092 -24.1264798 15.9957251 -22.6875 15.5 C-21.88699219 15.2215625 -21.08648437 14.943125 -20.26171875 14.65625 C-18 14 -18 14 -15 14 C-15 13.34 -15 12.68 -15 12 C-13.171875 10.37890625 -13.171875 10.37890625 -10.75 8.5625 C-9.96109375 7.96566406 -9.1721875 7.36882812 -8.359375 6.75390625 C-7.58078125 6.17511719 -6.8021875 5.59632813 -6 5 C-5.28328125 4.43152344 -4.5665625 3.86304688 -3.828125 3.27734375 C-2 2 -2 2 0 2 C0 1.34 0 0.68 0 0 Z " fill="#C95833" transform="translate(289,437)"/>
<path d="M0 0 C2.10558659 4.21117317 2.35827272 7.25622648 2.44921875 11.8203125 C2.47136444 12.61207886 2.49351013 13.40384521 2.5163269 14.21960449 C2.58493534 16.85460038 2.63721547 19.48959451 2.6875 22.125 C2.70779266 23.02885437 2.72808533 23.93270874 2.74899292 24.86395264 C3.26949525 48.58217381 2.65065987 72.29001324 2 96 C1.67 96 1.34 96 1 96 C1 78.51 1 61.02 1 43 C0.34 42.67 -0.32 42.34 -1 42 C-0.67 28.14 -0.34 14.28 0 0 Z " fill="#D46812" transform="translate(295,59)"/>
<path d="M0 0 C1.24423737 -0.00021904 1.24423737 -0.00021904 2.51361084 -0.0004425 C5.25690318 0.00025447 8.00012772 0.00803686 10.7434082 0.01586914 C12.64484113 0.01773408 14.54627455 0.01915763 16.44770813 0.02015686 C21.45363694 0.02397604 26.45953675 0.03380123 31.4654541 0.04486084 C36.57307544 0.05508783 41.68070146 0.05965724 46.78833008 0.06469727 C56.81112928 0.07542401 66.83390695 0.09249327 76.85668945 0.11352539 C76.85668945 0.44352539 76.85668945 0.77352539 76.85668945 1.11352539 C75.92009995 1.12161224 74.98351044 1.1296991 74.01853943 1.13803101 C65.17619869 1.21563946 56.33400903 1.30341551 47.49186611 1.40105247 C42.94643115 1.45091995 38.40101836 1.49725063 33.85546875 1.53540039 C29.46574907 1.57237408 25.07621925 1.61876638 20.68666267 1.6715889 C19.01503912 1.69006879 17.34337496 1.7052002 15.67168999 1.71686935 C13.32357366 1.73384199 10.97588612 1.76290232 8.62792969 1.79467773 C7.59969589 1.79791801 7.59969589 1.79791801 6.5506897 1.80122375 C0.6220988 1.9031863 -4.69250351 3.3192855 -10.08081055 5.73852539 C-11.09143555 6.19227539 -12.10206055 6.64602539 -13.14331055 7.11352539 C-13.47331055 6.12352539 -13.80331055 5.13352539 -14.14331055 4.11352539 C-13.15331055 3.78352539 -12.16331055 3.45352539 -11.14331055 3.11352539 C-11.14331055 2.45352539 -11.14331055 1.79352539 -11.14331055 1.11352539 C-7.39185688 -0.13695916 -3.9065497 -0.01791408 0 0 Z " fill="#C63646" transform="translate(163.143310546875,361.886474609375)"/>
<path d="M0 0 C2.64 0 5.28 0 8 0 C8.33 1.32 8.66 2.64 9 4 C11.97 4.495 11.97 4.495 15 5 C15 5.99 15 6.98 15 8 C17.64 8 20.28 8 23 8 C23.33 8.66 23.66 9.32 24 10 C23.67 10.99 23.34 11.98 23 13 C24.32 13.66 25.64 14.32 27 15 C27 15.66 27 16.32 27 17 C27.639375 17.12375 28.27875 17.2475 28.9375 17.375 C29.9584375 17.684375 29.9584375 17.684375 31 18 C31.33 18.66 31.66 19.32 32 20 C25.83643195 18.3341708 20.51740344 15.12194714 15 12 C15 11.34 15 10.68 15 10 C13.63875 9.62875 13.63875 9.62875 12.25 9.25 C8.81256743 7.92791055 7.47765008 6.63749847 5 4 C3.34338239 2.98343919 1.67888441 1.97934924 0 1 C0 0.67 0 0.34 0 0 Z " fill="#E0394F" transform="translate(145,401)"/>
<path d="M0 0 C0.66 0.33 1.32 0.66 2 1 C0.35 1.66 -1.3 2.32 -3 3 C-2.67 3.99 -2.34 4.98 -2 6 C-7 8 -7 8 -9.5 8.875 C-12.11909344 9.91021873 -12.11909344 9.91021873 -14.3125 12 C-17.82035752 14.61049862 -20.7355695 15.1326582 -25 16 C-24.67 16.99 -24.34 17.98 -24 19 C-25.8125 19.6875 -25.8125 19.6875 -28 20 C-29.63671875 18.51953125 -29.63671875 18.51953125 -31 17 C-30.19949219 16.56300781 -30.19949219 16.56300781 -29.3828125 16.1171875 C-25.26101507 13.8494858 -21.19630852 11.52496099 -17.1875 9.0625 C-11.65660419 5.72833361 -5.98976717 2.43571228 0 0 Z " fill="#B64D4F" transform="translate(133,84)"/>
<path d="M0 0 C0.66 0.99 1.32 1.98 2 3 C0.35 3.33 -1.3 3.66 -3 4 C-3.33 4.99 -3.66 5.98 -4 7 C-8.66666667 7.66666667 -13.33333333 8.33333333 -18 9 C-18 9.66 -18 10.32 -18 11 C-23.41538462 14.07692308 -23.41538462 14.07692308 -26.375 13.6875 C-26.91125 13.460625 -27.4475 13.23375 -28 13 C-24.93882432 10.37613513 -24.26826873 10 -20 10 C-20 9.34 -20 8.68 -20 8 C-19.24074219 7.59007812 -18.48148438 7.18015625 -17.69921875 6.7578125 C-16.70535156 6.21898437 -15.71148437 5.68015625 -14.6875 5.125 C-13.70136719 4.59132813 -12.71523437 4.05765625 -11.69921875 3.5078125 C-4.55266935 -0.48432653 -4.55266935 -0.48432653 0 0 Z " fill="#7E0E0D" transform="translate(215,40)"/>
<path d="M0 0 C4.42372317 3.98022397 5.73239002 9.02571718 6.25643921 14.85012817 C6.34543096 18.06219117 6.33767261 21.25969174 6.29296875 24.47265625 C6.28872391 25.6363121 6.28447906 26.79996796 6.28010559 27.99888611 C6.26341785 31.68700058 6.22578319 35.37455286 6.1875 39.0625 C6.1724404 41.57486186 6.15875424 44.08723235 6.14648438 46.59960938 C6.11354677 52.7332622 6.06344658 58.86659092 6 65 C5.67 65 5.34 65 5 65 C4.99413376 64.41055099 4.98826752 63.82110199 4.98222351 63.21379089 C4.91787081 57.03195384 4.83334762 50.8506174 4.73754883 44.66918945 C4.70446701 42.36782466 4.67638399 40.066382 4.65356445 37.76489258 C4.61970908 34.44058302 4.56737883 31.11697645 4.51171875 27.79296875 C4.50532883 26.7779277 4.4989389 25.76288666 4.49235535 24.71708679 C4.36959012 18.63788162 3.51724948 13.29852364 1.73591614 7.47993469 C1.00065074 5.00219292 0.47050791 2.53996857 0 0 Z " fill="#D26816" transform="translate(410,80)"/>
<path d="M0 0 C-3.60759039 4.10748575 -8.4381309 5.36725172 -13.4375 7.25 C-14.39205078 7.62640625 -15.34660156 8.0028125 -16.33007812 8.390625 C-17.25111328 8.74125 -18.17214844 9.091875 -19.12109375 9.453125 C-19.9608374 9.77442383 -20.80058105 10.09572266 -21.66577148 10.42675781 C-24.20599115 11.05058751 -25.56091737 10.85857957 -28 10 C-26.8553125 9.5978125 -26.8553125 9.5978125 -25.6875 9.1875 C-23.02661436 8.21920473 -23.02661436 8.21920473 -21.60546875 6.5234375 C-19.68895893 4.70485154 -18.14403059 4.18977023 -15.625 3.4375 C-13.09270195 2.6602195 -10.73996207 1.88509952 -8.3125 0.8125 C-5.45619996 -0.19106488 -3.00434863 -0.13973715 0 0 Z " fill="#A74949" transform="translate(273,109)"/>
<path d="M0 0 C-5.64312838 2.27895569 -11.23943205 3.87861006 -17.16796875 5.25390625 C-19.99475047 5.93240449 -19.99475047 5.93240449 -22.5625 7.05078125 C-25.05466978 8.02128967 -27.157963 8.38728027 -29.8125 8.625 C-30.60269531 8.69976562 -31.39289063 8.77453125 -32.20703125 8.8515625 C-32.79871094 8.90054687 -33.39039063 8.94953125 -34 9 C-33.67 7.68 -33.34 6.36 -33 5 C-31.25 4.70833333 -29.5 4.41666667 -27.75 4.125 C-26.65945313 3.94195312 -25.56890625 3.75890625 -24.4453125 3.5703125 C-22.2126039 3.20072581 -19.97827654 2.84073855 -17.7421875 2.4921875 C-13.50243799 1.82275337 -9.51721946 1.17240649 -5.4375 -0.1875 C-3 -1 -3 -1 0 0 Z " fill="#CA5F37" transform="translate(380,422)"/>
<path d="M0 0 C6.53023981 1.38279647 12.90847424 3.06077202 19.3125 4.9375 C26.84164289 7.11899539 34.36943413 9.19899688 42 11 C42 11.33 42 11.66 42 12 C34.86606248 11.48462048 27.98187183 10.55994099 21 9 C20.67 8.01 20.34 7.02 20 6 C19.01 6.061875 18.02 6.12375 17 6.1875 C12.56597999 6.19647575 9.02503278 4.72621699 5 3 C4.01 2.608125 3.02 2.21625 2 1.8125 C1.34 1.544375 0.68 1.27625 0 1 C0 0.67 0 0.34 0 0 Z " fill="#F6CF8B" transform="translate(312,40)"/>
<path d="M0 0 C-0.99 0 -1.98 0 -3 0 C-3 0.66 -3 1.32 -3 2 C-2.34 2.33 -1.68 2.66 -1 3 C-1.886875 3.28875 -2.77375 3.5775 -3.6875 3.875 C-5.3271875 4.431875 -5.3271875 4.431875 -7 5 C-7.928125 5.28875 -8.85625 5.5775 -9.8125 5.875 C-12.19077693 6.79047839 -12.19077693 6.79047839 -12.8125 9.125 C-12.874375 9.74375 -12.93625 10.3625 -13 11 C-13.66 11 -14.32 11 -15 11 C-15 11.99 -15 12.98 -15 14 C-15.66 14 -16.32 14 -17 14 C-17.33 18.29 -17.66 22.58 -18 27 C-18.33 27 -18.66 27 -19 27 C-19.61469308 17.86497779 -18.5420991 11.28780417 -12.625 4.125 C-4.94502229 -2.09212481 -4.94502229 -2.09212481 0 0 Z " fill="#E87483" transform="translate(155,363)"/>
<path d="M0 0 C-2.25380297 2.25380297 -3.51899458 2.61275698 -6.54296875 3.47265625 C-7.45240234 3.73240234 -8.36183594 3.99214844 -9.29882812 4.25976562 C-10.25208984 4.52466797 -11.20535156 4.78957031 -12.1875 5.0625 C-13.12142578 5.33126953 -14.05535156 5.60003906 -15.01757812 5.87695312 C-20.00799804 7.28522785 -24.84555064 8.42253057 -30 9 C-26.267612 5.42988974 -21.9050011 4.89086558 -17 4 C-17 3.34 -17 2.68 -17 2 C-11.16200408 0.30167391 -6.06892629 -0.25287193 0 0 Z " fill="#C96442" transform="translate(345,431)"/>
<path d="M0 0 C0.33 0 0.66 0 1 0 C1.08685287 3.29150125 1.14033895 6.5827096 1.1875 9.875 C1.22520508 11.28072266 1.22520508 11.28072266 1.26367188 12.71484375 C1.27333984 13.61074219 1.28300781 14.50664063 1.29296875 15.4296875 C1.3086792 16.25710449 1.32438965 17.08452148 1.34057617 17.93701172 C1.22818604 18.61779785 1.1157959 19.29858398 1 20 C-2 22 -2 22 -6 22 C-6 20.02 -6 18.04 -6 16 C-5.01 15.67 -4.02 15.34 -3 15 C-2.34 15.33 -1.68 15.66 -1 16 C-0.67 10.72 -0.34 5.44 0 0 Z " fill="#7B0C04" transform="translate(294,81)"/>
<path d="M0 0 C0.33 0.99 0.66 1.98 1 3 C-1.691376 4.10821365 -4.33431899 5.1002957 -7.125 5.9375 C-9.99804746 6.77155301 -9.99804746 6.77155301 -11.625 8.625 C-12.07875 9.07875 -12.5325 9.5325 -13 10 C-14.32 10 -15.64 10 -17 10 C-17 10.66 -17 11.32 -17 12 C-19.31 12.66 -21.62 13.32 -24 14 C-23.02196834 11.51611008 -22.41982907 10.24625412 -20.08203125 8.875 C-19.33308594 8.58625 -18.58414063 8.2975 -17.8125 8 C-14.8353754 6.78815761 -12.06595127 5.53444608 -9.3125 3.875 C-6.23499268 2.13301473 -3.38299143 0.99014383 0 0 Z " fill="#9B1013" transform="translate(170,66)"/>
<path d="M0 0 C0.33 0 0.66 0 1 0 C1.04254356 1.99954746 1.04080783 4.00041636 1 6 C0.67 6.33 0.34 6.66 0 7 C-0.24420122 9.77665837 -0.38388187 12.55216999 -0.5234375 15.3359375 C-1.04858979 18.27162488 -1.69623147 19.18901618 -4 21 C-6.23186987 16.66754671 -6.11328599 13.71005609 -5 9 C-3.5 6.75 -3.5 6.75 -2 5 C-1.67 4.01 -1.34 3.02 -1 2 C-0.67 1.34 -0.34 0.68 0 0 Z " fill="#C65C83" transform="translate(158,310)"/>
<path d="M0 0 C3 1 3 1 5 3 C5.66 3 6.32 3 7 3 C7 3.66 7 4.32 7 5 C7.474375 5.474375 7.94875 5.94875 8.4375 6.4375 C10 8 10 8 11 11 C10.67 11.33 10.34 11.66 10 12 C10.99 12.33 11.98 12.66 13 13 C12.67 14.98 12.34 16.96 12 19 C9.2796712 17.6398356 8.95775992 16.11412725 7.6875 13.375 C5.50711512 8.85199923 2.99293106 5.01907885 0 1 C0 0.67 0 0.34 0 0 Z " fill="#ED9010" transform="translate(283,38)"/>
<path d="M0 0 C1.32 0 2.64 0 4 0 C4 0.99 4 1.98 4 3 C-1.98467536 6.38590193 -7.91479914 9.59552335 -15 9 C-15.66 8.34 -16.32 7.68 -17 7 C-15.02 7 -13.04 7 -11 7 C-11 6.34 -11 5.68 -11 5 C-7.12315913 3.80712589 -4.08378077 3 0 3 C0 2.01 0 1.02 0 0 Z " fill="#CA603F" transform="translate(395,412)"/>
<path d="M0 0 C5.50808397 0.59015185 10.64878069 1.56663769 16 3 C16 3.66 16 4.32 16 5 C16.66 4.835 17.32 4.67 18 4.5 C21.73099794 3.87816701 25.21873378 3.93591074 29 4 C29 4.33 29 4.66 29 5 C18.53645841 7.14636751 9.44794178 6.19636798 0 1 C0 0.67 0 0.34 0 0 Z " fill="#AF3F46" transform="translate(232,451)"/>
<path d="M0 0 C0.33 0 0.66 0 1 0 C1.04956835 4.75055432 1.08579909 9.50095688 1.10986328 14.25170898 C1.11989896 15.86664453 1.13353051 17.481562 1.15087891 19.09643555 C1.17523465 21.42240875 1.18650747 23.74814095 1.1953125 26.07421875 C1.20563507 26.79212082 1.21595764 27.51002289 1.22659302 28.24967957 C1.22748903 32.28499868 0.78957682 35.36821174 -1 39 C-1.33 39 -1.66 39 -2 39 C-2.02689216 37.52093108 -2.04634621 36.04172517 -2.0625 34.5625 C-2.07990234 33.32693359 -2.07990234 33.32693359 -2.09765625 32.06640625 C-2 30 -2 30 -1 29 C-0.84141158 26.85613343 -0.74870702 24.70733162 -0.68359375 22.55859375 C-0.64169922 21.25341797 -0.59980469 19.94824219 -0.55664062 18.60351562 C-0.51682392 17.2148467 -0.47711175 15.82617478 -0.4375 14.4375 C-0.39432011 13.04490817 -0.350706 11.65232972 -0.30664062 10.25976562 C-0.20014124 6.83995199 -0.09813077 3.42006237 0 0 Z " fill="#CA7087" transform="translate(159,287)"/>
<path d="M0 0 C0.99 0.33 1.98 0.66 3 1 C1.60440273 4.3726934 0.1078412 6.08045102 -3 8 C-5.25 8.6875 -5.25 8.6875 -7 9 C-7 8.34 -7 7.68 -7 7 C-8.98 7.66 -10.96 8.32 -13 9 C-12.67 8.01 -12.34 7.02 -12 6 C-8.5065403 4.25327015 -5.93154432 3 -2 3 C-2 2.34 -2 1.68 -2 1 C-1.34 0.67 -0.68 0.34 0 0 Z " fill="#8E0C0B" transform="translate(199,48)"/>
<path d="M0 0 C2.6875 0.3125 2.6875 0.3125 5 1 C1.71781259 5.0544668 -3.19912991 6.39970997 -8 8 C-9.89470816 8.0685495 -11.7916834 8.08480372 -13.6875 8.0625 C-14.68136719 8.05347656 -15.67523438 8.04445313 -16.69921875 8.03515625 C-17.83810547 8.01775391 -17.83810547 8.01775391 -19 8 C-19 7.67 -19 7.34 -19 7 C-18.43152344 6.96261719 -17.86304687 6.92523438 -17.27734375 6.88671875 C-11.46916753 6.39219957 -5.55076124 5.74697364 -1.375 1.25 C-0.92125 0.8375 -0.4675 0.425 0 0 Z " fill="#C381AB" transform="translate(110,354)"/>
<path d="M0 0 C0.66 0.33 1.32 0.66 2 1 C0.35 1.66 -1.3 2.32 -3 3 C-2.67 3.99 -2.34 4.98 -2 6 C-3.66666667 6.66666667 -5.33333333 7.33333333 -7 8 C-7.845625 8.391875 -8.69125 8.78375 -9.5625 9.1875 C-12.29141186 10.09713729 -13.31943846 9.79906803 -16 9 C-13.89812468 7.68370433 -11.79368324 6.37187003 -9.6875 5.0625 C-8.79514648 4.50272461 -8.79514648 4.50272461 -7.88476562 3.93164062 C-5.27252256 2.31175806 -2.92778827 0.97592942 0 0 Z " fill="#B85255" transform="translate(133,84)"/>
<path d="M0 0 C-3.37140024 1.32187995 -6.74768941 2.63080245 -10.125 3.9375 C-11.07632813 4.31068359 -12.02765625 4.68386719 -13.0078125 5.06835938 C-17.65981859 6.86132006 -22.0023923 8.4699507 -27 9 C-24.64046906 6.64046906 -23.22104383 6.50858587 -20 6 C-20 5.01 -20 4.02 -20 3 C-18.78763672 2.81824219 -18.78763672 2.81824219 -17.55078125 2.6328125 C-16.48214844 2.46523437 -15.41351563 2.29765625 -14.3125 2.125 C-13.25675781 1.96257812 -12.20101562 1.80015625 -11.11328125 1.6328125 C-8.0091648 1.1069807 -8.0091648 1.1069807 -5.29296875 -0.1328125 C-3 -1 -3 -1 0 0 Z " fill="#D28A8B" transform="translate(231,126)"/>
<path d="M0 0 C0 0.66 0 1.32 0 2 C0.99 2.33 1.98 2.66 3 3 C3 3.66 3 4.32 3 5 C3.99 4.67 4.98 4.34 6 4 C8 6 8 6 9 9 C4.93774452 8.42176904 2.15237654 7.10882263 -1.3125 4.9375 C-2.19550781 4.38964844 -3.07851562 3.84179688 -3.98828125 3.27734375 C-4.65214844 2.85582031 -5.31601563 2.43429687 -6 2 C-2.25 0 -2.25 0 0 0 Z " fill="#C6515D" transform="translate(211,436)"/>
<path d="M0 0 C0.66 0.33 1.32 0.66 2 1 C1.34 2.65 0.68 4.3 0 6 C-0.66 6 -1.32 6 -2 6 C-2 7.32 -2 8.64 -2 10 C-2 11.66666667 -2 13.33333333 -2 15 C-2.66 15 -3.32 15 -4 15 C-3.67 16.32 -3.34 17.64 -3 19 C-3.66 19.33 -4.32 19.66 -5 20 C-5.19551338 18.39679026 -5.38111983 16.79237014 -5.5625 15.1875 C-5.71912109 13.84751953 -5.71912109 13.84751953 -5.87890625 12.48046875 C-6 10 -6 10 -5 7 C-4.34 7 -3.68 7 -3 7 C-3 6.01 -3 5.02 -3 4 C-2.34 4 -1.68 4 -1 4 C-0.67 2.68 -0.34 1.36 0 0 Z " fill="#E72F4A" transform="translate(143,370)"/>
<path d="M0 0 C-0.90172468 1.17825358 -1.82201502 2.34231577 -2.75 3.5 C-3.26046875 4.1496875 -3.7709375 4.799375 -4.296875 5.46875 C-6 7 -6 7 -10 7 C-10 7.66 -10 8.32 -10 9 C-10.66 9 -11.32 9 -12 9 C-12 8.01 -12 7.02 -12 6 C-11.34 6 -10.68 6 -10 6 C-9.896875 5.38125 -9.79375 4.7625 -9.6875 4.125 C-8.12832587 -0.6942655 -4.29769918 -0.19100885 0 0 Z " fill="#863332" transform="translate(232,30)"/>
<path d="M0 0 C0.99 0.33 1.98 0.66 3 1 C0.49077491 15.1402214 0.49077491 15.1402214 -2 20 C-2.99 20.33 -3.98 20.66 -5 21 C-4.67 19.35 -4.34 17.7 -4 16 C-3.34 16 -2.68 16 -2 16 C-1.20734361 10.67787852 -0.57021934 5.3503559 0 0 Z " fill="#CA3F0C" transform="translate(412,384)"/>
<path d="M0 0 C0.33 0 0.66 0 1 0 C1.01981934 0.81678223 1.03963867 1.63356445 1.06005859 2.47509766 C1.15558143 6.1920444 1.26515124 9.90845019 1.375 13.625 C1.4059375 14.91019531 1.436875 16.19539063 1.46875 17.51953125 C1.50742188 18.76347656 1.54609375 20.00742187 1.5859375 21.2890625 C1.6173584 22.43068848 1.6487793 23.57231445 1.68115234 24.74853516 C2.00910846 28.092884 2.8165928 30.865009 4 34 C3.01 34 2.02 34 1 34 C-0.47905238 31.04189524 -0.12190903 28.0452845 -0.09765625 24.8046875 C-0.0962413 24.09724396 -0.09482635 23.38980042 -0.09336853 22.66091919 C-0.087766 20.39890331 -0.07521318 18.13698602 -0.0625 15.875 C-0.05748532 14.34244935 -0.05292236 12.80989714 -0.04882812 11.27734375 C-0.03779577 7.51819112 -0.02052952 3.75911228 0 0 Z " fill="#BA73A2" transform="translate(74,312)"/>
<path d="M0 0 C0.99 0.66 1.98 1.32 3 2 C5.15274948 1.69159401 5.15274948 1.69159401 7 1 C7.33 1.66 7.66 2.32 8 3 C5.73117913 3.83919398 3.46022973 4.67151724 1.1875 5.5 C0.22360352 5.85771484 0.22360352 5.85771484 -0.75976562 6.22265625 C-3.64933739 7.27068746 -5.90076061 8 -9 8 C-9 7.34 -9 6.68 -9 6 C-7.35 5.67 -5.7 5.34 -4 5 C-4 4.01 -4 3.02 -4 2 C-2.68 1.34 -1.36 0.68 0 0 Z " fill="#971919" transform="translate(226,121)"/>
<path d="M0 0 C0 1.65 0 3.3 0 5 C-0.99 5.33 -1.98 5.66 -3 6 C-3.66 5.34 -4.32 4.68 -5 4 C-7.64 5.65 -10.28 7.3 -13 9 C-13.33 8.01 -13.66 7.02 -14 6 C-12.2335343 4.9923048 -10.46166177 3.99408286 -8.6875 3 C-7.20830078 2.1646875 -7.20830078 2.1646875 -5.69921875 1.3125 C-3 0 -3 0 0 0 Z " fill="#9F1517" transform="translate(144,81)"/>
<path d="M0 0 C2.10448938 0.14109986 4.2085877 0.28804175 6.3125 0.4375 C7.48425781 0.51871094 8.65601563 0.59992187 9.86328125 0.68359375 C13 1 13 1 16 2 C16 2.99 16 3.98 16 5 C14.08210287 4.71653722 12.16570817 4.4228972 10.25 4.125 C9.18265625 3.96257813 8.1153125 3.80015625 7.015625 3.6328125 C4.32291129 3.06776118 2.36427561 2.36577086 0 1 C0 0.67 0 0.34 0 0 Z " fill="#EBA435" transform="translate(344,51)"/>
<path d="M0 0 C5.77411669 0.60780176 10.70278804 2.77533888 16 5 C17.66554602 5.66946148 19.33190174 6.33692351 21 7 C17.42705525 8.19098158 16.17466786 7.6850378 12.625 6.625 C9.84212015 5.80470208 7.12044097 5.02381211 4.2734375 4.4609375 C2 4 2 4 0 3 C0 2.01 0 1.02 0 0 Z " fill="#EEAA37" transform="translate(304,38)"/>
<path d="M0 0 C0.33 0.66 0.66 1.32 1 2 C1.66 2.33 2.32 2.66 3 3 C1.47005208 4.23697917 -0.05989583 5.47395833 -1.58984375 6.7109375 C-3.13266437 7.9666391 -3.13266437 7.9666391 -4 10 C-4.66 10 -5.32 10 -6 10 C-6.33663062 6.29706315 -6.47736015 4.60465619 -4.125 1.625 C-2 0 -2 0 0 0 Z " fill="#C45E5F" transform="translate(171,145)"/>
<path d="M0 0 C6.1112924 1.0388092 12.07704464 2.15730278 18 4 C18 4.33 18 4.66 18 5 C14.625 5.625 14.625 5.625 11 6 C10.34 5.34 9.68 4.68 9 4 C6.79749008 3.53993654 6.79749008 3.53993654 4.375 3.375 C3.14910156 3.26285156 3.14910156 3.26285156 1.8984375 3.1484375 C1.27195312 3.09945312 0.64546875 3.05046875 0 3 C0 2.01 0 1.02 0 0 Z " fill="#F2BE6B" transform="translate(360,54)"/>
<path d="M0 0 C2.58110119 2.26298228 3.64929044 4.18004885 4.6875 7.4375 C4.93886719 8.19933594 5.19023437 8.96117188 5.44921875 9.74609375 C6 12 6 12 6 16 C5.34 16 4.68 16 4 16 C3.5186659 14.27143541 3.04003029 12.54211929 2.5625 10.8125 C2.29566406 9.84957031 2.02882813 8.88664062 1.75390625 7.89453125 C1.07119982 5.27336303 0.50107805 2.661065 0 0 Z " fill="#E18B32" transform="translate(410,80)"/>
<path d="M0 0 C7.47037566 0.13339957 10.84256317 2.74654706 16 8 C10.18041306 8 4.94377019 3.86738671 0 1 C0 0.67 0 0.34 0 0 Z " fill="#C8565E" transform="translate(189,428)"/>
<path d="M0 0 C-17.1826087 6.93913043 -17.1826087 6.93913043 -23 5 C-20.42768779 2.42768779 -18.81900209 2.49717442 -15.25 2 C-11.78884608 1.48186319 -8.76784375 0.92261458 -5.4375 -0.1875 C-3 -1 -3 -1 0 0 Z " fill="#C67153" transform="translate(380,422)"/>
<path d="M0 0 C0.99 0 1.98 0 3 0 C3.66 1.32 4.32 2.64 5 4 C2.33333333 5.33333333 -0.33333333 6.66666667 -3 8 C-3.33 7.01 -3.66 6.02 -4 5 C-2.25 2.3125 -2.25 2.3125 0 0 Z " fill="#B81B1C" transform="translate(85,117)"/>
<path d="M0 0 C-0.33 0.66 -0.66 1.32 -1 2 C-3.97 1.67 -6.94 1.34 -10 1 C-10.33 1.66 -10.66 2.32 -11 3 C-11 2.34 -11 1.68 -11 1 C-14.96 1.99 -18.92 2.98 -23 4 C-23.33 3.34 -23.66 2.68 -24 2 C-16.09388645 -0.63537118 -8.23134837 -0.17981101 0 0 Z " fill="#590606" transform="translate(259,26)"/>
<path d="M0 0 C-4.77618266 3.89635954 -6.80401645 5.13469529 -13 5 C-10.51061047 0.02122095 -4.99671596 -1.81698762 0 0 Z " fill="#BE77A3" transform="translate(125,350)"/>
<path d="M0 0 C0 0.99 0 1.98 0 3 C-1.0725 3.433125 -2.145 3.86625 -3.25 4.3125 C-5.59294192 5.29776129 -7.17784529 6.14227623 -9.1875 7.75 C-9.785625 8.1625 -10.38375 8.575 -11 9 C-13.11328125 8.578125 -13.11328125 8.578125 -15 8 C-14.31292969 7.59007813 -13.62585938 7.18015625 -12.91796875 6.7578125 C-12.01691406 6.21898438 -11.11585938 5.68015625 -10.1875 5.125 C-9.29417969 4.59132813 -8.40085938 4.05765625 -7.48046875 3.5078125 C-1.70984456 0 -1.70984456 0 0 0 Z " fill="#C67F81" transform="translate(167,65)"/>
<path d="M0 0 C0 0.66 0 1.32 0 2 C1.32 2.33 2.64 2.66 4 3 C4 3.66 4 4.32 4 5 C4.66 5 5.32 5 6 5 C6 5.66 6 6.32 6 7 C4.68 6.67 3.36 6.34 2 6 C2 5.34 2 4.68 2 4 C1.236875 3.896875 0.47375 3.79375 -0.3125 3.6875 C-3.17059424 2.95635961 -4.15742885 2.23048087 -6 0 C-3 -1 -3 -1 0 0 Z " fill="#D0515E" transform="translate(183,421)"/>
<path d="M0 0 C0.515625 0.37125 1.03125 0.7425 1.5625 1.125 C0.5725 1.455 -0.4175 1.785 -1.4375 2.125 C-1.4375 2.785 -1.4375 3.445 -1.4375 4.125 C-4.0775 4.125 -6.7175 4.125 -9.4375 4.125 C-9.4375 3.135 -9.4375 2.145 -9.4375 1.125 C-3.0375 -1.09038462 -3.0375 -1.09038462 0 0 Z " fill="#920A0C" transform="translate(275.4375,104.875)"/>
<path d="M0 0 C-0.66 1.98 -1.32 3.96 -2 6 C-4.31 6.33 -6.62 6.66 -9 7 C-7.68534669 3.05604006 -4.38536841 0 0 0 Z " fill="#AC4749" transform="translate(176,60)"/>
<path d="M0 0 C0 0.66 0 1.32 0 2 C0.66 2.33 1.32 2.66 2 3 C1.67 3.66 1.34 4.32 1 5 C-1.31 4.67 -3.62 4.34 -6 4 C-6 3.34 -6 2.68 -6 2 C-6.66 1.67 -7.32 1.34 -8 1 C-5.10765685 0.17361624 -3.11257569 0 0 0 Z " fill="#DB2236" transform="translate(195,424)"/>
<path d="M0 0 C2.64 0 5.28 0 8 0 C8.12375 0.61875 8.2475 1.2375 8.375 1.875 C8.87197356 4.19120832 8.87197356 4.19120832 11 6 C6.48986609 5.46939601 3.61621781 3.69113883 0 1 C0 0.67 0 0.34 0 0 Z " fill="#E92E46" transform="translate(145,401)"/>
<path d="M0 0 C-3.87030057 1.72928323 -7.75451011 3.33097986 -11.75 4.75 C-12.85601562 5.14445313 -12.85601562 5.14445313 -13.984375 5.546875 C-16 6 -16 6 -19 5 C-16.58325845 2.09037037 -14.68985938 1.47899484 -11 0.875 C-1.9704142 -0.65680473 -1.9704142 -0.65680473 0 0 Z " fill="#D79798" transform="translate(201,137)"/>
<path d="M0 0 C0 0.33 0 0.66 0 1 C-1.5159375 1.4021875 -1.5159375 1.4021875 -3.0625 1.8125 C-6.87327442 2.8935156 -10.38875208 4.37862338 -14 6 C-14.33 5.01 -14.66 4.02 -15 3 C-9.63560356 0.31780178 -5.98993047 -0.3152595 0 0 Z " fill="#EF283F" transform="translate(164,363)"/>
<path d="M0 0 C0.66 0.33 1.32 0.66 2 1 C2.34615998 6.65394631 1.43425238 10.03006806 -1 15 C-2.24766416 11.39563687 -1.75399309 8.69456616 -1 5 C-0.814375 4.05125 -0.62875 3.1025 -0.4375 2.125 C-0.293125 1.42375 -0.14875 0.7225 0 0 Z " fill="#AE1D23" transform="translate(161,151)"/>
<path d="M0 0 C1.65 0.33 3.3 0.66 5 1 C4.67 1.66 4.34 2.32 4 3 C3.34 3 2.68 3 2 3 C2 3.66 2 4.32 2 5 C-2.43076923 7.09230769 -2.43076923 7.09230769 -5.3125 6.625 C-5.869375 6.41875 -6.42625 6.2125 -7 6 C-2.25 3 -2.25 3 0 3 C0 2.01 0 1.02 0 0 Z " fill="#9B1411" transform="translate(272,446)"/>
<path d="M0 0 C0.33 0 0.66 0 1 0 C1.04254356 1.99954746 1.04080783 4.00041636 1 6 C0.67 6.33 0.34 6.66 0 7 C-0.23192865 8.51469448 -0.41215238 10.03754562 -0.5625 11.5625 C-0.64628906 12.38878906 -0.73007813 13.21507812 -0.81640625 14.06640625 C-0.87699219 14.70449219 -0.93757812 15.34257812 -1 16 C-1.33 16 -1.66 16 -2 16 C-2 14.02 -2 12.04 -2 10 C-2.99 9.67 -3.98 9.34 -5 9 C-4.525625 8.401875 -4.05125 7.80375 -3.5625 7.1875 C-1.83534256 4.99617076 -1.83534256 4.99617076 -1 2 C-0.67 1.34 -0.34 0.68 0 0 Z " fill="#B8436B" transform="translate(158,310)"/>
<path d="M0 0 C3.46941546 0.45822468 6.67395049 0.89131683 10 2 C10 2.99 10 3.98 10 5 C4.25 4.125 4.25 4.125 2 3 C2 2.34 2 1.68 2 1 C1.34 0.67 0.68 0.34 0 0 Z " fill="#F4C366" transform="translate(294,35)"/>
<path d="M0 0 C1.32 0.66 2.64 1.32 4 2 C3.67 3.32 3.34 4.64 3 6 C0.03 5.505 0.03 5.505 -3 5 C-2 2 -2 2 0 0 Z " fill="#B95B90" transform="translate(124,344)"/>
<path d="M0 0 C-1.45264038 0.8638129 -2.9123163 1.71580454 -4.375 2.5625 C-5.59316406 3.27599609 -5.59316406 3.27599609 -6.8359375 4.00390625 C-7.55007812 4.33261719 -8.26421875 4.66132813 -9 5 C-9.66 4.67 -10.32 4.34 -11 4 C-10.67 2.68 -10.34 1.36 -10 0 C-6.26432828 -0.76411467 -3.65188082 -1.07174763 0 0 Z " fill="#C87FA4" transform="translate(138,344)"/>
<path d="M0 0 C0 0.66 0 1.32 0 2 C-0.66 2 -1.32 2 -2 2 C-2 2.66 -2 3.32 -2 4 C-7.41538462 7.07692308 -7.41538462 7.07692308 -10.375 6.6875 C-10.91125 6.460625 -11.4475 6.23375 -12 6 C-8.93882432 3.37613513 -8.26826873 3 -4 3 C-4 2.34 -4 1.68 -4 1 C-2 0 -2 0 0 0 Z " fill="#B87777" transform="translate(199,47)"/>
<path d="M0 0 C2.31 0.33 4.62 0.66 7 1 C7.33 1.99 7.66 2.98 8 4 C9.32303717 4.3721042 10.65737935 4.70630173 12 5 C12.33 5.66 12.66 6.32 13 7 C8.1725201 5.58707905 4.2837641 3.57025846 0 1 C0 0.67 0 0.34 0 0 Z " fill="#D25C69" transform="translate(164,414)"/>
<path d="M0 0 C0.33 0 0.66 0 1 0 C1.16682272 4.92127034 1.24828052 8.50343896 -1 13 C-1.33 13 -1.66 13 -2 13 C-2.05447047 11.58376784 -2.09300508 10.16691809 -2.125 8.75 C-2.14820313 7.96109375 -2.17140625 7.1721875 -2.1953125 6.359375 C-1.9828378 3.79268059 -1.28654105 2.2083933 0 0 Z " fill="#CE849F" transform="translate(159,313)"/>
<path d="M0 0 C-0.33 0.66 -0.66 1.32 -1 2 C-3.31 2 -5.62 2 -8 2 C-8.33 2.99 -8.66 3.98 -9 5 C-10.32 4.67 -11.64 4.34 -13 4 C-11 1 -11 1 -8.75 0.3125 C-5.80888507 -0.02171761 -2.95762178 -0.0687819 0 0 Z " fill="#A21A20" transform="translate(193,137)"/>
<path d="M0 0 C-0.5 1.8125 -0.5 1.8125 -2 4 C-4.56249113 5.34639364 -7.17259135 6.36972349 -10 7 C-10.66 6.67 -11.32 6.34 -12 6 C-10.37829621 4.99466333 -8.75252763 3.99588093 -7.125 3 C-5.76761719 2.1646875 -5.76761719 2.1646875 -4.3828125 1.3125 C-2 0 -2 0 0 0 Z " fill="#B37272" transform="translate(211,40)"/>
<path d="M0 0 C5.86809507 0.52393706 10.54873741 1.76108858 16 4 C11.09894045 5.63368652 7.18995354 4.54088797 2.5625 2.4375 C1.716875 1.963125 0.87125 1.48875 0 1 C0 0.67 0 0.34 0 0 Z " fill="#FAD694" transform="translate(276,30)"/>
<path d="M0 0 C2.64 0 5.28 0 8 0 C0.09677419 5.2688172 0.09677419 5.2688172 -4.4375 4.6875 C-4.953125 4.460625 -5.46875 4.23375 -6 4 C-4.7934375 3.566875 -4.7934375 3.566875 -3.5625 3.125 C-0.8673532 2.26737432 -0.8673532 2.26737432 0 0 Z " fill="#C98282" transform="translate(251,115)"/>
<path d="M0 0 C0 0.66 0 1.32 0 2 C-0.66 2 -1.32 2 -2 2 C-1.67 2.99 -1.34 3.98 -1 5 C-2.8125 5.6875 -2.8125 5.6875 -5 6 C-6.75 4.5625 -6.75 4.5625 -8 3 C-2.25 0 -2.25 0 0 0 Z " fill="#C4575C" transform="translate(110,98)"/>
<path d="M0 0 C1.65 1.32 3.3 2.64 5 4 C0.545 4.495 0.545 4.495 -4 5 C-3.34 4.01 -2.68 3.02 -2 2 C-1.34 2 -0.68 2 0 2 C0 1.34 0 0.68 0 0 Z " fill="#9E141C" transform="translate(260,450)"/>
<path d="M0 0 C0 3 0 3 -2 5.1875 C-2.66 5.785625 -3.32 6.38375 -4 7 C-4.66 6.67 -5.32 6.34 -6 6 C-5.25 3.5625 -5.25 3.5625 -4 1 C-1.875 0.1875 -1.875 0.1875 0 0 Z " fill="#C86545" transform="translate(406,405)"/>
<path d="M0 0 C1.32 0.33 2.64 0.66 4 1 C4.33 2.65 4.66 4.3 5 6 C4.01 6 3.02 6 2 6 C0 3 0 3 0 0 Z " fill="#C786B0" transform="translate(75,346)"/>
<path d="M0 0 C1.53445094 3.06890187 0.54984289 5.70094266 0 9 C-1.65 9.33 -3.3 9.66 -5 10 C-3.66511872 6.40608886 -2.03977277 3.24509304 0 0 Z " fill="#CE696D" transform="translate(82,117)"/>
<path d="M0 0 C0 0.66 0 1.32 0 2 C0.99 2.33 1.98 2.66 3 3 C3 3.33 3 3.66 3 4 C-2.53846154 4.36923077 -2.53846154 4.36923077 -4.875 2.5 C-5.24625 2.005 -5.6175 1.51 -6 1 C-3.92446352 0.4465236 -2.15634036 0 0 0 Z " fill="#C9414E" transform="translate(211,436)"/>
<path d="M0 0 C0 1.32 0 2.64 0 4 C-5.75 2.25 -5.75 2.25 -8 0 C-2.25 -1.125 -2.25 -1.125 0 0 Z " fill="#D94959" transform="translate(160,407)"/>
<path d="M0 0 C0.66 0.99 1.32 1.98 2 3 C1.3125 6.125 1.3125 6.125 0 9 C-0.99 9.33 -1.98 9.66 -3 10 C-2.67 8.35 -2.34 6.7 -2 5 C-1.34 5 -0.68 5 0 5 C0 3.35 0 1.7 0 0 Z " fill="#CA6B48" transform="translate(410,395)"/>
<path d="M0 0 C1.875 0.3125 1.875 0.3125 4 1 C4.66 1.99 5.32 2.98 6 4 C7.63495707 5.05104383 9.29883624 6.05988318 11 7 C7.33815476 7 5.97194 6.080358 3 4 C1.1875 1.8125 1.1875 1.8125 0 0 Z " fill="#D36674" transform="translate(141,399)"/>
<path d="M0 0 C1.12377697 3.30435084 0.89554742 5.0506862 -0.4375 8.25 C-0.72496094 8.95640625 -1.01242187 9.6628125 -1.30859375 10.390625 C-1.53675781 10.92171875 -1.76492188 11.4528125 -2 12 C-3.32014582 8.03956254 -2.27727477 5.90278401 -1 2 C-0.67 1.34 -0.34 0.68 0 0 Z " fill="#CA775E" transform="translate(415,386)"/>
<path d="M0 0 C0.66 0.33 1.32 0.66 2 1 C-2.296875 5.00390625 -2.296875 5.00390625 -4 6 C-6.203125 5.65234375 -6.203125 5.65234375 -8 5 C-6.71475739 4.13619741 -5.42157581 3.28419631 -4.125 2.4375 C-3.04605469 1.72400391 -3.04605469 1.72400391 -1.9453125 0.99609375 C-1.30335937 0.66738281 -0.66140625 0.33867188 0 0 Z " fill="#D07F83" transform="translate(125,88)"/>
<path d="M0 0 C-0.33 0.99 -0.66 1.98 -1 3 C-3.31 3 -5.62 3 -8 3 C-7.67 2.01 -7.34 1.02 -7 0 C-4.05610218 -1.17755913 -3.10046087 -1.03348696 0 0 Z " fill="#921314" transform="translate(183,60)"/>
<path d="M0 0 C-0.33 0.66 -0.66 1.32 -1 2 C-3.50390625 2.6328125 -3.50390625 2.6328125 -6.5625 3.125 C-8.08037109 3.37636719 -8.08037109 3.37636719 -9.62890625 3.6328125 C-10.80259766 3.81457031 -10.80259766 3.81457031 -12 4 C-11 2 -11 2 -8.25 0.875 C-5.29813104 0.08026605 -3.02780163 -0.17810598 0 0 Z " fill="#C74311" transform="translate(319,437)"/>
<path d="M0 0 C0.66 0.33 1.32 0.66 2 1 C1.67 1.99 1.34 2.98 1 4 C-2.5625 5.1875 -2.5625 5.1875 -6 6 C-4.98545548 3.4636387 -4.3146444 2.20648539 -2 0.6875 C-1.34 0.460625 -0.68 0.23375 0 0 Z " fill="#991A1C" transform="translate(152,74)"/>
<path d="M0 0 C0.66 0.33 1.32 0.66 2 1 C1.34 2.65 0.68 4.3 0 6 C-0.66 6 -1.32 6 -2 6 C-2.33 6.99 -2.66 7.98 -3 9 C-3.33 8.34 -3.66 7.68 -4 7 C-3.67 6.01 -3.34 5.02 -3 4 C-2.34 4 -1.68 4 -1 4 C-0.67 2.68 -0.34 1.36 0 0 Z " fill="#EF2A45" transform="translate(143,370)"/>
<path d="M0 0 C1.65 0 3.3 0 5 0 C5 0.99 5 1.98 5 3 C2.69 3.33 0.38 3.66 -2 4 C-1.34 2.68 -0.68 1.36 0 0 Z " fill="#BE696B" transform="translate(233,121)"/>
<path d="M0 0 C2.32947183 2.11770166 3.88750845 4.03335588 5 7 C4.67 7.99 4.34 8.98 4 10 C0 4.5 0 4.5 0 0 Z " fill="#F0C085" transform="translate(410,80)"/>
<path d="M0 0 C1.98 0 3.96 0 6 0 C6 0.99 6 1.98 6 3 C5.01 3.66 4.02 4.32 3 5 C2.87625 4.360625 2.7525 3.72125 2.625 3.0625 C2.315625 2.0415625 2.315625 2.0415625 2 1 C1.34 0.67 0.68 0.34 0 0 Z " fill="#EE8D0C" transform="translate(363,57)"/>
<path d="M0 0 C0 0.66 0 1.32 0 2 C-0.66 2 -1.32 2 -2 2 C-2.66 3.32 -3.32 4.64 -4 6 C-4.33 5.34 -4.66 4.68 -5 4 C-5.66 3.67 -6.32 3.34 -7 3 C-2.25 0 -2.25 0 0 0 Z " fill="#A66060" transform="translate(222,34)"/>
<path d="M0 0 C6.75 0.75 6.75 0.75 9 3 C8.34 3 7.68 3 7 3 C6.67 3.66 6.34 4.32 6 5 C3.98079663 3.69593116 1.98075027 2.36176581 0 1 C0 0.67 0 0.34 0 0 Z " fill="#E3963A" transform="translate(272,30)"/>
<path d="M0 0 C2.64 0.33 5.28 0.66 8 1 C8 1.99 8 2.98 8 4 C4.64404172 3.40072174 2.62198774 2.15377564 0 0 Z " fill="#C46169" transform="translate(220,446)"/>
<path d="M0 0 C0.99 0.33 1.98 0.66 3 1 C1.25 4.875 1.25 4.875 -1 6 C-1.33 4.35 -1.66 2.7 -2 1 C-1.34 0.67 -0.68 0.34 0 0 Z " fill="#CD400C" transform="translate(398,408)"/>
<path d="M0 0 C0 0.99 0 1.98 0 3 C-0.99 3.33 -1.98 3.66 -3 4 C-3 4.66 -3 5.32 -3 6 C-3.66 5.67 -4.32 5.34 -5 5 C-4.67 3.68 -4.34 2.36 -4 1 C-2.68 0.67 -1.36 0.34 0 0 Z " fill="#CF8BAD" transform="translate(153,331)"/>
<path d="M0 0 C0.66 0.33 1.32 0.66 2 1 C1.67 2.98 1.34 4.96 1 7 C0.34 7 -0.32 7 -1 7 C-1.04254356 5.00045254 -1.04080783 2.99958364 -1 1 C-0.67 0.67 -0.34 0.34 0 0 Z " fill="#BA4748" transform="translate(166,148)"/>
<path d="M0 0 C1.68496298 0.96885372 3.35178756 1.96986723 5 3 C5 3.33 5 3.66 5 4 C3.02 4 1.04 4 -1 4 C-1 1 -1 1 0 0 Z " fill="#630F00" transform="translate(274,32)"/>
</svg>
