<?xml version="1.0" encoding="UTF-8"?>
<svg version="1.1" xmlns="http://www.w3.org/2000/svg" width="2067" height="2067">
<path d="M0 0 C0.70484904 22.43892603 1.17037847 44.86238385 1.2851516 67.31186724 C1.30609361 71.23059881 1.33171918 75.14930073 1.35667419 79.06800842 C1.40454473 86.69459717 1.44833309 94.32120372 1.49061734 101.94782527 C1.54044635 110.90545249 1.5945475 119.8630526 1.64874845 128.82065426 C1.74567898 144.86316564 1.83889477 160.90569637 1.92993164 176.94824219 C2.01739287 192.36004287 2.10743197 207.77182552 2.20043945 223.18359375 C2.20900635 224.60325991 2.20900635 224.60325991 2.21774632 226.05160619 C2.22630186 227.4692949 2.22630186 227.4692949 2.23503023 228.91562378 C2.34208703 246.65781706 2.44682267 264.40002339 2.55043279 282.1422371 C2.58148435 287.45328781 2.61291809 292.76433607 2.64467499 298.0753826 C2.89757786 340.38418012 3.06797923 382.69031392 3 425 C3.82201904 424.99483368 4.64403809 424.98966736 5.4909668 424.98434448 C7.10998901 424.97831711 7.10998901 424.97831711 8.76171875 424.97216797 C9.83123779 424.96700165 10.90075684 424.96183533 12.00268555 424.95651245 C27.02994874 425.17454057 39.84168009 431.68688635 50.3046875 442.08203125 C62.30167712 455.07007653 67.58128471 472.13410658 67.25 489.609375 C65.89971528 507.9226115 58.59724402 523.88144944 44.625 535.9375 C34.9300332 543.43276845 24.2990364 547.39762206 12.0625 547.125 C11.28326172 547.11597656 10.50402344 547.10695313 9.70117188 547.09765625 C7.80064553 547.07433691 5.90027992 547.03847586 4 547 C4 549.97 4 552.94 4 556 C5.30710937 555.94779297 5.30710937 555.94779297 6.640625 555.89453125 C23.49361289 555.5115088 36.41523161 559.96013323 48.71875 571.66015625 C60.91824757 584.17299708 66.9067249 599.53724096 67.375 617 C66.89085449 636.62989972 59.64708208 652.25569418 45.58984375 665.7421875 C33.50279281 676.27961652 19.55925174 678.78450009 4 678 C4 680.31 4 682.62 4 685 C5.39798828 684.93039062 5.39798828 684.93039062 6.82421875 684.859375 C21.31392538 684.44915075 34.59970432 687.87454594 45.8828125 697.4453125 C58.80950332 709.80844187 66.08161695 724.28821005 67.203125 742.25390625 C67.44660356 759.4394349 62.94376065 775.42720969 51.5625 788.5625 C41.39734579 798.91879386 29.40536965 806.62541821 14.55078125 807.11328125 C11.36698032 807.12360709 8.18311236 807.06701289 5 807 C5 810.96 5 814.92 5 819 C6.85625 818.938125 6.85625 818.938125 8.75 818.875 C24.91298562 819.02582102 39.0096498 824.87290101 50.59765625 836.234375 C62.25046522 849.64931606 67.58401173 865.99025598 67.25 883.609375 C65.95337906 901.19479652 59.06253939 916.55495141 46.3125 928.8125 C36.89668617 936.52666073 25.12387672 940.98457292 13.0625 941.625 C12.03672852 941.68300781 12.03672852 941.68300781 10.99023438 941.7421875 C9.32720487 941.83522412 7.66364153 941.91863787 6 942 C13.66637439 982.71273354 40.29966095 1016.77034237 72.5390625 1042.0390625 C75.06814209 1044.05429735 77.43577683 1046.18287669 79.8125 1048.375 C83.69275439 1051.91703887 87.71907384 1055.16958038 91.875 1058.375 C98.04883253 1063.15778124 103.87672202 1068.19699918 109.5234375 1073.59082031 C110.51860393 1074.54057241 111.51873297 1075.48514833 112.5234375 1076.42480469 C138.14648319 1100.43828088 144.69022669 1127.96598266 147.43261719 1162.05249023 C147.62675838 1164.45929902 147.82856924 1166.86538114 148.03125 1169.27148438 C148.15930255 1170.82548395 148.28692252 1172.37951925 148.4140625 1173.93359375 C148.47340973 1174.64100204 148.53275696 1175.34841034 148.59390259 1176.07725525 C148.93914389 1180.42461697 149 1184.61627594 149 1189 C253.94 1189 358.88 1189 467 1189 C467 1324.96 467 1460.92 467 1601 C329.39 1601 191.78 1601 50 1601 C50 1607.6 50 1614.2 50 1621 C49.19572206 1624.9767076 48.62969676 1627.49985582 47 1631 C46.5978125 1631.88558594 46.195625 1632.77117187 45.78125 1633.68359375 C38.0115847 1649.24450676 25.26188821 1658.87565246 9.30078125 1665.04296875 C-7.25149148 1670.07240397 -26.48719695 1667.98583863 -41.8125 1660.3125 C-47.54521053 1656.93079706 -52.30403721 1652.6879355 -57 1648 C-57.66128906 1647.3503125 -58.32257813 1646.700625 -59.00390625 1646.03125 C-68.78831894 1635.71852129 -72.1853073 1621.9397247 -72.0625 1608.0625 C-72.05798828 1607.37865234 -72.05347656 1606.69480469 -72.04882812 1605.99023438 C-72.0371956 1604.32678396 -72.01926694 1602.6633795 -72 1601 C-74.64 1601 -77.28 1601 -80 1601 C-79.95359375 1601.969375 -79.9071875 1602.93875 -79.859375 1603.9375 C-79.31732214 1620.3021376 -82.45526873 1634.86589039 -93.2890625 1647.71484375 C-104.96329042 1660.03763989 -119.7370484 1667.15549056 -136.7421875 1668.23828125 C-154.98645326 1668.73083225 -170.74548831 1664.36101002 -184.875 1652.25 C-193.41071579 1644.04974902 -201.5296271 1631.86872693 -202.11352539 1619.61816406 C-202.10567017 1618.32990723 -202.10567017 1618.32990723 -202.09765625 1617.015625 C-202.09282227 1615.61376953 -202.09282227 1615.61376953 -202.08789062 1614.18359375 C-202.07951172 1613.21550781 -202.07113281 1612.24742188 -202.0625 1611.25 C-202.05798828 1610.26644531 -202.05347656 1609.28289062 -202.04882812 1608.26953125 C-202.03706483 1605.84629209 -202.02062684 1603.42317727 -202 1601 C-204.31 1601 -206.62 1601 -209 1601 C-208.96519531 1602.23234375 -208.93039062 1603.4646875 -208.89453125 1604.734375 C-208.52738405 1623.05464923 -211.65308064 1637.04076034 -224.66015625 1650.71875 C-237.17299708 1662.91824757 -252.53724096 1668.9067249 -270 1669.375 C-289.62989972 1668.89085449 -305.25569418 1661.64708208 -318.7421875 1647.58984375 C-330.78356561 1633.77767474 -331.63207108 1618.4521847 -331 1601 C-335.29 1601 -339.58 1601 -344 1601 C-343.93039062 1603.28164062 -343.93039062 1603.28164062 -343.859375 1605.609375 C-343.4489549 1624.52927366 -346.53748676 1637.2586272 -359 1652 C-371.3629545 1664.00972723 -387.51208382 1669.56758954 -404.5 1670.375 C-423.12284352 1669.55602218 -439.62173013 1662.89323238 -452.75 1649.4375 C-464.89436643 1634.51813092 -466.36592389 1618.47915623 -466 1600 C-498.76417882 1603.89886888 -523.54148793 1617.32490214 -548 1639 C-548.54011719 1639.47695312 -549.08023437 1639.95390625 -549.63671875 1640.4453125 C-565.22104704 1654.28982267 -579.006617 1670.08619508 -591.92578125 1686.41796875 C-609.44365189 1708.22458361 -628.47126844 1728.21376191 -656.3125 1735.8125 C-657.37645996 1736.10519775 -657.37645996 1736.10519775 -658.46191406 1736.40380859 C-671.87086396 1739.75456736 -686.0770215 1740.34862576 -699.81591797 1741.43261719 C-702.29037428 1741.62819107 -704.76432862 1741.8294135 -707.23828125 1742.03125 C-708.83070302 1742.15918 -710.42315004 1742.28679631 -712.015625 1742.4140625 C-712.74581848 1742.47340973 -713.47601196 1742.53275696 -714.22833252 1742.59390259 C-717.84398034 1742.87664232 -721.36598163 1743 -725 1743 C-725 1849.92 -725 1956.84 -725 2067 C-860.96 2067 -996.92 2067 -1137 2067 C-1137 1926.42 -1137 1785.84 -1137 1641 C-1142.28 1641 -1147.56 1641 -1153 1641 C-1162.31454937 1638.86363547 -1169.29066513 1635.57778036 -1177 1630 C-1178.051875 1629.2575 -1179.10375 1628.515 -1180.1875 1627.75 C-1193.0440215 1615.17917898 -1199.75105186 1598.8102792 -1200.25 1581 C-1200.01258722 1563.68865162 -1194.54230338 1547.58760719 -1182.2734375 1535.109375 C-1168.88230973 1522.68461728 -1155.01475148 1518.49881681 -1137 1519 C-1137 1516.36 -1137 1513.72 -1137 1511 C-1138.08796875 1510.97421875 -1139.1759375 1510.9484375 -1140.296875 1510.921875 C-1158.08097408 1510.31479136 -1172.4484803 1505.08910807 -1185 1492 C-1196.40029327 1478.42057623 -1201.44074993 1460.57714918 -1200 1443 C-1198.17986559 1426.6187903 -1191.45521323 1412.03439632 -1179 1401 C-1166.42726173 1391.39507549 -1152.72927328 1387.47569089 -1137 1388 C-1137 1386.02 -1137 1384.04 -1137 1382 C-1138.0209375 1382.06960938 -1138.0209375 1382.06960938 -1139.0625 1382.140625 C-1154.94640562 1382.73204702 -1168.09763195 1378.02729413 -1180.1875 1367.75 C-1192.92755874 1355.80869103 -1198.81995178 1340.88577291 -1200.28515625 1323.64453125 C-1200.80328168 1305.14970611 -1194.43563607 1288.49788481 -1182 1275 C-1170.66755359 1263.95264658 -1157.7428143 1259.742324 -1142.2824707 1259.8972168 C-1140.52153181 1259.92492351 -1138.7607368 1259.9615373 -1137 1260 C-1137 1255.71 -1137 1251.42 -1137 1247 C-1137.92039062 1247.04640625 -1138.84078125 1247.0928125 -1139.7890625 1247.140625 C-1156.11966967 1247.60626349 -1169.25536219 1243.39874953 -1181.3737793 1232.09106445 C-1193.73039268 1220.03639445 -1199.98035364 1204.25736726 -1200.25 1187 C-1200.0124847 1169.68117569 -1194.53782902 1153.60039931 -1182.27734375 1141.109375 C-1168.9461396 1128.7614329 -1155.96692638 1124.50014733 -1138 1125 C-1138.53496139 1110.71135397 -1142.35363274 1099.59857612 -1149 1087 C-1149.36013184 1086.31276855 -1149.72026367 1085.62553711 -1150.09130859 1084.91748047 C-1158.28949827 1069.60474786 -1170.01616922 1056.45672118 -1182 1044 C-1182.5480127 1043.43007324 -1183.09602539 1042.86014648 -1183.66064453 1042.27294922 C-1190.26706776 1035.44526705 -1196.95466916 1028.97883038 -1204.41796875 1023.078125 C-1207.05869076 1020.95276326 -1209.5612708 1018.72478269 -1212.0625 1016.4375 C-1215.28851261 1013.49688503 -1218.57119089 1010.70132387 -1222 1008 C-1226.37599802 1004.54995768 -1230.52104269 1000.90404663 -1234.6328125 997.14453125 C-1236.71894486 995.25461926 -1238.84649761 993.43688253 -1241 991.625 C-1275.94396016 960.89115552 -1275.75772585 923.39183811 -1279 878 C-1384.93 878 -1490.86 878 -1600 878 C-1600 742.04 -1600 606.08 -1600 466 C-1460.74 466 -1321.48 466 -1178 466 C-1178 461.38 -1178 456.76 -1178 452 C-1176.8209351 438.14598737 -1170.60232106 424.27478848 -1160 415 C-1144.92636913 402.72604754 -1127.32624511 397.60189644 -1107.91796875 399.46875 C-1091.30064671 401.72194621 -1076.75298408 409.54193482 -1066.375 422.625 C-1060.49892127 430.66700537 -1055.84060723 439.85958607 -1055.90234375 449.984375 C-1055.90556641 450.91894531 -1055.90878906 451.85351562 -1055.91210938 452.81640625 C-1055.92048828 453.78449219 -1055.92886719 454.75257813 -1055.9375 455.75 C-1055.94201172 456.73355469 -1055.94652344 457.71710938 -1055.95117188 458.73046875 C-1055.962935 461.15367194 -1055.98086982 463.57684377 -1056 466 C-1053.03 466 -1050.06 466 -1047 466 C-1047.03480469 464.82824219 -1047.06960938 463.65648437 -1047.10546875 462.44921875 C-1047.29341425 453.54363951 -1047.34967311 445.3997528 -1044 437 C-1043.62101562 436.03964844 -1043.24203125 435.07929688 -1042.8515625 434.08984375 C-1036.21706213 419.22932991 -1024.51513416 409.37979137 -1009.625 403.1875 C-992.15481405 396.95255731 -974.00913118 397.94598811 -957.03515625 405.28125 C-942.99618533 412.36965047 -932.35919029 424.2471728 -927 439 C-925.13145751 445.14873326 -924.74713671 450.59699996 -924.875 457 C-924.88402344 457.87011719 -924.89304687 458.74023438 -924.90234375 459.63671875 C-924.92565381 461.7579342 -924.96151421 463.87900562 -925 466 C-922.69 466 -920.38 466 -918 466 C-918.04640625 464.77925781 -918.0928125 463.55851562 -918.140625 462.30078125 C-918.61583653 444.42481654 -914.82268324 430.59592523 -902.3828125 417.35546875 C-889.04821784 404.17389403 -872.54246506 399.0189016 -854 399 C-837.29602454 399.99320935 -821.41466922 406.47138663 -809.84375 418.77734375 C-800.16001811 430.45116461 -795.77184745 442.83884542 -795.9375 457.875 C-795.94201172 458.65875 -795.94652344 459.4425 -795.95117188 460.25 C-795.96285907 462.16670014 -795.98079092 464.08336048 -796 466 C-792.04 466 -788.08 466 -784 466 C-784.03480469 465.07960938 -784.06960938 464.15921875 -784.10546875 463.2109375 C-784.48266705 445.57242645 -780.66357476 430.14607287 -768.16015625 416.9921875 C-754.54241137 404.43332694 -738.34782459 399 -720 399 C-702.29385209 400.20168978 -688.55883019 406.65585067 -676 419 C-675.42121094 419.56589844 -674.84242188 420.13179688 -674.24609375 420.71484375 C-664.86366903 430.73419548 -661.62312374 443.16993317 -661.875 456.5 C-661.88402344 457.4178125 -661.89304687 458.335625 -661.90234375 459.28125 C-661.92567568 461.52111556 -661.95840765 463.76041183 -662 466 C-637.49291339 462.76642607 -616.44860123 453.27698425 -597 438 C-596.46407227 437.57976562 -595.92814453 437.15953125 -595.37597656 436.7265625 C-580.68983939 425.02728606 -567.14059122 411.29614599 -555 397 C-554.28686646 396.16952148 -554.28686646 396.16952148 -553.55932617 395.32226562 C-552.22122695 393.76134888 -550.89034193 392.1946479 -549.5625 390.625 C-549.09150879 390.06901123 -548.62051758 389.51302246 -548.13525391 388.94018555 C-545.32369774 385.60809475 -542.57575273 382.23560974 -539.875 378.8125 C-535.78596788 373.67647779 -531.49446245 368.78508183 -527 364 C-526.49194824 363.45794922 -525.98389648 362.91589844 -525.46044922 362.35742188 C-500.16917736 335.59338012 -473.02410164 328.30969879 -436.96264648 325.56738281 C-434.40892938 325.3728233 -431.85583483 325.17122637 -429.30273438 324.96875 C-427.65888584 324.8407384 -426.01500667 324.71311959 -424.37109375 324.5859375 C-423.61791367 324.52659027 -422.86473358 324.46724304 -422.08872986 324.40609741 C-418.04672455 324.10173841 -414.05185468 323.97759757 -410 324 C-410.01127898 323.25487372 -410.02255796 322.50974745 -410.03417873 321.74204159 C-410.76544105 273.16218787 -411.2449071 224.58448067 -411.51765925 175.99995941 C-411.55287048 169.72983459 -411.58945212 163.45971887 -411.62667847 157.18960571 C-411.82662195 123.41050097 -412.02626916 89.63131389 -412.0625 55.8515625 C-412.06353729 54.88527294 -412.06457458 53.91898338 -412.06564331 52.92341232 C-412.0806157 35.94890647 -412.03890437 18.97445021 -412 2 C-360.57841483 1.32214965 -309.15809557 0.77240416 -257.73290634 0.46757126 C-253.45780694 0.44221102 -249.1827133 0.41598413 -244.90762037 0.38955754 C-163.27195246 -0.1140133 -81.63684729 -0.1046012 0 0 Z M-628.5045166 877.04980469 C-634.37889493 877.17083761 -640.25183013 877.33122424 -646.125 877.5 C-647.87369167 877.54840332 -649.62238959 877.59658133 -651.37109375 877.64453125 C-655.58080534 877.76043926 -659.79042201 877.87934126 -664 878 C-665.11758469 881.35275406 -665.13815444 883.89922274 -665.15771484 887.43310547 C-665.16279556 888.08256134 -665.16787628 888.73201721 -665.17311096 889.40115356 C-665.18381195 890.81376677 -665.1924332 892.22639689 -665.19923019 893.63903427 C-665.21109236 895.89666009 -665.23057583 898.1541008 -665.25234985 900.41165161 C-665.3136311 906.83214841 -665.36742211 913.25263596 -665.40136719 919.67333984 C-665.53230198 943.1063 -665.83968477 965.74237373 -674 988 C-674.36867188 989.01964844 -674.73734375 990.03929687 -675.1171875 991.08984375 C-680.30129367 1004.40763373 -687.54249801 1016.30891079 -697 1027 C-698.08368129 1028.31221272 -699.16705894 1029.62467631 -700.25 1030.9375 C-701.85197151 1032.87074339 -703.338234 1034.25535547 -705.359375 1035.78125 C-708.44351975 1038.37266156 -710.70245581 1041.28940241 -713 1044.5625 C-713.43642822 1045.18165283 -713.87285645 1045.80080566 -714.32250977 1046.4387207 C-717.93967893 1051.69176155 -720.79391232 1057.00051766 -723 1063 C-723.31710937 1063.81082031 -723.63421875 1064.62164063 -723.9609375 1065.45703125 C-728.68831927 1079.57412084 -725.90922035 1096.49583299 -725.484375 1111.1875 C-725.43730706 1112.82356684 -725.39026908 1114.45963454 -725.34326172 1116.09570312 C-725.22918612 1120.0638121 -725.11470636 1124.03190921 -725 1128 C-724.00458191 1128.01617371 -723.00916382 1128.03234741 -721.98358154 1128.04901123 C-712.5122057 1128.20530856 -703.04135652 1128.38110574 -693.5706749 1128.57505417 C-688.70396623 1128.67411721 -683.83732684 1128.7667678 -678.97021484 1128.84375 C-674.25595372 1128.91856757 -669.54234287 1129.01155152 -664.82865143 1129.11612701 C-663.04784024 1129.15263549 -661.26689132 1129.18305441 -659.48586273 1129.20668793 C-619.58214528 1129.75414982 -587.88235882 1144.48154078 -559.77734375 1172.19140625 C-548.11737322 1183.32831268 -532.06984921 1190.22210421 -515.85566711 1190.22161865 C-512.37783565 1190.13710774 -508.90993536 1189.95662023 -505.4375 1189.75 C-502.66575316 1189.61103396 -499.89347096 1189.48504831 -497.12109375 1189.359375 C-496.42551361 1189.32549683 -495.72993347 1189.29161865 -495.01327515 1189.25671387 C-485.01615326 1188.8061252 -475.00453593 1188.93509654 -465 1189 C-464.99413376 1188.11511398 -464.98826752 1187.23022797 -464.98222351 1186.31852722 C-464.92380553 1177.89192736 -464.85145867 1169.46557887 -464.76428509 1161.03922558 C-464.71996035 1156.70935692 -464.68062639 1152.37957423 -464.65356445 1148.04956055 C-464.38994435 1107.15089103 -459.48454562 1070.55876302 -431 1039 C-429.34348334 1037.38535421 -427.67665242 1035.7812268 -426 1034.1875 C-414.79941767 1023.21336801 -405.27892983 1007.22227111 -404.9152832 991.2878418 C-404.91444186 989.84163013 -404.91821647 988.39541088 -404.92578125 986.94921875 C-404.92795654 986.16495514 -404.93013184 985.38069153 -404.93237305 984.57266235 C-404.97798414 975.33675757 -405.23471092 966.106704 -405.5 956.875 C-405.54840332 955.12630833 -405.59658133 953.37761041 -405.64453125 951.62890625 C-405.76043926 947.41919466 -405.87934126 943.20957799 -406 939 C-416.00743553 938.23222278 -425.9405825 937.84625859 -435.98046875 937.7890625 C-437.36844107 937.77602762 -438.75640618 937.76220437 -440.1443634 937.74765015 C-445.94424187 937.68722949 -451.74408804 937.63232973 -457.54418945 937.59863281 C-498.8910799 937.34508162 -534.95494269 930.73624376 -566 901 C-567.2520426 899.66858455 -568.50211671 898.3353146 -569.75 897 C-580.2120213 886.43251477 -596.94076805 877.11572832 -612.01123047 876.78710938 C-613.42165368 876.79501708 -614.83204798 876.81437831 -616.2421875 876.84375 C-617.01263397 876.85184692 -617.78308044 876.85994385 -618.57687378 876.86828613 C-621.88652513 876.90935283 -625.19528903 876.98399756 -628.5045166 877.04980469 Z " fill="#994116" transform="translate(1600,0)"/>
<path d="M0 0 C0.70484904 22.43892603 1.17037847 44.86238385 1.2851516 67.31186724 C1.30609361 71.23059881 1.33171918 75.14930073 1.35667419 79.06800842 C1.40454473 86.69459717 1.44833309 94.32120372 1.49061734 101.94782527 C1.54044635 110.90545249 1.5945475 119.8630526 1.64874845 128.82065426 C1.74567898 144.86316564 1.83889477 160.90569637 1.92993164 176.94824219 C2.01739287 192.36004287 2.10743197 207.77182552 2.20043945 223.18359375 C2.20900635 224.60325991 2.20900635 224.60325991 2.21774632 226.05160619 C2.22630186 227.4692949 2.22630186 227.4692949 2.23503023 228.91562378 C2.34208703 246.65781706 2.44682267 264.40002339 2.55043279 282.1422371 C2.58148435 287.45328781 2.61291809 292.76433607 2.64467499 298.0753826 C2.89757786 340.38418012 3.06797923 382.69031392 3 425 C3.82201904 424.99483368 4.64403809 424.98966736 5.4909668 424.98434448 C7.10998901 424.97831711 7.10998901 424.97831711 8.76171875 424.97216797 C9.83123779 424.96700165 10.90075684 424.96183533 12.00268555 424.95651245 C27.02994874 425.17454057 39.84168009 431.68688635 50.3046875 442.08203125 C62.30167712 455.07007653 67.58128471 472.13410658 67.25 489.609375 C65.89971528 507.9226115 58.59724402 523.88144944 44.625 535.9375 C34.9300332 543.43276845 24.2990364 547.39762206 12.0625 547.125 C11.28326172 547.11597656 10.50402344 547.10695313 9.70117188 547.09765625 C7.80064553 547.07433691 5.90027992 547.03847586 4 547 C4 549.97 4 552.94 4 556 C5.30710937 555.94779297 5.30710937 555.94779297 6.640625 555.89453125 C23.49361289 555.5115088 36.41523161 559.96013323 48.71875 571.66015625 C60.91824757 584.17299708 66.9067249 599.53724096 67.375 617 C66.89085449 636.62989972 59.64708208 652.25569418 45.58984375 665.7421875 C33.50279281 676.27961652 19.55925174 678.78450009 4 678 C4 680.31 4 682.62 4 685 C5.39798828 684.93039062 5.39798828 684.93039062 6.82421875 684.859375 C21.31392538 684.44915075 34.59970432 687.87454594 45.8828125 697.4453125 C58.80950332 709.80844187 66.08161695 724.28821005 67.203125 742.25390625 C67.44660356 759.4394349 62.94376065 775.42720969 51.5625 788.5625 C41.39734579 798.91879386 29.40536965 806.62541821 14.55078125 807.11328125 C11.36698032 807.12360709 8.18311236 807.06701289 5 807 C5 810.96 5 814.92 5 819 C6.85625 818.938125 6.85625 818.938125 8.75 818.875 C24.91298562 819.02582102 39.0096498 824.87290101 50.59765625 836.234375 C62.25046522 849.64931606 67.58401173 865.99025598 67.25 883.609375 C65.95337906 901.19479652 59.06253939 916.55495141 46.3125 928.8125 C29.98698687 942.18761919 10.49852118 942.18034033 -9.51982117 942.08901978 C-11.02309315 942.08603272 -12.52636609 942.08349888 -14.02963954 942.08137262 C-18.115418 942.07429114 -22.20115297 942.06081439 -26.28691041 942.04618168 C-30.71006874 942.03148209 -35.13323969 942.02281792 -39.55641174 942.01335144 C-48.20051411 941.99388489 -56.84459149 941.96883593 -65.48867299 941.9417484 C-72.51154129 941.91984735 -79.53441265 941.90001161 -86.55729103 941.88163376 C-87.55878456 941.87901163 -88.56027809 941.8763895 -89.59211991 941.87368792 C-91.62682796 941.86837012 -93.66153602 941.86305734 -95.6962441 941.85774951 C-114.73973877 941.80783643 -133.7832107 941.75159797 -152.82668082 941.69314377 C-169.17081982 941.64311917 -185.51496633 941.59842307 -201.85913086 941.55761719 C-220.85402286 941.51019019 -239.84890185 941.45957779 -258.84377128 941.40379179 C-260.8674083 941.39785667 -262.89104534 941.39192532 -264.91468239 941.38599777 C-265.91030264 941.38307939 -266.90592289 941.380161 -267.93171346 941.37715418 C-274.95268314 941.35679177 -281.97365659 941.33870735 -288.99463463 941.32149124 C-297.54048948 941.30047037 -306.08632552 941.27593147 -314.63215687 941.24684478 C-318.9931536 941.2320895 -323.35413978 941.21893182 -327.71515274 941.21003914 C-331.70368088 941.2018605 -335.6921674 941.18914753 -339.68067 941.17275397 C-341.12644235 941.16761523 -342.57222181 941.16415821 -344.01800235 941.16251679 C-345.97741932 941.16004461 -347.93682459 941.15093293 -349.89622021 941.14145851 C-351.53125037 941.13665834 -351.53125037 941.13665834 -353.19931144 941.13176119 C-355.65136072 941.01640208 -357.65409894 940.6635128 -360 940 C-361.7078248 939.89635427 -363.4190201 939.84289289 -365.12988281 939.82400513 C-366.16666168 939.81013763 -367.20344055 939.79627014 -368.27163696 939.78198242 C-369.40402802 939.77158936 -370.53641907 939.76119629 -371.703125 939.75048828 C-372.90053314 939.73565399 -374.09794128 939.7208197 -375.33163452 939.70553589 C-378.61773459 939.66525688 -381.90385512 939.62896753 -385.19001007 939.59354258 C-388.64806071 939.55454686 -392.10600691 939.50803985 -395.56396484 939.4616394 C-407.33515518 939.30484178 -419.10641034 939.15583265 -430.87792969 939.02587891 C-437.37969345 938.9540241 -443.88125496 938.87212271 -450.38275909 938.77966106 C-453.81279782 938.73131948 -457.2427293 938.68785819 -460.67297363 938.65701675 C-500.91977244 938.27169837 -535.96401522 930.76971223 -566 902 C-567.2520426 900.66858455 -568.50211671 899.3353146 -569.75 898 C-581.01630132 886.62012709 -597.96458281 878.03708083 -614.04882812 877.77294922 C-616.37632611 877.77326299 -618.7038405 877.78439009 -621.03125 877.8046875 C-622.26290894 877.8075174 -623.49456787 877.81034729 -624.7635498 877.81326294 C-628.67580102 877.82440798 -632.58781862 877.84950251 -636.5 877.875 C-639.16145498 877.88617034 -641.82290777 877.89416167 -644.484375 877.90234375 C-650.98966229 877.92432876 -657.49481445 877.95774983 -664 878 C-664.00586624 878.86791672 -664.01173248 879.73583344 -664.01777649 880.63005066 C-664.07627722 888.90886754 -664.14866703 897.18743088 -664.23571491 905.46599865 C-664.27997614 909.71958116 -664.31932196 913.97307753 -664.34643555 918.22680664 C-664.50367583 942.1469842 -664.66533146 965.26681724 -673 988 C-673.55300781 989.52947266 -673.55300781 989.52947266 -674.1171875 991.08984375 C-679.2945931 1004.3904202 -686.52437643 1016.34426214 -696 1027 C-696.64195312 1027.75023437 -697.28390625 1028.50046875 -697.9453125 1029.2734375 C-700.35832956 1032.08340109 -702.78362434 1034.78917243 -705.4375 1037.375 C-717.90486256 1050.14644458 -725.34366603 1065.47479529 -725.33988953 1083.47941589 C-725.32440567 1084.60382584 -725.30892181 1085.72823578 -725.29296875 1086.88671875 C-725.28872391 1088.06974075 -725.28447906 1089.25276276 -725.28010559 1090.47163391 C-725.2634564 1094.21049803 -725.22582955 1097.94880174 -725.1875 1101.6875 C-725.1724354 1104.23892445 -725.15875012 1106.79035744 -725.14648438 1109.34179688 C-725.11359806 1115.56138567 -725.06353771 1121.78065278 -725 1128 C-731.74437659 1128.02537362 -738.48874084 1128.04287685 -745.2331543 1128.05493164 C-747.52710429 1128.05995761 -749.82105108 1128.06677938 -752.11499023 1128.07543945 C-755.41390778 1128.08758096 -758.71278293 1128.09324572 -762.01171875 1128.09765625 C-763.54792122 1128.10539818 -763.54792122 1128.10539818 -765.11515808 1128.11329651 C-766.07577652 1128.11337204 -767.03639496 1128.11344757 -768.02612305 1128.11352539 C-768.86773483 1128.115746 -769.70934662 1128.11796661 -770.57646179 1128.12025452 C-773 1128 -773 1128 -775.26162785 1127.50115067 C-778.30848153 1126.94354466 -781.13968871 1126.86887728 -784.23749256 1126.8613348 C-785.50147021 1126.85586036 -786.76544786 1126.85038591 -788.06772786 1126.84474558 C-789.46790677 1126.84366944 -790.86808574 1126.84268473 -792.26826477 1126.84178162 C-793.75750953 1126.83721481 -795.24675301 1126.83221461 -796.73599499 1126.82681805 C-800.82926203 1126.81324107 -804.92252076 1126.80581985 -809.01580441 1126.79939139 C-813.42953726 1126.79138553 -817.84325284 1126.77768838 -822.25697327 1126.76467896 C-829.90437085 1126.74291887 -837.55177018 1126.72477266 -845.19918251 1126.70907402 C-856.25608665 1126.68637115 -867.31297168 1126.65822889 -878.3698596 1126.62875474 C-896.30849496 1126.58108396 -914.24713814 1126.53781837 -932.18579102 1126.49731445 C-949.61255502 1126.45795692 -967.03931207 1126.41653007 -984.46606445 1126.37231445 C-985.54006924 1126.36959018 -986.61407403 1126.36686591 -987.72062442 1126.36405908 C-993.10853699 1126.35037956 -998.49644945 1126.3366593 -1003.88436186 1126.32291877 C-1048.58956009 1126.20896206 -1093.29477334 1126.10215091 -1138 1126 C-1138.18440895 1124.04190399 -1138.18440895 1124.04190399 -1138.37254333 1122.04425049 C-1138.54287106 1120.3149494 -1138.71354891 1118.58568277 -1138.88452148 1116.85644531 C-1138.96443077 1115.99802032 -1139.04434006 1115.13959534 -1139.12667084 1114.25515747 C-1139.76940625 1107.85794802 -1141.11192853 1102.49770315 -1144.0625 1096.75 C-1144.46243164 1095.92338867 -1144.86236328 1095.09677734 -1145.27441406 1094.24511719 C-1146.47618715 1091.80669604 -1147.72466197 1089.40063628 -1149 1087 C-1149.36013184 1086.31421875 -1149.72026367 1085.6284375 -1150.09130859 1084.921875 C-1158.28883645 1069.60654973 -1170.01471125 1056.45823667 -1182 1044 C-1182.5480127 1043.43007324 -1183.09602539 1042.86014648 -1183.66064453 1042.27294922 C-1190.26706776 1035.44526705 -1196.95466916 1028.97883038 -1204.41796875 1023.078125 C-1207.05869076 1020.95276326 -1209.5612708 1018.72478269 -1212.0625 1016.4375 C-1215.28851261 1013.49688503 -1218.57119089 1010.70132387 -1222 1008 C-1226.37599802 1004.54995768 -1230.52104269 1000.90404663 -1234.6328125 997.14453125 C-1236.71894486 995.25461926 -1238.84649761 993.43688253 -1241 991.625 C-1275.94396016 960.89115552 -1275.75772585 923.39183811 -1279 878 C-1384.93 878 -1490.86 878 -1600 878 C-1600 742.04 -1600 606.08 -1600 466 C-1460.74 466 -1321.48 466 -1178 466 C-1178 461.38 -1178 456.76 -1178 452 C-1176.8209351 438.14598737 -1170.60232106 424.27478848 -1160 415 C-1144.92636913 402.72604754 -1127.32624511 397.60189644 -1107.91796875 399.46875 C-1091.30064671 401.72194621 -1076.75298408 409.54193482 -1066.375 422.625 C-1060.49892127 430.66700537 -1055.84060723 439.85958607 -1055.90234375 449.984375 C-1055.90556641 450.91894531 -1055.90878906 451.85351562 -1055.91210938 452.81640625 C-1055.92048828 453.78449219 -1055.92886719 454.75257813 -1055.9375 455.75 C-1055.94201172 456.73355469 -1055.94652344 457.71710938 -1055.95117188 458.73046875 C-1055.962935 461.15367194 -1055.98086982 463.57684377 -1056 466 C-1053.03 466 -1050.06 466 -1047 466 C-1047.03480469 464.82824219 -1047.06960938 463.65648437 -1047.10546875 462.44921875 C-1047.29341425 453.54363951 -1047.34967311 445.3997528 -1044 437 C-1043.62101562 436.03964844 -1043.24203125 435.07929688 -1042.8515625 434.08984375 C-1036.21706213 419.22932991 -1024.51513416 409.37979137 -1009.625 403.1875 C-992.15481405 396.95255731 -974.00913118 397.94598811 -957.03515625 405.28125 C-942.99618533 412.36965047 -932.35919029 424.2471728 -927 439 C-925.13145751 445.14873326 -924.74713671 450.59699996 -924.875 457 C-924.88402344 457.87011719 -924.89304687 458.74023438 -924.90234375 459.63671875 C-924.92565381 461.7579342 -924.96151421 463.87900562 -925 466 C-922.69 466 -920.38 466 -918 466 C-918.04640625 464.77925781 -918.0928125 463.55851562 -918.140625 462.30078125 C-918.61583653 444.42481654 -914.82268324 430.59592523 -902.3828125 417.35546875 C-889.04821784 404.17389403 -872.54246506 399.0189016 -854 399 C-837.29602454 399.99320935 -821.41466922 406.47138663 -809.84375 418.77734375 C-800.16001811 430.45116461 -795.77184745 442.83884542 -795.9375 457.875 C-795.94201172 458.65875 -795.94652344 459.4425 -795.95117188 460.25 C-795.96285907 462.16670014 -795.98079092 464.08336048 -796 466 C-792.04 466 -788.08 466 -784 466 C-784.03480469 465.07960938 -784.06960938 464.15921875 -784.10546875 463.2109375 C-784.48266705 445.57242645 -780.66357476 430.14607287 -768.16015625 416.9921875 C-754.54241137 404.43332694 -738.34782459 399 -720 399 C-702.29385209 400.20168978 -688.55883019 406.65585067 -676 419 C-675.42121094 419.56589844 -674.84242188 420.13179688 -674.24609375 420.71484375 C-664.86366903 430.73419548 -661.62312374 443.16993317 -661.875 456.5 C-661.88402344 457.4178125 -661.89304687 458.335625 -661.90234375 459.28125 C-661.92567568 461.52111556 -661.95840765 463.76041183 -662 466 C-637.49291339 462.76642607 -616.44860123 453.27698425 -597 438 C-596.46407227 437.57976562 -595.92814453 437.15953125 -595.37597656 436.7265625 C-580.68983939 425.02728606 -567.14059122 411.29614599 -555 397 C-554.28686646 396.16952148 -554.28686646 396.16952148 -553.55932617 395.32226562 C-552.22122695 393.76134888 -550.89034193 392.1946479 -549.5625 390.625 C-549.09150879 390.06901123 -548.62051758 389.51302246 -548.13525391 388.94018555 C-545.32369774 385.60809475 -542.57575273 382.23560974 -539.875 378.8125 C-535.78596788 373.67647779 -531.49446245 368.78508183 -527 364 C-526.49194824 363.45794922 -525.98389648 362.91589844 -525.46044922 362.35742188 C-500.16917736 335.59338012 -473.02410164 328.30969879 -436.96264648 325.56738281 C-434.40892938 325.3728233 -431.85583483 325.17122637 -429.30273438 324.96875 C-427.65888584 324.8407384 -426.01500667 324.71311959 -424.37109375 324.5859375 C-423.61791367 324.52659027 -422.86473358 324.46724304 -422.08872986 324.40609741 C-418.04672455 324.10173841 -414.05185468 323.97759757 -410 324 C-410.01127898 323.25487372 -410.02255796 322.50974745 -410.03417873 321.74204159 C-410.76544105 273.16218787 -411.2449071 224.58448067 -411.51765925 175.99995941 C-411.55287048 169.72983459 -411.58945212 163.45971887 -411.62667847 157.18960571 C-411.82662195 123.41050097 -412.02626916 89.63131389 -412.0625 55.8515625 C-412.06353729 54.88527294 -412.06457458 53.91898338 -412.06564331 52.92341232 C-412.0806157 35.94890647 -412.03890437 18.97445021 -412 2 C-360.57841483 1.32214965 -309.15809557 0.77240416 -257.73290634 0.46757126 C-253.45780694 0.44221102 -249.1827133 0.41598413 -244.90762037 0.38955754 C-163.27195246 -0.1140133 -81.63684729 -0.1046012 0 0 Z " fill="#F1BC77" transform="translate(1600,0)"/>
<path d="M0 0 C8.98667096 8.42779839 17.75703854 20.96985044 18.36352539 33.69433594 C18.35828857 34.55317383 18.35305176 35.41201172 18.34765625 36.296875 C18.34443359 37.23144531 18.34121094 38.16601562 18.33789062 39.12890625 C18.32951172 40.09699219 18.32113281 41.06507813 18.3125 42.0625 C18.30798828 43.04605469 18.30347656 44.02960938 18.29882812 45.04296875 C18.287065 47.46617194 18.26913018 49.88934377 18.25 52.3125 C21.22 52.3125 24.19 52.3125 27.25 52.3125 C27.19779297 50.55486328 27.19779297 50.55486328 27.14453125 48.76171875 C26.95658575 39.85613951 26.90032689 31.7122528 30.25 23.3125 C30.62898437 22.35214844 31.00796875 21.39179688 31.3984375 20.40234375 C38.03293787 5.54182991 49.73486584 -4.30770863 64.625 -10.5 C82.09518595 -16.73494269 100.24086882 -15.74151189 117.21484375 -8.40625 C131.25381467 -1.31784953 141.89080971 10.5596728 147.25 25.3125 C149.11854249 31.46123326 149.50286329 36.90949996 149.375 43.3125 C149.36597656 44.18261719 149.35695313 45.05273438 149.34765625 45.94921875 C149.32434619 48.0704342 149.28848579 50.19150562 149.25 52.3125 C151.56 52.3125 153.87 52.3125 156.25 52.3125 C156.20359375 51.09175781 156.1571875 49.87101562 156.109375 48.61328125 C155.63416347 30.73731654 159.42731676 16.90842523 171.8671875 3.66796875 C185.20178216 -9.51360597 201.70753494 -14.6685984 220.25 -14.6875 C236.95397546 -13.69429065 252.83533078 -7.21611337 264.40625 5.08984375 C274.08998189 16.76366461 278.47815255 29.15134542 278.3125 44.1875 C278.30798828 44.97125 278.30347656 45.755 278.29882812 46.5625 C278.28714093 48.47920014 278.26920908 50.39586048 278.25 52.3125 C282.21 52.3125 286.17 52.3125 290.25 52.3125 C290.21519531 51.39210938 290.18039062 50.47171875 290.14453125 49.5234375 C289.76733295 31.88492645 293.58642524 16.45857287 306.08984375 3.3046875 C319.70758863 -9.25417306 335.90217541 -14.6875 354.25 -14.6875 C371.95614791 -13.48581022 385.69116981 -7.03164933 398.25 5.3125 C398.82878906 5.87839844 399.40757812 6.44429688 400.00390625 7.02734375 C410.84974219 18.60945054 412.55320688 32.27078273 412.50396729 47.38986206 C412.50627348 48.93073967 412.50945107 50.47161617 412.51342177 52.01249039 C412.52175749 56.23528479 412.51764995 60.45798858 412.51144934 64.68078327 C412.50692047 69.2399996 412.51391103 73.79920045 412.51940918 78.3584137 C412.5283023 87.28824108 412.5263809 96.21803485 412.5205839 105.14786355 C412.51606428 112.41153754 412.51545582 119.67520211 412.51763153 126.93887711 C412.517938 127.97335664 412.51824446 129.00783617 412.51856022 130.07366357 C412.51919969 132.17542314 412.51984812 134.2771827 412.5205054 136.37894227 C412.52620919 156.09094878 412.5196515 175.8029367 412.50890467 195.51494016 C412.49998235 212.40222205 412.5015102 229.28947642 412.51074219 246.17675781 C412.52146682 265.80348034 412.52564594 285.43018653 412.51951766 305.05691159 C412.5188806 307.15392947 412.51825186 309.25094735 412.51763153 311.34796524 C412.51732298 312.37961387 412.51701443 313.4112625 412.51669653 314.47417321 C412.51497517 321.71792282 412.51787288 328.96166201 412.52259064 336.20541 C412.52822445 345.05003732 412.52663133 353.89462919 412.51602915 362.73925249 C412.51080386 367.24575081 412.50866132 371.75219021 412.51532745 376.25868797 C412.52135568 380.39689724 412.51790049 384.53499384 412.50737235 388.67319311 C412.5051669 390.1577855 412.50620891 391.64238772 412.51112393 393.12697361 C412.53774225 401.84697231 412.07192986 410.34978302 410.96260406 418.99898326 C410.14892859 425.43269239 410.02297424 431.78945846 410.12573242 438.2746582 C410.19585738 443.52556339 410.21919308 448.7760128 410.234375 454.02734375 C410.23935249 455.52837898 410.23935249 455.52837898 410.24443054 457.05973816 C410.27728153 471.0235389 410.15062916 484.98589877 409.98855591 498.9486084 C409.95330144 502.03444512 409.92503726 505.12021588 409.90328979 508.20617676 C409.73851744 530.88271692 409.13708747 552.80011471 401.25 574.3125 C400.69699219 575.84197266 400.69699219 575.84197266 400.1328125 577.40234375 C394.9554069 590.7029202 387.72562357 602.65676214 378.25 613.3125 C377.60804688 614.06273437 376.96609375 614.81296875 376.3046875 615.5859375 C373.89167044 618.39590109 371.46637566 621.10167243 368.8125 623.6875 C356.34513744 636.45894458 348.90633397 651.78729529 348.91011047 669.79191589 C348.92559433 670.91632584 348.94107819 672.04073578 348.95703125 673.19921875 C348.96127609 674.38224075 348.96552094 675.56526276 348.96989441 676.78413391 C348.9865436 680.52299803 349.02417045 684.26130174 349.0625 688 C349.0775646 690.55142445 349.09124988 693.10285744 349.10351562 695.65429688 C349.13640194 701.87388567 349.18646229 708.09315278 349.25 714.3125 C342.50562341 714.33787362 335.76125916 714.35537685 329.0168457 714.36743164 C326.72289571 714.37245761 324.42894892 714.37927938 322.13500977 714.38793945 C318.83609222 714.40008096 315.53721707 714.40574572 312.23828125 714.41015625 C310.70207878 714.41789818 310.70207878 714.41789818 309.13484192 714.42579651 C308.17422348 714.42587204 307.21360504 714.42594757 306.22387695 714.42602539 C305.38226517 714.428246 304.54065338 714.43046661 303.67353821 714.43275452 C301.25 714.3125 301.25 714.3125 298.98837215 713.81365067 C295.94151847 713.25604466 293.11031129 713.18137728 290.01250744 713.1738348 C288.74852979 713.16836036 287.48455214 713.16288591 286.18227214 713.15724558 C284.78209323 713.15616944 283.38191426 713.15518473 281.98173523 713.15428162 C280.49249047 713.14971481 279.00324699 713.14471461 277.51400501 713.13931805 C273.42073797 713.12574107 269.32747924 713.11831985 265.23419559 713.11189139 C260.82046274 713.10388553 256.40674716 713.09018838 251.99302673 713.07717896 C244.34562915 713.05541887 236.69822982 713.03727266 229.05081749 713.02157402 C217.99391335 712.99887115 206.93702832 712.97072889 195.8801404 712.94125474 C177.94150504 712.89358396 160.00286186 712.85031837 142.06420898 712.80981445 C124.63744498 712.77045692 107.21068793 712.72903007 89.78393555 712.68481445 C88.70993076 712.68209018 87.63592597 712.67936591 86.52937558 712.67655908 C81.14146301 712.66287956 75.75355055 712.6491593 70.36563814 712.63541877 C25.66043991 712.52146206 -19.04477334 712.41465091 -63.75 712.3125 C-63.8729393 711.00710266 -63.9958786 709.70170532 -64.12254333 708.35675049 C-64.29287106 706.6274494 -64.46354891 704.89818277 -64.63452148 703.16894531 C-64.71443077 702.31052032 -64.79434006 701.45209534 -64.87667084 700.56765747 C-65.51940625 694.17044802 -66.86192853 688.81020315 -69.8125 683.0625 C-70.21243164 682.23588867 -70.61236328 681.40927734 -71.02441406 680.55761719 C-72.22618715 678.11919604 -73.47466197 675.71313628 -74.75 673.3125 C-75.11013184 672.62671875 -75.47026367 671.9409375 -75.84130859 671.234375 C-84.03883645 655.91904973 -95.76471125 642.77073667 -107.75 630.3125 C-108.2980127 629.74257324 -108.84602539 629.17264648 -109.41064453 628.58544922 C-116.01706776 621.75776705 -122.70466916 615.29133038 -130.16796875 609.390625 C-132.80869076 607.26526326 -135.3112708 605.03728269 -137.8125 602.75 C-141.03851261 599.80938503 -144.32119089 597.01382387 -147.75 594.3125 C-152.12599802 590.86245768 -156.27104269 587.21654663 -160.3828125 583.45703125 C-162.46894486 581.56711926 -164.59649761 579.74938253 -166.75 577.9375 C-201.69396016 547.20365552 -201.50772585 509.70433811 -204.75 464.3125 C-310.68 464.3125 -416.61 464.3125 -525.75 464.3125 C-525.75 328.3525 -525.75 192.3925 -525.75 52.3125 C-386.49 52.3125 -247.23 52.3125 -103.75 52.3125 C-103.75 47.6925 -103.75 43.0725 -103.75 38.3125 C-102.5709351 24.45848737 -96.35232106 10.58728848 -85.75 1.3125 C-60.77837074 -19.02106084 -25.70775766 -20.08048352 0 0 Z " fill="#F4D042" transform="translate(525.75,413.6875)"/>
<path d="M0 0 C6.47785609 -0.02535173 12.95569938 -0.04286762 19.43359375 -0.05493164 C21.63737466 -0.05996088 23.84115222 -0.06678505 26.04492188 -0.07543945 C29.21224796 -0.0875666 32.37952994 -0.09324241 35.546875 -0.09765625 C36.53242371 -0.10281754 37.51797241 -0.10797882 38.53338623 -0.11329651 C39.91436493 -0.11340981 39.91436493 -0.11340981 41.32324219 -0.11352539 C42.53569611 -0.11685631 42.53569611 -0.11685631 43.77264404 -0.12025452 C46 0 46 0 47.75510478 0.49884933 C50.59538522 1.13291386 53.2341539 1.13161794 56.14567947 1.1386652 C58.04910956 1.14687687 58.04910956 1.14687687 59.99099278 1.15525442 C61.40197445 1.15633063 62.8129562 1.15731532 64.22393799 1.15821838 C65.72056929 1.16278385 67.21719932 1.16778385 68.71382785 1.17318195 C72.83215739 1.18677419 76.95047866 1.19418456 81.06882477 1.20060861 C85.50779694 1.20860778 89.94675188 1.22230722 94.38571167 1.23532104 C102.07841707 1.25709065 109.7711242 1.27523337 117.4638443 1.29092598 C128.58628258 1.31362019 139.7087018 1.34176365 150.83112392 1.37124526 C168.87568878 1.41892666 186.92026144 1.46218937 204.96484375 1.50268555 C222.49544888 1.54203768 240.02604708 1.58346323 257.55664062 1.62768555 C258.63688213 1.63040982 259.71712364 1.63313409 260.83009973 1.63594092 C266.24925107 1.64962035 271.66840231 1.66334063 277.0875535 1.67708123 C322.05835456 1.79105463 367.0291706 1.89786208 412 2 C412.19698486 3.01392822 412.39396973 4.02785645 412.59692383 5.07250977 C412.86266244 6.42466759 413.12853891 7.77679832 413.39453125 9.12890625 C413.52347778 9.79458618 413.65242432 10.46026611 413.78527832 11.14611816 C421.02444729 47.79090374 449.84428761 80.20268288 478.36328125 102.86328125 C480.9381301 104.94986246 483.37602629 107.12931053 485.8125 109.375 C489.69275439 112.91703887 493.71907384 116.16958038 497.875 119.375 C504.04883253 124.15778124 509.87672202 129.19699918 515.5234375 134.59082031 C516.51860393 135.54057241 517.51873297 136.48514833 518.5234375 137.42480469 C544.14648319 161.43828088 550.69022669 188.96598266 553.43261719 223.05249023 C553.62675838 225.45929902 553.82856924 227.86538114 554.03125 230.27148438 C554.15930255 231.82548395 554.28692252 233.37951925 554.4140625 234.93359375 C554.47340973 235.64100204 554.53275696 236.34841034 554.59390259 237.07725525 C554.93914389 241.42461697 555 245.61627594 555 250 C659.94 250 764.88 250 873 250 C873 385.96 873 521.92 873 662 C735.39 662 597.78 662 456 662 C456 668.6 456 675.2 456 682 C455.19572206 685.9767076 454.62969676 688.49985582 453 692 C452.5978125 692.88558594 452.195625 693.77117188 451.78125 694.68359375 C444.0115847 710.24450676 431.26188821 719.87565246 415.30078125 726.04296875 C398.74850852 731.07240397 379.51280305 728.98583863 364.1875 721.3125 C358.45478947 717.93079706 353.69596279 713.6879355 349 709 C348.33871094 708.3503125 347.67742187 707.700625 346.99609375 707.03125 C337.21168106 696.71852129 333.8146927 682.9397247 333.9375 669.0625 C333.94201172 668.37865234 333.94652344 667.69480469 333.95117188 666.99023438 C333.9628044 665.32678396 333.98073306 663.6633795 334 662 C331.36 662 328.72 662 326 662 C326.04640625 662.969375 326.0928125 663.93875 326.140625 664.9375 C326.68267786 681.3021376 323.54473127 695.86589039 312.7109375 708.71484375 C301.03670958 721.03763989 286.2629516 728.15549056 269.2578125 729.23828125 C251.01354674 729.73083225 235.25451169 725.36101002 221.125 713.25 C212.58928421 705.04974902 204.4703729 692.86872693 203.88647461 680.61816406 C203.89432983 679.32990723 203.89432983 679.32990723 203.90234375 678.015625 C203.90556641 677.08105469 203.90878906 676.14648438 203.91210938 675.18359375 C203.92048828 674.21550781 203.92886719 673.24742187 203.9375 672.25 C203.94201172 671.26644531 203.94652344 670.28289063 203.95117188 669.26953125 C203.96293517 666.84629209 203.97937316 664.42317727 204 662 C201.69 662 199.38 662 197 662 C197.05220703 663.84851562 197.05220703 663.84851562 197.10546875 665.734375 C197.47261595 684.05464923 194.34691936 698.04076034 181.33984375 711.71875 C168.82700292 723.91824757 153.46275904 729.9067249 136 730.375 C116.37010028 729.89085449 100.74430582 722.64708208 87.2578125 708.58984375 C75.21643439 694.77767474 74.36792892 679.4521847 75 662 C70.71 662 66.42 662 62 662 C62.04640625 663.52109375 62.0928125 665.0421875 62.140625 666.609375 C62.5510451 685.52927366 59.46251324 698.2586272 47 713 C34.6370455 725.00972723 18.48791618 730.56758954 1.5 731.375 C-17.12284352 730.55602218 -33.62173013 723.89323238 -46.75 710.4375 C-49.82127027 706.6644407 -52.07722991 702.48923598 -54.3125 698.1875 C-54.65055664 697.54804443 -54.98861328 696.90858887 -55.33691406 696.24975586 C-60.22278102 686.3307529 -60.27967516 675.79177741 -60.17773438 664.93994141 C-60.17249745 663.55921636 -60.16826521 662.17848719 -60.16494751 660.7977562 C-60.15617367 657.83316851 -60.14151082 654.86869318 -60.12217712 651.90415573 C-60.07547427 644.62419901 -60.06241265 637.34412774 -60.0453043 630.06405282 C-60.03901088 627.50734892 -60.03157192 624.95065003 -60.02404022 622.39394951 C-59.97744305 605.26505123 -60.07640219 588.13793653 -60.20123434 571.00955224 C-60.23074219 566.9265973 -60.25858135 562.84363092 -60.28665161 558.76066589 C-60.32704226 552.91549476 -60.36807873 547.07032863 -60.40971816 541.22516626 C-60.81199791 484.67137763 -61.10971222 428.11815928 -61.12283063 371.56283879 C-61.12411127 366.42305444 -61.12784795 361.28327589 -61.13256836 356.14349365 C-61.13861591 349.31827472 -61.13871058 342.49308143 -61.13431931 335.66786003 C-61.13332553 333.18440704 -61.13390325 330.70095285 -61.13615799 328.21750069 C-61.13868419 324.85713461 -61.13495074 321.49683564 -61.12939453 318.13647461 C-61.13142128 317.15668325 -61.13344803 316.1768919 -61.13553619 315.1674099 C-61.13271385 314.27326189 -61.12989151 313.37911388 -61.12698364 312.45787048 C-61.12660662 311.68770064 -61.12622959 310.9175308 -61.12584114 310.12402248 C-61 308 -61 308 -60.50069046 306.04716682 C-59.89582368 303.5740556 -59.86907822 301.33386694 -59.86196899 298.78746033 C-59.85651566 297.73240799 -59.85106232 296.67735565 -59.84544373 295.59033203 C-59.8444014 294.43766846 -59.84335907 293.28500488 -59.84228516 292.09741211 C-59.83720444 290.87889053 -59.83212372 289.66036896 -59.82688904 288.40492249 C-59.81617983 285.75418081 -59.80717947 283.10349153 -59.80076981 280.45274162 C-59.79004279 276.24234276 -59.76977875 272.03202298 -59.74765015 267.82167053 C-59.6859057 255.84819227 -59.63197221 243.87471654 -59.59863281 231.90112305 C-59.58013805 225.28774566 -59.55100934 218.67449916 -59.5106281 212.06121832 C-59.48978228 208.57134228 -59.47413358 205.08162967 -59.47182083 201.59168816 C-59.4390536 163.3496625 -52.29694611 129.13506508 -26 100 C-24.34348334 98.38535421 -22.67665242 96.7812268 -21 95.1875 C-8.95796363 83.38892626 -0.0504508 66.86216113 0.22705078 49.83764648 C0.2267377 47.51543816 0.21565246 45.19321301 0.1953125 42.87109375 C0.19106766 41.02572777 0.19106766 41.02572777 0.18673706 39.14308167 C0.17560547 35.2411192 0.15051358 31.33939226 0.125 27.4375 C0.11382534 24.78060232 0.1058369 22.12370685 0.09765625 19.46679688 C0.07568912 12.97778519 0.04228177 6.48890943 0 0 Z " fill="#D83D2A" transform="translate(1194,939)"/>
<path d="M0 0 C135.96 0 271.92 0 412 0 C412 140.58 412 281.16 412 426 C276.04 426 140.08 426 0 426 C0 285.42 0 144.84 0 0 Z " fill="#F3CE42" transform="translate(463,1641)"/>
<path d="M0 0 C0.70463147 22.43403713 1.17034053 44.85261738 1.2851516 67.29720819 C1.3060941 71.21391388 1.33171954 75.13058992 1.35667419 79.04727173 C1.40454551 86.67018546 1.44833412 94.293117 1.49061734 101.91606355 C1.54045043 110.87044112 1.59455055 119.8247916 1.64874845 128.77914362 C1.74568124 144.81718132 1.83889506 160.85523839 1.92993164 176.89331055 C2.01737811 192.2982754 2.10741771 207.70322208 2.20043945 223.1081543 C2.20615072 224.054033 2.21186199 224.9999117 2.21774632 225.9744534 C2.22345001 226.91901949 2.2291537 227.86358558 2.23503023 228.83677489 C2.34211613 246.57348307 2.44683843 264.31020456 2.55043279 282.04693346 C2.58652439 288.21876714 2.62324351 294.3905969 2.66017342 300.56242561 C2.70552779 308.15097394 2.74944768 315.73952934 2.79185278 323.32809473 C2.81331609 327.16543949 2.83519941 331.00277986 2.85870743 334.84011269 C3.04246275 365.22737998 3 395.61109982 3 426 C-132.63 426 -268.26 426 -408 426 C-408 392.34 -408 358.68 -408 324 C-408.66 324 -409.32 324 -410 324 C-410.74674627 274.66751069 -411.24068102 225.33726053 -411.51765925 175.99995941 C-411.55287048 169.72983459 -411.58945212 163.45971887 -411.62667847 157.18960571 C-411.82662195 123.41050097 -412.02626916 89.63131389 -412.0625 55.8515625 C-412.06353729 54.88527294 -412.06457458 53.91898338 -412.06564331 52.92341232 C-412.0806157 35.94890647 -412.03890437 18.97445021 -412 2 C-360.57841483 1.32214965 -309.15809557 0.77240416 -257.73290634 0.46757126 C-253.45780694 0.44221102 -249.1827133 0.41598413 -244.90762037 0.38955754 C-163.27195246 -0.1140133 -81.63684729 -0.1046012 0 0 Z " fill="#D83D2A" transform="translate(1600,0)"/>
<path d="M0 0 C139.59 0 279.18 0 423 0 C423 134.97 423 269.94 423 409 C389.34 409 355.68 409 321 409 C321 409.99 321 410.98 321 412 C215.07 412 109.14 412 0 412 C0 276.04 0 140.08 0 0 Z " fill="#F0BB76" transform="translate(0,466)"/>
<path d="M0 0 C104.94 0 209.88 0 318 0 C318 135.96 318 271.92 318 412 C180.39 412 42.78 412 -99 412 C-100.16495618 358.41201592 -100.16495618 358.41201592 -100.29090881 336.60665321 C-100.31295971 332.89660837 -100.33778529 329.18658748 -100.36322176 325.47656447 C-100.42539657 316.37831783 -100.4800768 307.28003615 -100.53242874 298.18172836 C-100.55750084 293.83136518 -100.58378973 289.4810103 -100.61044246 285.13065654 C-101.18576717 191.0879479 -101.09983277 97.04399907 -101 3 C-95.33002694 2.85728935 -89.6600048 2.71677351 -83.98993111 2.57811832 C-82.06907187 2.5308573 -80.1482262 2.48304075 -78.22739601 2.43461323 C-61.10609966 2.00359147 -44.00154415 1.87838911 -26.875 1.9375 C-24.22395922 1.94254805 -21.57291746 1.94710486 -18.921875 1.95117188 C-12.61456079 1.9618636 -6.30728556 1.97831517 0 2 C0 1.34 0 0.68 0 0 Z " fill="#994116" transform="translate(1749,1189)"/>
<path d="M0 0 C51.48 0 102.96 0 156 0 C156 4.62 156 9.24 156 14 C104.52 14 53.04 14 0 14 C0 9.38 0 4.76 0 0 Z " fill="#DB432E" transform="translate(1449,806)"/>
<path d="M0 0 C4.62 0 9.24 0 14 0 C14 49.83 14 99.66 14 151 C9.38 151 4.76 151 0 151 C0 101.17 0 51.34 0 0 Z " fill="#F2BD75" transform="translate(803,466)"/>
<path d="M0 0 C4.62 0 9.24 0 14 0 C14 49.17 14 98.34 14 149 C9.71 149 5.42 149 1 149 C0.15513383 113.28867541 -0.09215275 77.59544924 -0.0625 41.875 C-0.06164398 40.83648769 -0.06078796 39.79797539 -0.05990601 38.72799301 C-0.04847801 25.81864486 -0.02834741 12.9093217 0 0 Z " fill="#9B4117" transform="translate(1255,1452)"/>
<path d="M0 0 C51.15 0 102.3 0 155 0 C155 4.29 155 8.58 155 13 C103.85 13 52.7 13 0 13 C0 8.71 0 4.42 0 0 Z " fill="#F4D042" transform="translate(463,1247)"/>
<path d="M0 0 C51.15 0 102.3 0 155 0 C155 3.3 155 6.6 155 10 C103.85 10 52.7 10 0 10 C0 6.7 0 3.4 0 0 Z " fill="#F0CA40" transform="translate(463,1510)"/>
<path d="M0 0 C3.3 0 6.6 0 10 0 C10 49.83 10 99.66 10 151 C7.03 151 4.06 151 1 151 C0.82795523 135.95839159 0.6615057 120.91672531 0.5 105.875 C0.48812275 104.76913166 0.4762455 103.66326332 0.46400833 102.52388382 C0.09865691 68.34771995 -0.15869636 34.17831312 0 0 Z " fill="#9B4117" transform="translate(1518,1450)"/>
<path d="M0 0 C51.15 0 102.3 0 155 0 C155 2.97 155 5.94 155 9 C103.85 9 52.7 9 0 9 C0 6.03 0 3.06 0 0 Z " fill="#DA3E2B" transform="translate(1449,547)"/>
<path d="M0 0 C2.97 0 5.94 0 9 0 C9 49.83 9 99.66 9 151 C6.03 151 3.06 151 0 151 C0 101.17 0 51.34 0 0 Z " fill="#F2BD78" transform="translate(544,466)"/>
<path d="M0 0 C51.15 0 102.3 0 155 0 C155 2.64 155 5.28 155 8 C103.85 8 52.7 8 0 8 C0 5.36 0 2.72 0 0 Z " fill="#F0CA40" transform="translate(463,1381)"/>
<path d="M0 0 C2.31 0 4.62 0 7 0 C7.90045892 32.25900508 8.13098224 64.49345976 8.06866455 96.76391602 C8.05817825 102.80028919 8.05381452 108.83666709 8.04882812 114.87304688 C8.03830728 126.5820429 8.02139092 138.29101912 8 150 C5.36 150 2.72 150 0 150 C0 100.5 0 51 0 0 Z " fill="#9C4117" transform="translate(1390,1451)"/>
<path d="M0 0 C51.15 0 102.3 0 155 0 C155 2.31 155 4.62 155 7 C103.85 7 52.7 7 0 7 C0 4.69 0 2.38 0 0 Z " fill="#DA3E2B" transform="translate(1449,678)"/>
<path d="M0 0 C2.31 0 4.62 0 7 0 C7 49.83 7 99.66 7 151 C4.69 151 2.38 151 0 151 C0 101.17 0 51.34 0 0 Z " fill="#F2BD78" transform="translate(675,466)"/>
</svg>
