<?xml version="1.0" encoding="UTF-8"?>
<svg version="1.1" xmlns="http://www.w3.org/2000/svg" width="512" height="512">
<path d="M0 0 C1.34322167 -0.00571501 2.6864385 -0.01268361 4.02964783 -0.02079773 C7.64958458 -0.03861918 11.26927749 -0.0375818 14.88924479 -0.03185534 C17.92331296 -0.02874756 20.95733535 -0.03487346 23.99139696 -0.04089409 C31.15478577 -0.05490141 38.31805521 -0.05340965 45.48144531 -0.04199219 C52.8456072 -0.03051334 60.20940479 -0.04459118 67.57351869 -0.07138866 C73.92121169 -0.09361359 80.26879089 -0.10016785 86.61651999 -0.09431225 C90.39674302 -0.0909578 94.17673261 -0.09325616 97.95692253 -0.11056328 C101.51369641 -0.12613953 105.06993448 -0.12196041 108.626688 -0.10325813 C110.53651412 -0.09787272 112.44636493 -0.11200454 114.35614014 -0.12695312 C125.32843993 -0.03407917 135.37049108 2.50848023 143.37133789 10.40405273 C150.2150523 18.64761782 152.83695272 27.30140018 152.75952148 37.89599609 C152.76740692 39.24912651 152.76740692 39.24912651 152.77545166 40.6295929 C152.78855683 43.5845417 152.77994657 46.53894306 152.76977539 49.49389648 C152.77179903 51.56458132 152.77471287 53.63526546 152.7784729 55.70594788 C152.78288358 60.03564267 152.77650634 64.36515117 152.76245117 68.69482422 C152.74537093 74.22363868 152.7552013 79.75201578 152.77316856 85.28081417 C152.78404952 89.55411528 152.78054013 93.82731404 152.77278519 98.10061836 C152.77079453 100.13822037 152.77320225 102.17583189 152.78022385 104.21342278 C152.78790835 107.07010096 152.77613635 109.92608767 152.75952148 112.78271484 C152.76559418 113.6115921 152.77166687 114.44046936 152.77792358 115.29446411 C152.67074587 125.32457534 149.81769886 133.47700409 143.05883789 140.96655273 C133.30562019 149.81249437 123.9186756 151.6025744 110.93383789 151.46655273 C110.1069043 151.46204102 109.2799707 151.4575293 108.42797852 151.45288086 C106.40906643 151.44121085 104.39019215 151.42327992 102.37133789 151.40405273 C102.41061401 152.84071289 102.41061401 152.84071289 102.45068359 154.30639648 C102.54182916 157.89192947 102.5988171 161.47736215 102.64599609 165.0637207 C102.67099521 166.60979485 102.70500691 168.15575256 102.74853516 169.70141602 C103.17298979 185.17153895 103.17298979 185.17153895 98.8203125 191.00756836 C94.18753497 195.47251991 89.14652741 196.83828059 82.84008789 196.93530273 C75.26229355 195.30463813 69.10887022 190.23586869 63.05883789 185.65405273 C61.38974676 184.40641645 59.72047667 183.15901956 58.05102539 181.91186523 C56.85171387 181.01129395 56.85171387 181.01129395 55.62817383 180.0925293 C52.66647095 177.8766988 49.6789316 175.69952324 46.68383789 173.52905273 C45.8343457 172.91288086 44.98485352 172.29670898 44.10961914 171.66186523 C43.53598633 171.24678711 42.96235352 170.83170898 42.37133789 170.40405273 C42.15219727 171.0447168 41.93305664 171.68538086 41.70727539 172.34545898 C38.27866254 181.69748833 34.26249743 187.01821807 25.22973633 191.40234375 C20.2860401 193.13483313 15.47738809 192.66270037 10.30883789 192.46655273 C-1.92547827 192.5069093 -8.44244321 195.72763704 -17.51147461 203.61010742 C-21.34600407 206.85919904 -25.44208122 209.760291 -29.50366211 212.71655273 C-30.30827881 213.30936035 -31.11289551 213.90216797 -31.94189453 214.51293945 C-49.7935382 227.66522353 -49.7935382 227.66522353 -57.62866211 227.40405273 C-62.22786637 225.94763805 -65.75612237 224.34049609 -68.62866211 220.40405273 C-70.60304251 214.12959828 -70.87733148 208.44901623 -70.75366211 201.90405273 C-70.74463867 200.98624023 -70.73561523 200.06842773 -70.72631836 199.12280273 C-70.70298643 196.88293718 -70.67025446 194.6436409 -70.62866211 192.40405273 C-72.29541992 192.49106445 -72.29541992 192.49106445 -73.99584961 192.57983398 C-84.13484344 192.9539161 -91.76801098 192.63956775 -99.67944336 185.57202148 C-108.28771662 176.53600794 -108.07977255 166.78474586 -108.02709961 154.97045898 C-108.02912403 153.36677417 -108.03203853 151.76309026 -108.03579712 150.15940857 C-108.04020442 146.80816837 -108.03384199 143.45716908 -108.01977539 140.10595703 C-108.0026982 135.83137318 -108.01252531 131.55735515 -108.03049278 127.28279209 C-108.04138581 123.97372758 -108.03785889 120.66479495 -108.03010941 117.35572624 C-108.02812189 115.78061797 -108.0305152 114.20549734 -108.03754807 112.63040352 C-108.10766144 92.51507704 -108.10766144 92.51507704 -101.06616211 84.59155273 C-100.46674805 83.88385742 -99.86733398 83.17616211 -99.24975586 82.44702148 C-92.2481812 76.98975837 -84.67748469 75.81735629 -76.02709961 76.01342773 C-74.58338486 76.02191742 -74.58338486 76.02191742 -73.11050415 76.03057861 C-70.07435677 76.0527441 -67.03944512 76.10290141 -64.00366211 76.15405273 C-61.92946055 76.17414342 -59.85524027 76.19238966 -57.78100586 76.20874023 C-52.72975764 76.25254359 -47.67941844 76.32143057 -42.62866211 76.40405273 C-42.63913574 75.12353027 -42.64960938 73.84300781 -42.66040039 72.52368164 C-42.69683444 67.73399698 -42.71964717 62.94432437 -42.73852539 58.15454102 C-42.74852993 56.08876479 -42.76213781 54.02300253 -42.77954102 51.95727539 C-42.80403482 48.97335341 -42.81520097 45.98962006 -42.82397461 43.00561523 C-42.83429718 42.0947818 -42.84461975 41.18394836 -42.85525513 40.24551392 C-42.85720512 28.88394031 -40.81866958 17.81541176 -32.62866211 9.40405273 C-22.58465467 1.31934859 -12.62722159 -0.04594632 0 0 Z " fill="#EBEEF0" transform="translate(240.628662109375,38.595947265625)"/>
<path d="M0 0 C12.28225333 9.40078627 19.84216881 20.983842 22.59765625 36.328125 C24.14551996 51.05951758 20.88200355 65.68074881 11.47265625 77.328125 C9.41364817 79.66567263 7.25966209 81.85621802 5 84 C3.33087694 85.66420665 1.66389582 87.33056709 0 89 C1.06476563 89.40089844 2.12953125 89.80179687 3.2265625 90.21484375 C17.83977593 95.87321002 29.68495328 103.01208899 41 114 C41.75796875 114.68449219 42.5159375 115.36898437 43.296875 116.07421875 C62.03956523 133.55662464 71.34288306 159.98795842 72.375 185.125 C72.48029845 188.27438083 72.3310426 189.54376983 70.46700287 192.11271763 C67.09582782 194.69170095 64.14233841 194.55324848 60.0670166 194.50120544 C59.26196135 194.50673984 58.4569061 194.51227424 57.62745523 194.51797634 C54.92645419 194.53160332 52.22637393 194.51660288 49.52539062 194.50170898 C47.59042467 194.50549142 45.65546142 194.51099084 43.72050476 194.51808167 C38.46226152 194.53206334 33.20434449 194.52084741 27.94611931 194.50437045 C22.44800422 194.49053821 16.94990842 194.49697795 11.45178223 194.50050354 C2.21796398 194.50320711 -7.01572438 194.48971743 -16.24951172 194.46655273 C-26.93095284 194.43994212 -37.61217676 194.43819538 -48.29363966 194.4499411 C-58.56125135 194.4607136 -68.82878433 194.45453595 -79.09638977 194.44038582 C-83.46952674 194.43462144 -87.84260619 194.43471225 -92.21574402 194.43945122 C-97.36381007 194.44421724 -102.51163774 194.43413481 -107.65965843 194.41249657 C-109.55111576 194.40692342 -111.44259597 194.40646822 -113.33405495 194.41144943 C-115.91197496 194.41738794 -118.48916265 194.40492499 -121.0670166 194.38768005 C-122.19522206 194.39669512 -122.19522206 194.39669512 -123.34621954 194.40589231 C-126.46376327 194.36785431 -128.68910087 194.1657696 -131.46260834 192.68695164 C-133.93932123 189.96930006 -133.59058926 186.92302967 -133.5 183.4375 C-133.48718994 182.68662109 -133.47437988 181.93574219 -133.46118164 181.16210938 C-132.51964463 154.22912199 -119.54694771 129.52735222 -100.328125 111.02734375 C-92.5509745 104.25495933 -84.31234904 98.85122343 -75 94.4375 C-74.29431885 94.10298828 -73.5886377 93.76847656 -72.86157227 93.42382812 C-68.91643729 91.63763571 -65.34652477 90.49577548 -61 90 C-61.680625 89.319375 -62.36125 88.63875 -63.0625 87.9375 C-63.52140625 87.47085938 -63.9803125 87.00421875 -64.453125 86.5234375 C-65.47460766 85.51743185 -66.5271635 84.54193075 -67.609375 83.6015625 C-77.72380331 74.46145986 -83.33607923 61.51303613 -84.2734375 48.08203125 C-84.79967871 33.37864269 -80.89386673 19.87882413 -71.5 8.3125 C-52.66258014 -11.3844219 -22.77937857 -15.29758854 0 0 Z " fill="#FC4654" transform="translate(415,279)"/>
<path d="M0 0 C9.96923813 8.90951596 16.41890042 21.86889696 17.1796875 35.2265625 C17.38363514 52.61309863 13.23921095 65.61253255 1.1015625 78.48828125 C0.4003125 79.205 -0.3009375 79.92171875 -1.0234375 80.66015625 C-1.5803125 81.2325 -2.1371875 81.80484375 -2.7109375 82.39453125 C-3.80110785 83.4970899 -4.90923173 84.5818926 -6.0234375 85.66015625 C-5.46946289 85.758125 -4.91548828 85.85609375 -4.34472656 85.95703125 C1.37504093 87.0811194 6.12266798 88.87271857 11.2265625 91.66015625 C11.95746094 92.05460937 12.68835938 92.4490625 13.44140625 92.85546875 C36.8468197 105.84486051 54.14111309 126.9961147 62.3515625 152.47265625 C62.92009153 154.52791384 63.4638154 156.59027716 63.9765625 158.66015625 C64.31300781 159.97306641 64.31300781 159.97306641 64.65625 161.3125 C65.9187622 167.06298367 66.23059 172.79175535 66.3515625 178.66015625 C66.37766602 179.40297852 66.40376953 180.14580078 66.43066406 180.91113281 C66.44748364 186.137217 66.44748364 186.137217 64.44356537 188.36248875 C61.01328689 190.16684859 57.82687788 190.07806723 54.0435791 190.0478363 C52.83599622 190.05591461 52.83599622 190.05591461 51.60401773 190.06415612 C48.90317458 190.07847744 46.20281866 190.07132179 43.50195312 190.06420898 C41.56698715 190.06991033 39.63202454 190.07687367 37.69706726 190.08500671 C32.43889044 190.10297812 27.18088014 190.10176239 21.92268181 190.09606433 C17.53624149 190.09297859 13.14983343 190.09905798 8.76339769 190.10510308 C-1.58207847 190.11915944 -11.92747208 190.11757743 -22.27294922 190.10620117 C-32.95441987 190.09471518 -43.63563958 190.10880125 -54.31707716 190.13559765 C-63.4814937 190.15772954 -72.64583132 190.1643978 -81.81027269 190.15852123 C-87.28663675 190.15514488 -92.76283987 190.15761182 -98.23918152 190.17477226 C-103.38728226 190.1901996 -108.53501015 190.18633275 -113.68309593 190.16746712 C-115.57456069 190.16376972 -117.46605283 190.16692304 -119.35749245 190.17735291 C-121.93558066 190.19048595 -124.51242041 190.17908453 -127.0904541 190.16136169 C-128.21865956 190.1757692 -128.21865956 190.1757692 -129.36965704 190.19046777 C-132.84775313 190.14112016 -134.69395276 189.91361502 -137.4882431 187.76408482 C-141.61705784 182.10569309 -138.94349503 172.74108926 -137.9609375 166.16015625 C-134.27642752 144.31808612 -124.45701397 126.27884308 -109.0234375 110.66015625 C-108.38019531 109.94472656 -107.73695312 109.22929687 -107.07421875 108.4921875 C-96.46248838 96.95969962 -81.72064995 89.55922707 -67.0234375 84.66015625 C-67.508125 84.28246094 -67.9928125 83.90476562 -68.4921875 83.515625 C-80.61563334 73.56041082 -87.87229837 60.51981574 -89.8046875 44.94921875 C-90.8638408 29.02409234 -86.15720406 15.8776293 -76.28515625 3.4765625 C-55.48381931 -19.37372841 -23.02508433 -17.81915441 0 0 Z " fill="#5FB6FE" transform="translate(164.0234375,283.33984375)"/>
<path d="M0 0 C0.98467255 0.00565979 1.96934509 0.01131958 2.9838562 0.01715088 C6.09132037 0.03932389 9.19757907 0.08948315 12.3046875 0.140625 C14.42706654 0.16071469 16.54946387 0.1789611 18.671875 0.1953125 C23.84160168 0.23912593 29.01044109 0.30801873 34.1796875 0.390625 C34.18111252 0.96532532 34.18253754 1.54002563 34.18400574 2.13214111 C34.2038464 8.16831882 34.2584235 14.2035047 34.33227539 20.23925781 C34.35532887 22.48527892 34.36982108 24.73140619 34.37524414 26.97753906 C33.98754249 45.90392525 33.98754249 45.90392525 41.91088867 62.55957031 C46.7865824 66.49454319 52.16393881 66.60659313 58.1953125 66.3125 C74.16821871 65.83600749 85.67747187 66.34403007 98.078125 77.6015625 C99.08891113 78.5601416 99.08891113 78.5601416 100.12011719 79.53808594 C104.0035029 83.03110761 108.44815635 85.81348334 112.81665039 88.66162109 C114.56640625 89.890625 114.56640625 89.890625 117.1796875 92.390625 C118.07703627 97.58721191 116.33572909 100.85171316 113.73046875 105.2109375 C109.86997061 110.63702809 104.69339727 114.68629473 98.1796875 116.390625 C95.28569167 116.54195206 92.43613183 116.47537269 89.53955078 116.3972168 C75.95319601 116.10703277 68.42829265 118.79082203 58.296875 127.59667969 C54.46234554 130.8457713 50.36626839 133.74686326 46.3046875 136.703125 C45.5000708 137.29593262 44.6954541 137.88874023 43.86645508 138.49951172 C26.01481141 151.6517958 26.01481141 151.6517958 18.1796875 151.390625 C13.58048324 149.93421032 10.05222724 148.32706835 7.1796875 144.390625 C5.2053071 138.11617055 4.93101813 132.4355885 5.0546875 125.890625 C5.06371094 124.9728125 5.07273438 124.055 5.08203125 123.109375 C5.10536318 120.86950944 5.13809515 118.63021317 5.1796875 116.390625 C4.06851563 116.44863281 2.95734375 116.50664062 1.8125 116.56640625 C-8.32649383 116.94048836 -15.95966137 116.62614001 -23.87109375 109.55859375 C-32.47936701 100.5225802 -32.27142294 90.77131813 -32.21875 78.95703125 C-32.22077443 77.35334644 -32.22368893 75.74966252 -32.22744751 74.14598083 C-32.23185481 70.79474063 -32.22549238 67.44374135 -32.21142578 64.0925293 C-32.19434859 59.81794544 -32.2041757 55.54392742 -32.22214317 51.26936436 C-32.2330362 47.96029984 -32.22950928 44.65136721 -32.2217598 41.34229851 C-32.21977228 39.76719024 -32.22216559 38.19206961 -32.22919846 36.61697578 C-32.29931183 16.5016493 -32.29931183 16.5016493 -25.2578125 8.578125 C-24.65839844 7.87042969 -24.05898437 7.16273437 -23.44140625 6.43359375 C-16.36510842 0.91808888 -8.73588584 -0.19336572 0 0 Z " fill="#BEC1C2" transform="translate(164.8203125,114.609375)"/>
<path d="M0 0 C9.96923813 8.90951596 16.41890042 21.86889696 17.1796875 35.2265625 C17.38349807 52.60141345 13.20829676 65.5003297 1.22265625 78.46875 C-10.11044695 89.52591677 -23.88424558 93.05636246 -39.22167969 93.03125 C-52.2038286 92.70844481 -65.79617875 86.887415 -75.0234375 77.66015625 C-85.50487326 65.17430249 -90.68005607 51.47256534 -89.8984375 35.09765625 C-88.44583865 21.38050122 -82.53932294 9.06665107 -72.44140625 -0.42578125 C-49.77354421 -18.36964619 -22.52031927 -17.42851582 0 0 Z " fill="#F0CABB" transform="translate(164.0234375,283.33984375)"/>
<path d="M0 0 C12.28225333 9.40078627 19.84216881 20.983842 22.59765625 36.328125 C24.05465485 50.19473238 21.28156605 64.03967456 13 75.4375 C10.5200726 78.49945118 7.89530283 81.32184488 5 84 C4.175 84.804375 3.35 85.60875 2.5 86.4375 C-10.2161155 96.82068475 -25.89982869 98.06816781 -41.5390625 96.79296875 C-54.22063355 94.63187705 -66.31986708 86.37651172 -74.02734375 76.3671875 C-82.9098974 63.1842009 -85.88778056 48.57453832 -83.5390625 32.9296875 C-79.79528445 17.82244195 -71.68145032 6.28999826 -58.55224609 -1.95751953 C-40.29213902 -12.71492615 -17.53942452 -11.77867512 0 0 Z " fill="#F0CABB" transform="translate(415,279)"/>
<path d="M0 0 C11.38629668 4.93932668 24.75349752 5.18744438 36.625 1.44140625 C38.9001773 0.51519387 40.93643415 -0.58752065 43.0625 -1.8125 C47.67324861 -4.26680999 51.13683653 -2.96275579 55.9375 -1.5 C58.80727059 -0.43894954 61.55757677 0.79610941 64.3125 2.125 C65.04927979 2.47763916 65.78605957 2.83027832 66.54516602 3.19360352 C76.9577383 8.32187793 85.62042525 15.46202172 93.9375 23.5 C94.60265625 24.139375 95.2678125 24.77875 95.953125 25.4375 C112.58879564 42.74941741 121.91439738 66.94291846 122.375 90.75 C122.40859619 91.84139282 122.40859619 91.84139282 122.44287109 92.95483398 C122.429028 96.02982117 122.31916136 98.01205319 120.39453125 100.47265625 C116.98894867 101.89661208 113.80751948 101.82094117 110.1875 101.6875 C109.49011719 101.67396484 108.79273438 101.66042969 108.07421875 101.64648438 C106.36164459 101.6112945 104.64947059 101.55749155 102.9375 101.5 C102.80214844 100.49324219 102.66679687 99.48648438 102.52734375 98.44921875 C99.54391721 78.26249962 92.16102401 60.19598963 78.9375 44.5 C77.95523438 43.29923828 77.95523438 43.29923828 76.953125 42.07421875 C59.62145231 21.73796776 34.7927354 11.01645719 8.54443359 8.24755859 C-10.39080293 6.82911399 -28.74442207 11.62798771 -45.640625 19.92578125 C-49.0625 21.5 -49.0625 21.5 -52.0625 21.5 C-40.17369746 8.16134349 -17.69185558 -7.69405603 0 0 Z " fill="#56A5E6" transform="translate(108.0625,371.5)"/>
<path d="M0 0 C11.00843427 4.1456699 25.17618821 3.4284556 36.0703125 -0.84375 C38.11084833 -1.88572574 40.08757674 -2.94642186 42.0234375 -4.171875 C47.67974252 -6.02852474 53.60796851 -3.08927859 58.7578125 -0.78125 C59.80219482 -0.315979 59.80219482 -0.315979 60.86767578 0.15869141 C71.65851103 5.11717799 80.52570711 11.97824484 89.0703125 20.15625 C89.83085937 20.84203125 90.59140625 21.5278125 91.375 22.234375 C110.10589077 39.73382312 119.41285936 66.13602039 120.4453125 91.28125 C120.55239947 94.48412387 120.33357842 95.76469206 118.53125 98.4453125 C115.17751529 100.77695663 112.24313817 100.59905429 108.3203125 100.40625 C107.62292969 100.38820313 106.92554688 100.37015625 106.20703125 100.3515625 C104.49419711 100.30463554 102.78207426 100.23289605 101.0703125 100.15625 C100.9252124 99.48271484 100.7801123 98.80917969 100.63061523 98.11523438 C93.9256441 67.46095262 81.90355711 41.56591308 54.9453125 23.59375 C29.5880123 8.15428427 1.99541367 3.42543408 -26.9296875 10.15625 C-34.57963795 12.14948196 -41.45698112 15.21719728 -48.38745117 18.95800781 C-49.87334395 19.74634526 -51.39918419 20.45845855 -52.9296875 21.15625 C-53.5896875 20.82625 -54.2496875 20.49625 -54.9296875 20.15625 C-39.95608018 5.55444783 -20.37570135 -8.96322412 0 0 Z " fill="#E4404D" transform="translate(366.9296875,372.84375)"/>
<path d="M0 0 C6.17395636 1.87089587 10.46143518 5.42539936 13.74609375 10.921875 C17.68766039 18.6726775 19.14970179 24.24384681 19.16113281 32.92431641 C19.16858017 34.27635162 19.16858017 34.27635162 19.17617798 35.65570068 C19.19078131 38.63766241 19.1975998 41.61957088 19.203125 44.6015625 C19.20887948 46.67939251 19.21463717 48.7572225 19.22039795 50.83505249 C19.23090379 55.19456224 19.23674869 59.55405359 19.24023438 63.91357422 C19.24570765 69.48172396 19.26971258 75.04962776 19.29820633 80.61770058 C19.31689557 84.91243178 19.32204173 89.2071046 19.32357025 93.50187302 C19.32658487 95.55344355 19.33457289 97.60501334 19.34775543 99.65654373 C19.36494187 102.53765399 19.3629047 105.41817473 19.35644531 108.29931641 C19.3656601 109.13604889 19.37487488 109.97278137 19.3843689 110.83486938 C19.3142503 120.89340065 16.46534236 129.05191792 9.6875 136.5625 C-0.0657177 145.40844164 -9.45266229 147.19852167 -22.4375 147.0625 C-23.26443359 147.05798828 -24.09136719 147.05347656 -24.94335938 147.04882812 C-26.96227146 147.03715811 -28.98114574 147.01922718 -31 147 C-30.96072388 148.43666016 -30.96072388 148.43666016 -30.9206543 149.90234375 C-30.82950873 153.48787674 -30.77252079 157.07330942 -30.7253418 160.65966797 C-30.70034268 162.20574212 -30.66633098 163.75169982 -30.62280273 165.29736328 C-30.1983481 180.76748621 -30.1983481 180.76748621 -34.55102539 186.60351562 C-38.56644156 190.47347021 -42.96607618 192.19468007 -48.5 192.5 C-54.70608907 192.18969555 -59.61778484 189.57066719 -64 185.25 C-64.99 184.13625 -64.99 184.13625 -66 183 C-65.505 183.165 -65.01 183.33 -64.5 183.5 C-57.70811078 184.85837784 -53.64337316 184.33651278 -47.859375 180.6796875 C-44.1351939 177.31540626 -42.17164155 174.19550334 -41.45410156 169.19775391 C-41.4133272 167.79112187 -41.3930508 166.38378329 -41.390625 164.9765625 C-41.37408875 164.23038666 -41.35755249 163.48421082 -41.34051514 162.71542358 C-41.29225709 160.3518635 -41.27071524 157.98894565 -41.25 155.625 C-41.2218215 154.01429099 -41.19189144 152.40361161 -41.16015625 150.79296875 C-41.0865051 146.86203212 -41.03679586 142.93144735 -41 139 C-40.30551758 139.00112793 -39.61103516 139.00225586 -38.89550781 139.00341797 C-18.71760246 139.321975 -18.71760246 139.321975 -1.625 129.8828125 C4.51833565 123.54201249 8.08094295 115.91317585 8.15390015 106.99316406 C8.16250061 106.20566269 8.17110107 105.41816132 8.17996216 104.60679626 C8.18422211 103.75170975 8.18848206 102.89662323 8.19287109 102.015625 C8.20104858 101.1077272 8.20922607 100.19982941 8.21765137 99.26441956 C8.24246099 96.25961964 8.2590142 93.25486699 8.2734375 90.25 C8.28142302 88.70582901 8.28142302 88.70582901 8.28956985 87.13046265 C8.31628806 81.67666367 8.33566326 76.22288743 8.35009766 70.76904297 C8.36340971 66.27046249 8.39121416 61.77233852 8.43212891 57.27392578 C8.481644 51.82923936 8.50624236 46.38496541 8.51332474 40.94006348 C8.52000726 38.87336728 8.53515031 36.80667919 8.55921555 34.7401123 C8.70444974 21.50856906 8.52788078 10.83234963 0 0 Z " fill="#D4D7D9" transform="translate(374,43)"/>
<path d="M0 0 C12.28225333 9.40078627 19.84216881 20.983842 22.59765625 36.328125 C24.05465485 50.19473238 21.28156605 64.03967456 13 75.4375 C10.5200726 78.49945118 7.89530283 81.32184488 5 84 C4.175 84.804375 3.35 85.60875 2.5 86.4375 C-2.25583179 90.35480355 -8.25667672 92.88988399 -14 95 C-14.99 94.505 -14.99 94.505 -16 94 C-15.3709375 93.51273437 -14.741875 93.02546875 -14.09375 92.5234375 C-4.30430809 84.41471303 3.69861203 72.62969185 5.28198242 59.69677734 C5.40022059 57.35134848 5.41723312 55.03542031 5.375 52.6875 C5.3586853 51.44311157 5.3586853 51.44311157 5.34204102 50.17358398 C4.94267268 34.68261373 -0.67637071 22.10614642 -11.97265625 11.33203125 C-20.27399909 4.93731941 -30.27285113 -0.15166913 -40.859375 -0.09765625 C-41.97441406 -0.09443359 -43.08945312 -0.09121094 -44.23828125 -0.08789062 C-45.97658203 -0.07532227 -45.97658203 -0.07532227 -47.75 -0.0625 C-48.92433594 -0.05798828 -50.09867187 -0.05347656 -51.30859375 -0.04882812 C-54.20578072 -0.03705094 -57.10286454 -0.02060326 -60 0 C-56.63636549 -2.90661895 -53.70024745 -4.74219013 -49.5 -6.1875 C-48.5821875 -6.51105469 -47.664375 -6.83460938 -46.71875 -7.16796875 C-30.8844289 -12.01381702 -13.64159378 -9.16107031 0 0 Z " fill="#D9B7A9" transform="translate(415,279)"/>
<path d="M0 0 C9.96923813 8.90951596 16.41890042 21.86889696 17.1796875 35.2265625 C17.38349807 52.60141345 13.20829676 65.5003297 1.22265625 78.46875 C-3.07449646 82.66127639 -7.2463481 85.46156215 -12.7109375 87.97265625 C-13.84917969 88.50503906 -14.98742187 89.03742188 -16.16015625 89.5859375 C-17.10503906 89.94042969 -18.04992187 90.29492188 -19.0234375 90.66015625 C-20.0134375 90.16515625 -20.0134375 90.16515625 -21.0234375 89.66015625 C-20.31058594 89.01691406 -19.59773438 88.37367188 -18.86328125 87.7109375 C-6.54563681 76.08957982 -0.25948953 63.09701585 0.2890625 46.03515625 C0.15011048 31.49151112 -5.98849379 19.28235803 -15.765625 8.76171875 C-26.59218662 -1.31559985 -38.69061935 -5.0321733 -53.2109375 -4.58984375 C-54.35369141 -4.57179688 -55.49644531 -4.55375 -56.67382812 -4.53515625 C-59.45794797 -4.4885601 -62.24021639 -4.42316413 -65.0234375 -4.33984375 C-47.74204972 -22.28542939 -16.63177117 -12.87135779 0 0 Z " fill="#D9B7A9" transform="translate(164.0234375,283.33984375)"/>
<path d="M0 0 C2.5 1.125 2.5 1.125 5 3 C6.18041615 7.95774782 4.04405829 11.64846303 1.55078125 15.8203125 C-2.30971689 21.24640309 -7.48629023 25.29566973 -14 27 C-16.89399583 27.15132706 -19.74355567 27.08474769 -22.64013672 27.0065918 C-36.22649149 26.71640777 -43.75139485 29.40019703 -53.8828125 38.20605469 C-57.71734196 41.4551463 -61.81341911 44.35623826 -65.875 47.3125 C-66.6796167 47.90530762 -67.4842334 48.49811523 -68.31323242 49.10888672 C-86.16487609 62.2611708 -86.16487609 62.2611708 -94 62 C-98.61020532 60.54010165 -102.03523902 58.87699512 -105 55 C-105.75 52.25 -105.75 52.25 -106 50 C-105.05125 50.515625 -104.1025 51.03125 -103.125 51.5625 C-98.32222066 53.58529355 -94.00796863 53.19659843 -89 52 C-85.88433441 50.46196134 -83.275852 48.46994726 -80.5625 46.3125 C-79.80606201 45.73886719 -79.04962402 45.16523438 -78.27026367 44.57421875 C-76.66585563 43.35745623 -75.06739856 42.13281185 -73.47460938 40.90087891 C-69.30504355 37.69801392 -65.05299162 34.60791988 -60.8125 31.5 C-59.2770382 30.36499657 -57.74186771 29.22959892 -56.20703125 28.09375 C-55.48620361 27.57224365 -54.76537598 27.0507373 -54.02270508 26.51342773 C-52.01412035 25.05392297 -52.01412035 25.05392297 -50.3112793 23.50415039 C-45.05530444 19.05265342 -39.85373688 19.35907368 -33.1875 19.4375 C-23.65554716 19.5150926 -16.43424078 18.26054447 -8.1875 13.3125 C-4.52254518 9.43811919 -2.36776335 4.73552669 0 0 Z " fill="#ACAFB0" transform="translate(277,204)"/>
<path d="M0 0 C1.25901123 0.24423706 1.25901123 0.24423706 2.54345703 0.4934082 C6.18388312 1.02694996 9.62636598 1.10994359 13.3046875 1.10546875 C14.70704665 1.11892334 16.10939147 1.13394623 17.51171875 1.15039062 C19.69305747 1.17317927 21.8727574 1.18751281 24.05419922 1.17504883 C38.70797407 1.11378446 38.70797407 1.11378446 44.81689453 6.6184082 C46 8 46 8 46 9 C41.76829049 9.0999677 37.5372329 9.17197673 33.3046875 9.21972656 C31.86934413 9.23966189 30.43408003 9.26682074 28.99902344 9.30175781 C19.85153717 9.51864382 10.81213557 9.66167853 3.29296875 3.63085938 C1.875 2.25 1.875 2.25 0 0 Z " fill="#D4D7D9" transform="translate(210,180)"/>
<path d="M0 0 C0.4846875 0.39832031 0.969375 0.79664063 1.46875 1.20703125 C2.1390625 1.73683594 2.809375 2.26664063 3.5 2.8125 C4.1496875 3.33457031 4.799375 3.85664063 5.46875 4.39453125 C12.29226296 8.72240753 18.61087092 9.48529853 26.5 9.6875 C31.2025 9.8421875 31.2025 9.8421875 36 10 C36 18.58 36 27.16 36 36 C35.67 36 35.34 36 35 36 C35 29.73 35 23.46 35 17 C32.40125 17.103125 29.8025 17.20625 27.125 17.3125 C18.50577708 17.42151071 12.35861961 16.05359651 5.87890625 10.02734375 C2.90569187 6.82680111 0.78871456 4.37201035 0 0 Z " fill="#ACAEAF" transform="translate(135,214)"/>
</svg>
